<?xml version="1.0" encoding="utf-8"?>
<!-- Generator: Adobe Illustrator 23.0.1, SVG Export Plug-In . SVG Version: 6.00 Build 0)  -->
<svg version="1.1" xmlns="http://www.w3.org/2000/svg" xmlns:xlink="http://www.w3.org/1999/xlink" x="0px" y="0px"
	 viewBox="0 0 50 50" style="enable-background:new 0 0 50 50;" xml:space="preserve">
<style type="text/css">
	.st0{fill:none;stroke:#000000;stroke-miterlimit:10;}
	.st1{fill:#C46F24;}
	.st2{opacity:0.5;fill:#C46F24;}
	.st3{fill:#FFFFFF;stroke:#000000;stroke-width:7;stroke-miterlimit:10;}
	.st4{fill:none;stroke:#000000;stroke-width:7;stroke-linecap:round;stroke-miterlimit:10;}
	.st5{fill:#FFFFFF;stroke:#000000;stroke-width:5;stroke-miterlimit:10;}
	.st6{fill:none;stroke:#000000;stroke-width:3;stroke-linecap:round;stroke-miterlimit:10;}
	.st7{fill:#F15A24;stroke:#FFFFFF;stroke-width:5;stroke-linecap:round;stroke-linejoin:round;stroke-miterlimit:10;}
	.st8{fill:none;stroke:#000000;stroke-width:5;stroke-linecap:round;stroke-linejoin:round;stroke-miterlimit:10;}
	.st9{fill:none;stroke:#000000;stroke-width:3;stroke-linecap:round;stroke-linejoin:round;stroke-miterlimit:10;}
	.st10{fill:#FFFFFF;}
	.st11{fill:#FFFFFF;stroke:#333333;stroke-width:5;stroke-linecap:round;stroke-linejoin:round;stroke-miterlimit:10;}
	.st12{fill:none;stroke:#333333;stroke-width:5;stroke-linecap:round;stroke-linejoin:round;stroke-dasharray:4.088,10.22;}
	.st13{fill:#FFFFFF;stroke:#333333;stroke-width:3;stroke-linecap:round;stroke-linejoin:round;stroke-miterlimit:10;}
	.st14{fill:none;stroke:#FFFFFF;stroke-width:5;stroke-linecap:round;stroke-linejoin:round;stroke-miterlimit:10;}
	.st15{fill:none;stroke:#FFFFFF;stroke-width:3;stroke-linecap:round;stroke-linejoin:round;stroke-miterlimit:10;}
	.st16{fill:none;stroke:#969696;stroke-width:5;stroke-miterlimit:10;}
	.st17{fill:#B3B3B3;stroke:#4D4D4D;stroke-width:3;stroke-linecap:round;stroke-linejoin:round;stroke-miterlimit:10;}
	.st18{fill:#B3B3B3;stroke:#4D4D4D;stroke-width:5;stroke-linecap:round;stroke-linejoin:round;stroke-miterlimit:10;}
	.st19{fill:none;stroke:#4D4D4D;stroke-width:3;stroke-linecap:round;stroke-linejoin:round;stroke-miterlimit:10;}
	.st20{fill:#FFFFFF;stroke:#000000;stroke-miterlimit:10;}
	.st21{fill:none;stroke:#000000;stroke-width:3;stroke-miterlimit:10;}
	.st22{fill:none;stroke:#FFFFFF;stroke-width:5;stroke-linecap:round;stroke-linejoin:round;}
	.st23{fill:none;stroke:#FFFFFF;stroke-width:5;stroke-linecap:round;stroke-linejoin:round;stroke-dasharray:3.2727,9.8182;}
	.st24{fill:none;stroke:#333333;stroke-width:3;stroke-linecap:round;stroke-linejoin:round;stroke-miterlimit:10;}
	.st25{fill:none;stroke:#333333;stroke-width:5;stroke-linecap:round;stroke-linejoin:round;stroke-miterlimit:10;}
	.st26{fill:none;stroke:#333333;stroke-width:2;stroke-linecap:round;stroke-linejoin:round;stroke-miterlimit:10;}
	.st27{fill:none;stroke:#E6E6E6;stroke-width:5;stroke-linecap:round;stroke-linejoin:round;stroke-miterlimit:10;}
	.st28{fill:#1EB287;}
	.st29{fill:#DEEDCB;}
	.st30{fill:#505305;}
	.st31{fill:#186435;}
	.st32{fill:#A44F79;}
	.st33{fill:#2AB188;}
	.st34{fill:#A35915;}
	.st35{fill:#4D4D4D;}
	.st36{fill:#F6B330;}
	.st37{fill:#324872;}
	.st38{fill:#2BA270;}
	.st39{fill:#53A4EA;}
	.st40{fill:#3BA2A0;}
	.st41{fill:#1792CD;}
	.st42{fill:#0C2E3D;}
	.st43{fill:#35761B;}
	.st44{fill:#0C6364;}
	.st45{fill:#F4A519;}
	.st46{opacity:0.06;fill:#3B9910;}
	.st47{opacity:0.06;fill:#E56200;}
	.st48{opacity:0.06;fill:#2E5799;}
	.st49{opacity:0.06;fill:#007F7C;}
	.st50{opacity:0.06;fill:#00B7FF;}
	.st51{opacity:0.06;fill:#FF9D00;}
	.st52{opacity:0.06;fill:#00CC8D;}
	.st53{fill:none;stroke:#FFFFFF;stroke-width:5;stroke-linecap:round;stroke-miterlimit:10;}
	.st54{fill:none;stroke:#FFFFFF;stroke-width:3;stroke-linecap:round;stroke-miterlimit:10;}
	.st55{fill:#F15A24;}
	.st56{fill:#F15A24;stroke:#000000;stroke-width:5;stroke-linecap:round;stroke-linejoin:round;stroke-miterlimit:10;}
	.st57{fill:none;stroke:#000000;stroke-width:5;stroke-miterlimit:10;}
	.st58{fill:#FFFFFF;stroke:#000000;stroke-width:3;stroke-miterlimit:10;}
	.st59{opacity:0.8;enable-background:new    ;}
	.st60{clip-path:url(#SVGID_2_);}
	.st61{clip-path:url(#SVGID_4_);}
	.st62{clip-path:url(#SVGID_6_);fill:#333333;}
	.st63{clip-path:url(#SVGID_8_);}
	.st64{clip-path:url(#SVGID_10_);fill:#333333;}
	.st65{clip-path:url(#SVGID_12_);}
	.st66{clip-path:url(#SVGID_14_);}
	.st67{clip-path:url(#SVGID_16_);fill:#333333;}
	.st68{clip-path:url(#SVGID_18_);}
	.st69{clip-path:url(#SVGID_20_);fill:#333333;}
	.st70{clip-path:url(#SVGID_22_);}
	.st71{clip-path:url(#SVGID_24_);fill:#333333;}
	.st72{clip-path:url(#SVGID_26_);}
	.st73{clip-path:url(#SVGID_28_);fill:#333333;}
	.st74{clip-path:url(#SVGID_30_);}
	.st75{clip-path:url(#SVGID_32_);fill:#333333;}
	.st76{clip-path:url(#SVGID_34_);}
	.st77{clip-path:url(#SVGID_36_);fill:#333333;}
	.st78{clip-path:url(#SVGID_38_);}
	.st79{clip-path:url(#SVGID_40_);fill:#333333;}
	.st80{clip-path:url(#SVGID_42_);}
	.st81{clip-path:url(#SVGID_44_);fill:#333333;}
	.st82{clip-path:url(#SVGID_46_);}
	.st83{clip-path:url(#SVGID_48_);fill:#333333;}
	.st84{clip-path:url(#SVGID_50_);}
	.st85{clip-path:url(#SVGID_52_);fill:#333333;}
	.st86{clip-path:url(#SVGID_54_);}
	.st87{clip-path:url(#SVGID_56_);fill:#333333;}
	.st88{clip-path:url(#SVGID_58_);}
	.st89{clip-path:url(#SVGID_60_);fill:#333333;}
	.st90{clip-path:url(#SVGID_62_);}
	.st91{clip-path:url(#SVGID_64_);}
	.st92{clip-path:url(#SVGID_66_);enable-background:new    ;}
	.st93{clip-path:url(#SVGID_68_);}
	.st94{clip-path:url(#SVGID_70_);}
	.st95{clip-path:url(#SVGID_72_);fill:#333333;}
	.st96{clip-path:url(#SVGID_74_);}
	.st97{clip-path:url(#SVGID_76_);}
	.st98{clip-path:url(#SVGID_78_);fill:#333333;}
	.st99{clip-path:url(#SVGID_80_);}
	.st100{clip-path:url(#SVGID_82_);fill:#333333;}
	.st101{clip-path:url(#SVGID_84_);}
	.st102{clip-path:url(#SVGID_86_);}
	.st103{clip-path:url(#SVGID_88_);fill:#333333;}
	.st104{clip-path:url(#SVGID_90_);}
	.st105{clip-path:url(#SVGID_92_);fill:#333333;}
	.st106{clip-path:url(#SVGID_94_);}
	.st107{clip-path:url(#SVGID_96_);fill:#333333;}
	.st108{clip-path:url(#SVGID_98_);}
	.st109{clip-path:url(#SVGID_100_);fill:#333333;}
	.st110{opacity:0.8;clip-path:url(#SVGID_102_);fill:#333333;}
</style>
<g id="Layer_2">
</g>
<g id="Layer_3">
</g>
<g id="Layer_4">
</g>
<g id="Layer_1">
	<g>
		<path d="M43.9,5.87h-5.14c-0.75,0-1.36-0.61-1.36-1.36v0c0-1.31-0.94-2.5-2.24-2.63c-1.5-0.15-2.76,1.02-2.76,2.49v0.14
			c0,0.75-0.61,1.36-1.36,1.36H18.76c-0.75,0-1.36-0.61-1.36-1.36v0c0-1.31-0.94-2.5-2.24-2.63c-1.5-0.15-2.76,1.02-2.76,2.49v0.14
			c0,0.75-0.61,1.36-1.36,1.36H5.9c-1.38,0-2.5,1.12-2.5,2.5v38c0,1.38,1.12,2.5,2.5,2.5h38c1.38,0,2.5-1.12,2.5-2.5v-38
			C46.4,6.99,45.28,5.87,43.9,5.87z M12.11,10.87c0.71,0,1.28,0.57,1.28,1.28v2.22c0,0.83,0.67,1.5,1.5,1.5s1.5-0.67,1.5-1.5v-2.22
			c0-0.71,0.57-1.28,1.28-1.28h14.43c0.71,0,1.28,0.57,1.28,1.28v2.22c0,0.83,0.67,1.5,1.5,1.5s1.5-0.67,1.5-1.5v-2.22
			c0-0.71,0.57-1.28,1.28-1.28h1.39c1.29,0,2.33,1.04,2.33,2.33v4.34c0,1.29-1.04,2.33-2.33,2.33H10.73c-1.29,0-2.33-1.04-2.33-2.33
			V13.2c0-1.29,1.04-2.33,2.33-2.33H12.11z M8.4,41.54V25.2c0-1.29,1.04-2.33,2.33-2.33h28.34c1.29,0,2.33,1.04,2.33,2.33v16.34
			c0,1.29-1.04,2.33-2.33,2.33H10.73C9.44,43.87,8.4,42.82,8.4,41.54z"/>
		<path d="M23.39,31.33c-0.72,0.27-1.56-0.05-1.9-0.78c-0.33-0.71-0.01-1.56,0.67-1.95l2.55-1.46c0.6-0.34,1.38-0.24,1.87,0.31
			c0.25,0.28,0.37,0.66,0.37,1.03v9.75c0,0.82-0.63,1.54-1.45,1.56c-0.85,0.03-1.55-0.66-1.55-1.5v-6.76c0-0.21-0.22-0.36-0.41-0.27
			C23.5,31.29,23.45,31.31,23.39,31.33z"/>
	</g>
</g>
</svg>
