<?xml version="1.0" encoding="utf-8"?>
<!-- Generator: Adobe Illustrator 24.1.3, SVG Export Plug-In . SVG Version: 6.00 Build 0)  -->
<svg version="1.1" xmlns="http://www.w3.org/2000/svg" xmlns:xlink="http://www.w3.org/1999/xlink" x="0px" y="0px"
	 viewBox="0 0 50 50" style="enable-background:new 0 0 50 50;" xml:space="preserve">
<style type="text/css">
	.st0{fill:none;stroke:#000000;stroke-miterlimit:10;}
	.st1{fill:#C46F24;}
	.st2{opacity:0.5;fill:#C46F24;}
	.st3{fill:#C1631E;}
	.st4{fill:#FFFFFF;stroke:#000000;stroke-width:7;stroke-linecap:round;stroke-linejoin:round;stroke-miterlimit:10;}
	.st5{fill:#FFFFFF;stroke:#000000;stroke-width:7;stroke-miterlimit:10;}
	.st6{fill:none;stroke:#000000;stroke-width:7;stroke-linecap:round;stroke-miterlimit:10;}
	.st7{fill:#FFFFFF;stroke:#000000;stroke-width:5;stroke-miterlimit:10;}
	.st8{fill:none;stroke:#000000;stroke-width:3;stroke-linecap:round;stroke-miterlimit:10;}
	.st9{fill:#F15A24;stroke:#FFFFFF;stroke-width:5;stroke-linecap:round;stroke-linejoin:round;stroke-miterlimit:10;}
	.st10{fill:none;stroke:#000000;stroke-width:5;stroke-linecap:round;stroke-linejoin:round;stroke-miterlimit:10;}
	.st11{fill:none;stroke:#000000;stroke-width:3;stroke-linecap:round;stroke-linejoin:round;stroke-miterlimit:10;}
	.st12{fill:#FFFFFF;}
	.st13{fill:#FFFFFF;stroke:#333333;stroke-width:5;stroke-linecap:round;stroke-linejoin:round;stroke-miterlimit:10;}
	.st14{fill:none;stroke:#333333;stroke-width:5;stroke-linecap:round;stroke-linejoin:round;stroke-dasharray:4.088,10.22;}
	.st15{fill:#FFFFFF;stroke:#333333;stroke-width:3;stroke-linecap:round;stroke-linejoin:round;stroke-miterlimit:10;}
	.st16{fill:none;stroke:#FFFFFF;stroke-width:5;stroke-linecap:round;stroke-linejoin:round;stroke-miterlimit:10;}
	.st17{fill:none;stroke:#FFFFFF;stroke-width:3;stroke-linecap:round;stroke-linejoin:round;stroke-miterlimit:10;}
	.st18{fill:none;stroke:#969696;stroke-width:5;stroke-miterlimit:10;}
	.st19{fill:#B3B3B3;stroke:#4D4D4D;stroke-width:3;stroke-linecap:round;stroke-linejoin:round;stroke-miterlimit:10;}
	.st20{fill:#B3B3B3;stroke:#4D4D4D;stroke-width:5;stroke-linecap:round;stroke-linejoin:round;stroke-miterlimit:10;}
	.st21{fill:none;stroke:#4D4D4D;stroke-width:3;stroke-linecap:round;stroke-linejoin:round;stroke-miterlimit:10;}
	.st22{fill:#FFFFFF;stroke:#000000;stroke-miterlimit:10;}
	.st23{fill:none;stroke:#000000;stroke-width:3;stroke-miterlimit:10;}
	.st24{fill:none;stroke:#FFFFFF;stroke-width:5;stroke-linecap:round;stroke-linejoin:round;}
	.st25{fill:none;stroke:#FFFFFF;stroke-width:5;stroke-linecap:round;stroke-linejoin:round;stroke-dasharray:3.2727,9.8182;}
	.st26{fill:none;stroke:#333333;stroke-width:3;stroke-linecap:round;stroke-linejoin:round;stroke-miterlimit:10;}
	.st27{fill:none;stroke:#333333;stroke-width:5;stroke-linecap:round;stroke-linejoin:round;stroke-miterlimit:10;}
	.st28{fill:none;stroke:#333333;stroke-width:2;stroke-linecap:round;stroke-linejoin:round;stroke-miterlimit:10;}
	.st29{fill:none;stroke:#E6E6E6;stroke-width:5;stroke-linecap:round;stroke-linejoin:round;stroke-miterlimit:10;}
	.st30{fill:#1EB287;}
	.st31{fill:#DEEDCB;}
	.st32{fill:#505305;}
	.st33{fill:#186435;}
	.st34{fill:#A44F79;}
	.st35{fill:#2AB188;}
	.st36{fill:#A35915;}
	.st37{fill:#4D4D4D;}
	.st38{fill:#F6B330;}
	.st39{fill:#324872;}
	.st40{fill:#2BA270;}
	.st41{fill:#53A4EA;}
	.st42{fill:#3BA2A0;}
	.st43{fill:#1792CD;}
	.st44{fill:#0C2E3D;}
	.st45{fill:#35761B;}
	.st46{fill:#0C6364;}
	.st47{fill:#F4A519;}
	.st48{opacity:0.06;fill:#3B9910;}
	.st49{opacity:0.06;fill:#E56200;}
	.st50{opacity:0.06;fill:#2E5799;}
	.st51{opacity:0.06;fill:#007F7C;}
	.st52{opacity:0.06;fill:#00B7FF;}
	.st53{opacity:0.06;fill:#FF9D00;}
	.st54{opacity:0.06;fill:#00CC8D;}
	.st55{fill:#91A7B4;}
	.st56{fill:#9F6300;}
	.st57{fill:#07B386;}
	.st58{fill:#FF4D2D;}
	.st59{fill:#F9FBFC;}
	.st60{fill:#FBF7F0;}
	.st61{fill:#F0F8F8;}
	.st62{fill:#F1FCF9;}
	.st63{fill:#FFF7F6;}
	.st64{fill:#AF8761;}
	.st65{fill:#FFF8F3;}
	.st66{fill:none;stroke:#FFFFFF;stroke-width:5;stroke-linecap:round;stroke-miterlimit:10;}
	.st67{fill:none;stroke:#FFFFFF;stroke-width:3;stroke-linecap:round;stroke-miterlimit:10;}
	.st68{fill:#F15A24;}
	.st69{fill:#F15A24;stroke:#000000;stroke-width:5;stroke-linecap:round;stroke-linejoin:round;stroke-miterlimit:10;}
	.st70{fill:none;stroke:#000000;stroke-width:5;stroke-miterlimit:10;}
	.st71{fill:#FFFFFF;stroke:#000000;stroke-width:3;stroke-miterlimit:10;}
	.st72{opacity:0.8;enable-background:new    ;}
	.st73{clip-path:url(#SVGID_2_);}
	.st74{clip-path:url(#SVGID_4_);}
	.st75{clip-path:url(#SVGID_6_);fill:#333333;}
	.st76{clip-path:url(#SVGID_8_);}
	.st77{clip-path:url(#SVGID_10_);fill:#333333;}
	.st78{clip-path:url(#SVGID_12_);}
	.st79{clip-path:url(#SVGID_14_);}
	.st80{clip-path:url(#SVGID_16_);fill:#333333;}
	.st81{clip-path:url(#SVGID_18_);}
	.st82{clip-path:url(#SVGID_20_);fill:#333333;}
	.st83{clip-path:url(#SVGID_22_);}
	.st84{clip-path:url(#SVGID_24_);fill:#333333;}
	.st85{clip-path:url(#SVGID_26_);}
	.st86{clip-path:url(#SVGID_28_);fill:#333333;}
	.st87{clip-path:url(#SVGID_30_);}
	.st88{clip-path:url(#SVGID_32_);fill:#333333;}
	.st89{clip-path:url(#SVGID_34_);}
	.st90{clip-path:url(#SVGID_36_);fill:#333333;}
	.st91{clip-path:url(#SVGID_38_);}
	.st92{clip-path:url(#SVGID_40_);fill:#333333;}
	.st93{clip-path:url(#SVGID_42_);}
	.st94{clip-path:url(#SVGID_44_);fill:#333333;}
	.st95{clip-path:url(#SVGID_46_);}
	.st96{clip-path:url(#SVGID_48_);fill:#333333;}
	.st97{clip-path:url(#SVGID_50_);}
	.st98{clip-path:url(#SVGID_52_);fill:#333333;}
	.st99{clip-path:url(#SVGID_54_);}
	.st100{clip-path:url(#SVGID_56_);fill:#333333;}
	.st101{clip-path:url(#SVGID_58_);}
	.st102{clip-path:url(#SVGID_60_);fill:#333333;}
	.st103{clip-path:url(#SVGID_62_);}
	.st104{clip-path:url(#SVGID_64_);}
	.st105{clip-path:url(#SVGID_66_);enable-background:new    ;}
	.st106{clip-path:url(#SVGID_68_);}
	.st107{clip-path:url(#SVGID_70_);}
	.st108{clip-path:url(#SVGID_72_);fill:#333333;}
	.st109{clip-path:url(#SVGID_74_);}
	.st110{clip-path:url(#SVGID_76_);}
	.st111{clip-path:url(#SVGID_78_);fill:#333333;}
	.st112{clip-path:url(#SVGID_80_);}
	.st113{clip-path:url(#SVGID_82_);fill:#333333;}
	.st114{clip-path:url(#SVGID_84_);}
	.st115{clip-path:url(#SVGID_86_);}
	.st116{clip-path:url(#SVGID_88_);fill:#333333;}
	.st117{clip-path:url(#SVGID_90_);}
	.st118{clip-path:url(#SVGID_92_);fill:#333333;}
	.st119{clip-path:url(#SVGID_94_);}
	.st120{clip-path:url(#SVGID_96_);fill:#333333;}
	.st121{clip-path:url(#SVGID_98_);}
	.st122{clip-path:url(#SVGID_100_);fill:#333333;}
	.st123{opacity:0.8;clip-path:url(#SVGID_102_);fill:#333333;}
	.st124{fill:#FFFFFF;stroke:#000000;stroke-width:7;stroke-linecap:round;stroke-miterlimit:10;}
	.st125{fill:#FFFFFF;stroke:#000000;stroke-width:3;stroke-linecap:round;stroke-miterlimit:10;}
	.st126{fill:#FFFFFF;stroke:#000000;stroke-width:3;stroke-linecap:round;stroke-linejoin:round;stroke-miterlimit:10;}
	.st127{fill:#FFFFFF;stroke:#000000;stroke-width:5;stroke-linecap:round;stroke-linejoin:round;stroke-miterlimit:10;}
	.st128{opacity:0.8;}
	.st129{opacity:0.8;fill:#FFFFFF;}
	.st130{fill:none;stroke:#FFFFFF;stroke-width:6;stroke-miterlimit:10;}
	.st131{fill:none;stroke:#FFFFFF;stroke-width:3;stroke-miterlimit:10;}
	.st132{opacity:0.2;fill:url(#SVGID_103_);}
	.st133{fill:#D8EAD2;}
	.st134{opacity:0.2;fill:url(#SVGID_104_);}
	.st135{opacity:0.06;fill:#E07127;}
	.st136{fill:#FFFFFF;stroke:#00B485;stroke-width:5;stroke-linecap:round;stroke-linejoin:round;stroke-miterlimit:10;}
</style>
<g id="Layer_2">
</g>
<g id="Layer_3">
</g>
<g id="Layer_4">
</g>
<g id="Layer_1">
	<g>
		<path d="M46.86,22.5l-3.1,0c-0.82,0-1.53-0.57-1.71-1.37c-1.47-6.45-6.53-11.65-13.14-13.17C28.09,7.78,27.5,7.05,27.5,6.2l0-3.06
			c0-1.31-0.94-2.5-2.24-2.63C23.76,0.36,22.5,1.53,22.5,3v3.24c0,0.82-0.57,1.52-1.37,1.71C14.68,9.42,9.48,14.48,7.97,21.09
			C7.78,21.91,7.05,22.5,6.2,22.5l-3.06,0c-1.31,0-2.5,0.94-2.63,2.24C0.36,26.24,1.53,27.5,3,27.5h3.19c0.84,0,1.58,0.58,1.76,1.4
			c0.61,2.69,1.84,5.21,3.67,7.37c2.48,2.94,5.79,4.93,9.48,5.76c0.82,0.19,1.4,0.92,1.4,1.76l0,3.06c0,1.31,0.94,2.5,2.24,2.63
			c1.5,0.15,2.76-1.02,2.76-2.49v-3.24c0-0.82,0.57-1.53,1.37-1.71c6.45-1.47,11.66-6.53,13.17-13.14c0.19-0.83,0.92-1.41,1.77-1.41
			H47c1.47,0,2.64-1.26,2.49-2.76C49.36,23.44,48.17,22.5,46.86,22.5z M28.31,37.05c-0.91,0.25-1.81-0.41-1.81-1.36v-3.91
			c0-0.83-0.67-1.5-1.5-1.5s-1.5,0.67-1.5,1.5v3.9c0,0.91-0.86,1.61-1.73,1.38c-2.46-0.65-4.65-2.03-6.32-4.01
			c-1.2-1.43-2.05-3.07-2.52-4.82c-0.23-0.88,0.47-1.73,1.38-1.73h3.92c0.83,0,1.5-0.67,1.5-1.5s-0.67-1.5-1.5-1.5h-3.9
			c-0.94,0-1.6-0.91-1.35-1.82c1.17-4.27,4.54-7.57,8.72-8.73c0.91-0.25,1.81,0.41,1.81,1.36v3.91c0,0.83,0.67,1.5,1.5,1.5
			s1.5-0.67,1.5-1.5v-3.9c0-0.94,0.91-1.6,1.82-1.35c4.27,1.17,7.57,4.54,8.73,8.72c0.25,0.91-0.41,1.81-1.36,1.81h-3.91
			c-0.83,0-1.5,0.67-1.5,1.5s0.67,1.5,1.5,1.5h3.9c0.95,0,1.6,0.91,1.35,1.82C35.86,32.59,32.5,35.89,28.31,37.05z"/>
		<circle cx="25" cy="25" r="1.75"/>
	</g>
</g>
</svg>
