<?xml version="1.0" encoding="utf-8"?>
<!-- Generator: Adobe Illustrator 23.0.1, SVG Export Plug-In . SVG Version: 6.00 Build 0)  -->
<svg version="1.1" xmlns="http://www.w3.org/2000/svg" xmlns:xlink="http://www.w3.org/1999/xlink" x="0px" y="0px"
	 viewBox="0 0 50 50" style="enable-background:new 0 0 50 50;" xml:space="preserve">
<style type="text/css">
	.st0{fill:none;stroke:#000000;stroke-miterlimit:10;}
	.st1{fill:#C46F24;}
	.st2{opacity:0.5;fill:#C46F24;}
	.st3{fill:#FFFFFF;stroke:#000000;stroke-width:7;stroke-miterlimit:10;}
	.st4{fill:none;stroke:#000000;stroke-width:7;stroke-linecap:round;stroke-miterlimit:10;}
	.st5{fill:#FFFFFF;stroke:#000000;stroke-width:5;stroke-miterlimit:10;}
	.st6{fill:none;stroke:#000000;stroke-width:3;stroke-linecap:round;stroke-miterlimit:10;}
	.st7{fill:#F15A24;stroke:#FFFFFF;stroke-width:5;stroke-linecap:round;stroke-linejoin:round;stroke-miterlimit:10;}
	.st8{fill:none;stroke:#000000;stroke-width:5;stroke-linecap:round;stroke-linejoin:round;stroke-miterlimit:10;}
	.st9{fill:none;stroke:#000000;stroke-width:3;stroke-linecap:round;stroke-linejoin:round;stroke-miterlimit:10;}
	.st10{fill:#FFFFFF;}
	.st11{fill:#FFFFFF;stroke:#333333;stroke-width:5;stroke-linecap:round;stroke-linejoin:round;stroke-miterlimit:10;}
	.st12{fill:none;stroke:#333333;stroke-width:5;stroke-linecap:round;stroke-linejoin:round;stroke-dasharray:4.088,10.22;}
	.st13{fill:#FFFFFF;stroke:#333333;stroke-width:3;stroke-linecap:round;stroke-linejoin:round;stroke-miterlimit:10;}
	.st14{fill:none;stroke:#FFFFFF;stroke-width:5;stroke-linecap:round;stroke-linejoin:round;stroke-miterlimit:10;}
	.st15{fill:none;stroke:#FFFFFF;stroke-width:3;stroke-linecap:round;stroke-linejoin:round;stroke-miterlimit:10;}
	.st16{fill:none;stroke:#969696;stroke-width:5;stroke-miterlimit:10;}
	.st17{fill:#B3B3B3;stroke:#4D4D4D;stroke-width:3;stroke-linecap:round;stroke-linejoin:round;stroke-miterlimit:10;}
	.st18{fill:#B3B3B3;stroke:#4D4D4D;stroke-width:5;stroke-linecap:round;stroke-linejoin:round;stroke-miterlimit:10;}
	.st19{fill:none;stroke:#4D4D4D;stroke-width:3;stroke-linecap:round;stroke-linejoin:round;stroke-miterlimit:10;}
	.st20{fill:#FFFFFF;stroke:#000000;stroke-miterlimit:10;}
	.st21{fill:none;stroke:#000000;stroke-width:3;stroke-miterlimit:10;}
	.st22{fill:none;stroke:#FFFFFF;stroke-width:5;stroke-linecap:round;stroke-linejoin:round;}
	.st23{fill:none;stroke:#FFFFFF;stroke-width:5;stroke-linecap:round;stroke-linejoin:round;stroke-dasharray:3.2727,9.8182;}
	.st24{fill:none;stroke:#333333;stroke-width:3;stroke-linecap:round;stroke-linejoin:round;stroke-miterlimit:10;}
	.st25{fill:none;stroke:#333333;stroke-width:5;stroke-linecap:round;stroke-linejoin:round;stroke-miterlimit:10;}
	.st26{fill:none;stroke:#333333;stroke-width:2;stroke-linecap:round;stroke-linejoin:round;stroke-miterlimit:10;}
	.st27{fill:none;stroke:#E6E6E6;stroke-width:5;stroke-linecap:round;stroke-linejoin:round;stroke-miterlimit:10;}
	.st28{fill:#1EB287;}
	.st29{fill:#DEEDCB;}
	.st30{fill:#505305;}
	.st31{fill:#186435;}
	.st32{fill:#A44F79;}
	.st33{fill:#2AB188;}
	.st34{fill:#A35915;}
	.st35{fill:#4D4D4D;}
	.st36{fill:#F6B330;}
	.st37{fill:#324872;}
	.st38{fill:#2BA270;}
	.st39{fill:#53A4EA;}
	.st40{fill:#3BA2A0;}
	.st41{fill:#1792CD;}
	.st42{fill:#0C2E3D;}
	.st43{fill:#35761B;}
	.st44{fill:#0C6364;}
	.st45{fill:#F4A519;}
	.st46{opacity:0.06;fill:#3B9910;}
	.st47{opacity:0.06;fill:#E56200;}
	.st48{opacity:0.06;fill:#2E5799;}
	.st49{opacity:0.06;fill:#007F7C;}
	.st50{opacity:0.06;fill:#00B7FF;}
	.st51{opacity:0.06;fill:#FF9D00;}
	.st52{opacity:0.06;fill:#00CC8D;}
	.st53{fill:none;stroke:#FFFFFF;stroke-width:5;stroke-linecap:round;stroke-miterlimit:10;}
	.st54{fill:none;stroke:#FFFFFF;stroke-width:3;stroke-linecap:round;stroke-miterlimit:10;}
	.st55{fill:#F15A24;}
	.st56{fill:#F15A24;stroke:#000000;stroke-width:5;stroke-linecap:round;stroke-linejoin:round;stroke-miterlimit:10;}
	.st57{fill:none;stroke:#000000;stroke-width:5;stroke-miterlimit:10;}
	.st58{fill:#FFFFFF;stroke:#000000;stroke-width:3;stroke-miterlimit:10;}
	.st59{opacity:0.8;enable-background:new    ;}
	.st60{clip-path:url(#SVGID_2_);}
	.st61{clip-path:url(#SVGID_4_);}
	.st62{clip-path:url(#SVGID_6_);fill:#333333;}
	.st63{clip-path:url(#SVGID_8_);}
	.st64{clip-path:url(#SVGID_10_);fill:#333333;}
	.st65{clip-path:url(#SVGID_12_);}
	.st66{clip-path:url(#SVGID_14_);}
	.st67{clip-path:url(#SVGID_16_);fill:#333333;}
	.st68{clip-path:url(#SVGID_18_);}
	.st69{clip-path:url(#SVGID_20_);fill:#333333;}
	.st70{clip-path:url(#SVGID_22_);}
	.st71{clip-path:url(#SVGID_24_);fill:#333333;}
	.st72{clip-path:url(#SVGID_26_);}
	.st73{clip-path:url(#SVGID_28_);fill:#333333;}
	.st74{clip-path:url(#SVGID_30_);}
	.st75{clip-path:url(#SVGID_32_);fill:#333333;}
	.st76{clip-path:url(#SVGID_34_);}
	.st77{clip-path:url(#SVGID_36_);fill:#333333;}
	.st78{clip-path:url(#SVGID_38_);}
	.st79{clip-path:url(#SVGID_40_);fill:#333333;}
	.st80{clip-path:url(#SVGID_42_);}
	.st81{clip-path:url(#SVGID_44_);fill:#333333;}
	.st82{clip-path:url(#SVGID_46_);}
	.st83{clip-path:url(#SVGID_48_);fill:#333333;}
	.st84{clip-path:url(#SVGID_50_);}
	.st85{clip-path:url(#SVGID_52_);fill:#333333;}
	.st86{clip-path:url(#SVGID_54_);}
	.st87{clip-path:url(#SVGID_56_);fill:#333333;}
	.st88{clip-path:url(#SVGID_58_);}
	.st89{clip-path:url(#SVGID_60_);fill:#333333;}
	.st90{clip-path:url(#SVGID_62_);}
	.st91{clip-path:url(#SVGID_64_);}
	.st92{clip-path:url(#SVGID_66_);enable-background:new    ;}
	.st93{clip-path:url(#SVGID_68_);}
	.st94{clip-path:url(#SVGID_70_);}
	.st95{clip-path:url(#SVGID_72_);fill:#333333;}
	.st96{clip-path:url(#SVGID_74_);}
	.st97{clip-path:url(#SVGID_76_);}
	.st98{clip-path:url(#SVGID_78_);fill:#333333;}
	.st99{clip-path:url(#SVGID_80_);}
	.st100{clip-path:url(#SVGID_82_);fill:#333333;}
	.st101{clip-path:url(#SVGID_84_);}
	.st102{clip-path:url(#SVGID_86_);}
	.st103{clip-path:url(#SVGID_88_);fill:#333333;}
	.st104{clip-path:url(#SVGID_90_);}
	.st105{clip-path:url(#SVGID_92_);fill:#333333;}
	.st106{clip-path:url(#SVGID_94_);}
	.st107{clip-path:url(#SVGID_96_);fill:#333333;}
	.st108{clip-path:url(#SVGID_98_);}
	.st109{clip-path:url(#SVGID_100_);fill:#333333;}
	.st110{opacity:0.8;clip-path:url(#SVGID_102_);fill:#333333;}
	.st111{fill:#FFFFFF;stroke:#000000;stroke-width:7;stroke-linecap:round;stroke-miterlimit:10;}
	.st112{fill:#FFFFFF;stroke:#000000;stroke-width:3;stroke-linecap:round;stroke-miterlimit:10;}
</style>
<g id="Layer_2">
</g>
<g id="Layer_3">
</g>
<g id="Layer_4">
</g>
<g id="Layer_1">
	<path d="M45.12,18.19L45.12,18.19c-1.03-1.64-2.8-2.75-4.74-2.95c-0.26-0.03-0.52-0.05-0.78-0.06c-1.01-0.06-1.85-0.76-2.18-1.71
		c-1.63-4.73-4.98-8.69-9.43-10.93c-1.85-0.93-4.07-0.93-5.93,0c-4.45,2.24-7.8,6.2-9.43,10.93c-0.33,0.95-1.18,1.65-2.19,1.71
		c-0.27,0.02-0.53,0.04-0.8,0.06c-1.94,0.2-3.72,1.3-4.75,2.95c-3.84,6.15-3.75,14.24,0.24,20.62c3.66,5.86,10.01,9.35,16.53,9.35
		c0.41,0,0.82-0.01,1.23-0.04c1.42-0.1,2.83-0.1,4.25-0.01c6.94,0.47,13.86-3.08,17.75-9.31C48.86,32.43,48.96,24.33,45.12,18.19z
		 M35.05,29.05c-0.7-0.44-1.63-0.22-2.07,0.48l-6.24,9.99c-0.55,0.88-1.91,0.72-2.21-0.27c-1.19-3.92-0.64-8.37,1.69-12.1
		c2.97-4.76,8.32-7.48,13.64-6.93c0.42,0.04,0.8,0.28,1.02,0.62c2.83,4.54,2.74,10.55-0.24,15.32c-2.33,3.73-6.09,6.18-10.14,6.82
		c-1.03,0.16-1.77-0.98-1.22-1.87l6.25-9.99C35.97,30.41,35.76,29.49,35.05,29.05z M21,33.58c-0.06,0.65-0.92,0.85-1.27,0.29
		l-2.75-4.4c-0.44-0.7-1.36-0.92-2.07-0.48c-0.7,0.44-0.92,1.36-0.48,2.07l6.28,10.05c0.55,0.88-0.19,2.03-1.22,1.87
		c-4.04-0.65-7.8-3.09-10.13-6.82c-2.98-4.77-3.07-10.78-0.24-15.32c0.22-0.35,0.6-0.58,1.02-0.62h0c0.45-0.05,0.9-0.07,1.35-0.07
		c3.71,0,7.34,1.55,10.06,4.23c1.04,1.02,1.28,2.57,0.73,3.92C21.58,30,21.15,31.79,21,33.58z M24.29,7.01
		c0.23-0.11,0.47-0.17,0.72-0.17s0.49,0.06,0.72,0.17c4.13,2.07,6.97,6.25,7.62,10.97c-1.74,0.56-3.39,1.4-4.89,2.48
		c-0.81,0.58-1.93,0.01-1.93-0.99v-3.1c0-0.83-0.67-1.5-1.5-1.5s-1.5,0.67-1.5,1.5v3.16c0,1-1.13,1.57-1.94,0.99
		c-1.51-1.1-3.17-1.94-4.92-2.51C17.32,13.26,20.16,9.08,24.29,7.01z"/>
</g>
</svg>
