<?xml version="1.0" encoding="utf-8"?>
<!-- Generator: Adobe Illustrator 24.2.1, SVG Export Plug-In . SVG Version: 6.00 Build 0)  -->
<svg version="1.1" xmlns="http://www.w3.org/2000/svg" xmlns:xlink="http://www.w3.org/1999/xlink" x="0px" y="0px"
	 viewBox="0 0 50 50" style="enable-background:new 0 0 50 50;" xml:space="preserve">
<style type="text/css">
	.st0{fill:none;stroke:#000000;stroke-miterlimit:10;}
	.st1{fill:#C46F24;}
	.st2{opacity:0.5;fill:#C46F24;}
	.st3{fill:#C1631E;}
	.st4{fill:#FFFFFF;stroke:#000000;stroke-width:7;stroke-linecap:round;stroke-linejoin:round;stroke-miterlimit:10;}
	.st5{fill:#FFFFFF;stroke:#000000;stroke-width:7;stroke-miterlimit:10;}
	.st6{fill:none;stroke:#000000;stroke-width:7;stroke-linecap:round;stroke-miterlimit:10;}
	.st7{fill:#FFFFFF;stroke:#000000;stroke-width:5;stroke-miterlimit:10;}
	.st8{fill:none;stroke:#000000;stroke-width:3;stroke-linecap:round;stroke-miterlimit:10;}
	.st9{fill:#F15A24;stroke:#FFFFFF;stroke-width:5;stroke-linecap:round;stroke-linejoin:round;stroke-miterlimit:10;}
	.st10{fill:none;stroke:#000000;stroke-width:5;stroke-linecap:round;stroke-linejoin:round;stroke-miterlimit:10;}
	.st11{fill:none;stroke:#000000;stroke-width:3;stroke-linecap:round;stroke-linejoin:round;stroke-miterlimit:10;}
	.st12{fill:#FFFFFF;}
	.st13{fill:#FFFFFF;stroke:#333333;stroke-width:5;stroke-linecap:round;stroke-linejoin:round;stroke-miterlimit:10;}
	.st14{fill:none;stroke:#333333;stroke-width:5;stroke-linecap:round;stroke-linejoin:round;stroke-dasharray:4.088,10.22;}
	.st15{fill:#FFFFFF;stroke:#333333;stroke-width:3;stroke-linecap:round;stroke-linejoin:round;stroke-miterlimit:10;}
	.st16{fill:none;stroke:#FFFFFF;stroke-width:5;stroke-linecap:round;stroke-linejoin:round;stroke-miterlimit:10;}
	.st17{fill:none;stroke:#FFFFFF;stroke-width:3;stroke-linecap:round;stroke-linejoin:round;stroke-miterlimit:10;}
	.st18{fill:none;stroke:#969696;stroke-width:5;stroke-miterlimit:10;}
	.st19{fill:#B3B3B3;stroke:#4D4D4D;stroke-width:3;stroke-linecap:round;stroke-linejoin:round;stroke-miterlimit:10;}
	.st20{fill:#B3B3B3;stroke:#4D4D4D;stroke-width:5;stroke-linecap:round;stroke-linejoin:round;stroke-miterlimit:10;}
	.st21{fill:none;stroke:#4D4D4D;stroke-width:3;stroke-linecap:round;stroke-linejoin:round;stroke-miterlimit:10;}
	.st22{fill:#FFFFFF;stroke:#000000;stroke-miterlimit:10;}
	.st23{fill:none;stroke:#000000;stroke-width:3;stroke-miterlimit:10;}
	.st24{fill:none;stroke:#FFFFFF;stroke-width:5;stroke-linecap:round;stroke-linejoin:round;}
	.st25{fill:none;stroke:#FFFFFF;stroke-width:5;stroke-linecap:round;stroke-linejoin:round;stroke-dasharray:3.2727,9.8182;}
	.st26{fill:none;stroke:#333333;stroke-width:3;stroke-linecap:round;stroke-linejoin:round;stroke-miterlimit:10;}
	.st27{fill:none;stroke:#333333;stroke-width:5;stroke-linecap:round;stroke-linejoin:round;stroke-miterlimit:10;}
	.st28{fill:none;stroke:#333333;stroke-width:2;stroke-linecap:round;stroke-linejoin:round;stroke-miterlimit:10;}
	.st29{fill:none;stroke:#E6E6E6;stroke-width:5;stroke-linecap:round;stroke-linejoin:round;stroke-miterlimit:10;}
	.st30{fill:#1EB287;}
	.st31{fill:#DEEDCB;}
	.st32{fill:#505305;}
	.st33{fill:#186435;}
	.st34{fill:#A44F79;}
	.st35{fill:#2AB188;}
	.st36{fill:#A35915;}
	.st37{fill:#4D4D4D;}
	.st38{fill:#F6B330;}
	.st39{fill:#324872;}
	.st40{fill:#2BA270;}
	.st41{fill:#53A4EA;}
	.st42{fill:#3BA2A0;}
	.st43{fill:#1792CD;}
	.st44{fill:#0C2E3D;}
	.st45{fill:#35761B;}
	.st46{fill:#0C6364;}
	.st47{fill:#F4A519;}
	.st48{opacity:0.06;fill:#3B9910;}
	.st49{opacity:0.06;fill:#E56200;}
	.st50{opacity:0.06;fill:#2E5799;}
	.st51{opacity:0.06;fill:#007F7C;}
	.st52{opacity:0.06;fill:#00B7FF;}
	.st53{opacity:0.06;fill:#FF9D00;}
	.st54{opacity:0.06;fill:#00CC8D;}
	.st55{fill:#91A7B4;}
	.st56{fill:#9F6300;}
	.st57{fill:#07B386;}
	.st58{fill:#FF4D2D;}
	.st59{fill:#F9FBFC;}
	.st60{fill:#FBF7F0;}
	.st61{fill:#F0F8F8;}
	.st62{fill:#F1FCF9;}
	.st63{fill:#FFF7F6;}
	.st64{fill:#AF8761;}
	.st65{fill:#FFF8F3;}
	.st66{fill:none;stroke:#FFFFFF;stroke-width:5;stroke-linecap:round;stroke-miterlimit:10;}
	.st67{fill:none;stroke:#FFFFFF;stroke-width:3;stroke-linecap:round;stroke-miterlimit:10;}
	.st68{fill:#F15A24;}
	.st69{fill:#F15A24;stroke:#000000;stroke-width:5;stroke-linecap:round;stroke-linejoin:round;stroke-miterlimit:10;}
	.st70{fill:none;stroke:#000000;stroke-width:5;stroke-miterlimit:10;}
	.st71{fill:#FFFFFF;stroke:#000000;stroke-width:3;stroke-miterlimit:10;}
	.st72{opacity:0.8;enable-background:new    ;}
	.st73{clip-path:url(#SVGID_2_);}
	.st74{clip-path:url(#SVGID_4_);}
	.st75{clip-path:url(#SVGID_6_);fill:#333333;}
	.st76{clip-path:url(#SVGID_8_);}
	.st77{clip-path:url(#SVGID_10_);fill:#333333;}
	.st78{clip-path:url(#SVGID_12_);}
	.st79{clip-path:url(#SVGID_14_);}
	.st80{clip-path:url(#SVGID_16_);fill:#333333;}
	.st81{clip-path:url(#SVGID_18_);}
	.st82{clip-path:url(#SVGID_20_);fill:#333333;}
	.st83{clip-path:url(#SVGID_22_);}
	.st84{clip-path:url(#SVGID_24_);fill:#333333;}
	.st85{clip-path:url(#SVGID_26_);}
	.st86{clip-path:url(#SVGID_28_);fill:#333333;}
	.st87{clip-path:url(#SVGID_30_);}
	.st88{clip-path:url(#SVGID_32_);fill:#333333;}
	.st89{clip-path:url(#SVGID_34_);}
	.st90{clip-path:url(#SVGID_36_);fill:#333333;}
	.st91{clip-path:url(#SVGID_38_);}
	.st92{clip-path:url(#SVGID_40_);fill:#333333;}
	.st93{clip-path:url(#SVGID_42_);}
	.st94{clip-path:url(#SVGID_44_);fill:#333333;}
	.st95{clip-path:url(#SVGID_46_);}
	.st96{clip-path:url(#SVGID_48_);fill:#333333;}
	.st97{clip-path:url(#SVGID_50_);}
	.st98{clip-path:url(#SVGID_52_);fill:#333333;}
	.st99{clip-path:url(#SVGID_54_);}
	.st100{clip-path:url(#SVGID_56_);fill:#333333;}
	.st101{clip-path:url(#SVGID_58_);}
	.st102{clip-path:url(#SVGID_60_);fill:#333333;}
	.st103{clip-path:url(#SVGID_62_);}
	.st104{clip-path:url(#SVGID_64_);}
	.st105{clip-path:url(#SVGID_66_);enable-background:new    ;}
	.st106{clip-path:url(#SVGID_68_);}
	.st107{clip-path:url(#SVGID_70_);}
	.st108{clip-path:url(#SVGID_72_);fill:#333333;}
	.st109{clip-path:url(#SVGID_74_);}
	.st110{clip-path:url(#SVGID_76_);}
	.st111{clip-path:url(#SVGID_78_);fill:#333333;}
	.st112{clip-path:url(#SVGID_80_);}
	.st113{clip-path:url(#SVGID_82_);fill:#333333;}
	.st114{clip-path:url(#SVGID_84_);}
	.st115{clip-path:url(#SVGID_86_);}
	.st116{clip-path:url(#SVGID_88_);fill:#333333;}
	.st117{clip-path:url(#SVGID_90_);}
	.st118{clip-path:url(#SVGID_92_);fill:#333333;}
	.st119{clip-path:url(#SVGID_94_);}
	.st120{clip-path:url(#SVGID_96_);fill:#333333;}
	.st121{clip-path:url(#SVGID_98_);}
	.st122{clip-path:url(#SVGID_100_);fill:#333333;}
	.st123{opacity:0.8;clip-path:url(#SVGID_102_);fill:#333333;}
	.st124{fill:#FFFFFF;stroke:#000000;stroke-width:7;stroke-linecap:round;stroke-miterlimit:10;}
	.st125{fill:#FFFFFF;stroke:#000000;stroke-width:3;stroke-linecap:round;stroke-miterlimit:10;}
	.st126{fill:#FFFFFF;stroke:#000000;stroke-width:3;stroke-linecap:round;stroke-linejoin:round;stroke-miterlimit:10;}
	.st127{fill:#FFFFFF;stroke:#000000;stroke-width:5;stroke-linecap:round;stroke-linejoin:round;stroke-miterlimit:10;}
	.st128{opacity:0.8;}
	.st129{opacity:0.8;fill:#FFFFFF;}
	.st130{fill:none;stroke:#FFFFFF;stroke-width:6;stroke-miterlimit:10;}
	.st131{fill:none;stroke:#FFFFFF;stroke-width:3;stroke-miterlimit:10;}
	.st132{opacity:0.2;fill:url(#SVGID_103_);}
	.st133{fill:#D8EAD2;}
	.st134{opacity:0.2;fill:url(#SVGID_104_);}
	.st135{opacity:0.06;fill:#E07127;}
	.st136{fill:#FFFFFF;stroke:#00B485;stroke-width:5;stroke-linecap:round;stroke-linejoin:round;stroke-miterlimit:10;}
	.st137{stroke:#000000;stroke-miterlimit:10;}
	.st138{stroke:#000000;stroke-width:0.75;stroke-miterlimit:10;}
	.st139{fill:#FFFFFF;stroke:#000000;stroke-width:6;stroke-linecap:round;stroke-linejoin:round;stroke-miterlimit:10;}
	.st140{fill:none;stroke:#000000;stroke-width:6;stroke-linecap:round;stroke-linejoin:round;stroke-miterlimit:10;}
	.st141{stroke:#000000;stroke-width:0.5;stroke-miterlimit:10;}
</style>
<g id="Layer_2">
</g>
<g id="Layer_3">
</g>
<g id="Layer_4">
</g>
<g id="Layer_1">
	<g>
		<path d="M47.05,18.28c-0.07-0.11-0.15-0.21-0.23-0.31c-0.28-0.36-0.36-0.83-0.21-1.27c0.56-1.59,0.42-3.36-0.45-4.82
			c-0.07-0.12-0.23-0.32-0.41-0.54c-0.46-0.56-0.63-1.28-0.57-2c0.14-1.52-0.32-3.08-1.4-4.28c-1.04-1.15-2.53-1.84-4.08-1.88
			c-0.24-0.01-0.48,0-0.72,0.03c-0.69,0.07-1.37-0.11-1.91-0.55c-0.21-0.17-0.42-0.33-0.58-0.43c-0.83-0.49-1.77-0.76-2.74-0.79
			C32.21,1.4,30.69,2,29.59,3.1L17.26,15.95c-0.64,0.67-1.75,0.12-1.62-0.79l0.7-4.76c0.28-3-1.56-5.76-4.36-6.57
			C9.62,3.15,7.08,3.89,5.46,5.86c-0.8,0.97-1.23,2.2-1.35,3.45l-0.73,7.92c-0.01,0.06-0.01,0.11-0.02,0.17L2.05,31.55
			c-0.01,0.08-0.01,0.17-0.01,0.25C1.67,37.13,4,42.23,8.31,45.46c2.75,2.06,6.03,3.1,9.33,3.1c3,0,6.01-0.86,8.63-2.59
			c1.01-0.67,1.94-1.45,2.77-2.33l12.33-13.2l4.9-4.9C48.24,23.57,48.57,20.52,47.05,18.28z M7.82,17.68l0.74-8
			c0.08-0.85,0.72-1.55,1.49-1.63c0.52-0.05,1.01,0.12,1.37,0.48c0.36,0.35,0.53,0.84,0.49,1.34l-0.65,7
			c-0.22,2.33,1.46,4.41,3.78,4.7h0c1.34,0.17,2.68-0.29,3.63-1.25L32.64,6.36c0.51-0.51,1.31-0.58,1.78-0.16
			c0.25,0.23,0.4,0.54,0.41,0.88c0.01,0.34-0.12,0.66-0.36,0.9C34.44,8,34.44,8.04,34.41,8.06L22.49,19.98
			c-0.58,0.58-0.58,1.52,0,2.1s1.52,0.58,2.1,0L38.69,7.99c0.46-0.46,1.26-0.46,1.72,0c0.48,0.48,0.48,1.25,0,1.72L26.4,23.74
			c-0.56,0.56-0.67,1.48-0.16,2.09c0.3,0.35,0.72,0.53,1.14,0.53c0.38,0,0.76-0.15,1.05-0.44l11.24-11.24c0,0.01,0,0.02,0,0.03
			l0.77-0.77c0.47-0.47,1.25-0.48,1.72,0s0.48,1.25,0,1.73l-3.22,3.22c0,0,0.01,0.01,0.01,0.01l-8.77,8.77
			c-0.58,0.58-0.58,1.52,0,2.1c0.58,0.58,1.52,0.58,2.1,0l9.19-9.18c0.05-0.05,0.11-0.09,0.17-0.13c0,0,0-0.01,0-0.01
			c0.23-0.16,0.52-0.24,0.81-0.22c0.21,0.02,0.62,0.12,0.91,0.55c0.31,0.46,0.21,1.15-0.23,1.6l-4.98,4.98L25.79,40.59
			c-0.59,0.62-1.25,1.18-1.98,1.66c-3.86,2.56-9.13,2.41-12.82-0.35c-3.14-2.35-4.81-6.07-4.49-9.95c0-0.04,0-0.09,0-0.13l1.31-14.1
			C7.82,17.71,7.82,17.7,7.82,17.68z"/>
		<g>
			<path d="M13.89,37.77c-0.37,0-0.75-0.14-1.04-0.42c-0.6-0.57-0.62-1.52-0.05-2.12c2.1-2.2,2.68-5.43,1.47-8.22
				c-0.33-0.76,0.02-1.64,0.78-1.97c0.76-0.33,1.64,0.02,1.97,0.78c1.69,3.9,0.88,8.41-2.05,11.48
				C14.68,37.62,14.28,37.77,13.89,37.77z"/>
		</g>
	</g>
</g>
</svg>
