<?xml version="1.0" encoding="utf-8"?>
<!-- Generator: Adobe Illustrator 23.0.1, SVG Export Plug-In . SVG Version: 6.00 Build 0)  -->
<svg version="1.1" xmlns="http://www.w3.org/2000/svg" xmlns:xlink="http://www.w3.org/1999/xlink" x="0px" y="0px"
	 viewBox="0 0 50 50" style="enable-background:new 0 0 50 50;" xml:space="preserve">
<style type="text/css">
	.st0{fill:none;stroke:#000000;stroke-miterlimit:10;}
	.st1{fill:#0C6364;}
	.st2{display:none;}
	.st3{display:inline;opacity:0.5;fill:#C46F24;}
	.st4{fill:#F15A24;stroke:#FFFFFF;stroke-width:5;stroke-linecap:round;stroke-linejoin:round;stroke-miterlimit:10;}
	.st5{fill:none;stroke:#000000;stroke-width:5;stroke-linecap:round;stroke-linejoin:round;stroke-miterlimit:10;}
	.st6{fill:none;stroke:#000000;stroke-width:3;stroke-linecap:round;stroke-linejoin:round;stroke-miterlimit:10;}
	.st7{fill:#FFFFFF;}
	.st8{fill:#FFFFFF;stroke:#333333;stroke-width:5;stroke-linecap:round;stroke-linejoin:round;stroke-miterlimit:10;}
	.st9{fill:none;stroke:#333333;stroke-width:5;stroke-linecap:round;stroke-linejoin:round;stroke-dasharray:4.088,10.22;}
	.st10{fill:#FFFFFF;stroke:#333333;stroke-width:3;stroke-linecap:round;stroke-linejoin:round;stroke-miterlimit:10;}
	.st11{fill:none;stroke:#969696;stroke-width:5;stroke-miterlimit:10;}
	.st12{fill:#B3B3B3;stroke:#4D4D4D;stroke-width:3;stroke-linecap:round;stroke-linejoin:round;stroke-miterlimit:10;}
	.st13{fill:#B3B3B3;stroke:#4D4D4D;stroke-width:5;stroke-linecap:round;stroke-linejoin:round;stroke-miterlimit:10;}
	.st14{fill:none;stroke:#4D4D4D;stroke-width:3;stroke-linecap:round;stroke-linejoin:round;stroke-miterlimit:10;}
	.st15{fill:#FFFFFF;stroke:#000000;stroke-miterlimit:10;}
	.st16{fill:none;stroke:#000000;stroke-width:3;stroke-miterlimit:10;}
	.st17{fill:none;stroke:#000000;stroke-width:5;stroke-linecap:round;stroke-linejoin:round;}
	.st18{fill:none;stroke:#000000;stroke-width:5;stroke-linecap:round;stroke-linejoin:round;stroke-dasharray:2.4286,9.7143;}
	.st19{fill:none;stroke:#333333;stroke-width:3;stroke-linecap:round;stroke-linejoin:round;stroke-miterlimit:10;}
	.st20{fill:none;stroke:#333333;stroke-width:5;stroke-linecap:round;stroke-linejoin:round;stroke-miterlimit:10;}
	.st21{fill:none;stroke:#333333;stroke-width:2;stroke-linecap:round;stroke-linejoin:round;stroke-miterlimit:10;}
	.st22{fill:none;stroke:#E6E6E6;stroke-width:5;stroke-linecap:round;stroke-linejoin:round;stroke-miterlimit:10;}
	.st23{fill:#1EB287;}
	.st24{fill:#DEEDCB;}
	.st25{fill:#C46F24;}
	.st26{fill:#505305;}
	.st27{fill:#186435;}
	.st28{fill:#A44F79;}
	.st29{fill:#2AB188;}
	.st30{fill:#A35915;}
	.st31{fill:#4D4D4D;}
	.st32{fill:#F6B330;}
	.st33{fill:#324872;}
	.st34{fill:#2BA270;}
	.st35{fill:#53A4EA;}
	.st36{fill:#3BA2A0;}
	.st37{fill:#1792CD;}
	.st38{fill:#0C2E3D;}
	.st39{fill:#35761B;}
	.st40{fill:#F4A519;}
	.st41{opacity:0.06;fill:#3B9910;}
	.st42{opacity:0.06;fill:#E56200;}
	.st43{opacity:0.06;fill:#2E5799;}
	.st44{opacity:0.06;fill:#007F7C;}
	.st45{opacity:0.06;fill:#00B7FF;}
	.st46{opacity:0.06;fill:#FF9D00;}
	.st47{opacity:0.06;fill:#00CC8D;}
	.st48{fill:none;stroke:#000000;stroke-width:5;stroke-linecap:round;stroke-miterlimit:10;}
	.st49{fill:none;stroke:#000000;stroke-width:3;stroke-linecap:round;stroke-miterlimit:10;}
	.st50{fill:#F15A24;}
	.st51{fill:none;stroke:#000000;stroke-width:4.5;stroke-linecap:round;stroke-linejoin:round;stroke-miterlimit:10;}
	.st52{fill:#FFFFFF;stroke:#000000;stroke-width:5;stroke-linecap:round;stroke-linejoin:round;stroke-miterlimit:10;}
	.st53{fill:#FFFFFF;stroke:#000000;stroke-width:3;stroke-linecap:round;stroke-linejoin:round;stroke-miterlimit:10;}
	.st54{fill:none;stroke:#333333;stroke-width:3;stroke-miterlimit:10;}
	.st55{fill:none;stroke:#000000;stroke-width:5;stroke-miterlimit:10;}
	.st56{fill:none;stroke:#000000;stroke-width:5;stroke-linejoin:round;stroke-miterlimit:10;}
	.st57{fill:none;stroke:#000000;stroke-linecap:round;stroke-miterlimit:10;}
	.st58{fill:none;stroke:#000000;stroke-width:2;stroke-linecap:round;stroke-linejoin:round;stroke-miterlimit:10;}
	.st59{clip-path:url(#SVGID_2_);}
	.st60{fill:none;stroke:#FFFFFF;stroke-width:5;stroke-linecap:round;stroke-linejoin:round;stroke-miterlimit:10;}
	.st61{fill:none;stroke:#FFFFFF;stroke-width:3;stroke-linecap:round;stroke-linejoin:round;stroke-miterlimit:10;}
	.st62{fill:#FF0000;}
</style>
<g id="Layer_2">
</g>
<g id="Layer_3">
</g>
<g id="Layer_4" class="st2">
</g>
<g id="Layer_1">
	<path d="M28.25,1.76c-2.04-1.03-4.47-1.03-6.5,0C11.57,6.91,5.5,15.59,5.5,25s6.07,18.09,16.25,23.24
		c1.02,0.51,2.13,0.77,3.25,0.77c1.12,0,2.23-0.26,3.25-0.77C38.43,43.09,44.5,34.41,44.5,25S38.43,6.91,28.25,1.76z M26.5,40.76
		l0-7.35c0-0.94,0.37-1.84,1.04-2.5l3.82-3.82c0.59-0.59,0.59-1.54,0-2.12c-0.59-0.59-1.54-0.59-2.12,0l-1.51,1.51
		c-0.45,0.45-1.22,0.13-1.22-0.51V15.26c0-0.83-0.67-1.5-1.5-1.5s-1.5,0.67-1.5,1.5v5.16c0,0.64-0.77,0.96-1.22,0.51l-2.01-2.01
		c-0.59-0.59-1.54-0.59-2.12,0c-0.59,0.59-0.59,1.54,0,2.12l4.32,4.32c0.66,0.66,1.04,1.56,1.04,2.5v2.67
		c0,0.64-0.77,0.96-1.22,0.51l-2.52-2.52c-0.59-0.59-1.54-0.59-2.12,0c-0.59,0.59-0.59,1.54,0,2.12l4.82,4.82
		c0.66,0.66,1.04,1.56,1.04,2.5l0,2.8c0,1.26-1.39,1.99-2.45,1.3C14.39,37.76,10.5,31.56,10.5,25c0-7.48,5.05-14.5,13.51-18.78
		c0.31-0.16,0.65-0.24,0.99-0.24c0.34,0,0.68,0.08,0.99,0.24C34.45,10.5,39.5,17.52,39.5,25c0,6.56-3.89,12.76-10.55,17.07
		C27.9,42.76,26.5,42.02,26.5,40.76z"/>
</g>
</svg>
