<?xml version="1.0" encoding="utf-8"?>
<!-- Generator: Adobe Illustrator 24.2.1, SVG Export Plug-In . SVG Version: 6.00 Build 0)  -->
<svg version="1.1" xmlns="http://www.w3.org/2000/svg" xmlns:xlink="http://www.w3.org/1999/xlink" x="0px" y="0px"
	 viewBox="0 0 50 50" style="enable-background:new 0 0 50 50;" xml:space="preserve">
<style type="text/css">
	.st0{fill:none;stroke:#000000;stroke-miterlimit:10;}
	.st1{fill:#C46F24;}
	.st2{opacity:0.5;fill:#C46F24;}
	.st3{fill:#C1631E;}
	.st4{fill:#FFFFFF;stroke:#000000;stroke-width:7;stroke-linecap:round;stroke-linejoin:round;stroke-miterlimit:10;}
	.st5{fill:#FFFFFF;stroke:#000000;stroke-width:7;stroke-miterlimit:10;}
	.st6{fill:none;stroke:#000000;stroke-width:7;stroke-linecap:round;stroke-miterlimit:10;}
	.st7{fill:#FFFFFF;stroke:#000000;stroke-width:5;stroke-miterlimit:10;}
	.st8{fill:none;stroke:#000000;stroke-width:3;stroke-linecap:round;stroke-miterlimit:10;}
	.st9{fill:#F15A24;stroke:#FFFFFF;stroke-width:5;stroke-linecap:round;stroke-linejoin:round;stroke-miterlimit:10;}
	.st10{fill:none;stroke:#000000;stroke-width:5;stroke-linecap:round;stroke-linejoin:round;stroke-miterlimit:10;}
	.st11{fill:none;stroke:#000000;stroke-width:3;stroke-linecap:round;stroke-linejoin:round;stroke-miterlimit:10;}
	.st12{fill:#FFFFFF;}
	.st13{fill:#FFFFFF;stroke:#333333;stroke-width:5;stroke-linecap:round;stroke-linejoin:round;stroke-miterlimit:10;}
	.st14{fill:none;stroke:#333333;stroke-width:5;stroke-linecap:round;stroke-linejoin:round;stroke-dasharray:4.088,10.22;}
	.st15{fill:#FFFFFF;stroke:#333333;stroke-width:3;stroke-linecap:round;stroke-linejoin:round;stroke-miterlimit:10;}
	.st16{fill:none;stroke:#FFFFFF;stroke-width:5;stroke-linecap:round;stroke-linejoin:round;stroke-miterlimit:10;}
	.st17{fill:none;stroke:#FFFFFF;stroke-width:3;stroke-linecap:round;stroke-linejoin:round;stroke-miterlimit:10;}
	.st18{fill:none;stroke:#969696;stroke-width:5;stroke-miterlimit:10;}
	.st19{fill:#B3B3B3;stroke:#4D4D4D;stroke-width:3;stroke-linecap:round;stroke-linejoin:round;stroke-miterlimit:10;}
	.st20{fill:#B3B3B3;stroke:#4D4D4D;stroke-width:5;stroke-linecap:round;stroke-linejoin:round;stroke-miterlimit:10;}
	.st21{fill:none;stroke:#4D4D4D;stroke-width:3;stroke-linecap:round;stroke-linejoin:round;stroke-miterlimit:10;}
	.st22{fill:#FFFFFF;stroke:#000000;stroke-miterlimit:10;}
	.st23{fill:none;stroke:#000000;stroke-width:3;stroke-miterlimit:10;}
	.st24{fill:none;stroke:#FFFFFF;stroke-width:5;stroke-linecap:round;stroke-linejoin:round;}
	.st25{fill:none;stroke:#FFFFFF;stroke-width:5;stroke-linecap:round;stroke-linejoin:round;stroke-dasharray:3.2727,9.8182;}
	.st26{fill:none;stroke:#333333;stroke-width:3;stroke-linecap:round;stroke-linejoin:round;stroke-miterlimit:10;}
	.st27{fill:none;stroke:#333333;stroke-width:5;stroke-linecap:round;stroke-linejoin:round;stroke-miterlimit:10;}
	.st28{fill:none;stroke:#333333;stroke-width:2;stroke-linecap:round;stroke-linejoin:round;stroke-miterlimit:10;}
	.st29{fill:none;stroke:#E6E6E6;stroke-width:5;stroke-linecap:round;stroke-linejoin:round;stroke-miterlimit:10;}
	.st30{fill:#1EB287;}
	.st31{fill:#DEEDCB;}
	.st32{fill:#505305;}
	.st33{fill:#186435;}
	.st34{fill:#A44F79;}
	.st35{fill:#2AB188;}
	.st36{fill:#A35915;}
	.st37{fill:#4D4D4D;}
	.st38{fill:#F6B330;}
	.st39{fill:#324872;}
	.st40{fill:#2BA270;}
	.st41{fill:#53A4EA;}
	.st42{fill:#3BA2A0;}
	.st43{fill:#1792CD;}
	.st44{fill:#0C2E3D;}
	.st45{fill:#35761B;}
	.st46{fill:#0C6364;}
	.st47{fill:#F4A519;}
	.st48{opacity:0.06;fill:#3B9910;}
	.st49{opacity:0.06;fill:#E56200;}
	.st50{opacity:0.06;fill:#2E5799;}
	.st51{opacity:0.06;fill:#007F7C;}
	.st52{opacity:0.06;fill:#00B7FF;}
	.st53{opacity:0.06;fill:#FF9D00;}
	.st54{opacity:0.06;fill:#00CC8D;}
	.st55{fill:#91A7B4;}
	.st56{fill:#9F6300;}
	.st57{fill:#07B386;}
	.st58{fill:#FF4D2D;}
	.st59{fill:#F9FBFC;}
	.st60{fill:#FBF7F0;}
	.st61{fill:#F0F8F8;}
	.st62{fill:#F1FCF9;}
	.st63{fill:#FFF7F6;}
	.st64{fill:#AF8761;}
	.st65{fill:#FFF8F3;}
	.st66{fill:none;stroke:#FFFFFF;stroke-width:5;stroke-linecap:round;stroke-miterlimit:10;}
	.st67{fill:none;stroke:#FFFFFF;stroke-width:3;stroke-linecap:round;stroke-miterlimit:10;}
	.st68{fill:#F15A24;}
	.st69{fill:#F15A24;stroke:#000000;stroke-width:5;stroke-linecap:round;stroke-linejoin:round;stroke-miterlimit:10;}
	.st70{fill:none;stroke:#000000;stroke-width:5;stroke-miterlimit:10;}
	.st71{fill:#FFFFFF;stroke:#000000;stroke-width:3;stroke-miterlimit:10;}
	.st72{opacity:0.8;enable-background:new    ;}
	.st73{clip-path:url(#SVGID_2_);}
	.st74{clip-path:url(#SVGID_4_);}
	.st75{clip-path:url(#SVGID_6_);fill:#333333;}
	.st76{clip-path:url(#SVGID_8_);}
	.st77{clip-path:url(#SVGID_10_);fill:#333333;}
	.st78{clip-path:url(#SVGID_12_);}
	.st79{clip-path:url(#SVGID_14_);}
	.st80{clip-path:url(#SVGID_16_);fill:#333333;}
	.st81{clip-path:url(#SVGID_18_);}
	.st82{clip-path:url(#SVGID_20_);fill:#333333;}
	.st83{clip-path:url(#SVGID_22_);}
	.st84{clip-path:url(#SVGID_24_);fill:#333333;}
	.st85{clip-path:url(#SVGID_26_);}
	.st86{clip-path:url(#SVGID_28_);fill:#333333;}
	.st87{clip-path:url(#SVGID_30_);}
	.st88{clip-path:url(#SVGID_32_);fill:#333333;}
	.st89{clip-path:url(#SVGID_34_);}
	.st90{clip-path:url(#SVGID_36_);fill:#333333;}
	.st91{clip-path:url(#SVGID_38_);}
	.st92{clip-path:url(#SVGID_40_);fill:#333333;}
	.st93{clip-path:url(#SVGID_42_);}
	.st94{clip-path:url(#SVGID_44_);fill:#333333;}
	.st95{clip-path:url(#SVGID_46_);}
	.st96{clip-path:url(#SVGID_48_);fill:#333333;}
	.st97{clip-path:url(#SVGID_50_);}
	.st98{clip-path:url(#SVGID_52_);fill:#333333;}
	.st99{clip-path:url(#SVGID_54_);}
	.st100{clip-path:url(#SVGID_56_);fill:#333333;}
	.st101{clip-path:url(#SVGID_58_);}
	.st102{clip-path:url(#SVGID_60_);fill:#333333;}
	.st103{clip-path:url(#SVGID_62_);}
	.st104{clip-path:url(#SVGID_64_);}
	.st105{clip-path:url(#SVGID_66_);enable-background:new    ;}
	.st106{clip-path:url(#SVGID_68_);}
	.st107{clip-path:url(#SVGID_70_);}
	.st108{clip-path:url(#SVGID_72_);fill:#333333;}
	.st109{clip-path:url(#SVGID_74_);}
	.st110{clip-path:url(#SVGID_76_);}
	.st111{clip-path:url(#SVGID_78_);fill:#333333;}
	.st112{clip-path:url(#SVGID_80_);}
	.st113{clip-path:url(#SVGID_82_);fill:#333333;}
	.st114{clip-path:url(#SVGID_84_);}
	.st115{clip-path:url(#SVGID_86_);}
	.st116{clip-path:url(#SVGID_88_);fill:#333333;}
	.st117{clip-path:url(#SVGID_90_);}
	.st118{clip-path:url(#SVGID_92_);fill:#333333;}
	.st119{clip-path:url(#SVGID_94_);}
	.st120{clip-path:url(#SVGID_96_);fill:#333333;}
	.st121{clip-path:url(#SVGID_98_);}
	.st122{clip-path:url(#SVGID_100_);fill:#333333;}
	.st123{opacity:0.8;clip-path:url(#SVGID_102_);fill:#333333;}
	.st124{fill:#FFFFFF;stroke:#000000;stroke-width:7;stroke-linecap:round;stroke-miterlimit:10;}
	.st125{fill:#FFFFFF;stroke:#000000;stroke-width:3;stroke-linecap:round;stroke-miterlimit:10;}
	.st126{fill:#FFFFFF;stroke:#000000;stroke-width:3;stroke-linecap:round;stroke-linejoin:round;stroke-miterlimit:10;}
	.st127{fill:#FFFFFF;stroke:#000000;stroke-width:5;stroke-linecap:round;stroke-linejoin:round;stroke-miterlimit:10;}
	.st128{opacity:0.8;}
	.st129{opacity:0.8;fill:#FFFFFF;}
	.st130{fill:none;stroke:#FFFFFF;stroke-width:6;stroke-miterlimit:10;}
	.st131{fill:none;stroke:#FFFFFF;stroke-width:3;stroke-miterlimit:10;}
	.st132{opacity:0.2;fill:url(#SVGID_103_);}
	.st133{fill:#D8EAD2;}
	.st134{opacity:0.2;fill:url(#SVGID_104_);}
	.st135{opacity:0.06;fill:#E07127;}
	.st136{fill:#FFFFFF;stroke:#00B485;stroke-width:5;stroke-linecap:round;stroke-linejoin:round;stroke-miterlimit:10;}
	.st137{stroke:#000000;stroke-miterlimit:10;}
	.st138{stroke:#000000;stroke-width:0.75;stroke-miterlimit:10;}
	.st139{fill:#FFFFFF;stroke:#000000;stroke-width:6;stroke-linecap:round;stroke-linejoin:round;stroke-miterlimit:10;}
	.st140{fill:none;stroke:#000000;stroke-width:6;stroke-linecap:round;stroke-linejoin:round;stroke-miterlimit:10;}
	.st141{stroke:#000000;stroke-width:0.5;stroke-miterlimit:10;}
</style>
<g id="Layer_2">
</g>
<g id="Layer_3">
</g>
<g id="Layer_4">
</g>
<g id="Layer_1">
	<g>
		<g>
			<path d="M5.13,6.18c0.19,0,0.4-0.05,0.49-0.07l0,0c0.16-0.04,0.32,0.08,0.32,0.25l0,6.22c0,0.79,0.6,1.48,1.39,1.54
				c0.87,0.06,1.59-0.63,1.59-1.48V4.37c0-0.82-0.67-1.49-1.52-1.49c-0.35,0-0.7,0.08-1.16,0.2L4.79,3.52
				c-0.62,0.18-1.02,0.7-1.02,1.33C3.78,5.57,4.4,6.18,5.13,6.18z"/>
			<path d="M4.08,30.58h5.57c0.81,0,1.46-0.7,1.34-1.53c-0.09-0.68-0.71-1.17-1.4-1.17l-1.62,0c-0.26,0-0.37-0.33-0.17-0.49
				l0.17-0.13c1.77-1.37,2.84-2.34,2.84-4.3c0-2.12-1.57-3.54-3.91-3.54c-1.53,0-2.65,0.51-3.63,1.64
				c-0.22,0.26-0.35,0.61-0.35,0.95c0,0.79,0.61,1.4,1.4,1.4c0.57,0,0.92-0.31,1.04-0.44c0.53-0.57,0.9-0.77,1.39-0.77
				c0.37,0,1,0.12,1,0.96c0,0.66-0.35,1.13-1.64,2.17l-2.92,2.39c-0.47,0.38-0.73,0.87-0.73,1.42C2.49,29.98,3.15,30.58,4.08,30.58z
				"/>
			<path d="M9.3,40.57c-0.36-0.19-0.41-0.69-0.11-0.97l0.83-0.79c0.43-0.42,0.79-0.82,0.79-1.53c0-0.81-0.62-1.37-1.52-1.37H4.33
				c-0.64,0-1.22,0.43-1.35,1.06c-0.18,0.86,0.48,1.62,1.31,1.62h1.22c0.38,0,0.57,0.46,0.3,0.73l-0.63,0.64
				c-0.4,0.4-0.58,0.75-0.59,1.15c-0.02,0.76,0.64,1.38,1.4,1.38h0.3c0.61,0,1.63,0.12,1.63,0.96c0,0.64-0.56,0.87-1.08,0.87
				c-0.67,0-1.22-0.21-1.77-0.68c-0.19-0.16-0.49-0.37-0.96-0.37c-0.79,0-1.46,0.67-1.46,1.46c0,0.4,0.2,0.82,0.51,1.09
				c0.97,0.84,2.2,1.26,3.64,1.26c2.43,0,4.07-1.5,4.07-3.76C10.88,42.08,10.33,41.13,9.3,40.57z"/>
		</g>
		<g>
			<path d="M45.01,31.5h-27c-1.38,0-2.5-1.12-2.5-2.5v-8c0-1.38,1.12-2.5,2.5-2.5h27c1.38,0,2.5,1.12,2.5,2.5v8
				C47.51,30.38,46.39,31.5,45.01,31.5z M21.51,26.5h20c0.55,0,1-0.45,1-1v-1c0-0.55-0.45-1-1-1h-20c-0.55,0-1,0.45-1,1v1
				C20.51,26.05,20.96,26.5,21.51,26.5z"/>
		</g>
		<g>
			<path d="M45.01,15h-27c-1.38,0-2.5-1.12-2.5-2.5v-8c0-1.38,1.12-2.5,2.5-2.5h27c1.38,0,2.5,1.12,2.5,2.5v8
				C47.51,13.88,46.39,15,45.01,15z M21.51,10h20c0.55,0,1-0.45,1-1V8c0-0.55-0.45-1-1-1h-20c-0.55,0-1,0.45-1,1v1
				C20.51,9.55,20.96,10,21.51,10z"/>
		</g>
		<g>
			<path d="M45.01,48h-27c-1.38,0-2.5-1.12-2.5-2.5v-8c0-1.38,1.12-2.5,2.5-2.5h27c1.38,0,2.5,1.12,2.5,2.5v8
				C47.51,46.88,46.39,48,45.01,48z M21.51,43h20c0.55,0,1-0.45,1-1v-1c0-0.55-0.45-1-1-1h-20c-0.55,0-1,0.45-1,1v1
				C20.51,42.55,20.96,43,21.51,43z"/>
		</g>
	</g>
</g>
</svg>
