<?xml version="1.0" encoding="utf-8"?>
<!-- Generator: Adobe Illustrator 23.0.4, SVG Export Plug-In . SVG Version: 6.00 Build 0)  -->
<svg version="1.1" xmlns="http://www.w3.org/2000/svg" xmlns:xlink="http://www.w3.org/1999/xlink" x="0px" y="0px"
	 viewBox="0 0 50 50" style="enable-background:new 0 0 50 50;" xml:space="preserve">
<style type="text/css">
	.st0{fill:none;stroke:#000000;stroke-miterlimit:10;}
	.st1{fill:#C46F24;}
	.st2{opacity:0.5;fill:#C46F24;}
	.st3{fill:#C1631E;}
	.st4{fill:#FFFFFF;stroke:#000000;stroke-width:7;stroke-linecap:round;stroke-linejoin:round;stroke-miterlimit:10;}
	.st5{fill:#FFFFFF;stroke:#000000;stroke-width:7;stroke-miterlimit:10;}
	.st6{fill:none;stroke:#000000;stroke-width:7;stroke-linecap:round;stroke-miterlimit:10;}
	.st7{fill:#FFFFFF;stroke:#000000;stroke-width:5;stroke-miterlimit:10;}
	.st8{fill:none;stroke:#000000;stroke-width:3;stroke-linecap:round;stroke-miterlimit:10;}
	.st9{fill:#F15A24;stroke:#FFFFFF;stroke-width:5;stroke-linecap:round;stroke-linejoin:round;stroke-miterlimit:10;}
	.st10{fill:none;stroke:#000000;stroke-width:5;stroke-linecap:round;stroke-linejoin:round;stroke-miterlimit:10;}
	.st11{fill:none;stroke:#000000;stroke-width:3;stroke-linecap:round;stroke-linejoin:round;stroke-miterlimit:10;}
	.st12{fill:#FFFFFF;}
	.st13{fill:#FFFFFF;stroke:#333333;stroke-width:5;stroke-linecap:round;stroke-linejoin:round;stroke-miterlimit:10;}
	.st14{fill:none;stroke:#333333;stroke-width:5;stroke-linecap:round;stroke-linejoin:round;stroke-dasharray:4.088,10.22;}
	.st15{fill:#FFFFFF;stroke:#333333;stroke-width:3;stroke-linecap:round;stroke-linejoin:round;stroke-miterlimit:10;}
	.st16{fill:none;stroke:#FFFFFF;stroke-width:5;stroke-linecap:round;stroke-linejoin:round;stroke-miterlimit:10;}
	.st17{fill:none;stroke:#FFFFFF;stroke-width:3;stroke-linecap:round;stroke-linejoin:round;stroke-miterlimit:10;}
	.st18{fill:none;stroke:#969696;stroke-width:5;stroke-miterlimit:10;}
	.st19{fill:#B3B3B3;stroke:#4D4D4D;stroke-width:3;stroke-linecap:round;stroke-linejoin:round;stroke-miterlimit:10;}
	.st20{fill:#B3B3B3;stroke:#4D4D4D;stroke-width:5;stroke-linecap:round;stroke-linejoin:round;stroke-miterlimit:10;}
	.st21{fill:none;stroke:#4D4D4D;stroke-width:3;stroke-linecap:round;stroke-linejoin:round;stroke-miterlimit:10;}
	.st22{fill:#FFFFFF;stroke:#000000;stroke-miterlimit:10;}
	.st23{fill:none;stroke:#000000;stroke-width:3;stroke-miterlimit:10;}
	.st24{fill:none;stroke:#FFFFFF;stroke-width:5;stroke-linecap:round;stroke-linejoin:round;}
	.st25{fill:none;stroke:#FFFFFF;stroke-width:5;stroke-linecap:round;stroke-linejoin:round;stroke-dasharray:3.2727,9.8182;}
	.st26{fill:none;stroke:#333333;stroke-width:3;stroke-linecap:round;stroke-linejoin:round;stroke-miterlimit:10;}
	.st27{fill:none;stroke:#333333;stroke-width:5;stroke-linecap:round;stroke-linejoin:round;stroke-miterlimit:10;}
	.st28{fill:none;stroke:#333333;stroke-width:2;stroke-linecap:round;stroke-linejoin:round;stroke-miterlimit:10;}
	.st29{fill:none;stroke:#E6E6E6;stroke-width:5;stroke-linecap:round;stroke-linejoin:round;stroke-miterlimit:10;}
	.st30{fill:#1EB287;}
	.st31{fill:#DEEDCB;}
	.st32{fill:#505305;}
	.st33{fill:#186435;}
	.st34{fill:#A44F79;}
	.st35{fill:#2AB188;}
	.st36{fill:#A35915;}
	.st37{fill:#4D4D4D;}
	.st38{fill:#F6B330;}
	.st39{fill:#324872;}
	.st40{fill:#2BA270;}
	.st41{fill:#53A4EA;}
	.st42{fill:#3BA2A0;}
	.st43{fill:#1792CD;}
	.st44{fill:#0C2E3D;}
	.st45{fill:#35761B;}
	.st46{fill:#0C6364;}
	.st47{fill:#F4A519;}
	.st48{opacity:0.06;fill:#3B9910;}
	.st49{opacity:0.06;fill:#E56200;}
	.st50{opacity:0.06;fill:#2E5799;}
	.st51{opacity:0.06;fill:#007F7C;}
	.st52{opacity:0.06;fill:#00B7FF;}
	.st53{opacity:0.06;fill:#FF9D00;}
	.st54{opacity:0.06;fill:#00CC8D;}
	.st55{fill:#91A7B4;}
	.st56{fill:#9F6300;}
	.st57{fill:#07B386;}
	.st58{fill:#FF4D2D;}
	.st59{fill:#F9FBFC;}
	.st60{fill:#FBF7F0;}
	.st61{fill:#F0F8F8;}
	.st62{fill:#F1FCF9;}
	.st63{fill:#FFF7F6;}
	.st64{fill:#AF8761;}
	.st65{fill:#FFF8F3;}
	.st66{fill:none;stroke:#FFFFFF;stroke-width:5;stroke-linecap:round;stroke-miterlimit:10;}
	.st67{fill:none;stroke:#FFFFFF;stroke-width:3;stroke-linecap:round;stroke-miterlimit:10;}
	.st68{fill:#F15A24;}
	.st69{fill:#F15A24;stroke:#000000;stroke-width:5;stroke-linecap:round;stroke-linejoin:round;stroke-miterlimit:10;}
	.st70{fill:none;stroke:#000000;stroke-width:5;stroke-miterlimit:10;}
	.st71{fill:#FFFFFF;stroke:#000000;stroke-width:3;stroke-miterlimit:10;}
	.st72{opacity:0.8;enable-background:new    ;}
	.st73{clip-path:url(#SVGID_2_);}
	.st74{clip-path:url(#SVGID_4_);}
	.st75{clip-path:url(#SVGID_6_);fill:#333333;}
	.st76{clip-path:url(#SVGID_8_);}
	.st77{clip-path:url(#SVGID_10_);fill:#333333;}
	.st78{clip-path:url(#SVGID_12_);}
	.st79{clip-path:url(#SVGID_14_);}
	.st80{clip-path:url(#SVGID_16_);fill:#333333;}
	.st81{clip-path:url(#SVGID_18_);}
	.st82{clip-path:url(#SVGID_20_);fill:#333333;}
	.st83{clip-path:url(#SVGID_22_);}
	.st84{clip-path:url(#SVGID_24_);fill:#333333;}
	.st85{clip-path:url(#SVGID_26_);}
	.st86{clip-path:url(#SVGID_28_);fill:#333333;}
	.st87{clip-path:url(#SVGID_30_);}
	.st88{clip-path:url(#SVGID_32_);fill:#333333;}
	.st89{clip-path:url(#SVGID_34_);}
	.st90{clip-path:url(#SVGID_36_);fill:#333333;}
	.st91{clip-path:url(#SVGID_38_);}
	.st92{clip-path:url(#SVGID_40_);fill:#333333;}
	.st93{clip-path:url(#SVGID_42_);}
	.st94{clip-path:url(#SVGID_44_);fill:#333333;}
	.st95{clip-path:url(#SVGID_46_);}
	.st96{clip-path:url(#SVGID_48_);fill:#333333;}
	.st97{clip-path:url(#SVGID_50_);}
	.st98{clip-path:url(#SVGID_52_);fill:#333333;}
	.st99{clip-path:url(#SVGID_54_);}
	.st100{clip-path:url(#SVGID_56_);fill:#333333;}
	.st101{clip-path:url(#SVGID_58_);}
	.st102{clip-path:url(#SVGID_60_);fill:#333333;}
	.st103{clip-path:url(#SVGID_62_);}
	.st104{clip-path:url(#SVGID_64_);}
	.st105{clip-path:url(#SVGID_66_);enable-background:new    ;}
	.st106{clip-path:url(#SVGID_68_);}
	.st107{clip-path:url(#SVGID_70_);}
	.st108{clip-path:url(#SVGID_72_);fill:#333333;}
	.st109{clip-path:url(#SVGID_74_);}
	.st110{clip-path:url(#SVGID_76_);}
	.st111{clip-path:url(#SVGID_78_);fill:#333333;}
	.st112{clip-path:url(#SVGID_80_);}
	.st113{clip-path:url(#SVGID_82_);fill:#333333;}
	.st114{clip-path:url(#SVGID_84_);}
	.st115{clip-path:url(#SVGID_86_);}
	.st116{clip-path:url(#SVGID_88_);fill:#333333;}
	.st117{clip-path:url(#SVGID_90_);}
	.st118{clip-path:url(#SVGID_92_);fill:#333333;}
	.st119{clip-path:url(#SVGID_94_);}
	.st120{clip-path:url(#SVGID_96_);fill:#333333;}
	.st121{clip-path:url(#SVGID_98_);}
	.st122{clip-path:url(#SVGID_100_);fill:#333333;}
	.st123{opacity:0.8;clip-path:url(#SVGID_102_);fill:#333333;}
	.st124{fill:#FFFFFF;stroke:#000000;stroke-width:7;stroke-linecap:round;stroke-miterlimit:10;}
	.st125{fill:#FFFFFF;stroke:#000000;stroke-width:3;stroke-linecap:round;stroke-miterlimit:10;}
	.st126{fill:#FFFFFF;stroke:#000000;stroke-width:3;stroke-linecap:round;stroke-linejoin:round;stroke-miterlimit:10;}
	.st127{fill:#FFFFFF;stroke:#000000;stroke-width:5;stroke-linecap:round;stroke-linejoin:round;stroke-miterlimit:10;}
	.st128{opacity:0.8;}
	.st129{opacity:0.8;fill:#FFFFFF;}
	.st130{fill:none;stroke:#FFFFFF;stroke-width:6;stroke-miterlimit:10;}
	.st131{fill:none;stroke:#FFFFFF;stroke-width:3;stroke-miterlimit:10;}
	.st132{opacity:0.2;fill:url(#SVGID_103_);}
	.st133{fill:#D8EAD2;}
	.st134{opacity:0.2;fill:url(#SVGID_104_);}
	.st135{opacity:0.06;fill:#E07127;}
</style>
<g id="Layer_2" transform="matrix(1.5,0,0,1.5,-12.496153,-12.49987)">
</g>
<g id="Layer_3" transform="matrix(1.5,0,0,1.5,-12.496153,-12.49987)">
</g>
<g id="Layer_4" transform="matrix(1.5,0,0,1.5,-12.496153,-12.49987)">
</g>
<g id="Layer_1" transform="matrix(1.5,0,0,1.5,-12.496153,-12.49987)">
	<path d="M37.93,27.53l-0.4-0.16c-0.8-0.32-1.28-1.12-1.24-1.98c0.01-0.33,0.01-0.66-0.01-0.99c-0.04-0.86,0.42-1.66,1.21-1.99
		l0.41-0.17c1.11-0.47,1.82-1.66,1.56-2.84c-0.34-1.59-2.01-2.4-3.43-1.8l-0.5,0.21c-0.79,0.34-1.69,0.11-2.28-0.52
		c-0.22-0.24-0.46-0.47-0.7-0.69c-0.64-0.57-0.87-1.47-0.55-2.26l0.15-0.37c0.49-1.21,0.06-2.67-1.09-3.28
		c-1.33-0.7-2.94-0.08-3.49,1.27l-0.2,0.5c-0.32,0.8-1.12,1.28-1.98,1.24c-0.33-0.01-0.66-0.01-0.99,0.01
		c-0.86,0.04-1.65-0.42-1.99-1.21l-0.16-0.37c-0.53-1.25-1.94-1.97-3.21-1.5c-1.36,0.49-2.01,2.02-1.45,3.33l0.21,0.5
		c0.34,0.79,0.11,1.69-0.52,2.28c-0.24,0.22-0.47,0.46-0.7,0.7c-0.57,0.64-1.47,0.87-2.26,0.55l-0.37-0.15
		c-1.21-0.49-2.67-0.06-3.28,1.09c-0.7,1.33-0.09,2.94,1.27,3.49l0.41,0.17c0.82,0.33,1.3,1.16,1.24,2.04
		c-0.03,0.37-0.04,0.73-0.03,1.07c0.02,0.84-0.44,1.61-1.21,1.94l-0.25,0.11c-1.16,0.49-1.87,1.74-1.56,2.96
		c0.3,1.17,1.34,1.89,2.43,1.89c0.33,0,0.66-0.06,0.98-0.2l0.44-0.19c0.74-0.31,1.59-0.13,2.15,0.44c0.27,0.28,0.55,0.53,0.83,0.77
		c0.66,0.56,0.92,1.46,0.6,2.26l-0.12,0.31c-0.49,1.21-0.13,2.6,0.94,3.24c0.42,0.25,0.87,0.37,1.31,0.37
		c0.99,0,1.93-0.59,2.32-1.56l0.22-0.53c0.31-0.76,1.06-1.24,1.88-1.21c0.16,0.01,0.32,0.01,0.48,0.01c0.22,0,0.45-0.01,0.67-0.02
		c0.83-0.06,1.59,0.45,1.91,1.22l0.21,0.49c0.4,0.95,1.33,1.52,2.3,1.52c0.44,0,0.9-0.12,1.32-0.38c1.07-0.66,1.43-2.06,0.94-3.22
		l-0.16-0.38c-0.34-0.79-0.11-1.69,0.52-2.28c0.24-0.22,0.47-0.46,0.7-0.7c0.57-0.64,1.47-0.87,2.26-0.55l0.5,0.2
		c0.31,0.12,0.62,0.18,0.94,0.18c1.1,0,2.14-0.73,2.43-1.91C39.84,29.25,39.1,28,37.93,27.53z M23,30.98
		c-0.98-0.33-2.45-1.16-3.4-2.42c-1.13-1.51-1.32-3.33-0.58-5.56c0,0,0,0,0,0c0.53-1.6,1.66-2.89,3.17-3.64
		c0.89-0.44,1.85-0.67,2.81-0.67c0.67,0,1.35,0.11,2.01,0.33c3.3,1.1,5.08,4.68,3.98,7.98c-0.53,1.6-1.66,2.89-3.17,3.64
		C26.31,31.4,24.6,31.51,23,30.98z"/>
</g>
</svg>
