<?xml version="1.0" encoding="utf-8"?>
<!-- Generator: Adobe Illustrator 23.0.4, SVG Export Plug-In . SVG Version: 6.00 Build 0)  -->
<svg version="1.1" xmlns="http://www.w3.org/2000/svg" xmlns:xlink="http://www.w3.org/1999/xlink" x="0px" y="0px"
	 viewBox="0 0 50 50" style="enable-background:new 0 0 50 50;" xml:space="preserve">
<style type="text/css">
	.st0{fill:none;stroke:#000000;stroke-miterlimit:10;}
	.st1{fill:#C46F24;}
	.st2{opacity:0.5;fill:#C46F24;}
	.st3{fill:#C1631E;}
	.st4{fill:#FFFFFF;stroke:#000000;stroke-width:7;stroke-linecap:round;stroke-linejoin:round;stroke-miterlimit:10;}
	.st5{fill:#FFFFFF;stroke:#000000;stroke-width:7;stroke-miterlimit:10;}
	.st6{fill:none;stroke:#000000;stroke-width:7;stroke-linecap:round;stroke-miterlimit:10;}
	.st7{fill:#FFFFFF;stroke:#000000;stroke-width:5;stroke-miterlimit:10;}
	.st8{fill:none;stroke:#000000;stroke-width:3;stroke-linecap:round;stroke-miterlimit:10;}
	.st9{fill:#F15A24;stroke:#FFFFFF;stroke-width:5;stroke-linecap:round;stroke-linejoin:round;stroke-miterlimit:10;}
	.st10{fill:none;stroke:#000000;stroke-width:5;stroke-linecap:round;stroke-linejoin:round;stroke-miterlimit:10;}
	.st11{fill:none;stroke:#000000;stroke-width:3;stroke-linecap:round;stroke-linejoin:round;stroke-miterlimit:10;}
	.st12{fill:#FFFFFF;}
	.st13{fill:#FFFFFF;stroke:#333333;stroke-width:5;stroke-linecap:round;stroke-linejoin:round;stroke-miterlimit:10;}
	.st14{fill:none;stroke:#333333;stroke-width:5;stroke-linecap:round;stroke-linejoin:round;stroke-dasharray:4.088,10.22;}
	.st15{fill:#FFFFFF;stroke:#333333;stroke-width:3;stroke-linecap:round;stroke-linejoin:round;stroke-miterlimit:10;}
	.st16{fill:none;stroke:#FFFFFF;stroke-width:5;stroke-linecap:round;stroke-linejoin:round;stroke-miterlimit:10;}
	.st17{fill:none;stroke:#FFFFFF;stroke-width:3;stroke-linecap:round;stroke-linejoin:round;stroke-miterlimit:10;}
	.st18{fill:none;stroke:#969696;stroke-width:5;stroke-miterlimit:10;}
	.st19{fill:#B3B3B3;stroke:#4D4D4D;stroke-width:3;stroke-linecap:round;stroke-linejoin:round;stroke-miterlimit:10;}
	.st20{fill:#B3B3B3;stroke:#4D4D4D;stroke-width:5;stroke-linecap:round;stroke-linejoin:round;stroke-miterlimit:10;}
	.st21{fill:none;stroke:#4D4D4D;stroke-width:3;stroke-linecap:round;stroke-linejoin:round;stroke-miterlimit:10;}
	.st22{fill:#FFFFFF;stroke:#000000;stroke-miterlimit:10;}
	.st23{fill:none;stroke:#000000;stroke-width:3;stroke-miterlimit:10;}
	.st24{fill:none;stroke:#FFFFFF;stroke-width:5;stroke-linecap:round;stroke-linejoin:round;}
	.st25{fill:none;stroke:#FFFFFF;stroke-width:5;stroke-linecap:round;stroke-linejoin:round;stroke-dasharray:3.2727,9.8182;}
	.st26{fill:none;stroke:#333333;stroke-width:3;stroke-linecap:round;stroke-linejoin:round;stroke-miterlimit:10;}
	.st27{fill:none;stroke:#333333;stroke-width:5;stroke-linecap:round;stroke-linejoin:round;stroke-miterlimit:10;}
	.st28{fill:none;stroke:#333333;stroke-width:2;stroke-linecap:round;stroke-linejoin:round;stroke-miterlimit:10;}
	.st29{fill:none;stroke:#E6E6E6;stroke-width:5;stroke-linecap:round;stroke-linejoin:round;stroke-miterlimit:10;}
	.st30{fill:#1EB287;}
	.st31{fill:#DEEDCB;}
	.st32{fill:#505305;}
	.st33{fill:#186435;}
	.st34{fill:#A44F79;}
	.st35{fill:#2AB188;}
	.st36{fill:#A35915;}
	.st37{fill:#4D4D4D;}
	.st38{fill:#F6B330;}
	.st39{fill:#324872;}
	.st40{fill:#2BA270;}
	.st41{fill:#53A4EA;}
	.st42{fill:#3BA2A0;}
	.st43{fill:#1792CD;}
	.st44{fill:#0C2E3D;}
	.st45{fill:#35761B;}
	.st46{fill:#0C6364;}
	.st47{fill:#F4A519;}
	.st48{opacity:0.06;fill:#3B9910;}
	.st49{opacity:0.06;fill:#E56200;}
	.st50{opacity:0.06;fill:#2E5799;}
	.st51{opacity:0.06;fill:#007F7C;}
	.st52{opacity:0.06;fill:#00B7FF;}
	.st53{opacity:0.06;fill:#FF9D00;}
	.st54{opacity:0.06;fill:#00CC8D;}
	.st55{fill:#91A7B4;}
	.st56{fill:#9F6300;}
	.st57{fill:#07B386;}
	.st58{fill:#FF4D2D;}
	.st59{fill:#F9FBFC;}
	.st60{fill:#FBF7F0;}
	.st61{fill:#F0F8F8;}
	.st62{fill:#F1FCF9;}
	.st63{fill:#FFF7F6;}
	.st64{fill:#AF8761;}
	.st65{fill:#FFF8F3;}
	.st66{fill:none;stroke:#FFFFFF;stroke-width:5;stroke-linecap:round;stroke-miterlimit:10;}
	.st67{fill:none;stroke:#FFFFFF;stroke-width:3;stroke-linecap:round;stroke-miterlimit:10;}
	.st68{fill:#F15A24;}
	.st69{fill:#F15A24;stroke:#000000;stroke-width:5;stroke-linecap:round;stroke-linejoin:round;stroke-miterlimit:10;}
	.st70{fill:none;stroke:#000000;stroke-width:5;stroke-miterlimit:10;}
	.st71{fill:#FFFFFF;stroke:#000000;stroke-width:3;stroke-miterlimit:10;}
	.st72{opacity:0.8;enable-background:new    ;}
	.st73{clip-path:url(#SVGID_2_);}
	.st74{clip-path:url(#SVGID_4_);}
	.st75{clip-path:url(#SVGID_6_);fill:#333333;}
	.st76{clip-path:url(#SVGID_8_);}
	.st77{clip-path:url(#SVGID_10_);fill:#333333;}
	.st78{clip-path:url(#SVGID_12_);}
	.st79{clip-path:url(#SVGID_14_);}
	.st80{clip-path:url(#SVGID_16_);fill:#333333;}
	.st81{clip-path:url(#SVGID_18_);}
	.st82{clip-path:url(#SVGID_20_);fill:#333333;}
	.st83{clip-path:url(#SVGID_22_);}
	.st84{clip-path:url(#SVGID_24_);fill:#333333;}
	.st85{clip-path:url(#SVGID_26_);}
	.st86{clip-path:url(#SVGID_28_);fill:#333333;}
	.st87{clip-path:url(#SVGID_30_);}
	.st88{clip-path:url(#SVGID_32_);fill:#333333;}
	.st89{clip-path:url(#SVGID_34_);}
	.st90{clip-path:url(#SVGID_36_);fill:#333333;}
	.st91{clip-path:url(#SVGID_38_);}
	.st92{clip-path:url(#SVGID_40_);fill:#333333;}
	.st93{clip-path:url(#SVGID_42_);}
	.st94{clip-path:url(#SVGID_44_);fill:#333333;}
	.st95{clip-path:url(#SVGID_46_);}
	.st96{clip-path:url(#SVGID_48_);fill:#333333;}
	.st97{clip-path:url(#SVGID_50_);}
	.st98{clip-path:url(#SVGID_52_);fill:#333333;}
	.st99{clip-path:url(#SVGID_54_);}
	.st100{clip-path:url(#SVGID_56_);fill:#333333;}
	.st101{clip-path:url(#SVGID_58_);}
	.st102{clip-path:url(#SVGID_60_);fill:#333333;}
	.st103{clip-path:url(#SVGID_62_);}
	.st104{clip-path:url(#SVGID_64_);}
	.st105{clip-path:url(#SVGID_66_);enable-background:new    ;}
	.st106{clip-path:url(#SVGID_68_);}
	.st107{clip-path:url(#SVGID_70_);}
	.st108{clip-path:url(#SVGID_72_);fill:#333333;}
	.st109{clip-path:url(#SVGID_74_);}
	.st110{clip-path:url(#SVGID_76_);}
	.st111{clip-path:url(#SVGID_78_);fill:#333333;}
	.st112{clip-path:url(#SVGID_80_);}
	.st113{clip-path:url(#SVGID_82_);fill:#333333;}
	.st114{clip-path:url(#SVGID_84_);}
	.st115{clip-path:url(#SVGID_86_);}
	.st116{clip-path:url(#SVGID_88_);fill:#333333;}
	.st117{clip-path:url(#SVGID_90_);}
	.st118{clip-path:url(#SVGID_92_);fill:#333333;}
	.st119{clip-path:url(#SVGID_94_);}
	.st120{clip-path:url(#SVGID_96_);fill:#333333;}
	.st121{clip-path:url(#SVGID_98_);}
	.st122{clip-path:url(#SVGID_100_);fill:#333333;}
	.st123{opacity:0.8;clip-path:url(#SVGID_102_);fill:#333333;}
	.st124{fill:#FFFFFF;stroke:#000000;stroke-width:7;stroke-linecap:round;stroke-miterlimit:10;}
	.st125{fill:#FFFFFF;stroke:#000000;stroke-width:3;stroke-linecap:round;stroke-miterlimit:10;}
	.st126{fill:#FFFFFF;stroke:#000000;stroke-width:3;stroke-linecap:round;stroke-linejoin:round;stroke-miterlimit:10;}
	.st127{fill:#FFFFFF;stroke:#000000;stroke-width:5;stroke-linecap:round;stroke-linejoin:round;stroke-miterlimit:10;}
	.st128{opacity:0.8;}
	.st129{opacity:0.8;fill:#FFFFFF;}
	.st130{fill:none;stroke:#FFFFFF;stroke-width:6;stroke-miterlimit:10;}
	.st131{fill:none;stroke:#FFFFFF;stroke-width:3;stroke-miterlimit:10;}
	.st132{opacity:0.2;fill:url(#SVGID_103_);}
	.st133{fill:#D8EAD2;}
	.st134{opacity:0.2;fill:url(#SVGID_104_);}
	.st135{opacity:0.06;fill:#E07127;}
</style>
<g id="Layer_2">
</g>
<g id="Layer_3">
</g>
<g id="Layer_4">
</g>
<g id="Layer_1">
	<path d="M41.87,27.98l-0.24-0.08c-0.87-0.28-1.42-1.12-1.37-2.03c0.03-0.5,0.03-1.01,0.01-1.51c-0.04-0.91,0.51-1.73,1.37-2.01
		l0.22-0.07c1.29-0.42,2.13-1.76,1.78-3.07c-0.38-1.39-1.84-2.17-3.19-1.73l-0.29,0.09c-0.87,0.28-1.81-0.07-2.31-0.85
		c-0.28-0.44-0.58-0.86-0.9-1.27c-0.56-0.71-0.6-1.7-0.07-2.43l0.07-0.1c0.78-1.08,0.72-2.59-0.25-3.46c-1.12-1-2.83-0.8-3.69,0.39
		l-0.14,0.2c-0.54,0.74-1.5,1.01-2.35,0.68c-0.5-0.19-1-0.36-1.51-0.49c-0.88-0.24-1.5-1.02-1.5-1.93V8.23
		c0-1.32-0.94-2.52-2.24-2.65c-1.5-0.15-2.76,1.02-2.76,2.49l0,0.26c0,0.91-0.62,1.69-1.5,1.93c-0.51,0.14-1.01,0.3-1.5,0.49
		c-0.85,0.33-1.81,0.06-2.35-0.68l-0.06-0.08c-0.78-1.07-2.24-1.48-3.37-0.83c-1.3,0.76-1.63,2.45-0.77,3.63l0.16,0.22
		c0.54,0.74,0.49,1.73-0.08,2.44c-0.25,0.31-0.57,0.8-0.87,1.27c-0.49,0.78-1.44,1.13-2.32,0.84l-0.17-0.06
		c-1.24-0.4-2.67,0.12-3.19,1.32c-0.61,1.38,0.12,2.94,1.51,3.39l0.36,0.12c0.86,0.28,1.41,1.1,1.37,2
		c-0.02,0.5-0.02,1.01,0.01,1.51c0.05,0.92-0.5,1.76-1.37,2.04l-0.24,0.08c-1.23,0.4-2.07,1.64-1.81,2.91
		c0.25,1.22,1.31,2.01,2.45,2.01c0.26,0,0.52-0.04,0.77-0.12l0.42-0.14c0.86-0.28,1.79,0.06,2.29,0.82c0.27,0.41,0.56,0.8,0.87,1.18
		c0.57,0.71,0.62,1.71,0.08,2.45l-0.15,0.21c-0.85,1.17-0.7,2.8,0.42,3.63c0.45,0.33,0.97,0.49,1.49,0.49
		c0.77,0,1.54-0.36,2.02-1.03l0.27-0.37c0.54-0.75,1.53-1.01,2.38-0.67c0.48,0.2,0.95,0.36,1.42,0.51c0.85,0.26,1.43,1.03,1.43,1.91
		l0,0.22c0,1.35,0.94,2.54,2.24,2.67c1.5,0.15,2.76-1.02,2.76-2.49V40.4c1.67-0.26,3.1-0.81,4.24-1.41
		c0.06-0.03,0.11-0.06,0.16-0.09L33,40.4c0.49,0.67,1.25,1.03,2.02,1.03c0.52,0,1.04-0.16,1.49-0.49c1.12-0.83,1.26-2.47,0.45-3.59
		l-0.18-0.24c-0.53-0.72-0.51-1.71,0.05-2.41c0.35-0.44,0.65-0.86,0.9-1.23c0.5-0.75,1.43-1.09,2.29-0.81l0.42,0.14
		c0.26,0.08,0.52,0.12,0.77,0.12c1.14,0,2.2-0.79,2.45-2.01C43.93,29.62,43.1,28.38,41.87,27.98z M29.41,34.56
		c-2.74,1.45-5.83,1.31-9.16-0.43c-5.04-2.62-7-8.85-4.38-13.89c1.83-3.52,5.43-5.54,9.15-5.54c1.6,0,3.22,0.37,4.74,1.16
		c5.04,2.62,7,8.85,4.38,13.89C33.33,31.3,31.67,33.37,29.41,34.56z"/>
</g>
</svg>
