<?xml version="1.0" encoding="utf-8"?>
<!-- Generator: Adobe Illustrator 23.0.1, SVG Export Plug-In . SVG Version: 6.00 Build 0)  -->
<svg version="1.1" xmlns="http://www.w3.org/2000/svg" xmlns:xlink="http://www.w3.org/1999/xlink" x="0px" y="0px"
	 viewBox="0 0 50 50" style="enable-background:new 0 0 50 50;" xml:space="preserve">
<style type="text/css">
	.st0{fill:none;stroke:#000000;stroke-miterlimit:10;}
	.st1{fill:#C46F24;}
	.st2{opacity:0.5;fill:#C46F24;}
	.st3{fill:#FFFFFF;stroke:#000000;stroke-width:7;stroke-miterlimit:10;}
	.st4{fill:none;stroke:#000000;stroke-width:7;stroke-linecap:round;stroke-miterlimit:10;}
	.st5{fill:#FFFFFF;stroke:#000000;stroke-width:5;stroke-miterlimit:10;}
	.st6{fill:none;stroke:#000000;stroke-width:3;stroke-linecap:round;stroke-miterlimit:10;}
	.st7{fill:#F15A24;stroke:#FFFFFF;stroke-width:5;stroke-linecap:round;stroke-linejoin:round;stroke-miterlimit:10;}
	.st8{fill:none;stroke:#000000;stroke-width:5;stroke-linecap:round;stroke-linejoin:round;stroke-miterlimit:10;}
	.st9{fill:none;stroke:#000000;stroke-width:3;stroke-linecap:round;stroke-linejoin:round;stroke-miterlimit:10;}
	.st10{fill:#FFFFFF;}
	.st11{fill:#FFFFFF;stroke:#333333;stroke-width:5;stroke-linecap:round;stroke-linejoin:round;stroke-miterlimit:10;}
	.st12{fill:none;stroke:#333333;stroke-width:5;stroke-linecap:round;stroke-linejoin:round;stroke-dasharray:4.088,10.22;}
	.st13{fill:#FFFFFF;stroke:#333333;stroke-width:3;stroke-linecap:round;stroke-linejoin:round;stroke-miterlimit:10;}
	.st14{fill:none;stroke:#FFFFFF;stroke-width:5;stroke-linecap:round;stroke-linejoin:round;stroke-miterlimit:10;}
	.st15{fill:none;stroke:#FFFFFF;stroke-width:3;stroke-linecap:round;stroke-linejoin:round;stroke-miterlimit:10;}
	.st16{fill:none;stroke:#969696;stroke-width:5;stroke-miterlimit:10;}
	.st17{fill:#B3B3B3;stroke:#4D4D4D;stroke-width:3;stroke-linecap:round;stroke-linejoin:round;stroke-miterlimit:10;}
	.st18{fill:#B3B3B3;stroke:#4D4D4D;stroke-width:5;stroke-linecap:round;stroke-linejoin:round;stroke-miterlimit:10;}
	.st19{fill:none;stroke:#4D4D4D;stroke-width:3;stroke-linecap:round;stroke-linejoin:round;stroke-miterlimit:10;}
	.st20{fill:#FFFFFF;stroke:#000000;stroke-miterlimit:10;}
	.st21{fill:none;stroke:#000000;stroke-width:3;stroke-miterlimit:10;}
	.st22{fill:none;stroke:#FFFFFF;stroke-width:5;stroke-linecap:round;stroke-linejoin:round;}
	.st23{fill:none;stroke:#FFFFFF;stroke-width:5;stroke-linecap:round;stroke-linejoin:round;stroke-dasharray:3.2727,9.8182;}
	.st24{fill:none;stroke:#333333;stroke-width:3;stroke-linecap:round;stroke-linejoin:round;stroke-miterlimit:10;}
	.st25{fill:none;stroke:#333333;stroke-width:5;stroke-linecap:round;stroke-linejoin:round;stroke-miterlimit:10;}
	.st26{fill:none;stroke:#333333;stroke-width:2;stroke-linecap:round;stroke-linejoin:round;stroke-miterlimit:10;}
	.st27{fill:none;stroke:#E6E6E6;stroke-width:5;stroke-linecap:round;stroke-linejoin:round;stroke-miterlimit:10;}
	.st28{fill:#1EB287;}
	.st29{fill:#DEEDCB;}
	.st30{fill:#505305;}
	.st31{fill:#186435;}
	.st32{fill:#A44F79;}
	.st33{fill:#2AB188;}
	.st34{fill:#A35915;}
	.st35{fill:#4D4D4D;}
	.st36{fill:#F6B330;}
	.st37{fill:#324872;}
	.st38{fill:#2BA270;}
	.st39{fill:#53A4EA;}
	.st40{fill:#3BA2A0;}
	.st41{fill:#1792CD;}
	.st42{fill:#0C2E3D;}
	.st43{fill:#35761B;}
	.st44{fill:#0C6364;}
	.st45{fill:#F4A519;}
	.st46{opacity:0.06;fill:#3B9910;}
	.st47{opacity:0.06;fill:#E56200;}
	.st48{opacity:0.06;fill:#2E5799;}
	.st49{opacity:0.06;fill:#007F7C;}
	.st50{opacity:0.06;fill:#00B7FF;}
	.st51{opacity:0.06;fill:#FF9D00;}
	.st52{opacity:0.06;fill:#00CC8D;}
	.st53{fill:none;stroke:#FFFFFF;stroke-width:5;stroke-linecap:round;stroke-miterlimit:10;}
	.st54{fill:none;stroke:#FFFFFF;stroke-width:3;stroke-linecap:round;stroke-miterlimit:10;}
	.st55{fill:#F15A24;}
	.st56{fill:#F15A24;stroke:#000000;stroke-width:5;stroke-linecap:round;stroke-linejoin:round;stroke-miterlimit:10;}
	.st57{fill:none;stroke:#000000;stroke-width:5;stroke-miterlimit:10;}
	.st58{fill:#FFFFFF;stroke:#000000;stroke-width:3;stroke-miterlimit:10;}
	.st59{opacity:0.8;enable-background:new    ;}
	.st60{clip-path:url(#SVGID_2_);}
	.st61{clip-path:url(#SVGID_4_);}
	.st62{clip-path:url(#SVGID_6_);fill:#333333;}
	.st63{clip-path:url(#SVGID_8_);}
	.st64{clip-path:url(#SVGID_10_);fill:#333333;}
	.st65{clip-path:url(#SVGID_12_);}
	.st66{clip-path:url(#SVGID_14_);}
	.st67{clip-path:url(#SVGID_16_);fill:#333333;}
	.st68{clip-path:url(#SVGID_18_);}
	.st69{clip-path:url(#SVGID_20_);fill:#333333;}
	.st70{clip-path:url(#SVGID_22_);}
	.st71{clip-path:url(#SVGID_24_);fill:#333333;}
	.st72{clip-path:url(#SVGID_26_);}
	.st73{clip-path:url(#SVGID_28_);fill:#333333;}
	.st74{clip-path:url(#SVGID_30_);}
	.st75{clip-path:url(#SVGID_32_);fill:#333333;}
	.st76{clip-path:url(#SVGID_34_);}
	.st77{clip-path:url(#SVGID_36_);fill:#333333;}
	.st78{clip-path:url(#SVGID_38_);}
	.st79{clip-path:url(#SVGID_40_);fill:#333333;}
	.st80{clip-path:url(#SVGID_42_);}
	.st81{clip-path:url(#SVGID_44_);fill:#333333;}
	.st82{clip-path:url(#SVGID_46_);}
	.st83{clip-path:url(#SVGID_48_);fill:#333333;}
	.st84{clip-path:url(#SVGID_50_);}
	.st85{clip-path:url(#SVGID_52_);fill:#333333;}
	.st86{clip-path:url(#SVGID_54_);}
	.st87{clip-path:url(#SVGID_56_);fill:#333333;}
	.st88{clip-path:url(#SVGID_58_);}
	.st89{clip-path:url(#SVGID_60_);fill:#333333;}
	.st90{clip-path:url(#SVGID_62_);}
	.st91{clip-path:url(#SVGID_64_);}
	.st92{clip-path:url(#SVGID_66_);enable-background:new    ;}
	.st93{clip-path:url(#SVGID_68_);}
	.st94{clip-path:url(#SVGID_70_);}
	.st95{clip-path:url(#SVGID_72_);fill:#333333;}
	.st96{clip-path:url(#SVGID_74_);}
	.st97{clip-path:url(#SVGID_76_);}
	.st98{clip-path:url(#SVGID_78_);fill:#333333;}
	.st99{clip-path:url(#SVGID_80_);}
	.st100{clip-path:url(#SVGID_82_);fill:#333333;}
	.st101{clip-path:url(#SVGID_84_);}
	.st102{clip-path:url(#SVGID_86_);}
	.st103{clip-path:url(#SVGID_88_);fill:#333333;}
	.st104{clip-path:url(#SVGID_90_);}
	.st105{clip-path:url(#SVGID_92_);fill:#333333;}
	.st106{clip-path:url(#SVGID_94_);}
	.st107{clip-path:url(#SVGID_96_);fill:#333333;}
	.st108{clip-path:url(#SVGID_98_);}
	.st109{clip-path:url(#SVGID_100_);fill:#333333;}
	.st110{opacity:0.8;clip-path:url(#SVGID_102_);fill:#333333;}
</style>
<g id="Layer_2">
</g>
<g id="Layer_3">
</g>
<g id="Layer_4">
</g>
<g id="Layer_1">
	<g>
		<path d="M43.89,5.33c-4.71-1.42-11.55-2.24-18.76-2.24S11.07,3.91,6.37,5.33C5.32,5.65,4.63,6.63,4.63,7.72l0,13.76
			c0,1.11,0.73,2.08,1.8,2.4c0.83,0.25,1.73,0.48,2.68,0.69c0.59,0.13,1.02,0.65,1.02,1.25v2.55c0,0.83,0.67,1.5,1.5,1.5
			s1.5-0.67,1.5-1.5v-1.92c0-0.62,0.54-1.09,1.16-1.01c1.18,0.15,2.41,0.28,3.68,0.38c0.65,0.05,1.16,0.59,1.16,1.25v2.31
			c0,0.83,0.67,1.5,1.5,1.5c0.83,0,1.5-0.67,1.5-1.5v-2.09c0-0.68,0.56-1.22,1.23-1.2c0.59,0.01,1.17,0.02,1.77,0.02
			s1.18-0.01,1.77-0.02c0.68-0.01,1.23,0.53,1.23,1.2v2.09c0,0.83,0.67,1.5,1.5,1.5c0.83,0,1.5-0.67,1.5-1.5v-2.31
			c0-0.66,0.51-1.2,1.16-1.25c1.26-0.1,2.49-0.23,3.68-0.38c0.62-0.08,1.16,0.39,1.16,1.01v1.92c0,0.83,0.67,1.5,1.5,1.5
			s1.5-0.67,1.5-1.5v-2.55c0-0.61,0.43-1.12,1.02-1.25c0.95-0.21,1.85-0.44,2.68-0.69c1.06-0.32,1.8-1.29,1.8-2.4l0-13.76
			C45.63,6.63,44.93,5.65,43.89,5.33z M25.13,8.09c5.57,0,10.85,0.5,14.91,1.41c0.34,0.08,0.59,0.38,0.59,0.74v0
			c0,0.36-0.25,0.67-0.6,0.74c-4.17,0.85-9.47,1.34-15.05,1.34c-5.45,0-10.63-0.46-14.75-1.28c-0.35-0.07-0.6-0.38-0.6-0.74v-0.06
			c0-0.35,0.24-0.66,0.59-0.74C14.28,8.6,19.56,8.09,25.13,8.09z M25.13,21.09c-5.18,0-10.1-0.44-14.04-1.22
			c-0.85-0.17-1.46-0.92-1.46-1.79v-2.73c0-0.71,0.63-1.25,1.33-1.13c4.08,0.7,8.95,1.09,14.02,1.09c5.19,0,10.17-0.41,14.31-1.14
			c0.7-0.12,1.35,0.43,1.35,1.14v2.77c0,0.87-0.61,1.62-1.46,1.79C35.23,20.66,30.3,21.09,25.13,21.09z"/>
		<path d="M27.61,38.72c-0.37-0.6-0.66-1.08-0.87-1.44l0,0c-0.36-0.61-1.02-0.94-1.71-0.97c-0.7,0-1.35,0.39-1.7,1
			c-0.2,0.35-0.48,0.83-0.85,1.42c-0.07,0.11-0.17,0.25-0.28,0.42c-0.76,1.11-2.17,3.19-2.17,5.49c0,2.83,2.24,5.13,5,5.13
			s5-2.3,5-5.13c0-2.31-1.4-4.39-2.16-5.51C27.77,38.97,27.67,38.83,27.61,38.72z M25.58,41.1c0.59,0.89,1.44,2.29,1.44,3.54
			c0,1.17-0.9,2.13-2,2.13c-1.1,0-2-0.96-2-2.13c0-1.23,0.86-2.63,1.46-3.52l0.15-0.22c0.2-0.29,0.63-0.29,0.82,0L25.58,41.1z"/>
	</g>
</g>
</svg>
