<?xml version="1.0" encoding="utf-8"?>
<!-- Generator: Adobe Illustrator 23.0.1, SVG Export Plug-In . SVG Version: 6.00 Build 0)  -->
<svg version="1.1" xmlns="http://www.w3.org/2000/svg" xmlns:xlink="http://www.w3.org/1999/xlink" x="0px" y="0px"
	 viewBox="0 0 50 50" style="enable-background:new 0 0 50 50;" xml:space="preserve">
<style type="text/css">
	.st0{fill:none;stroke:#000000;stroke-miterlimit:10;}
	.st1{fill:#C46F24;}
	.st2{opacity:0.5;fill:#C46F24;}
	.st3{fill:#FFFFFF;stroke:#000000;stroke-width:7;stroke-miterlimit:10;}
	.st4{fill:none;stroke:#000000;stroke-width:7;stroke-linecap:round;stroke-miterlimit:10;}
	.st5{fill:#FFFFFF;stroke:#000000;stroke-width:5;stroke-miterlimit:10;}
	.st6{fill:none;stroke:#000000;stroke-width:3;stroke-linecap:round;stroke-miterlimit:10;}
	.st7{fill:#F15A24;stroke:#FFFFFF;stroke-width:5;stroke-linecap:round;stroke-linejoin:round;stroke-miterlimit:10;}
	.st8{fill:none;stroke:#000000;stroke-width:5;stroke-linecap:round;stroke-linejoin:round;stroke-miterlimit:10;}
	.st9{fill:none;stroke:#000000;stroke-width:3;stroke-linecap:round;stroke-linejoin:round;stroke-miterlimit:10;}
	.st10{fill:#FFFFFF;}
	.st11{fill:#FFFFFF;stroke:#333333;stroke-width:5;stroke-linecap:round;stroke-linejoin:round;stroke-miterlimit:10;}
	.st12{fill:none;stroke:#333333;stroke-width:5;stroke-linecap:round;stroke-linejoin:round;stroke-dasharray:4.088,10.22;}
	.st13{fill:#FFFFFF;stroke:#333333;stroke-width:3;stroke-linecap:round;stroke-linejoin:round;stroke-miterlimit:10;}
	.st14{fill:none;stroke:#FFFFFF;stroke-width:5;stroke-linecap:round;stroke-linejoin:round;stroke-miterlimit:10;}
	.st15{fill:none;stroke:#FFFFFF;stroke-width:3;stroke-linecap:round;stroke-linejoin:round;stroke-miterlimit:10;}
	.st16{fill:none;stroke:#969696;stroke-width:5;stroke-miterlimit:10;}
	.st17{fill:#B3B3B3;stroke:#4D4D4D;stroke-width:3;stroke-linecap:round;stroke-linejoin:round;stroke-miterlimit:10;}
	.st18{fill:#B3B3B3;stroke:#4D4D4D;stroke-width:5;stroke-linecap:round;stroke-linejoin:round;stroke-miterlimit:10;}
	.st19{fill:none;stroke:#4D4D4D;stroke-width:3;stroke-linecap:round;stroke-linejoin:round;stroke-miterlimit:10;}
	.st20{fill:#FFFFFF;stroke:#000000;stroke-miterlimit:10;}
	.st21{fill:none;stroke:#000000;stroke-width:3;stroke-miterlimit:10;}
	.st22{fill:none;stroke:#FFFFFF;stroke-width:5;stroke-linecap:round;stroke-linejoin:round;}
	.st23{fill:none;stroke:#FFFFFF;stroke-width:5;stroke-linecap:round;stroke-linejoin:round;stroke-dasharray:3.2727,9.8182;}
	.st24{fill:none;stroke:#333333;stroke-width:3;stroke-linecap:round;stroke-linejoin:round;stroke-miterlimit:10;}
	.st25{fill:none;stroke:#333333;stroke-width:5;stroke-linecap:round;stroke-linejoin:round;stroke-miterlimit:10;}
	.st26{fill:none;stroke:#333333;stroke-width:2;stroke-linecap:round;stroke-linejoin:round;stroke-miterlimit:10;}
	.st27{fill:none;stroke:#E6E6E6;stroke-width:5;stroke-linecap:round;stroke-linejoin:round;stroke-miterlimit:10;}
	.st28{fill:#1EB287;}
	.st29{fill:#DEEDCB;}
	.st30{fill:#505305;}
	.st31{fill:#186435;}
	.st32{fill:#A44F79;}
	.st33{fill:#2AB188;}
	.st34{fill:#A35915;}
	.st35{fill:#4D4D4D;}
	.st36{fill:#F6B330;}
	.st37{fill:#324872;}
	.st38{fill:#2BA270;}
	.st39{fill:#53A4EA;}
	.st40{fill:#3BA2A0;}
	.st41{fill:#1792CD;}
	.st42{fill:#0C2E3D;}
	.st43{fill:#35761B;}
	.st44{fill:#0C6364;}
	.st45{fill:#F4A519;}
	.st46{opacity:0.06;fill:#3B9910;}
	.st47{opacity:0.06;fill:#E56200;}
	.st48{opacity:0.06;fill:#2E5799;}
	.st49{opacity:0.06;fill:#007F7C;}
	.st50{opacity:0.06;fill:#00B7FF;}
	.st51{opacity:0.06;fill:#FF9D00;}
	.st52{opacity:0.06;fill:#00CC8D;}
	.st53{fill:none;stroke:#FFFFFF;stroke-width:5;stroke-linecap:round;stroke-miterlimit:10;}
	.st54{fill:none;stroke:#FFFFFF;stroke-width:3;stroke-linecap:round;stroke-miterlimit:10;}
	.st55{fill:#F15A24;}
	.st56{fill:#F15A24;stroke:#000000;stroke-width:5;stroke-linecap:round;stroke-linejoin:round;stroke-miterlimit:10;}
	.st57{fill:none;stroke:#000000;stroke-width:5;stroke-miterlimit:10;}
	.st58{fill:#FFFFFF;stroke:#000000;stroke-width:3;stroke-miterlimit:10;}
	.st59{opacity:0.8;enable-background:new    ;}
	.st60{clip-path:url(#SVGID_2_);}
	.st61{clip-path:url(#SVGID_4_);}
	.st62{clip-path:url(#SVGID_6_);fill:#333333;}
	.st63{clip-path:url(#SVGID_8_);}
	.st64{clip-path:url(#SVGID_10_);fill:#333333;}
	.st65{clip-path:url(#SVGID_12_);}
	.st66{clip-path:url(#SVGID_14_);}
	.st67{clip-path:url(#SVGID_16_);fill:#333333;}
	.st68{clip-path:url(#SVGID_18_);}
	.st69{clip-path:url(#SVGID_20_);fill:#333333;}
	.st70{clip-path:url(#SVGID_22_);}
	.st71{clip-path:url(#SVGID_24_);fill:#333333;}
	.st72{clip-path:url(#SVGID_26_);}
	.st73{clip-path:url(#SVGID_28_);fill:#333333;}
	.st74{clip-path:url(#SVGID_30_);}
	.st75{clip-path:url(#SVGID_32_);fill:#333333;}
	.st76{clip-path:url(#SVGID_34_);}
	.st77{clip-path:url(#SVGID_36_);fill:#333333;}
	.st78{clip-path:url(#SVGID_38_);}
	.st79{clip-path:url(#SVGID_40_);fill:#333333;}
	.st80{clip-path:url(#SVGID_42_);}
	.st81{clip-path:url(#SVGID_44_);fill:#333333;}
	.st82{clip-path:url(#SVGID_46_);}
	.st83{clip-path:url(#SVGID_48_);fill:#333333;}
	.st84{clip-path:url(#SVGID_50_);}
	.st85{clip-path:url(#SVGID_52_);fill:#333333;}
	.st86{clip-path:url(#SVGID_54_);}
	.st87{clip-path:url(#SVGID_56_);fill:#333333;}
	.st88{clip-path:url(#SVGID_58_);}
	.st89{clip-path:url(#SVGID_60_);fill:#333333;}
	.st90{clip-path:url(#SVGID_62_);}
	.st91{clip-path:url(#SVGID_64_);}
	.st92{clip-path:url(#SVGID_66_);enable-background:new    ;}
	.st93{clip-path:url(#SVGID_68_);}
	.st94{clip-path:url(#SVGID_70_);}
	.st95{clip-path:url(#SVGID_72_);fill:#333333;}
	.st96{clip-path:url(#SVGID_74_);}
	.st97{clip-path:url(#SVGID_76_);}
	.st98{clip-path:url(#SVGID_78_);fill:#333333;}
	.st99{clip-path:url(#SVGID_80_);}
	.st100{clip-path:url(#SVGID_82_);fill:#333333;}
	.st101{clip-path:url(#SVGID_84_);}
	.st102{clip-path:url(#SVGID_86_);}
	.st103{clip-path:url(#SVGID_88_);fill:#333333;}
	.st104{clip-path:url(#SVGID_90_);}
	.st105{clip-path:url(#SVGID_92_);fill:#333333;}
	.st106{clip-path:url(#SVGID_94_);}
	.st107{clip-path:url(#SVGID_96_);fill:#333333;}
	.st108{clip-path:url(#SVGID_98_);}
	.st109{clip-path:url(#SVGID_100_);fill:#333333;}
	.st110{opacity:0.8;clip-path:url(#SVGID_102_);fill:#333333;}
</style>
<g id="Layer_2">
</g>
<g id="Layer_3">
</g>
<g id="Layer_4">
</g>
<g id="Layer_1">
	<path d="M29.58,2.46C23.56,1.23,17.43,2.43,12.3,5.82s-8.62,8.58-9.84,14.6S2.43,32.58,5.82,37.7c3.39,5.12,8.58,8.62,14.6,9.84
		c1.54,0.31,3.07,0.46,4.59,0.46c10.71,0,20.32-7.53,22.53-18.42C50.07,17.15,42.01,4.99,29.58,2.46z M8.93,16.83
		c0.68-1.4,1.57-2.7,2.62-3.84c3.62-3.93,8.44-5.99,13.41-5.99c1.2,0,2.42,0.12,3.62,0.37c3.52,0.72,6.59,2.43,8.99,4.78
		c0.86,0.84,0.74,2.25-0.26,2.91l-3.54,2.34c-0.66,0.44-1.54,0.34-2.09-0.23c-3.52-3.67-8.7-5.55-14.38-5.1
		c-0.51,0.04-0.98,0.35-1.22,0.81c-2.63,5.06-2.91,10.57-0.91,15.24c0.31,0.72,0.05,1.56-0.61,2l-3.54,2.35
		c-1,0.67-2.35,0.21-2.79-0.91C6.41,26.91,6.56,21.66,8.93,16.83z M19.78,15.02c3.58,0.17,6.79,1.47,9.18,3.67
		c0.61,0.56,0.51,1.56-0.18,2.02l-2.32,1.53c-0.57,0.38-1.33,0.22-1.71-0.35l-0.66-1c-0.46-0.69-1.39-0.88-2.08-0.42
		c-0.69,0.46-0.88,1.39-0.42,2.08l0.66,1c0.38,0.57,0.22,1.33-0.35,1.71l-2.32,1.54c-0.69,0.46-1.65,0.16-1.93-0.62
		c-1.09-3.06-1.03-6.52,0.2-9.88C18.14,15.5,18.92,14.98,19.78,15.02z M25.26,28.11l3.64,5.5c0.36,0.54-0.1,1.25-0.74,1.14
		c-2.74-0.49-5.19-1.67-7.11-3.43c-0.61-0.56-0.51-1.56,0.18-2.02l2.31-1.53C24.12,27.38,24.88,27.54,25.26,28.11z M31.41,31.95
		l-3.64-5.5c-0.38-0.57-0.22-1.33,0.35-1.71l2.32-1.54c0.69-0.46,1.65-0.16,1.93,0.62c0.88,2.46,1.01,5.18,0.38,7.89
		C32.6,32.34,31.76,32.49,31.41,31.95z M41.84,31.37c-2.76,7.41-10.26,12.2-18.15,11.59c-4.36-0.34-8.29-2.16-11.27-5.08
		c-0.86-0.84-0.75-2.26,0.26-2.92l3.54-2.35c0.66-0.44,1.54-0.34,2.09,0.23C21.49,36.15,26.02,38,31.05,38
		c0.54,0,1.09-0.02,1.64-0.06c0.51-0.04,0.98-0.35,1.22-0.81c2.63-5.06,2.91-10.57,0.91-15.24c-0.31-0.72-0.05-1.56,0.61-2
		l3.53-2.34c1-0.66,2.34-0.22,2.78,0.89C43.3,22.38,43.5,26.92,41.84,31.37z"/>
</g>
</svg>
