<?xml version="1.0" encoding="utf-8"?>
<!-- Generator: Adobe Illustrator 23.0.1, SVG Export Plug-In . SVG Version: 6.00 Build 0)  -->
<svg version="1.1" xmlns="http://www.w3.org/2000/svg" xmlns:xlink="http://www.w3.org/1999/xlink" x="0px" y="0px"
	 viewBox="0 0 50 50" style="enable-background:new 0 0 50 50;" xml:space="preserve">
<style type="text/css">
	.st0{fill:none;stroke:#000000;stroke-miterlimit:10;}
	.st1{fill:#C46F24;}
	.st2{opacity:0.5;fill:#C46F24;}
	.st3{fill:#FFFFFF;stroke:#000000;stroke-width:7;stroke-miterlimit:10;}
	.st4{fill:none;stroke:#000000;stroke-width:7;stroke-linecap:round;stroke-miterlimit:10;}
	.st5{fill:#FFFFFF;stroke:#000000;stroke-width:5;stroke-miterlimit:10;}
	.st6{fill:none;stroke:#000000;stroke-width:3;stroke-linecap:round;stroke-miterlimit:10;}
	.st7{fill:#F15A24;stroke:#FFFFFF;stroke-width:5;stroke-linecap:round;stroke-linejoin:round;stroke-miterlimit:10;}
	.st8{fill:none;stroke:#000000;stroke-width:5;stroke-linecap:round;stroke-linejoin:round;stroke-miterlimit:10;}
	.st9{fill:none;stroke:#000000;stroke-width:3;stroke-linecap:round;stroke-linejoin:round;stroke-miterlimit:10;}
	.st10{fill:#FFFFFF;}
	.st11{fill:#FFFFFF;stroke:#333333;stroke-width:5;stroke-linecap:round;stroke-linejoin:round;stroke-miterlimit:10;}
	.st12{fill:none;stroke:#333333;stroke-width:5;stroke-linecap:round;stroke-linejoin:round;stroke-dasharray:4.088,10.22;}
	.st13{fill:#FFFFFF;stroke:#333333;stroke-width:3;stroke-linecap:round;stroke-linejoin:round;stroke-miterlimit:10;}
	.st14{fill:none;stroke:#FFFFFF;stroke-width:5;stroke-linecap:round;stroke-linejoin:round;stroke-miterlimit:10;}
	.st15{fill:none;stroke:#FFFFFF;stroke-width:3;stroke-linecap:round;stroke-linejoin:round;stroke-miterlimit:10;}
	.st16{fill:none;stroke:#969696;stroke-width:5;stroke-miterlimit:10;}
	.st17{fill:#B3B3B3;stroke:#4D4D4D;stroke-width:3;stroke-linecap:round;stroke-linejoin:round;stroke-miterlimit:10;}
	.st18{fill:#B3B3B3;stroke:#4D4D4D;stroke-width:5;stroke-linecap:round;stroke-linejoin:round;stroke-miterlimit:10;}
	.st19{fill:none;stroke:#4D4D4D;stroke-width:3;stroke-linecap:round;stroke-linejoin:round;stroke-miterlimit:10;}
	.st20{fill:#FFFFFF;stroke:#000000;stroke-miterlimit:10;}
	.st21{fill:none;stroke:#000000;stroke-width:3;stroke-miterlimit:10;}
	.st22{fill:none;stroke:#FFFFFF;stroke-width:5;stroke-linecap:round;stroke-linejoin:round;}
	.st23{fill:none;stroke:#FFFFFF;stroke-width:5;stroke-linecap:round;stroke-linejoin:round;stroke-dasharray:3.2727,9.8182;}
	.st24{fill:none;stroke:#333333;stroke-width:3;stroke-linecap:round;stroke-linejoin:round;stroke-miterlimit:10;}
	.st25{fill:none;stroke:#333333;stroke-width:5;stroke-linecap:round;stroke-linejoin:round;stroke-miterlimit:10;}
	.st26{fill:none;stroke:#333333;stroke-width:2;stroke-linecap:round;stroke-linejoin:round;stroke-miterlimit:10;}
	.st27{fill:none;stroke:#E6E6E6;stroke-width:5;stroke-linecap:round;stroke-linejoin:round;stroke-miterlimit:10;}
	.st28{fill:#1EB287;}
	.st29{fill:#DEEDCB;}
	.st30{fill:#505305;}
	.st31{fill:#186435;}
	.st32{fill:#A44F79;}
	.st33{fill:#2AB188;}
	.st34{fill:#A35915;}
	.st35{fill:#4D4D4D;}
	.st36{fill:#F6B330;}
	.st37{fill:#324872;}
	.st38{fill:#2BA270;}
	.st39{fill:#53A4EA;}
	.st40{fill:#3BA2A0;}
	.st41{fill:#1792CD;}
	.st42{fill:#0C2E3D;}
	.st43{fill:#35761B;}
	.st44{fill:#0C6364;}
	.st45{fill:#F4A519;}
	.st46{opacity:0.06;fill:#3B9910;}
	.st47{opacity:0.06;fill:#E56200;}
	.st48{opacity:0.06;fill:#2E5799;}
	.st49{opacity:0.06;fill:#007F7C;}
	.st50{opacity:0.06;fill:#00B7FF;}
	.st51{opacity:0.06;fill:#FF9D00;}
	.st52{opacity:0.06;fill:#00CC8D;}
	.st53{fill:none;stroke:#FFFFFF;stroke-width:5;stroke-linecap:round;stroke-miterlimit:10;}
	.st54{fill:none;stroke:#FFFFFF;stroke-width:3;stroke-linecap:round;stroke-miterlimit:10;}
	.st55{fill:#F15A24;}
	.st56{fill:#F15A24;stroke:#000000;stroke-width:5;stroke-linecap:round;stroke-linejoin:round;stroke-miterlimit:10;}
	.st57{fill:none;stroke:#000000;stroke-width:5;stroke-miterlimit:10;}
	.st58{fill:#FFFFFF;stroke:#000000;stroke-width:3;stroke-miterlimit:10;}
	.st59{opacity:0.8;enable-background:new    ;}
	.st60{clip-path:url(#SVGID_2_);}
	.st61{clip-path:url(#SVGID_4_);}
	.st62{clip-path:url(#SVGID_6_);fill:#333333;}
	.st63{clip-path:url(#SVGID_8_);}
	.st64{clip-path:url(#SVGID_10_);fill:#333333;}
	.st65{clip-path:url(#SVGID_12_);}
	.st66{clip-path:url(#SVGID_14_);}
	.st67{clip-path:url(#SVGID_16_);fill:#333333;}
	.st68{clip-path:url(#SVGID_18_);}
	.st69{clip-path:url(#SVGID_20_);fill:#333333;}
	.st70{clip-path:url(#SVGID_22_);}
	.st71{clip-path:url(#SVGID_24_);fill:#333333;}
	.st72{clip-path:url(#SVGID_26_);}
	.st73{clip-path:url(#SVGID_28_);fill:#333333;}
	.st74{clip-path:url(#SVGID_30_);}
	.st75{clip-path:url(#SVGID_32_);fill:#333333;}
	.st76{clip-path:url(#SVGID_34_);}
	.st77{clip-path:url(#SVGID_36_);fill:#333333;}
	.st78{clip-path:url(#SVGID_38_);}
	.st79{clip-path:url(#SVGID_40_);fill:#333333;}
	.st80{clip-path:url(#SVGID_42_);}
	.st81{clip-path:url(#SVGID_44_);fill:#333333;}
	.st82{clip-path:url(#SVGID_46_);}
	.st83{clip-path:url(#SVGID_48_);fill:#333333;}
	.st84{clip-path:url(#SVGID_50_);}
	.st85{clip-path:url(#SVGID_52_);fill:#333333;}
	.st86{clip-path:url(#SVGID_54_);}
	.st87{clip-path:url(#SVGID_56_);fill:#333333;}
	.st88{clip-path:url(#SVGID_58_);}
	.st89{clip-path:url(#SVGID_60_);fill:#333333;}
	.st90{clip-path:url(#SVGID_62_);}
	.st91{clip-path:url(#SVGID_64_);}
	.st92{clip-path:url(#SVGID_66_);enable-background:new    ;}
	.st93{clip-path:url(#SVGID_68_);}
	.st94{clip-path:url(#SVGID_70_);}
	.st95{clip-path:url(#SVGID_72_);fill:#333333;}
	.st96{clip-path:url(#SVGID_74_);}
	.st97{clip-path:url(#SVGID_76_);}
	.st98{clip-path:url(#SVGID_78_);fill:#333333;}
	.st99{clip-path:url(#SVGID_80_);}
	.st100{clip-path:url(#SVGID_82_);fill:#333333;}
	.st101{clip-path:url(#SVGID_84_);}
	.st102{clip-path:url(#SVGID_86_);}
	.st103{clip-path:url(#SVGID_88_);fill:#333333;}
	.st104{clip-path:url(#SVGID_90_);}
	.st105{clip-path:url(#SVGID_92_);fill:#333333;}
	.st106{clip-path:url(#SVGID_94_);}
	.st107{clip-path:url(#SVGID_96_);fill:#333333;}
	.st108{clip-path:url(#SVGID_98_);}
	.st109{clip-path:url(#SVGID_100_);fill:#333333;}
	.st110{opacity:0.8;clip-path:url(#SVGID_102_);fill:#333333;}
</style>
<g id="Layer_2">
</g>
<g id="Layer_3">
</g>
<g id="Layer_4">
</g>
<g id="Layer_1">
	<g>
		<path d="M46.15,40c-0.85-0.25-1.73-0.14-2.46,0.31c-0.38,0.23-0.69,0.54-0.93,0.9c-0.3,0.46-0.69,0.85-1.15,1.15
			c-0.36,0.24-0.67,0.56-0.9,0.93c-0.45,0.73-0.56,1.61-0.31,2.46c0.36,1.24,1.58,2.11,2.96,2.11h1.91c1.71,0,3-1.38,3-3.21v-1.7
			C48.25,41.58,47.39,40.36,46.15,40z"/>
		<path d="M32.56,41.87h-3.15c-0.92,0-1.78,0.42-2.36,1.14c-0.57,0.73-0.78,1.67-0.55,2.59c0.31,1.31,1.59,2.26,3.03,2.26h3.15
			c0.92,0,1.78-0.42,2.36-1.14c0.57-0.73,0.78-1.67,0.55-2.59C35.28,42.82,34,41.87,32.56,41.87z"/>
		<path d="M19.47,41.87h-3.15c-0.92,0-1.78,0.42-2.36,1.14c-0.57,0.73-0.78,1.67-0.55,2.59c0.31,1.31,1.59,2.26,3.03,2.26h3.15
			c0.92,0,1.78-0.42,2.36-1.14c0.57-0.73,0.78-1.67,0.55-2.59C22.19,42.82,20.91,41.87,19.47,41.87z"/>
		<path d="M8.91,42.37c-0.46-0.3-0.85-0.69-1.15-1.15c-0.24-0.36-0.56-0.67-0.93-0.9C6.09,39.86,5.21,39.75,4.36,40
			c-1.24,0.36-2.11,1.58-2.11,2.96v1.91c0,1.66,1.34,3,3,3h1.91c1.38,0,2.59-0.87,2.96-2.11c0.25-0.85,0.14-1.73-0.31-2.46
			C9.58,42.92,9.27,42.6,8.91,42.37z"/>
		<path d="M4.52,35.59c0.24,0.06,0.49,0.09,0.73,0.09c0.67,0,1.32-0.22,1.86-0.64c0.73-0.57,1.14-1.43,1.14-2.36v-3.27
			c0-0.92-0.42-1.78-1.14-2.36s-1.67-0.78-2.59-0.56c-1.31,0.32-2.26,1.59-2.26,3.03v3.03C2.25,34,3.2,35.28,4.52,35.59z"/>
		<path d="M4.52,22.5c0.24,0.06,0.49,0.09,0.73,0.09c0.67,0,1.32-0.22,1.86-0.64c0.73-0.57,1.14-1.43,1.14-2.36v-3.27
			c0-0.92-0.42-1.78-1.14-2.36c-0.73-0.57-1.67-0.78-2.59-0.56C3.2,13.72,2.25,15,2.25,16.44v3.03C2.25,20.91,3.2,22.19,4.52,22.5z"
			/>
		<path d="M7.16,1.87H5.25c-1.66,0-3,1.34-3,3v1.91c0,1.38,0.87,2.59,2.11,2.96c0.3,0.09,0.6,0.13,0.9,0.13
			c0.55,0,1.09-0.15,1.57-0.44c0.38-0.23,0.69-0.54,0.93-0.9c0.3-0.46,0.69-0.85,1.15-1.15c0.36-0.24,0.67-0.56,0.9-0.93
			c0.45-0.73,0.56-1.61,0.31-2.46C9.76,2.73,8.54,1.87,7.16,1.87z"/>
		<path d="M32.56,1.87h-3.15c-0.92,0-1.78,0.42-2.36,1.14c-0.57,0.73-0.78,1.67-0.55,2.59c0.31,1.31,1.59,2.26,3.03,2.26h3.15
			c0.92,0,1.78-0.42,2.36-1.14c0.57-0.73,0.78-1.67,0.55-2.59C35.28,2.82,34,1.87,32.56,1.87z"/>
		<path d="M19.47,1.87h-3.15c-0.92,0-1.78,0.42-2.36,1.14c-0.57,0.73-0.78,1.67-0.55,2.59c0.31,1.31,1.59,2.26,3.03,2.26h3.15
			c0.92,0,1.78-0.42,2.36-1.14C22.52,6,22.72,5.05,22.5,4.13C22.19,2.82,20.91,1.87,19.47,1.87z"/>
		<path d="M45.25,1.87h-1.91c-1.38,0-2.59,0.87-2.96,2.11c-0.25,0.85-0.14,1.73,0.31,2.46c0.23,0.38,0.54,0.69,0.9,0.93
			c0.46,0.3,0.85,0.69,1.15,1.15c0.24,0.36,0.56,0.67,0.93,0.9c0.48,0.29,1.02,0.44,1.57,0.44c0.3,0,0.6-0.04,0.9-0.13
			c1.24-0.36,2.11-1.58,2.11-2.96V4.87C48.25,3.21,46.91,1.87,45.25,1.87z"/>
		<path d="M47.11,27.05c-0.73-0.57-1.67-0.77-2.59-0.56c-1.31,0.32-2.26,1.59-2.26,3.03v3.03c0,1.44,0.95,2.72,2.26,3.03
			c0.24,0.06,0.49,0.09,0.73,0.09c0.67,0,1.32-0.22,1.86-0.64c0.73-0.57,1.14-1.43,1.14-2.36v-3.27
			C48.25,28.48,47.84,27.63,47.11,27.05z"/>
		<path d="M47.11,13.96c-0.73-0.57-1.67-0.78-2.59-0.56c-1.31,0.32-2.26,1.59-2.26,3.03v3.03c0,1.44,0.95,2.72,2.26,3.03
			c0.24,0.06,0.49,0.09,0.73,0.09c0.67,0,1.32-0.22,1.86-0.64c0.73-0.57,1.14-1.43,1.14-2.36v-3.27
			C48.25,15.39,47.84,14.53,47.11,13.96z"/>
	</g>
</g>
</svg>
