<?xml version="1.0" encoding="utf-8"?>
<!-- Generator: Adobe Illustrator 20.1.0, SVG Export Plug-In . SVG Version: 6.00 Build 0)  -->
<svg version="1.1" id="Layer_1" xmlns="http://www.w3.org/2000/svg" xmlns:xlink="http://www.w3.org/1999/xlink" x="0px" y="0px"
	 viewBox="0 0 500 500" style="enable-background:new 0 0 500 500;" xml:space="preserve">
<style type="text/css">
	.st0{fill:none;stroke:#473830;stroke-width:3;stroke-linecap:round;stroke-linejoin:round;stroke-miterlimit:10;}
	.st1{fill:none;stroke:#006838;stroke-width:7;stroke-linecap:round;stroke-miterlimit:10;}
	.st2{fill:none;stroke:#171516;stroke-width:7;stroke-linecap:round;stroke-linejoin:round;stroke-miterlimit:10;}
	.st3{fill:none;stroke:#171516;stroke-width:6;stroke-linejoin:round;stroke-miterlimit:10;}
	.st4{fill:#873705;stroke:#171516;stroke-miterlimit:10;}
	.st5{opacity:0.8;fill:none;stroke:#FFFFFF;stroke-linecap:round;stroke-miterlimit:10;}
	.st6{fill:none;stroke:#3A2C26;stroke-width:7;stroke-miterlimit:10;}
	.st7{fill:none;stroke:#AF7C3E;stroke-linecap:round;stroke-linejoin:round;stroke-miterlimit:10;}
	.st8{fill:#AF7C3E;stroke:#755E48;stroke-miterlimit:10;}
	.st9{clip-path:url(#SVGID_2_);}
	.st10{fill:#25A9E0;}
	.st11{clip-path:url(#SVGID_4_);}
	.st12{clip-path:url(#SVGID_6_);}
	.st13{clip-path:url(#SVGID_8_);}
	.st14{clip-path:url(#SVGID_10_);}
	.st15{clip-path:url(#SVGID_12_);}
	.st16{clip-path:url(#SVGID_14_);}
	.st17{fill:#FFFFFF;stroke:#231F20;stroke-width:6;stroke-linecap:round;stroke-miterlimit:10;}
	.st18{fill:none;stroke:#231F20;stroke-linecap:round;stroke-miterlimit:10;}
	.st19{fill:none;stroke:#231F20;stroke-width:6;stroke-linecap:round;stroke-miterlimit:10;}
	.st20{fill:#FFFFFF;stroke:#231F20;stroke-linecap:round;stroke-miterlimit:10;}
	.st21{fill:#FFFFFF;}
	.st22{fill:none;stroke:#DEC8A7;stroke-linecap:round;stroke-linejoin:round;stroke-miterlimit:10;}
	.st23{opacity:0.8;fill:none;stroke:#FFFFFF;stroke-linecap:round;stroke-linejoin:round;stroke-miterlimit:10;}
	.st24{fill:none;stroke:#755E48;stroke-miterlimit:10;}
	.st25{fill:#FFFFFF;stroke:#755E48;stroke-linecap:round;stroke-linejoin:round;stroke-miterlimit:10;}
	.st26{fill:#FFFFFF;stroke:#716558;stroke-linecap:round;stroke-linejoin:round;stroke-miterlimit:10;}
	.st27{fill:none;stroke:#755E48;stroke-linecap:round;stroke-linejoin:round;stroke-miterlimit:10;}
	.st28{fill:#DEC8A7;}
	.st29{opacity:0.7;fill:none;stroke:#755E48;stroke-linejoin:round;stroke-miterlimit:10;}
	.st30{opacity:0.4;fill:none;stroke:#755E48;stroke-miterlimit:10;}
	.st31{fill:#755E48;}
	.st32{fill:none;stroke:#755E48;stroke-linecap:round;stroke-miterlimit:10;}
	.st33{fill:#DEC8A7;stroke:#755E48;stroke-miterlimit:10;}
	.st34{fill:#473830;}
	.st35{fill:#716558;}
	.st36{opacity:0.8;fill:#FFFFFF;}
	.st37{fill:#CBA66C;}
	.st38{fill:#3A2C26;}
	.st39{fill:#AF7C3E;}
	.st40{fill:#B7A287;}
	.st41{fill:#A89379;}
	.st42{fill:none;stroke:#AF7C3E;stroke-width:3;stroke-linecap:round;stroke-miterlimit:10;}
	.st43{fill:none;stroke:#CB7B78;stroke-width:5;stroke-linecap:round;stroke-miterlimit:10;}
	.st44{fill:#724B34;}
	.st45{opacity:0.2;fill:none;stroke:#00ADEE;stroke-linecap:round;stroke-linejoin:round;stroke-miterlimit:10;}
	.st46{fill:none;stroke:#00ADEE;stroke-width:0.25;stroke-miterlimit:10;}
	.st47{fill:none;stroke:#FFF100;stroke-width:0.25;stroke-miterlimit:10;}
	.st48{fill:none;stroke:#A63A34;stroke-miterlimit:10;}
	.st49{fill:none;stroke:#A63A34;stroke-linecap:round;stroke-miterlimit:10;}
	.st50{fill:none;stroke:#A63A34;stroke-linecap:round;stroke-linejoin:round;stroke-miterlimit:10;}
	.st51{fill:#CB7B78;stroke:#51321D;stroke-width:7;stroke-miterlimit:10;}
	.st52{fill:#CB7B78;stroke:#A63A34;stroke-miterlimit:10;}
	.st53{fill:#A63A34;}
	.st54{fill:#51321D;}
	.st55{fill:#CB7B78;}
	.st56{fill:#B35551;}
	.st57{fill:none;stroke:#724B34;stroke-width:1.9219;stroke-linecap:round;stroke-miterlimit:10;}
	.st58{fill:#AF7346;stroke:#171516;stroke-linejoin:round;stroke-miterlimit:10;}
	.st59{fill:none;stroke:#171516;stroke-linecap:round;stroke-linejoin:round;stroke-miterlimit:10;}
	.st60{fill:#AA6F3C;stroke:#171516;stroke-miterlimit:10;}
	.st61{opacity:0.8;fill:#873705;stroke:#171516;stroke-miterlimit:10;}
	.st62{opacity:0.5;fill:#873705;stroke:#171516;stroke-miterlimit:10;}
	.st63{opacity:0.2;fill:#873705;stroke:#171516;stroke-miterlimit:10;}
	.st64{fill:none;stroke:#171516;stroke-linecap:round;stroke-miterlimit:10;}
	.st65{fill:none;stroke:#AF7346;stroke-linecap:round;stroke-linejoin:round;stroke-miterlimit:10;}
	.st66{fill:none;stroke:#873705;stroke-linecap:round;stroke-linejoin:round;stroke-miterlimit:10;}
	.st67{fill:#171516;}
	.st68{fill:#873705;}
	.st69{fill:#DAC3B5;}
	.st70{fill:#AF7346;}
	.st71{fill:#E7D5C8;}
	.st72{fill:#8D4218;}
	.st73{fill:#A26436;}
	.st74{fill:#975327;}
	.st75{fill:#E3D1C4;}
	.st76{fill:#D0E400;}
	.st77{fill:#D0E400;stroke:#006838;stroke-width:3;stroke-miterlimit:10;}
	.st78{fill:#D0E400;stroke:#006838;stroke-linecap:round;stroke-miterlimit:10;}
	.st79{fill:none;stroke:#006838;stroke-linecap:round;stroke-miterlimit:10;}
	.st80{opacity:0.2;fill:none;stroke:#006838;stroke-linecap:round;stroke-miterlimit:10;}
	.st81{fill:none;stroke:#D0E400;stroke-linecap:round;stroke-miterlimit:10;}
	.st82{fill:none;stroke:#FFFFFF;stroke-linecap:round;stroke-miterlimit:10;}
	.st83{fill:none;stroke:#006838;stroke-width:3;stroke-miterlimit:10;}
	.st84{opacity:0.3;fill:none;stroke:#006838;stroke-linecap:round;stroke-miterlimit:10;}
	.st85{fill:#324C05;}
	.st86{opacity:0.3;fill:#324C05;}
	.st87{fill:none;stroke:#FFF100;stroke-miterlimit:10;}
	.st88{fill:none;stroke:#FFF100;stroke-width:3;stroke-miterlimit:10;}
	.st89{fill:#FFFFFF;stroke:#473830;stroke-width:3;stroke-miterlimit:10;}
	.st90{fill:none;stroke:#473830;stroke-miterlimit:10;}
	.st91{fill:none;stroke:#473830;stroke-linecap:round;stroke-miterlimit:10;}
	.st92{clip-path:url(#SVGID_16_);}
	.st93{fill:none;stroke:#473830;stroke-width:3;stroke-linecap:round;stroke-miterlimit:10;}
	.st94{fill:none;stroke:#473830;stroke-linecap:round;stroke-linejoin:round;stroke-miterlimit:10;}
</style>
<g>
	<path class="st85" d="M59.6,125.4c-4.3,1.5-8.3,4-11.5,7.2c-1.6,1.6-3.7,2.7-5.9,3.2c-1.9,0.4-3.7,1-5.5,1.9
		c-13.4,6-20.2,21-16.7,35.3l0,0c0.9,3.8-0.3,7.8-3.2,10.4c-5,4.4-8.7,10.5-9.9,17.6c-2.8,16.1,8.3,31.4,24.3,34.7l2.9,0.6
		c5.3,1.1,8,6.9,5.7,11.7c-3.5,7.1-4.1,15.5-1.2,23.5c3.9,10.6,13.1,17.8,23.6,19.4c2,0.3,3.7,1.8,4.2,3.8l1.4,4.8
		c0.8,2.7,3.6,4.4,6.3,3.7L79,302c2-0.5,4.1,0.3,5.4,1.9c6.1,7.8,16,12.4,26.4,11.4c0.7-0.1,1.3-0.1,2-0.3
		c8.3-1.3,15.3-5.9,19.8-12.3c3.2-4.5,9.9-4.7,13.5-0.5l2,2.3c6.6,7.7,16.2,11.3,25.6,10.4l0.1,0c4.6-0.4,8.3,3.8,7.2,8.3l0,0
		c-1,4.2-2.4,8.2-4.4,12l-31.4,61.3c-7.6,14.8-1.9,33.7,12.9,41.2c5.2,2.6,10.8,3.6,16.3,3.1c9.9-0.9,19.2-6.7,24.1-16.3l17.1-33.4
		c2.4-4.7,6.8-7.9,12-8.8l1.6-0.3c6.9-1.2,13.9,1,18.9,5.9h0c5.9,5.7,5.7,15.1-0.3,20.7l0,0c-11.9,11-13.6,29.6-3.1,42
		c6.6,7.8,16.3,11.4,25.8,10.5c4.1-0.4,8.1-1.6,11.8-3.6c3.3-1.8,7.5-0.8,9.3,2.6l1.4,2.5c2,3.5,6.6,4.6,9.9,2.2l2.3-1.7
		c3.1-2.2,7.3-1.4,9.6,1.6c6.2,8.5,16.6,13.1,27,12.2c3.5-0.3,6.9-1.2,10.3-2.8c14.5-6.9,20.7-24.4,14.5-39.2v0
		c-3.1-7.5,0.7-16.1,8.4-18.8l0,0c6.6-2.4,14-1.4,19.7,2.6l1.3,0.9c4.3,3,7,7.9,7.2,13.1l1.5,37.5c0.6,16.6,14.6,29.5,31.2,28.9
		c0.5,0,1.1-0.1,1.6-0.1c15.8-1.5,27.9-15.1,27.3-31.1l-3-73.5c-0.4-10.2,4.1-20,12.2-26.3l7.6-5.9c12-9.4,15.5-27.8,7.1-40.6
		c-0.7-1-1.4-2-2.1-2.9c-3.3-3.9-4.4-9.1-3.4-14c2.1-10.5-1.5-21.8-10.3-29.1c-4.2-3.5-8.3-7.2-12.3-10.9
		c-5.1-4.8-5.6-12.8-1.1-18.2l5.7-6.9c2-2.4,3.1-5.5,3.1-8.6l-0.3-48.3c-0.1-16.6-13.6-30-30.3-29.9c-16.6,0.1-30,13.6-29.9,30.3v0
		c0,4.5-5.9,6.1-8.2,2.2l-10.3-18.1c-2.6-4.7-9-5.6-12.9-1.9l-8.7,8.2c-3.5,3.3-9.3,2.1-11.1-2.4l-4.4-11c-2-5-8.1-6.8-12.5-3.7
		l-17,12.1c-3.7,2.6-8.4-1.3-6.5-5.4l0-0.1c5.3-11.4,3-24.4-5-33.1c-1.1-1.3-1.4-3.1-0.6-4.6c0-0.1,0.1-0.1,0.1-0.2
		c0.4-0.8,1-1.5,1.8-1.9c2.3-1.3,7.4-5,10.6-13.5c4.3-11.3,1.5-19.2-1.2-23.6c-1.7-2.7-1.9-6-0.8-9c1.7-4.4,2.3-9.3,1.5-14.3
		c-1.9-11.9-11-21.1-22.2-23c-1.7-0.3-3.3-0.5-4.8-0.5c-4.6-0.2-8.6-3.6-9.3-8.2c-0.8-4.9-2.9-9.6-6.3-13.6
		c-6.2-7.2-15.3-10.5-24-9.6c-2.3,0.2-4.5-0.7-5.8-2.5v0c-2-2.7-5.8-3.4-8.6-1.5l0,0c-1.9,1.3-4.3,1.4-6.4,0.4
		c-7.9-3.9-17.6-4-25.9,0.7c-4.8,2.7-8.5,6.6-10.9,11.1c-2,3.8-6.4,5.6-10.5,4.3c-1.3-0.4-2.7-0.8-4.4-1.1
		c-11.6-2.3-23.8,2.7-29.9,13.4c-2.7,4.7-3.8,9.9-3.6,14.9c0.1,3-1.1,5.8-3.3,7.8c-3.4,3.1-8.2,8.6-9.4,16
		c-1.7,9.7,1.5,16.6,3.8,20.1c1.2,1.9,2,4,2.3,6.1c0.7,4.4,2.5,8.7,5.2,12.4c1.7,2.3,0.6,5.5-2.1,6.3l-7.1,2.1
		c-3.2,0.9-6.6-0.4-8.4-3.1c-5.5-8.2-14.9-13.5-25.4-13.3c-11.3,0.2-21.1,6.5-26.1,15.8c-2,3.7-5.9,6.2-10.1,6.3
		C66.9,123.5,63.5,124,59.6,125.4z M225.5,207.4c4.9-5.8,7.4-13.3,7-20.8c-0.3-7.3,2.7-14.4,8.4-18.9l0,0c2.2-1.7,5.2,0.6,4.2,3.1
		l-1.7,4.3c-2.6,6.5-3,13.7-1.2,20.5l2.7,10.2c0.7,2.6-0.7,5.3-3.2,6.2c-3.5,1.3-7.1,2.5-10.7,3.7c-2.2,0.7-4.6-0.2-5.9-2.1v0
		C223.8,211.7,224,209.1,225.5,207.4z"/>
	<g>
		<path class="st76" d="M367.5,382.2l19.4-6.8c2.5-0.9,5.2-0.5,7.3,1l39.2,27c2.1,1.5,3.4,3.8,3.5,6.4l2.3,59
			c0.1,2.3-1.6,4.2-3.9,4.4c-0.1,0-0.2,0-0.2,0c-2.4,0.1-4.4-1.8-4.5-4.1l-2.1-54.7c-0.1-2.6-1.4-4.9-3.5-6.4l-32-22.1
			c-2.1-1.5-4.9-1.8-7.3-1l-29.8,10.5c-5.5,1.9-10.5,5.1-14.5,9.3c-1.9,1.9-3.7,3.5-5.4,4.8c-3.4,2.7-4.5,7.2-2.9,11.2l10.1,24.4
			c0.9,2.1,0.1,4.6-1.9,5.7c-0.5,0.3-1,0.4-1.6,0.5c-1.8,0.2-3.6-0.9-4.4-2.6L325,423.7c-1.1-2.5-4.2-3.4-6.4-1.8l-9.4,6.8
			c-2.1,1.5-5,0.8-6.2-1.4l-5.7-10.1c-1.4-2.4-4.6-2.9-6.6-1l-19.8,18.2c-0.7,0.7-1.6,1-2.5,1.1c-1.3,0.1-2.6-0.3-3.6-1.4
			c-1.6-1.7-1.5-4.5,0.2-6.1l19.7-18.1c3.1-2.9,4-7.4,2.1-11.2c-1.1-2.3-2-4.6-2.8-6.6c-2-5.4-5.1-10.3-9.2-14.3l-22.9-22.3
			c-1.9-1.8-4.5-2.6-7.1-2.2l-38.4,6.5c-2.5,0.4-4.7,2-5.9,4.3l-24.9,48.7c-0.7,1.4-2,2.2-3.4,2.3c-0.8,0.1-1.6-0.1-2.3-0.5
			c-2.1-1.1-2.9-3.7-1.9-5.8l26.9-52.5c1.2-2.3,3.4-3.9,5.9-4.3l46.9-8c2.6-0.4,5.2,0.4,7.1,2.2l14.5,14.2c3.3,3.2,8.8,0.8,8.7-3.8
			c-0.2-12.5,1.6-24,3-31.2c0.9-4.6-0.5-9.3-3.9-12.6l-13-12.7c-1.9-1.8-4.5-2.6-7.1-2.2l-43.1,7.3c-2.7,0.5-5.4-0.9-6.6-3.3
			l-10.3-20c-1.1-2.2-0.1-5,2.2-6c2.1-0.8,4.5,0.2,5.5,2.2l7.3,14.3c1.2,2.4,3.9,3.8,6.6,3.3l41.2-7c2.6-0.4,5.2,0.4,7.1,2.2
			l12.7,12.4c2.5,2.5,6.8,1.5,7.9-1.9c0,0,0-0.1,0-0.1c1.6-4.7,5.3-8.4,10-9.9c12.4-4.2,25.7-4.9,38.8-2c13.5,3,25.5,9.5,35.2,19
			c3.5,3.4,5.1,8.2,4.6,13c0,0,0,0.1,0,0.1c-0.4,3.3,2.8,5.8,5.9,4.7l17.2-6.1c2.5-0.9,5.2-0.5,7.4,1l34.4,23.7
			c2.3,1.6,5.3,1.5,7.4-0.2l12.6-9.8c1.8-1.4,4.6-1.3,6.1,0.4c1.6,1.9,1.3,4.7-0.6,6.2l-17.8,13.9c-2.2,1.7-5.2,1.8-7.4,0.2
			l-36-24.8c-2.2-1.5-4.9-1.8-7.4-1l-17,6c-4.5,1.6-7.8,5.3-8.9,9.9c-1.6,6.6-4.7,17.2-10.8,29.5
			C359.2,379.2,363.2,383.7,367.5,382.2z"/>
		<path class="st76" d="M226.6,252.7c0.2,0,0.5-0.1,0.7-0.1c16.7-4.4,32.6-10.3,46.8-16.6c2.5-1.1,5.4,0.3,6.1,2.9l0.8,3
			c0.8,2.9,2.3,5.6,4.5,7.7l13.3,13c2.2,2.1,2.8,5.4,1.4,8.2c-1,2.1-2,4.2-3,6.3c-1.1,2.4,1.1,5,3.7,4.4c12.1-3,24.8-3.2,37.3-0.5
			c12.8,2.8,24.5,8.6,34.3,16.7c2,1.7,5.1,0.2,5.2-2.4c0-2.5,0-5.1,0-7.6c-0.1-3,1.8-5.8,4.7-6.8l19.1-6.7c1.7-0.6,3.2-1.6,4.3-3
			l3.4-4.1c1.6-2,4.7-2,6.4-0.1c10.3,11.8,22.3,24,35.7,35c0.9,0.8,2,1.1,3.1,1c1-0.1,2-0.6,2.8-1.4c1.7-1.8,1.3-4.8-0.6-6.4
			c-13.2-10.9-25.1-23.1-35.3-34.9c-1.9-2.2-2-5.5-0.1-7.8l19.3-23.3c1.5-1.8,2.3-4,2.3-6.3l-0.2-40.2c0-2.4-1.9-4.3-4.3-4.3
			c-2.4,0-4.3,1.9-4.3,4.3l0.2,37c0,2.3-0.8,4.6-2.3,6.3l-16.2,19.5c-1.7,2.1-4.9,2-6.5-0.1c-17.8-22.8-28.2-41.2-28.4-41.5l0,0
			c-1.4-2.4-4.7-3-6.7-1l-5.5,5.1c-3.4,3.2-8.2,4.5-12.8,3.5l-3.8-0.8c-4.6-1-8.4-4.2-10.1-8.6l-2.8-7c-1-2.6-4.3-3.5-6.5-1.9v0
			c-0.3,0.2-17.3,12.4-42.9,25.6c-2.5,1.3-5.6-0.1-6.3-2.8l-5.8-21.8c-1-3.8-0.6-7.8,1-11.4l14.7-31.3c1-2.1,0.1-4.7-2.1-5.7
			c-2.1-1-4.7-0.1-5.7,2.1l-16,34.1c-1.7,3.5-2,7.6-1,11.4l7,26.5c0.8,3-0.7,6.2-3.6,7.5c-14.1,6.3-29.9,12.3-46.4,16.7
			c-2.2,0.6-3.7,2.6-3.4,4.8C222.3,251.4,224.4,252.9,226.6,252.7z M334,206.1l0.9,2.2c1,2.6,0.7,5.6-1,7.8
			c-3.9,5.3-8.7,11.9-13.7,19.5c-1.6,2.4-0.3,5.7,2.6,6.4l46.3,10.2c2.9,0.6,5.5-1.8,5-4.7c-1.3-9.1-2.9-17.1-4.3-23.5
			c-0.6-2.8,0.3-5.7,2.4-7.6l1.7-1.6c1.1-1,2.8-0.8,3.5,0.5c4.9,7.9,13.8,21.6,26.2,37.2c1.8,2.2,1.7,5.4-0.1,7.6l-2.9,3.5
			c-1.1,1.4-2.6,2.4-4.3,3l-15.5,5.5c-1.9,0.7-3.9-0.6-4-2.6c-0.1-1-0.2-1.9-0.2-2.8c-0.2-2.4-2-4.4-4.4-5l-55.9-12.3
			c-2.4-0.5-4.8,0.6-6,2.7c-0.5,0.9-1,1.7-1.5,2.6c-1,1.7-3.3,2.1-4.8,0.7L293.2,245c-2.2-2.1-3.7-4.8-4.5-7.7l-0.6-2.3
			c-0.8-2.9,0.6-6,3.3-7.3c17.6-8.9,31.4-17.5,39.1-22.6C331.8,204.3,333.5,204.8,334,206.1z"/>
	</g>
	<path class="st85" d="M334.4,235.6c-1,0.1-2-0.2-2.9-0.8c-1.9-1.4-2.4-4.1-1-6c1.3-1.9,2.7-3.7,3.9-5.4c1.4-1.9,4.1-2.3,6-0.9
		c1.9,1.4,2.3,4.1,0.9,6c-1.2,1.7-2.5,3.4-3.8,5.3C336.8,234.8,335.6,235.5,334.4,235.6z"/>
	<path class="st85" d="M363.7,242c-2.2,0.2-4.2-1.3-4.6-3.5c-0.4-2.3-0.9-4.4-1.3-6.5c-0.5-2.3,1-4.6,3.3-5.1c2.3-0.5,4.6,1,5.1,3.3
		c0.4,2.1,0.9,4.3,1.3,6.6c0.4,2.3-1.1,4.6-3.4,5C363.9,242,363.8,242,363.7,242z"/>
	<path class="st86" d="M355.4,360c-0.3,0-0.6,0-0.8,0c-21.5-2.2-43.7-7.1-64.1-14.1c-2.2-0.8-3.4-3.2-2.7-5.5
		c0.8-2.2,3.2-3.4,5.5-2.7c19.8,6.8,41.3,11.6,62.2,13.7c2.4,0.2,4.1,2.4,3.8,4.7C359.1,358.3,357.4,359.8,355.4,360z"/>
	<path class="st86" d="M347.7,377.8c-0.4,0-0.8,0-1.2-0.1c-18.5-3.5-37.9-7.8-56.1-12.4c-2.3-0.6-3.7-2.9-3.1-5.2
		c0.6-2.3,2.9-3.7,5.2-3.1c18.1,4.5,37.3,8.8,55.6,12.3c2.3,0.4,3.9,2.7,3.4,5C351.1,376.3,349.5,377.7,347.7,377.8z"/>
	<path class="st86" d="M360.6,341.8c-0.1,0-0.3,0-0.4,0c-16-0.1-31.9-2.6-47.4-7.3c-2.3-0.7-3.5-3.1-2.8-5.4
		c0.7-2.3,3.1-3.5,5.4-2.8c14.7,4.5,29.8,6.8,44.9,6.9c2.4,0,4.3,2,4.3,4.3C364.5,339.7,362.8,341.6,360.6,341.8z"/>
	<path class="st86" d="M362.5,324.4c0,0-0.1,0-0.1,0c-14.2,0.9-28.3-0.7-41.8-4.8c-2.3-0.7-3.6-3.1-2.9-5.4c0.7-2.3,3.1-3.6,5.4-2.9
		c12.5,3.8,25.6,5.3,38.7,4.5c2.4-0.2,4.4,1.6,4.6,4C366.5,322.2,364.8,324.2,362.5,324.4z"/>
	<path class="st86" d="M336.7,394.6c-0.5,0-1.1,0-1.6-0.2c-13.5-4.1-27.4-7.1-41.4-9.1c-2.4-0.3-4-2.5-3.6-4.9
		c0.3-2.4,2.5-4,4.9-3.6c14.4,2.1,28.7,5.2,42.6,9.4c2.3,0.7,3.6,3.1,2.9,5.4C339.9,393.3,338.4,394.4,336.7,394.6z"/>
	<path class="st86" d="M321.4,408.4c-0.5,0-1,0-1.6-0.1c-5.9-1.7-12-3-18-4c-2.3-0.4-3.9-2.6-3.6-4.9c0.4-2.3,2.6-3.9,4.9-3.6
		c6.4,1,12.8,2.4,19,4.2c2.3,0.6,3.6,3,3,5.3C324.6,407,323.1,408.2,321.4,408.4z"/>
	<path class="st21" d="M320.9,273.3c-0.8,0.1-1.7-0.1-2.4-0.5c-2.1-1.1-2.9-3.7-1.8-5.8c1.2-2.2,2.4-4.4,3.7-6.7
		c1.2-2.1,3.8-2.8,5.9-1.6c2.1,1.2,2.8,3.8,1.6,5.9c-1.2,2.1-2.4,4.3-3.6,6.5C323.6,272.4,322.3,273.2,320.9,273.3z"/>
	<path class="st21" d="M303.4,313.7c-0.6,0.1-1.1,0-1.7-0.2c-2.3-0.7-3.5-3.1-2.8-5.4c1.1-3.3,2.3-6.7,3.5-10.1
		c0.8-2.2,3.3-3.3,5.5-2.5s3.3,3.3,2.5,5.5c-1.2,3.3-2.4,6.5-3.4,9.7C306.6,312.4,305.1,313.5,303.4,313.7z"/>
	<path class="st76" d="M154.6,236.8l5.6,0.3c2.1,0.1,4,1,5.3,2.6l16.8,19.7c1.9,2.2,4.8,3.1,7.6,2.3l11.7-3.2
		c2.2-0.6,3.7-2.7,3.3-4.9c-0.4-2.5-3-4.1-5.4-3.4l-6.6,1.8c-2.8,0.8-5.7-0.2-7.6-2.3l-15.7-18.3c-1.3-1.6-3.3-2.5-5.3-2.6l-5.9-0.3
		c-2.5-0.1-4.1-2.6-3.2-5c1.2-3,2.2-6.1,3.1-9.1c1.2-4,4.9-6.7,9.1-6.5l3.1,0.1c2.3,0.1,4.6-0.4,6.6-1.5l1.2-0.6
		c1.1-0.6,2.5-0.1,3.1,1c4.2,8.8,9.4,18,15.7,26.7c0.9,1.3,2.4,1.9,3.9,1.7c0.9-0.1,1.7-0.4,2.4-1.1c1.7-1.5,1.8-4.1,0.5-5.9
		c-6-8.3-11-17.2-15-25.8c-0.5-1.1-0.1-2.3,1-2.9l14.6-7.8c2.2-1.2,2.9-3.9,1.6-6c-1.2-2-3.9-2.5-5.9-1.4l-13.4,7.2
		c-1.2,0.6-2.6,0.1-3.1-1.2c-6.7-17-9.5-30.2-9.5-30.4l-0.3-1.3c-0.5-2.3-3.1-3.4-5-2.2l-4.8,3c-2.9,1.8-6.6,1.9-9.6,0.1v0
		c-3-1.8-4.8-5.1-4.6-8.5l0.3-5.6c0.1-2.3-2.1-4.1-4.3-3.4l-1.3,0.4c-0.2,0.1-13.2,4.1-31.3,6.4c-1.3,0.2-2.5-0.8-2.5-2.1l-0.2-15.3
		c0-2.2-1.7-4.2-3.9-4.4c-2.6-0.2-4.7,1.8-4.7,4.3l0.2,16.6c0,1.2-0.9,2.1-2,2.2c-9.5,0.6-19.8,0.6-30.1-0.7
		c-2.5-0.3-4.7,1.6-4.8,4.2c-0.1,2.2,1.7,4.1,3.9,4.4c10.6,1.3,21.2,1.4,30.9,0.8c1.3-0.1,2.3,0.9,2.3,2.2l0,1.4
		c0,2.3,0.7,4.6,1.9,6.5l1.7,2.7c2.2,3.6,1.7,8.2-1.3,11.1c-2.2,2.2-4.4,4.6-6.5,7.1c-1.6,1.9-4.6,1.7-5.9-0.4l-3.1-5
		c-1.1-1.7-2.8-3-4.8-3.4l-23.7-4.8c-2.8-0.6-5.1-2.7-5.7-5.5l-1.6-6.6c-0.6-2.3-2.9-3.7-5.2-3.1c-2.3,0.6-3.7,2.9-3.1,5.2l2.9,11.9
		c0.7,2.8,2.9,4.9,5.7,5.5l25.4,5.2c2,0.4,3.8,1.6,4.8,3.4l2.9,4.7c1.7,2.8,1.8,6.3,0.2,9.1c-1.3,2.4-2.9,5.6-4.2,9.5
		c-1,2.9-4.9,3.3-6.5,0.7l-2.9-4.6c-1.1-1.7-2.8-3-4.8-3.4l-31-6.3c-2.5-0.5-4.9,1.2-5.1,3.8c-0.2,2.2,1.4,4.2,3.6,4.7l27.1,5.5
		c2,0.4,3.8,1.6,4.8,3.4l7.5,12.1c1.9,3,3.1,6.5,3.3,10c0.1,1.6,0.3,3.4,0.7,5.3c0.6,2.9-1,5.8-3.8,6.8L65.5,257
		c-2,0.7-3.3,2.8-2.9,4.9c0.5,2.3,2.5,3.6,4.6,3.4c0.4,0,0.7-0.1,1.1-0.2l9.8-3.6c2.7-1,5.7,0.5,6.5,3.3l1.2,4.1
		c0.7,2.6,3.4,4.1,6,3.5l4.2-1c2.8-0.7,5.6,1.2,6.1,4.1l1.6,10.3c0.4,2.2,2.4,3.8,4.6,3.6c0.1,0,0.2,0,0.3,0
		c2.3-0.4,3.9-2.6,3.6-4.9l-1.7-10.8c-0.5-2.9,1.3-5.8,4.1-6.6c1.5-0.5,3.3-1.1,5.1-2c3.2-1.5,6.8-2.1,10.3-1.9l14.1,0.7
		c2,0.1,4,1,5.3,2.6l18.1,21.2c0.9,1.1,2.3,1.6,3.7,1.5c0.9-0.1,1.8-0.5,2.5-1.1c1.7-1.6,1.7-4.3,0.2-6.1l-20.4-23.8
		c-1.3-1.6-3.2-2.5-5.3-2.6l-5.3-0.3c-3-0.1-4.6-3.7-2.6-6c2.4-2.9,4.5-5.9,6-8.3C148.2,238.3,151.3,236.6,154.6,236.8z
		 M164.3,179.3c0.3-3.4,5-3.8,6-0.6v0c1.5,4.8,3.5,10.3,5.9,16.3c0.4,1.1,0,2.3-1,2.8l0,0c-2,1.1-4.3,1.6-6.6,1.5l-2.4-0.1
		c-2.2-0.1-3.8-2.1-3.5-4.3C163.5,189.1,164.1,183.9,164.3,179.3L164.3,179.3z M132.3,160.5c-3.8,2.5-8.1,5.5-12.6,9.1
		c-1.7,1.4-4.3,1-5.5-0.9l-1.3-2.1c-1.2-2-1.9-4.2-2-6.5v0c0-1.1,0.8-2.1,1.9-2.3c6.4-0.9,12.1-1.9,17-2.9l0,0
		C133.2,154.1,135.1,158.5,132.3,160.5L132.3,160.5z"/>
	<path class="st76" d="M263.4,70.3l3.8,3c1.4,1.1,3.1,1.5,4.8,1.2l23.8-3.8c1.9-0.3,3.4-1.8,3.5-3.7c0.1-2.6-2.2-4.5-4.6-4.1
		l-20.5,3.2c-1.7,0.3-3.4-0.2-4.8-1.2l-9.8-7.6c-2.4-1.9-4.3-4.2-5.9-6.9c0,0,0,0,0-0.1c-1.2-2-0.8-4.6,1-6.1l6.8-5.8
		c1.6-1.4,2.1-3.9,0.7-5.6c-1.4-1.8-4-2.1-5.7-0.6l-6.9,5.9c-1.5,1.3-3.8,1-4.9-0.6l-1.7-2.4c-1.1-1.5-3.1-1.8-4.6-0.8l-2.5,1.6
		c-1.6,1.1-3.9,0.5-4.8-1.2l-4.3-7.7c-1.1-1.9-3.4-2.8-5.3-1.8c-2.1,1-2.8,3.5-1.7,5.5l4.4,7.9c1.1,2,0.6,4.6-1.2,6.1
		c0,0,0,0-0.1,0.1c-2.3,2-5,3.5-7.9,4.4L203,53c-1.6,0.5-3.4,0.3-4.9-0.5L180,42.4c-2-1.1-4.5-0.3-5.5,1.7c-0.9,1.9,0,4.3,1.8,5.3
		l21,11.7c1.5,0.8,3.3,1,4.9,0.5l4.5-1.4c2.2-0.7,4.2,1.4,3.4,3.6c-0.9,2.3-1.7,5.1-2.3,8.3c-0.2,1.2-1,2.1-2.2,2.5l-6.8,2.2
		c-1.6,0.5-3.4,0.3-4.9-0.5l-16.9-9.4c-2.1-1.2-4.7-1-6.7,0.4l-7.6,5.4c-1.7,1.3-2.4,3.7-1.2,5.5c1.2,1.9,3.8,2.4,5.7,1.1l3.6-2.6
		c2-1.4,4.6-1.6,6.7-0.4l15.5,8.6c1.5,0.8,3.3,1,4.9,0.5l4.3-1.4c2.1-0.7,4.2,0.9,4.2,3.1c0,2.9,0.1,5.7,0.4,8.4
		c0.1,1.4-0.8,2.7-2.1,3.2l-7,2.2c-1.2,0.4-2.2,1.1-3.1,2v0c-1.1,1.3-3,1.4-4.2,0.2c-5-4.8-10.8-9.5-17-13.7
		c-2.1-1.4-4.9-0.6-5.9,1.8c-0.7,1.8,0,3.8,1.6,4.9c5.9,4,11.4,8.5,16.2,13.1c1.2,1.1,1.2,2.9,0.2,4.1l-7,8
		c-1.4,1.6-1.5,4.1,0.1,5.6c0.9,0.9,2,1.2,3.2,1.1c1-0.1,1.9-0.5,2.6-1.3l6.4-7.2c1.2-1.3,3.3-1.3,4.5,0
		c8.4,9.6,13.3,17.4,13.4,17.6l0,0c1.5,2.4,4.8,2.5,6.5,0.3l3.4-4.4c1.2-1.6,3.2-2.3,5.1-2l0,0c1.9,0.3,3.5,1.7,4.1,3.6l1.6,5.2
		c0.8,2.7,4,3.7,6.2,2v0c0.1-0.1,7.5-5.7,18.7-11.9c1.6-0.9,3.5-0.1,4.2,1.5l3.5,9c0.7,1.7,2.3,2.7,4.1,2.5c0.7-0.1,1.4-0.3,2-0.7
		c1.5-1.1,2-3,1.3-4.7l-3.9-10c-0.6-1.5,0.1-3.1,1.6-3.8c6.1-2.7,12.8-5.1,19.8-6.7c1.9-0.4,3.3-2.1,3.2-4c-0.1-2.6-2.5-4.3-4.9-3.8
		c-7.3,1.8-14.3,4.2-20.7,7c-1.5,0.7-3.3-0.1-3.9-1.7v0c-0.4-1.2-1.2-2.2-2.2-2.9l-5.8-4.6c-1.1-0.9-1.5-2.4-0.9-3.7
		c1.2-2.5,2.3-5.1,3.3-7.8c0.8-2,3.3-2.8,5-1.4l3.6,2.8c1.4,1.1,3.1,1.5,4.8,1.2l17.5-2.8c2.4-0.4,4.8,0.7,6.1,2.7l2.5,3.7
		c0.8,1.2,2.3,1.9,3.7,1.7c0.8-0.1,1.6-0.4,2.2-0.9c1.6-1.3,1.8-3.7,0.6-5.4l-5.2-7.7c-1.4-2-3.7-3-6.1-2.7l-19.1,3
		c-1.7,0.3-3.4-0.2-4.8-1.2l-5.6-4.4c-0.9-0.7-1.4-1.9-1.2-3c0.5-3,0.6-6.1,0.6-8.7C259,70.1,261.6,68.8,263.4,70.3z M199.8,109
		L199.8,109c0.4-0.4,0.8-0.7,1.3-0.9l3.7-1.2c1.7-0.6,3.6,0.5,4,2.3c1.4,6.6,3.1,12.3,4.5,16.2c0.2,0.4,0.1,0.9-0.2,1.3l0,0
		c-0.6,0.7-1.6,0.7-2.2,0c-2.6-3.6-6.3-8.5-11.1-13.8C198.8,111.8,198.8,110.1,199.8,109z M253.1,118.5L253.1,118.5
		c0.5,1.4-0.1,3-1.4,3.7c-6.3,3.3-11.5,6.6-15.2,9.1c-0.8,0.5-1.8,0.1-2.1-0.7l0,0c-0.1-0.4,0-0.9,0.2-1.2c2.6-3.3,6.2-8,9.8-13.7
		c1-1.6,3.1-1.9,4.5-0.8l3.2,2.5C252.6,117.5,252.9,118,253.1,118.5z"/>
	<path class="st21" d="M95.1,238.2c-0.4,0-0.7,0-1.1,0c-2.3-0.4-3.9-2.6-3.5-5c0.7-4.1,1.9-8.3,3.5-12.4c0.9-2.2,3.4-3.3,5.6-2.4
		c2.2,0.9,3.3,3.4,2.4,5.6c-1.4,3.5-2.4,7.1-3,10.6C98.6,236.6,97,238.1,95.1,238.2z"/>
	<path class="st86" d="M235.2,101.3c-7.6,0.7-15.6-2.3-20.6-8.3c-1.4-1.7-1.2-4.2,0.5-5.6c1.7-1.4,4.2-1.2,5.6,0.5
		c4.6,5.5,13.6,7.1,19.8,3.5c1.9-1.1,4.3-0.5,5.4,1.4c1.1,1.9,0.5,4.3-1.4,5.4C241.7,100,238.5,101,235.2,101.3z"/>
	<path class="st21" d="M230.2,120.4c-0.8,0.1-1.5-0.1-2.3-0.5c-1.9-1.1-2.6-3.5-1.6-5.4c0.7-1.3,1.4-2.6,2.1-3.9
		c1-2,3.4-2.7,5.3-1.8c2,1,2.7,3.4,1.8,5.3c-0.7,1.4-1.5,2.8-2.2,4.2C232.7,119.5,231.5,120.3,230.2,120.4z"/>
	<path class="st86" d="M146,220.9c-1.9,0.2-3.8-1-4.4-2.9c-4.5-12.9-19.2-21.5-32.6-19.2c-2.4,0.4-4.6-1.2-5-3.5s1.2-4.6,3.5-5
		c17.4-3,36.4,8.1,42.2,24.8c0.8,2.2-0.4,4.7-2.6,5.5C146.7,220.8,146.3,220.9,146,220.9z"/>
	
		<ellipse transform="matrix(0.8642 -0.5031 0.5031 0.8642 -122.7091 194.4254)" class="st21" cx="298.9" cy="324.6" rx="4.3" ry="4.3"/>
	<ellipse transform="matrix(0.5529 -0.8333 0.8333 0.5529 43.9751 241.3061)" class="st21" cx="246.8" cy="79.7" rx="4" ry="4"/>
	<ellipse transform="matrix(0.91 -0.4146 0.4146 0.91 -95.4283 61.2562)" class="st21" cx="93.4" cy="250.4" rx="4.3" ry="4.3"/>
</g>
</svg>
