<?xml version="1.0" encoding="utf-8"?>
<!-- Generator: Adobe Illustrator 20.1.0, SVG Export Plug-In . SVG Version: 6.00 Build 0)  -->
<svg version="1.1" id="Layer_1" xmlns="http://www.w3.org/2000/svg" xmlns:xlink="http://www.w3.org/1999/xlink" x="0px" y="0px"
	 viewBox="0 0 500 500" style="enable-background:new 0 0 500 500;" xml:space="preserve">
<style type="text/css">
	.st0{fill:none;stroke:#252C5E;stroke-width:7;stroke-linecap:round;stroke-miterlimit:10;}
	.st1{fill:#846147;}
	.st2{fill:#252C5E;}
	.st3{fill:#AA6F3C;}
	.st4{opacity:0.8;}
	.st5{fill:#2B388F;}
	.st6{opacity:0.7;}
	.st7{opacity:0.6;}
	.st8{opacity:0.5;}
	.st9{opacity:0.4;}
	.st10{opacity:0.3;}
	.st11{opacity:0.1;}
	.st12{fill:#652D90;}
	.st13{opacity:0.2;}
	.st14{fill:#FFFFFF;stroke:#473830;stroke-linecap:round;stroke-linejoin:round;stroke-miterlimit:10;}
	.st15{fill:none;stroke:#473830;stroke-width:3;stroke-linecap:round;stroke-miterlimit:10;}
	.st16{fill:none;stroke:#473830;stroke-width:3;stroke-linecap:round;stroke-linejoin:round;stroke-miterlimit:10;}
	.st17{fill:none;stroke:#473830;stroke-linecap:round;stroke-linejoin:round;stroke-miterlimit:10;}
	.st18{fill:none;stroke:#460705;stroke-width:6;stroke-miterlimit:10;}
	.st19{fill:none;stroke:#1F1F27;stroke-width:6.4419;stroke-linecap:round;stroke-miterlimit:10;}
	.st20{fill:#FF1F00;}
	.st21{fill:#1F1F27;}
	.st22{fill:#DADBD5;}
	.st23{fill:none;stroke:#006838;stroke-width:7;stroke-linecap:round;stroke-miterlimit:10;}
	.st24{fill:none;stroke:#171516;stroke-width:7;stroke-linecap:round;stroke-linejoin:round;stroke-miterlimit:10;}
	.st25{fill:none;stroke:#171516;stroke-width:6;stroke-linejoin:round;stroke-miterlimit:10;}
	.st26{fill:#873705;stroke:#171516;stroke-miterlimit:10;}
	.st27{opacity:0.8;fill:none;stroke:#FFFFFF;stroke-linecap:round;stroke-miterlimit:10;}
	.st28{fill:none;stroke:#3A2C26;stroke-width:7;stroke-miterlimit:10;}
	.st29{fill:none;stroke:#AF7C3E;stroke-linecap:round;stroke-linejoin:round;stroke-miterlimit:10;}
	.st30{fill:#AF7C3E;stroke:#755E48;stroke-miterlimit:10;}
	.st31{clip-path:url(#SVGID_2_);}
	.st32{fill:#25A9E0;}
	.st33{clip-path:url(#SVGID_4_);}
	.st34{clip-path:url(#SVGID_6_);}
	.st35{clip-path:url(#SVGID_8_);}
	.st36{clip-path:url(#SVGID_10_);}
	.st37{clip-path:url(#SVGID_12_);}
	.st38{clip-path:url(#SVGID_14_);}
	.st39{fill:#FFFFFF;stroke:#231F20;stroke-width:6;stroke-linecap:round;stroke-miterlimit:10;}
	.st40{fill:none;stroke:#231F20;stroke-linecap:round;stroke-miterlimit:10;}
	.st41{fill:#FFFFFF;stroke:#231F20;stroke-linecap:round;stroke-miterlimit:10;}
	.st42{fill:#FFFFFF;}
	.st43{fill:none;stroke:#DEC8A7;stroke-linecap:round;stroke-linejoin:round;stroke-miterlimit:10;}
	.st44{opacity:0.8;fill:none;stroke:#FFFFFF;stroke-linecap:round;stroke-linejoin:round;stroke-miterlimit:10;}
	.st45{fill:none;stroke:#755E48;stroke-miterlimit:10;}
	.st46{fill:#FFFFFF;stroke:#755E48;stroke-linecap:round;stroke-linejoin:round;stroke-miterlimit:10;}
	.st47{fill:#FFFFFF;stroke:#716558;stroke-linecap:round;stroke-linejoin:round;stroke-miterlimit:10;}
	.st48{fill:none;stroke:#755E48;stroke-linecap:round;stroke-linejoin:round;stroke-miterlimit:10;}
	.st49{fill:#DEC8A7;}
	.st50{opacity:0.7;fill:none;stroke:#755E48;stroke-linejoin:round;stroke-miterlimit:10;}
	.st51{opacity:0.4;fill:none;stroke:#755E48;stroke-miterlimit:10;}
	.st52{fill:#755E48;}
	.st53{fill:none;stroke:#755E48;stroke-linecap:round;stroke-miterlimit:10;}
	.st54{fill:#DEC8A7;stroke:#755E48;stroke-miterlimit:10;}
	.st55{fill:#473830;}
	.st56{fill:#716558;}
	.st57{opacity:0.8;fill:#FFFFFF;}
	.st58{fill:#CBA66C;}
	.st59{fill:#3A2C26;}
	.st60{fill:#AF7C3E;}
	.st61{fill:#B7A287;}
	.st62{fill:#A89379;}
	.st63{fill:none;stroke:#AF7C3E;stroke-width:3;stroke-linecap:round;stroke-miterlimit:10;}
	.st64{fill:none;stroke:#CB7B78;stroke-width:5;stroke-linecap:round;stroke-miterlimit:10;}
	.st65{fill:#724B34;}
	.st66{opacity:0.2;fill:none;stroke:#00ADEE;stroke-linecap:round;stroke-linejoin:round;stroke-miterlimit:10;}
	.st67{fill:none;stroke:#00ADEE;stroke-width:0.25;stroke-miterlimit:10;}
	.st68{fill:none;stroke:#FFF100;stroke-width:0.25;stroke-miterlimit:10;}
	.st69{fill:none;stroke:#A63A34;stroke-miterlimit:10;}
	.st70{fill:none;stroke:#A63A34;stroke-linecap:round;stroke-miterlimit:10;}
	.st71{fill:none;stroke:#A63A34;stroke-linecap:round;stroke-linejoin:round;stroke-miterlimit:10;}
	.st72{fill:#CB7B78;stroke:#51321D;stroke-width:7;stroke-miterlimit:10;}
	.st73{fill:#CB7B78;stroke:#A63A34;stroke-miterlimit:10;}
	.st74{fill:#A63A34;}
	.st75{fill:#51321D;}
	.st76{fill:#CB7B78;}
	.st77{fill:#B35551;}
	.st78{fill:none;stroke:#724B34;stroke-width:1.9219;stroke-linecap:round;stroke-miterlimit:10;}
	.st79{fill:#AF7346;stroke:#171516;stroke-linejoin:round;stroke-miterlimit:10;}
	.st80{fill:none;stroke:#171516;stroke-linecap:round;stroke-linejoin:round;stroke-miterlimit:10;}
	.st81{fill:#AA6F3C;stroke:#171516;stroke-miterlimit:10;}
	.st82{opacity:0.8;fill:#873705;stroke:#171516;stroke-miterlimit:10;}
	.st83{opacity:0.5;fill:#873705;stroke:#171516;stroke-miterlimit:10;}
	.st84{opacity:0.2;fill:#873705;stroke:#171516;stroke-miterlimit:10;}
	.st85{fill:none;stroke:#171516;stroke-linecap:round;stroke-miterlimit:10;}
	.st86{fill:none;stroke:#AF7346;stroke-linecap:round;stroke-linejoin:round;stroke-miterlimit:10;}
	.st87{fill:none;stroke:#873705;stroke-linecap:round;stroke-linejoin:round;stroke-miterlimit:10;}
	.st88{fill:#171516;}
	.st89{fill:#873705;}
	.st90{fill:#DAC3B5;}
	.st91{fill:#AF7346;}
	.st92{fill:#E7D5C8;}
	.st93{fill:#8D4218;}
	.st94{fill:#A26436;}
	.st95{fill:#975327;}
	.st96{fill:#E3D1C4;}
	.st97{fill:#D0E400;}
	.st98{fill:#D0E400;stroke:#006838;stroke-width:3;stroke-miterlimit:10;}
	.st99{fill:#D0E400;stroke:#006838;stroke-linecap:round;stroke-miterlimit:10;}
	.st100{fill:none;stroke:#006838;stroke-linecap:round;stroke-miterlimit:10;}
	.st101{opacity:0.2;fill:none;stroke:#006838;stroke-linecap:round;stroke-miterlimit:10;}
	.st102{fill:none;stroke:#D0E400;stroke-linecap:round;stroke-miterlimit:10;}
	.st103{fill:none;stroke:#FFFFFF;stroke-linecap:round;stroke-miterlimit:10;}
	.st104{fill:none;stroke:#006838;stroke-width:3;stroke-miterlimit:10;}
	.st105{opacity:0.3;fill:none;stroke:#006838;stroke-linecap:round;stroke-miterlimit:10;}
	.st106{fill:#324C05;}
	.st107{opacity:0.3;fill:#324C05;}
	.st108{fill:none;stroke:#FFF100;stroke-miterlimit:10;}
	.st109{fill:none;stroke:#FFF100;stroke-width:3;stroke-miterlimit:10;}
	.st110{fill:#FFFFFF;stroke:#473830;stroke-width:3;stroke-miterlimit:10;}
	.st111{fill:none;stroke:#473830;stroke-miterlimit:10;}
	.st112{fill:none;stroke:#473830;stroke-linecap:round;stroke-miterlimit:10;}
	.st113{clip-path:url(#SVGID_16_);}
	.st114{clip-path:url(#SVGID_18_);}
	.st115{fill:#D62C16;}
	.st116{fill:#660200;}
	.st117{fill:none;stroke:#660200;stroke-width:0.9203;stroke-linejoin:round;stroke-miterlimit:10;}
	.st118{fill:none;stroke:#DADBD5;stroke-width:0.9203;stroke-linecap:round;stroke-miterlimit:10;}
	.st119{fill:none;stroke:#FFFFFF;stroke-width:0.9203;stroke-linecap:round;stroke-miterlimit:10;}
	.st120{fill:#1E1F27;}
	.st121{fill:none;stroke:#660200;stroke-linecap:round;stroke-linejoin:round;stroke-miterlimit:10;}
	.st122{fill:none;stroke:#1F1F27;stroke-miterlimit:10;}
	.st123{fill:none;stroke:#997A5B;stroke-width:0.9203;stroke-linecap:round;stroke-miterlimit:10;}
	.st124{fill:#FF1F00;stroke:#1F1F27;stroke-width:2.7608;stroke-linejoin:round;stroke-miterlimit:10;}
	.st125{fill:none;stroke:#460705;stroke-width:7;stroke-linecap:round;stroke-linejoin:round;stroke-miterlimit:10;}
	.st126{fill:none;stroke:#A46800;stroke-linecap:round;stroke-linejoin:round;stroke-miterlimit:10;}
	.st127{fill:none;stroke:#660200;stroke-width:7.1499;stroke-linejoin:round;stroke-miterlimit:10;}
	.st128{fill:none;stroke:#1F1F27;stroke-width:21.4496;stroke-linejoin:round;stroke-miterlimit:10;}
	.st129{fill:none;stroke:#660200;stroke-width:7.1436;stroke-linejoin:round;stroke-miterlimit:10;}
	.st130{fill:#FF1F00;stroke:#1F1F27;stroke-width:21.4309;stroke-linejoin:round;stroke-miterlimit:10;}
	.st131{fill:#A46800;stroke:#460705;stroke-miterlimit:10;}
	.st132{fill:none;stroke:#460705;stroke-miterlimit:10;}
	.st133{fill:none;stroke:#B22600;stroke-miterlimit:10;}
	.st134{fill:none;stroke:#460705;stroke-linecap:round;stroke-linejoin:round;stroke-miterlimit:10;}
	.st135{fill:none;stroke:#B22600;stroke-linecap:round;stroke-linejoin:round;stroke-miterlimit:10;}
	.st136{opacity:0.7;fill:none;stroke:#FFFFFF;stroke-linecap:round;stroke-linejoin:round;stroke-miterlimit:10;}
	.st137{fill:none;stroke:#460705;stroke-linecap:round;stroke-miterlimit:10;}
	.st138{fill:#B22600;}
	.st139{opacity:0.5;fill:#FFFFFF;}
	.st140{opacity:0.4;fill:#460705;}
	.st141{opacity:0.7;fill:#FFFFFF;}
	.st142{fill:#460705;}
	.st143{fill:#A46800;}
	.st144{fill:none;stroke:#B22600;stroke-width:7.876;stroke-miterlimit:10;}
	.st145{fill:#E3D1B4;}
	.st146{fill:#A94713;}
	.st147{clip-path:url(#SVGID_20_);}
	.st148{fill:none;stroke:#000106;stroke-width:7;stroke-linecap:round;stroke-linejoin:round;stroke-miterlimit:10;}
	.st149{fill:#000106;}
	.st150{fill:none;stroke:#7C7A85;stroke-linecap:round;stroke-linejoin:round;stroke-miterlimit:10;}
	.st151{fill:none;stroke:#A3A2AA;stroke-linecap:round;stroke-linejoin:round;stroke-miterlimit:10;}
	.st152{opacity:0.5;fill:none;stroke:#FFFFFF;stroke-linecap:round;stroke-linejoin:round;stroke-miterlimit:10;}
	.st153{fill:none;stroke:#D8D7DA;stroke-linecap:round;stroke-linejoin:round;stroke-miterlimit:10;}
	.st154{fill:#441D11;stroke:#7C7A85;stroke-miterlimit:10;}
	.st155{fill:none;stroke:#7C7A85;stroke-miterlimit:10;}
	.st156{fill:none;stroke:#BEBCC2;stroke-linecap:round;stroke-linejoin:round;stroke-miterlimit:10;}
	.st157{fill:#BEBCC2;}
	.st158{fill:#7C7A85;}
	.st159{fill:#000106;stroke:#7C7A85;stroke-miterlimit:10;}
	.st160{fill:#A3A2AA;}
	.st161{fill:#B0AFB6;}
	.st162{fill:none;stroke:#7C7A85;stroke-width:7.6958;stroke-miterlimit:10;}
	.st163{fill:#DAD2CF;}
	.st164{fill:#E5E6E6;}
	.st165{fill:#441D11;}
	.st166{fill:#997A5B;}
	.st167{fill:none;stroke:#252C5E;stroke-linecap:round;stroke-linejoin:round;stroke-miterlimit:10;}
	.st168{opacity:0;}
	.st169{fill:none;stroke:#252C5E;stroke-linecap:round;stroke-miterlimit:10;}
	.st170{fill:none;stroke:#846147;stroke-linecap:round;stroke-miterlimit:10;}
	.st171{fill:#846147;stroke:#252C5E;stroke-linecap:round;stroke-linejoin:round;stroke-miterlimit:10;}
	.st172{fill:#CDF7E7;}
	.st173{fill:#CEE5AC;}
	.st174{fill:#8BC53F;stroke:#006838;stroke-width:7;stroke-linecap:round;stroke-miterlimit:10;}
	.st175{fill:#8BC53F;stroke:#006838;stroke-width:6;stroke-linecap:round;stroke-miterlimit:10;}
	.st176{fill:#8BC53F;stroke:#006838;stroke-linecap:round;stroke-miterlimit:10;}
	.st177{fill:#CB7B78;stroke:#006838;stroke-linecap:round;stroke-miterlimit:10;}
	.st178{fill:none;stroke:#8BC53F;stroke-linecap:round;stroke-miterlimit:10;}
	.st179{fill:none;stroke:#EFEF29;stroke-width:6.8992;stroke-linecap:round;stroke-miterlimit:10;}
	.st180{fill:#8BC53F;stroke:#015129;stroke-width:6.2538;stroke-linecap:round;stroke-miterlimit:10;}
	.st181{fill:none;stroke:#015129;stroke-width:6.2538;stroke-linecap:round;stroke-miterlimit:10;}
	.st182{fill:#8BC53F;stroke:#015129;stroke-width:5.3604;stroke-linecap:round;stroke-miterlimit:10;}
	.st183{fill:#CB7B78;stroke:#015129;stroke-width:0.8934;stroke-linecap:round;stroke-miterlimit:10;}
	.st184{fill:#8BC53F;stroke:#015129;stroke-width:0.8934;stroke-linecap:round;stroke-miterlimit:10;}
	.st185{fill:none;stroke:#FFFFFF;stroke-width:0.8788;stroke-linecap:round;stroke-miterlimit:10;}
	.st186{fill:none;stroke:#EFEF29;stroke-width:0.8934;stroke-linecap:round;stroke-miterlimit:10;}
	.st187{fill:none;stroke:#8BC53F;stroke-width:0.8934;stroke-linecap:round;stroke-miterlimit:10;}
	.st188{fill:none;stroke:#015129;stroke-width:0.8934;stroke-linecap:round;stroke-miterlimit:10;}
	.st189{fill:none;stroke:#ADDB65;stroke-width:0.8934;stroke-linecap:round;stroke-miterlimit:10;}
	.st190{fill:#8BC53F;}
	.st191{fill:#E8F3DA;}
	.st192{fill:#EFEF29;}
	.st193{fill:#015129;}
	.st194{fill:#ADDB65;}
</style>
<g>
	<polygon class="st190" points="394.7,63.2 251.9,118.7 112.1,213.9 13.9,325 45.7,431.1 65.5,436 106.2,393.4 205.3,296.2 
		289.6,239.7 376.9,192.1 430.4,177.2 442.3,91.9 	"/>
	<line class="st76" x1="452.3" y1="129.5" x2="447.2" y2="125.8"/>
	<path class="st191" d="M308.8,124.3c-1,0-2-0.4-2.7-1.2c-1.3-1.5-1.2-3.8,0.3-5.1c2.3-2,5.4-3.9,9.3-5.6c4.8-2.1,9.1-3.2,12.6-3.2
		c2,0,3.6,1.6,3.6,3.6s-1.6,3.6-3.6,3.6c-2.5,0-5.8,0.9-9.7,2.6c-3.2,1.4-5.7,2.9-7.5,4.4C310.5,124,309.7,124.3,308.8,124.3z"/>
	<path class="st192" d="M79,369.7c-0.5,0-1.1-0.1-1.6-0.4c-7.3-3.6-14.3-8.7-20.7-15.2c-1.4-1.4-1.4-3.8,0-5.2
		c1.4-1.4,3.8-1.4,5.2,0c5.8,5.9,12.1,10.6,18.7,13.8c1.8,0.9,2.6,3.1,1.7,4.9C81.6,368.9,80.3,369.7,79,369.7z"/>
	<path class="st192" d="M122.3,322c-0.6,0-1.1-0.1-1.7-0.4c-8-4.1-15.5-10.3-22.4-18.4c-1.3-1.5-1.1-3.8,0.4-5.1
		c1.5-1.3,3.8-1.1,5.1,0.4c6.3,7.4,13,13,20.2,16.6c1.8,0.9,2.5,3.1,1.6,4.9C124.9,321.2,123.6,322,122.3,322z"/>
	<path class="st192" d="M167.4,277c-0.7,0-1.4-0.2-2.1-0.6c-7.1-4.9-13.6-11.5-19.3-19.7c-1.1-1.7-0.7-3.9,0.9-5.1
		c1.7-1.1,3.9-0.7,5.1,0.9c5.1,7.4,11,13.4,17.4,17.8c1.7,1.1,2.1,3.4,1,5.1C169.7,276.5,168.6,277,167.4,277z"/>
	<path class="st192" d="M217.6,237.9c-0.8,0-1.7-0.3-2.4-0.9c-6.5-5.5-12.2-12.6-16.9-21.1c-1-1.8-0.3-4,1.4-5c1.8-1,4-0.3,5,1.4
		c4.3,7.7,9.4,14.1,15.3,19.1c1.5,1.3,1.7,3.6,0.4,5.1C219.7,237.5,218.7,237.9,217.6,237.9z"/>
	<path class="st192" d="M272.1,204.6c-0.9,0-1.9-0.4-2.6-1.1c-6.2-6.3-11.4-14.2-15.4-23.7c-0.8-1.9,0.1-4,1.9-4.8
		c1.9-0.8,4,0.1,4.8,1.9c3.6,8.6,8.3,15.8,13.8,21.4c1.4,1.4,1.4,3.7,0,5.2C274,204.3,273,204.6,272.1,204.6z"/>
	<path class="st192" d="M331.4,178.5c-1,0-2-0.4-2.7-1.2c-6.5-7.1-11.5-16.2-15-27.2c-0.6-1.9,0.5-4,2.4-4.6c1.9-0.6,4,0.5,4.6,2.4
		c3.1,10,7.7,18.2,13.4,24.5c1.4,1.5,1.3,3.8-0.2,5.2C333.1,178.2,332.2,178.5,331.4,178.5z"/>
	<path class="st192" d="M399.9,165.5c-0.4,0-0.9-0.1-1.3-0.2c-6.6-2.5-18-15.8-22.9-37.2c-0.4-2,0.8-3.9,2.7-4.4
		c2-0.5,3.9,0.8,4.4,2.7c4.8,20.9,15.2,30.8,18.5,32c1.9,0.7,2.8,2.8,2.1,4.7C402.8,164.6,401.4,165.5,399.9,165.5z"/>
	<path class="st193" d="M424.2,61.3c-16-10-35.6-12.6-53.6-6.8c-0.2,0.1-0.3,0.1-0.5,0.2c-9.6,3.2-17.1,7.3-22.9,12.1
		c-4.4,3.6-9.9,5.4-15.6,5.2c-8.6-0.4-18.4,1.3-29.5,6.1c-10.1,4.3-17.6,9.6-23.1,15.4c-4,4.2-9.4,6.8-15.2,7.3
		c-8.1,0.7-17.1,3.2-27,8.6c-10.1,5.5-17.3,11.7-22.3,18.3c-3.5,4.6-8.6,7.7-14.3,8.8c-7.9,1.5-16.4,5-25.6,11.3
		c-9.2,6.3-15.6,13-19.9,19.8c-3.1,4.9-7.9,8.6-13.5,10.2c-7.9,2.3-16.4,6.7-25.3,14.2c-8.6,7.3-14.2,14.7-17.8,22
		c-2.6,5.2-6.9,9.3-12.3,11.5c-7.3,3-15,8.1-22.7,15.9c-8.5,8.7-13.6,17.2-16.4,25.3c-1.8,5.4-5.6,9.9-10.5,12.6
		c-6.5,3.7-13.1,9.1-19.6,16.9C5.2,309.9,0,324.3,1.2,338.9c0.3,3.6,1,7.1,2,10.7c0.5,1.7,0.9,3.5,1.1,5.2c0.1,0.9,0.3,1.8,0.6,2.7
		l14.9,57.6c4.3,16.6,17.6,29.5,34.4,32.7c2.8,0.5,5.6,0.8,8.3,0.8c14.5,0,27.8-7.1,36.1-19.5l4.4-6.5c2.8-4.2,8.7-5.1,12.7-1.9
		l6,4.8c4.7,3.8,10.4,5.7,16,5.7c7.6,0,15-3.3,20.1-9.7c8.7-11.1,6.5-27.3-4.5-36.1l-6-4.8c-1.7-1.4-2-3.9-0.6-5.6l0,0
		c1.5-1.8,4.1-1.9,5.8-0.4l5.2,5c5,4.7,11.3,7.1,17.6,7.1c6.8,0,13.6-2.7,18.6-8c9.7-10.3,8.9-26.7-1.4-36.5l-6.4-6.1
		c-1.6-1.5-1.7-4-0.2-5.6h0c1.6-1.8,4.5-1.8,6.1,0.1l6.4,7.6c5.1,6,12.3,9.1,19.5,9.1c5.8,0,11.7-2,16.5-6c10.8-9.1,12.1-25.3,3-36
		l-7.4-8.7c-1.3-1.6-1.1-3.9,0.5-5.2v0c1.7-1.4,4.1-1,5.4,0.7l6.5,9.3c5,7.2,12.9,11,21.1,11c5.2,0,10.4-1.6,14.9-4.8
		c11.4-8.2,13.8-24.3,5.8-35.8l-6.2-9c-1.1-1.7-0.6-3.9,1.1-5l0,0c1.7-1,3.9-0.4,4.8,1.4l5.6,10.5c4.6,8.6,13.4,13.5,22.6,13.5
		c4.2,0,8.5-1,12.4-3.2c12.3-6.8,16.4-22.6,9.8-35l-5.8-10.7c-1.1-2.1-0.3-4.7,1.9-5.7v0c2.1-1,4.6,0,5.5,2.1l5.2,12.2
		c4.1,9.8,13.6,15.6,23.6,15.6c3.3,0,6.7-0.6,9.9-2c13-5.5,19.1-20.5,13.6-33.5l-5.8-13.6c-0.8-1.9-0.1-4.1,1.7-5.2l0,0
		c2.3-1.4,5.2-0.3,6.1,2.2l5.2,15.3c3.6,10.7,13.6,17.4,24.2,17.4c2.6,0,5.3-0.4,8-1.3c13.5-4.4,20.6-19.6,16.1-33.1l-4.6-13.5
		c-0.6-1.7-0.2-3.6,0.9-5l0,0c0.7-0.9,1.8-1.5,2.9-1.8l21.6-4.5c17.1-3.7,29.9-16.7,33.4-33.8c3.5-17.1-3.1-34.1-17.2-44.3l-47-33.9
		c-1.2-0.9-2.4-1.7-3.7-2.5L424.2,61.3z M45.9,371.7c1.9-1.5,1.8-4.2,0-5.7c-12.1-9.9-18.6-19.8-19.3-29.2
		c-0.6-7.8,2.5-15.8,9.6-24.5c5.2-6.3,10.4-10.5,15.9-12.6c6.5-2.5,13.8,0,17.7,5.8c2.9,4.3,6.6,8.7,11.1,13.1c0.7,0.7,1.6,1,2.6,1
		c0.9,0,1.8-0.3,2.5-1c1.6-1.4,1.4-4-0.1-5.5c-7.1-7-11.9-13.7-14.4-20.1c0,0,0,0,0,0c0,0-7-17,9.7-34c6.4-6.5,12.6-10.3,19-11.6
		c6.5-1.3,13,1.9,16,7.8c2.5,4.9,6,10,10.5,15.3c0.7,0.9,1.8,1.3,2.8,1.3c0.8,0,1.6-0.3,2.3-0.8c1.6-1.3,1.6-3.8,0.3-5.4
		c-5.9-7-10-13.7-12-19.9c0,0,0,0-0.1,0l-0.4-1.3c-3.6-12.2,0.4-22.7,12.7-33.1c7.5-6.4,14.6-9.7,21.7-10c6.2-0.3,11.9,3.6,14.2,9.4
		c2,5.2,5,10.7,8.9,16.5c0.7,1,1.9,1.6,3,1.6c0.8,0,1.6-0.2,2.2-0.8c1.6-1.2,1.8-3.5,0.7-5.1c-5-7.4-8.3-14.1-9.8-20.3l-0.4-2
		c-2.4-12.6,2.7-22.7,16-31.8c7.6-5.2,14.4-7.7,21-7.7c6.6,0,12.4,4.4,14.2,10.8c1.5,5.2,3.8,10.8,7.1,16.8c0.7,1.2,1.9,1.9,3.2,1.9
		c0.7,0,1.4-0.2,2.1-0.7c1.6-1.1,1.9-3.2,1-4.9c-4.2-7.8-6.8-14.8-7.7-21.1l-0.2-2c-1.1-12.8,5-22.4,19.2-30.1
		c8.4-4.6,15.8-6.4,22.6-5.4c6.2,0.9,11.1,5.9,12.2,12.1c1,5.6,2.8,11.6,5.6,18.1c0.6,1.4,1.9,2.2,3.4,2.2c0.7,0,1.3-0.2,2-0.6
		c1.5-1,2-3,1.3-4.7c-4.1-9.6-6-18-5.7-25.1c0,0,0,0,0,0c0.5-12.2,7.5-20.7,21.8-26.9c9-3.8,16.6-4.9,23.4-3.2
		c6.1,1.5,10.5,7,10.9,13.3c0.3,6.1,1.7,12.8,4.1,20.2c0.5,1.5,1.9,2.5,3.5,2.5c0.6,0,1.3-0.2,1.9-0.5c1.5-0.9,2.1-2.8,1.6-4.4
		c-3.1-9.4-4.3-17.4-3.7-24.1l0.3-1.9c1.7-11.8,9.4-19.5,24-24.3c23.2-7.6,37.5,1.2,46.5,28.6c10.5,32.2,4.1,63.4-14.4,69.4
		c-8.9,2.9-17.7-1-23.4-4.9c-3.5-2.3-7.8-2.9-11.8-1.5c-4.1,1.4-7.2,4.6-8.5,8.7c-2.7,8.4-7.4,14.3-13.7,17
		c-8.3,3.6-17,0.7-22.8-2.3c-3-1.5-6.4-2.1-9.6-1.2c-5.3,1.4-9,5.4-10,10.5c-1.3,6.4-4.4,14.9-12.3,19.2c-6,3.2-13.5,3.3-21.8,0.2
		c-3.8-1.4-8-1.4-11.6,0.5c-4.1,2.2-6.7,6.1-7.1,10.6c-0.9,9.2-4.4,16.2-10.3,20.1c-5.9,4-13.7,4.8-22.7,2.2
		c-2.8-0.8-5.8-0.8-8.6,0.3c-5.4,2.2-8.7,7.2-8.7,12.7c0,9.1-2.8,16.3-8.1,20.8c-6.9,5.8-16,5.7-22.4,4.5
		c-5.1-0.9-10.2,1.1-13.4,5.5c-2,2.7-2.7,6.1-2.3,9.4c0.7,6.6,0.2,15.7-6.1,22.1c-4.8,4.9-12,7.2-20.8,6.6
		c-4.4-0.3-8.4,1.5-11.2,4.8c-2.7,3.2-3.8,7.4-2.9,11.5c1.5,6.8,2,16.3-4,23.6c-6.5,8-19,10.4-34,6.8c-2.3-0.6-4.7,1.2-4.5,3.9
		c0.1,1.6,1.3,2.9,2.9,3.3c0.1,0,0.1,0,0.2,0c3.3,0.8,4.9,4.6,3,7.4l-9,13.5c-3.2,4.8-8.8,7.2-14.5,6.2c-5.7-1-10.2-5.1-11.6-10.7
		L40,376.5c-0.6-2.2,1.2-4.2,3.5-4C44.3,372.5,45.1,372.3,45.9,371.7z"/>
	<path class="st194" d="M368.1,162.3c-1.1,0-2.2-0.5-3-1.5c-3.1-4.2-5.9-8.9-8.4-13.9c-0.9-1.8-0.2-4,1.6-4.9c1.8-0.9,4-0.2,4.9,1.6
		c2.3,4.6,4.9,8.9,7.8,12.8c1.2,1.6,0.8,3.9-0.8,5.1C369.6,162.1,368.8,162.3,368.1,162.3z"/>
	<path class="st194" d="M310,186.3c-1,0-2-0.4-2.7-1.2c-3.8-4.2-7.3-8.9-10.5-14.1c-1.1-1.7-0.5-4,1.2-5c1.7-1.1,4-0.5,5,1.2
		c2.9,4.7,6.2,9.1,9.7,13c1.3,1.5,1.2,3.8-0.3,5.2C311.8,186,310.9,186.3,310,186.3z"/>
	<path class="st194" d="M256.4,218.4c-0.8,0-1.7-0.3-2.4-0.9c-5-4.3-9.7-9.4-14-15.1c-1.2-1.6-0.9-3.9,0.7-5.1
		c1.6-1.2,3.9-0.9,5.1,0.7c4,5.3,8.3,10,12.9,14c1.5,1.3,1.7,3.6,0.4,5.2C258.4,217.9,257.4,218.4,256.4,218.4z"/>
	<path class="st194" d="M203.1,252.8c-0.8,0-1.5-0.2-2.2-0.7c-4.8-3.6-9.4-7.8-13.8-12.5c-1.4-1.5-1.3-3.8,0.2-5.2
		c1.5-1.4,3.8-1.3,5.2,0.2c4,4.4,8.3,8.2,12.7,11.5c1.6,1.2,2,3.5,0.8,5.1C205.3,252.3,204.2,252.8,203.1,252.8z"/>
	<path class="st194" d="M154.6,293.3c-0.6,0-1.3-0.2-1.9-0.5c-5.1-3-10.2-6.7-14.9-11c-1.5-1.3-1.6-3.6-0.3-5.2
		c1.3-1.5,3.6-1.6,5.2-0.3c4.4,3.9,9.1,7.3,13.8,10.2c1.7,1,2.3,3.3,1.3,5C157.1,292.7,155.9,293.3,154.6,293.3z"/>
	<path class="st194" d="M112.7,339.9c-0.5,0-1-0.1-1.5-0.3c-6.2-2.7-12.2-6.3-18.1-10.6c-1.6-1.2-2-3.5-0.8-5.1
		c1.2-1.6,3.5-2,5.1-0.8c5.4,4,11,7.3,16.7,9.8c1.8,0.8,2.7,3,1.9,4.8C115.4,339.1,114.1,339.9,112.7,339.9z"/>
	<circle class="st191" cx="374.2" cy="99.6" r="4"/>
	<circle class="st191" cx="265.8" cy="140.1" r="4"/>
	<g>
		<path class="st76" d="M436.6,130.9c0.6,8.8-0.1,15.8-0.9,20.2c-0.4,2.5,1.8,4.5,4.2,4l18-3.9c5.7-1.3,10.4-5.7,11.5-11.4
			c1.1-5.6-1.1-11.2-5.7-14.6l-25.3-18.3c-2.7-1.9-6.3,0.6-5.5,3.8C434.4,116.2,436.1,123.6,436.6,130.9z"/>
	</g>
	<path class="st193" d="M452.3,133.2c-0.7,0-1.5-0.2-2.1-0.7l-5.1-3.7c-1.6-1.2-2-3.5-0.8-5.1c1.2-1.6,3.5-2,5.1-0.8l5.1,3.7
		c1.6,1.2,2,3.5,0.8,5.1C454.5,132.7,453.4,133.2,452.3,133.2z"/>
	<path class="st190" d="M137.7,409.1c-0.8,0-1.6-0.3-2.3-0.8l-10.3-8.5c-1.6-1.3-1.8-3.6-0.5-5.1c1.3-1.6,3.6-1.8,5.1-0.5l10.3,8.5
		c1.6,1.3,1.8,3.6,0.5,5.1C139.8,408.7,138.8,409.1,137.7,409.1z"/>
	<path class="st190" d="M175.4,364.6c-0.9,0-1.9-0.4-2.6-1.1l-10.4-10.2c-1.4-1.4-1.5-3.7,0-5.2c1.4-1.4,3.7-1.5,5.2,0l10.4,10.2
		c1.4,1.4,1.5,3.7,0,5.2C177.3,364.2,176.4,364.6,175.4,364.6z"/>
	<path class="st190" d="M218,325.1c-1,0-2.1-0.4-2.8-1.3l-9.5-11.3c-1.3-1.5-1.1-3.8,0.4-5.1c1.5-1.3,3.8-1.1,5.1,0.4l9.5,11.3
		c1.3,1.5,1.1,3.8-0.4,5.1C219.7,324.8,218.8,325.1,218,325.1z"/>
	<path class="st190" d="M263.5,290.2c-1.2,0-2.3-0.6-3-1.6l-8-11.7c-1.1-1.7-0.7-3.9,1-5.1c1.7-1.1,3.9-0.7,5.1,1l8,11.7
		c1.1,1.7,0.7,3.9-1,5.1C264.9,289.9,264.2,290.2,263.5,290.2z"/>
	<path class="st190" d="M312.1,260.9c-1.3,0-2.6-0.7-3.2-1.9l-6.7-12.5c-1-1.8-0.3-4,1.5-5c1.8-1,4-0.3,5,1.5l6.7,12.5
		c1,1.8,0.3,4-1.5,5C313.2,260.8,312.7,260.9,312.1,260.9z"/>
	<path class="st190" d="M364.7,236.3c-1.4,0-2.8-0.8-3.4-2.2l-5.6-13.1c-0.8-1.9,0.1-4,1.9-4.8c1.9-0.8,4,0.1,4.8,1.9l5.6,13.1
		c0.8,1.9-0.1,4-1.9,4.8C365.6,236.2,365.2,236.3,364.7,236.3z"/>
	<path class="st190" d="M419.7,216.8c-1.5,0-3-1-3.5-2.5l-4.2-12.9c-0.6-1.9,0.4-4,2.3-4.6c1.9-0.6,4,0.4,4.6,2.3l4.2,12.9
		c0.6,1.9-0.4,4-2.3,4.6C420.4,216.7,420.1,216.8,419.7,216.8z"/>
</g>
</svg>
