<?xml version="1.0" encoding="utf-8"?>
<!-- Generator: Adobe Illustrator 20.1.0, SVG Export Plug-In . SVG Version: 6.00 Build 0)  -->
<svg version="1.1" id="Layer_1" xmlns="http://www.w3.org/2000/svg" xmlns:xlink="http://www.w3.org/1999/xlink" x="0px" y="0px"
	 viewBox="0 0 500 500" style="enable-background:new 0 0 500 500;" xml:space="preserve">
<style type="text/css">
	.st0{fill:none;stroke:#3A2C26;stroke-width:7;stroke-miterlimit:10;}
	.st1{fill:none;stroke:#AF7C3E;stroke-linecap:round;stroke-linejoin:round;stroke-miterlimit:10;}
	.st2{fill:#AF7C3E;stroke:#755E48;stroke-miterlimit:10;}
	.st3{clip-path:url(#SVGID_2_);}
	.st4{fill:#25A9E0;}
	.st5{clip-path:url(#SVGID_4_);}
	.st6{clip-path:url(#SVGID_6_);}
	.st7{clip-path:url(#SVGID_8_);}
	.st8{clip-path:url(#SVGID_10_);}
	.st9{clip-path:url(#SVGID_12_);}
	.st10{clip-path:url(#SVGID_14_);}
	.st11{fill:#FFFFFF;stroke:#231F20;stroke-width:6;stroke-linecap:round;stroke-miterlimit:10;}
	.st12{fill:none;stroke:#231F20;stroke-linecap:round;stroke-miterlimit:10;}
	.st13{fill:none;stroke:#231F20;stroke-width:6;stroke-linecap:round;stroke-miterlimit:10;}
	.st14{fill:#FFFFFF;stroke:#231F20;stroke-linecap:round;stroke-miterlimit:10;}
	.st15{fill:#FFFFFF;}
	.st16{fill:none;stroke:#DEC8A7;stroke-linecap:round;stroke-linejoin:round;stroke-miterlimit:10;}
	.st17{opacity:0.8;fill:none;stroke:#FFFFFF;stroke-linecap:round;stroke-linejoin:round;stroke-miterlimit:10;}
	.st18{fill:none;stroke:#755E48;stroke-miterlimit:10;}
	.st19{fill:#FFFFFF;stroke:#755E48;stroke-linecap:round;stroke-linejoin:round;stroke-miterlimit:10;}
	.st20{fill:#FFFFFF;stroke:#716558;stroke-linecap:round;stroke-linejoin:round;stroke-miterlimit:10;}
	.st21{fill:none;stroke:#755E48;stroke-linecap:round;stroke-linejoin:round;stroke-miterlimit:10;}
	.st22{fill:#DEC8A7;}
	.st23{opacity:0.7;fill:none;stroke:#755E48;stroke-linejoin:round;stroke-miterlimit:10;}
	.st24{opacity:0.4;fill:none;stroke:#755E48;stroke-miterlimit:10;}
	.st25{fill:#755E48;}
	.st26{fill:none;stroke:#755E48;stroke-linecap:round;stroke-miterlimit:10;}
	.st27{fill:#DEC8A7;stroke:#755E48;stroke-miterlimit:10;}
	.st28{fill:#473830;}
	.st29{fill:#716558;}
	.st30{opacity:0.8;fill:#FFFFFF;}
	.st31{fill:#CBA66C;}
	.st32{fill:#3A2C26;}
	.st33{fill:#AF7C3E;}
	.st34{fill:#B7A287;}
	.st35{fill:#A89379;}
	.st36{fill:none;stroke:#AF7C3E;stroke-width:3;stroke-linecap:round;stroke-miterlimit:10;}
	.st37{fill:none;stroke:#CB7B78;stroke-width:5;stroke-linecap:round;stroke-miterlimit:10;}
	.st38{fill:#724B34;}
	.st39{opacity:0.2;fill:none;stroke:#00ADEE;stroke-linecap:round;stroke-linejoin:round;stroke-miterlimit:10;}
	.st40{fill:none;stroke:#00ADEE;stroke-width:0.25;stroke-miterlimit:10;}
	.st41{fill:none;stroke:#FFF100;stroke-width:0.25;stroke-miterlimit:10;}
	.st42{fill:none;stroke:#A63A34;stroke-miterlimit:10;}
	.st43{fill:none;stroke:#A63A34;stroke-linecap:round;stroke-miterlimit:10;}
	.st44{fill:none;stroke:#A63A34;stroke-linecap:round;stroke-linejoin:round;stroke-miterlimit:10;}
	.st45{fill:#CB7B78;stroke:#51321D;stroke-width:7;stroke-miterlimit:10;}
	.st46{fill:#CB7B78;stroke:#A63A34;stroke-miterlimit:10;}
	.st47{fill:#A63A34;}
	.st48{fill:#51321D;}
	.st49{fill:#CB7B78;}
	.st50{fill:#B35551;}
</style>
<path class="st48" d="M474.3,85.7l-0.2-0.3c-11.3-17.4-32.9-23.1-51.3-13.5c-18.4,9.5-26.2,30.5-18.5,49.7c4.9,12.3,5.2,22,4.1,28.7
	c-1.6,9.3-10.7,15.6-19.9,13.3c-0.1,0-0.2,0-0.2-0.1c-3.9-1-7.2-3.6-9.4-7c-9.1-14-11.3-24.5-14.3-38.6
	c-3.8-18.1-8.6-40.7-26.8-66.5c-17.6-24.9-42.9-41.2-71.3-45.8c-28.5-4.6-57.9,2.8-82.9,21.1C135.1,62.1,125,131,161,180.3
	c18.9,25.8,38.8,40.6,54.8,52.4c12,8.9,20.7,15.3,27.5,24.9c0.7,1.1,2.5,4.5,2.7,7.8c0.1,1.6,0.4,4.6-6.4,9.4l0,0
	c-1.8,1.3-4.2,1.3-6.1,0.2c-5.5-3.3-11.6-5.8-18.3-7c-4.2-0.8-8.5-1.8-13.1-2.8l-0.7-0.1c-12.1-2.7-27.1-6.1-43.2-7.3
	c-11.7-0.9-23.1,1.8-33,7.7c-4,2.4-8.5,4.1-13,5.3c-15.4,4.1-31.7,11.4-48.6,23.4c-31.7,22.4-51.6,55.1-57.4,94.5
	c-5.4,36.5,2.7,67.6,6.4,79.3l0.1,0.4c5.4,16.9,20.3,27.5,37.1,27.5c2.9,0,5.8-0.3,8.7-0.9c20.1-4.3,33.1-22.1,31-42.5
	c-0.1-0.6-0.1-1.2-0.2-1.9c-1.7-13.4-1.5-26.3,0.5-38.2c3.4-20.6,11.9-35.8,25.3-45.2c0,0,0.1,0,0.1-0.1c4.9-3.5,11.3-4,16.8-1.7
	c5.4,2.3,11.3,3.8,17.4,4.3l0.2,0c8.2,0.6,17.5,2.7,27.5,5l0.1,0c5,1.1,10.8,2.4,16.5,3.5c0.4,0.1,0.9,0.2,1.3,0.2h0
	c3.2,0.5,6.4,0.8,9.6,0.8c6.2,0,12.2-1,18-3c4.5-1.6,9.2-2.5,14-2.7c18.6-1.1,38.3-6.5,58.1-20.5c26.3-18.6,42.7-45,46.3-74.4
	c0.2-1.9,0.4-3.9,0.5-5.8c0.8-11.9,11.8-20.2,23.4-17.8c1.8,0.4,3.7,0.7,5.6,1c28.4,4.3,57.8-2.7,82.8-19.7
	c21.6-14.7,36.5-38.9,40.7-66.4C498.6,141.3,491.6,111.5,474.3,85.7z M257.4,144.2c-7-5.9-13.4-12.1-19.5-20.7
	c-4.6-6.4-3.6-15.6,2.2-19.8c0,0,11.6-8.7,19.7,2.8c6.8,9.7,8.5,17.3,11.4,31.1c0.1,0.5,0.2,1,0.3,1.5c1.4,6.6-6.3,11.4-11.6,7.1
	C259,145.5,258.2,144.9,257.4,144.2z"/>
<path class="st49" d="M451.8,100.5l-0.3-0.5c-8.3-12.7-27.8-2.6-22.2,11.5c14.1,35.2,2.8,62.2-8.7,70.5c-24,17.4-52.4,6.4-61.3-6.2
	c-14.5-20.5-17.7-36-21.2-52.3c-3.5-16.5-7.4-35.3-22.5-56.5c-27.8-39.4-76.9-47.3-116.2-18.5c-36.7,26.9-43.5,79.3-16.7,116
	c16.4,22.5,33.7,35.3,49.1,46.7c13,9.6,24.3,18,33.6,31.2c0.9,1.3,22,31.9-10.2,54.7c-8.9,6.3-17.7,8.3-28.1,8
	c-4.2-5.2-10-9.1-17.1-10.4c-4.7-0.9-9.4-2-14.1-3c-11.9-2.7-25.4-5.7-39.8-6.8c-9.3-0.7-17.8,3.1-23.7,9.5
	c-16.6,2.3-34.3,8.6-53.3,22.1c-59.4,42-50.3,113.8-40.8,143.6l0.1,0.4c4.6,14.4,26,9.8,24.3-5.2l0,0c-0.2-3.1-12.3-75.2,36.8-110
	c11.1-7.8,21.7-11.4,32.2-12.5c4.8,5.7,11.9,9.5,19.9,10.2c10.2,0.8,20.5,3.1,31.5,5.6c5.3,1.2,10.6,2.4,15.8,3.4
	c0.2,0,0.4,0.1,0.6,0.1c8.1,1.4,16.1-0.8,22.2-5.4c18.6,1.2,38-1.8,57.4-15.5c43.7-30.9,43.2-80.1,20.2-112.7
	c-13.2-18.6-28.2-29.8-42.8-40.6C242.3,167,228.8,157,216,139.3c-13.1-18.1-9.9-44.2,8.2-57.4c20.5-14.9,43.2-11.3,57.6,9.1
	c10.1,14.3,12.6,26.1,15.7,41.1c4,18.9,8.5,40.3,27.9,67.8c22.2,31.4,71.7,42.1,112.9,14C469.2,192.7,481,143.9,451.8,100.5z"/>
<path class="st50" d="M66.7,359.6c-0.7,0-1.5-0.2-2.1-0.7l-15.9-10.7c-1.8-1.2-2.2-3.6-1.1-5.3c1.2-1.8,3.6-2.2,5.3-1.1l15.9,10.7
	c1.8,1.2,2.2,3.6,1.1,5.3C69.1,359,67.9,359.6,66.7,359.6z"/>
<path class="st50" d="M80.7,343.4c-1,0-2.1-0.4-2.8-1.2l-13.1-14.1c-1.4-1.6-1.4-4,0.2-5.4c1.6-1.4,4-1.4,5.4,0.2l13.1,14.1
	c1.4,1.6,1.4,4-0.2,5.4C82.6,343.1,81.6,343.4,80.7,343.4z"/>
<path class="st50" d="M98.4,330.6c-1.3,0-2.6-0.7-3.3-1.9l-10-16.6c-1.1-1.8-0.5-4.2,1.3-5.3c1.8-1.1,4.2-0.5,5.3,1.3l10,16.6
	c1.1,1.8,0.5,4.2-1.3,5.3C99.8,330.4,99.1,330.6,98.4,330.6z"/>
<path class="st47" d="M195.7,184c-1,0-2.1-0.4-2.8-1.2c-1.5-1.6-1.4-4,0.2-5.4l8.7-8.1c1.6-1.5,4-1.4,5.4,0.2c1.5,1.6,1.4,4-0.2,5.4
	l-8.7,8.1C197.6,183.6,196.6,184,195.7,184z"/>
<path class="st47" d="M179.6,163.6c-1.3,0-2.6-0.7-3.3-1.9c-1.1-1.8-0.5-4.2,1.3-5.3l13.6-8.2c1.8-1.1,4.2-0.5,5.3,1.3
	c1.1,1.8,0.5,4.2-1.3,5.3l-13.6,8.2C181,163.5,180.3,163.6,179.6,163.6z"/>
<path class="st50" d="M183.3,85.1l-9.7-3.6c0,2.6-0.8,5.2-2.1,7.4l9.1,3.4c0.4,0.2,0.9,0.2,1.4,0.2c1.6,0,3-1,3.6-2.5
	C186.3,88.1,185.3,85.9,183.3,85.1z"/>
<path class="st50" d="M206.9,75.7l-19.5-15.9c-1,2.4-2.7,4.5-5,5.9l19.6,16c0.7,0.6,1.6,0.9,2.4,0.9c1.1,0,2.2-0.5,3-1.4
	C208.8,79.4,208.6,77,206.9,75.7z"/>
<path class="st47" d="M185,313.1c-0.2,0-0.3,0-0.5,0c-2.1-0.3-3.6-2.2-3.3-4.3c0.2-1.8,0.4-3.7,0.6-5.6c0.2-2.1,2.1-3.7,4.2-3.5
	c2.1,0.2,3.7,2.1,3.5,4.2c-0.2,1.9-0.4,3.9-0.6,5.8C188.5,311.6,186.9,313.1,185,313.1z"/>
<ellipse transform="matrix(0.9969 -7.911514e-02 7.911514e-02 0.9969 -23.6176 13.6016)" class="st47" cx="159.8" cy="304.9" rx="4" ry="4"/>
<ellipse transform="matrix(0.9969 -7.911514e-02 7.911514e-02 0.9969 -6.8193 15.7756)" class="st50" cx="195.7" cy="93.9" rx="4" ry="4"/>
<path class="st50" d="M188.3,107.4l-21.6-1c0.7,2.5,0.8,5.2,0.2,7.7l21,1c0.1,0,0.1,0,0.2,0c2,0,3.8-1.6,3.8-3.7
	C192.1,109.3,190.5,107.5,188.3,107.4z"/>
<path class="st47" d="M455.1,98.4l-0.3-0.5c-5.6-8.6-14.9-8.9-21.3-5.6c-6.4,3.3-11.5,11.2-7.7,20.6c14.2,35.5,1.2,59.8-7.4,66
	c-12.1,8.8-24.2,9-32.2,7.7c-10-1.6-19.3-6.8-23.8-13.1c-14-19.8-17.2-34.9-20.6-50.9c-3.6-16.9-7.6-36-23.1-58
	c-14-19.8-34-32.7-56.1-36.4c-22.3-3.6-45.6,2.4-65.5,16.9c-38.2,27.9-46,82.4-17.5,121.4c16.8,23,34.4,36,49.9,47.5
	c12.8,9.4,23.8,17.6,32.8,30.3c0.1,0.1,8.9,12.6,6.5,26.7c-1.5,8.6-6.8,16.2-15.8,22.6c-5.5,3.9-11,6.1-17.4,6.9
	c-3.6,0.5-7.3-0.6-10.1-2.9c-4.2-3.6-9.2-6-14.7-7c-4.5-0.9-9-1.9-13.8-3l-0.6-0.1c-11.9-2.7-25.5-5.7-39.9-6.8
	c-8.7-0.7-17.1,2.1-23.7,7.7c-1.5,1.3-3.4,2.2-5.5,2.5c-17.4,3.2-33.9,10.4-50.3,22c-26.8,19-42.9,45.5-47.9,79
	c-4.8,32.6,3.1,61,5.6,68.9l0.1,0.4c2.6,8.1,9.2,11.4,15.4,11.4c1.2,0,2.4-0.1,3.6-0.4c7-1.5,13.9-7.7,12.8-17.8
	c0-0.3-0.1-0.7-0.1-1.3c-8.2-66.6,22-95.7,35.3-105.2c8-5.7,16.2-9.3,24.9-11c2-0.4,4.2,0.1,5.7,1.5c5.3,4.6,11.9,7.3,19,7.9
	c9.8,0.8,20,3,30.8,5.5l0.2,0c4.9,1.1,10.5,2.4,15.9,3.4c0.3,0.1,0.5,0.1,0.8,0.1c7.5,1.3,15-0.1,21.6-3.8c1.6-0.9,3.4-1.4,5.2-1.4
	c21.3,0.6,39-4.6,55.7-16.4c45.8-32.4,45.3-83.9,21.1-118c-13.5-19.1-28.8-30.4-43.7-41.4c-14.1-10.4-27.4-20.2-39.8-37.5
	c-12-16.6-8.6-40.4,7.3-52c9.3-6.7,19.1-9.5,28.4-8c9.1,1.5,17.4,7.1,23.8,16.2c9.6,13.6,12,25.1,15.1,39.7c4,19.2,8.6,41,28.5,69.2
	c11.6,16.4,30.5,27.7,51.9,30.9c22.6,3.4,46.2-2.2,66.3-15.9c16.4-11.1,27.6-29.7,30.9-50.9C474.9,143.4,469.1,119.4,455.1,98.4z
	 M383.4,193.8c1.8,0.4,3.1,1.9,3.2,3.7l0.6,9.4c0.1,2,1.8,3.6,3.8,3.6c0.1,0,0.2,0,0.2,0c2.1-0.1,3.7-2,3.6-4.1l-0.5-7.5
	c-0.1-2.2,1.5-4,3.7-4.2c0.4,0,0.9-0.1,1.3-0.1c1.8-0.2,3.5,0.9,4.2,2.6l4.5,12.3c0.6,1.6,2,2.5,3.6,2.5c0.7,0,1.4-0.2,2-0.6
	c1.6-1,2.2-3,1.5-4.7l-4-10.9c-0.7-2,0.2-4.2,2.1-5c0.3-0.1,0.6-0.3,0.9-0.4c1.7-0.8,3.7-0.4,4.9,1.1l10.8,13.6c0.8,1,1.9,1.5,3,1.5
	c0.8,0,1.7-0.3,2.4-0.9c1.6-1.3,1.8-3.9,0.5-5.6l-9.9-12.4c-1.2-1.6-1.2-3.8,0.2-5.2c0.1-0.1,0.3-0.3,0.4-0.4
	c1.3-1.3,3.3-1.6,4.9-0.6l14.1,8.6c0.6,0.4,1.3,0.6,2,0.6c1.4,0,2.7-0.7,3.4-2c1-1.8,0.2-4.1-1.6-5.2l-13.4-8.2
	c-1.7-1-2.4-3.2-1.6-5c0.1-0.3,0.3-0.6,0.4-0.9c0.7-1.7,2.6-2.6,4.4-2.3l11.3,2.3c0.3,0.1,0.5,0.1,0.8,0.1c2,0,3.7-1.5,3.8-3.6
	c0.1-2-1.3-3.7-3.2-4.1l-9.8-2c-2.1-0.4-3.5-2.4-3.1-4.5c0.1-0.8,0.2-1.5,0.3-2.3c0.2-1.8,1.7-3.3,3.5-3.5l9.4-1
	c2-0.2,3.6-1.9,3.6-3.9c0-2.3-2.1-4-4.3-3.8l-7.5,0.8c-2.2,0.2-4.2-1.4-4.4-3.6c-0.1-1.7-0.3-3.4-0.6-5.2c-0.3-1.9,0.9-3.7,2.7-4.3
	l5.2-1.8c2-0.7,3.2-2.7,2.7-4.8c-0.6-2.1-2.9-3.3-4.9-2.6l-3.9,1.3c-2.1,0.7-4.4-0.4-5.1-2.6c-0.8-2.6-1.7-5.2-2.8-7.9
	c-2.2-5.4,0.8-9.3,4.1-10.9c3.2-1.7,8.1-1.9,11.3,3l0.4,0.5c13,19.4,18.4,41.5,15.1,62.3c-3,19.1-13.1,35.8-27.7,45.7
	c-18.5,12.6-40.1,17.8-60.8,14.7c-19.3-2.9-36.4-13-46.8-27.7c-19-26.9-23.4-47.8-27.3-66.4c-3.2-15.4-5.8-27.6-16.4-42.5
	c-7.6-10.8-17.6-17.5-28.8-19.3c-11.4-1.9-23.2,1.4-34.2,9.4c-9.5,6.9-15.7,17.4-17.3,29.4c-1.6,11.9,1.3,23.7,8.3,33.3
	c6.6,9.1,13.3,16.2,20.1,22.3c1.6,1.4,1.8,3.9,0.4,5.5l-2.5,3c-1.4,1.6-1.3,4.2,0.4,5.6c0.7,0.6,1.6,0.9,2.5,0.9
	c1.1,0,2.2-0.5,3-1.4l2.7-3.3c1.4-1.7,3.8-1.9,5.5-0.6c2.3,1.7,4.5,3.4,6.8,5.1c1.8,1.3,2.2,3.9,0.8,5.7l-2.2,2.8
	c-1.3,1.7-1.2,4.2,0.5,5.6c0.7,0.6,1.6,0.8,2.4,0.8c1.1,0,2.3-0.5,3-1.5l2.6-3.3c1.4-1.7,3.9-2,5.6-0.7c2.5,1.9,5,4,7.5,6.1
	c1.8,1.5,1.9,4.1,0.3,5.8l-2.5,2.6c-1.5,1.6-1.5,4.2,0.1,5.7c0.7,0.6,1.6,1,2.6,1c1,0,2-0.4,2.8-1.2l2.7-2.9
	c1.6-1.7,4.2-1.7,5.8-0.1c2,2.1,4,4.3,6,6.7c1.5,1.8,1.1,4.5-0.8,5.9l-2.9,2c-1.7,1.2-2.3,3.4-1.3,5.2c0.7,1.3,2,1.9,3.3,1.9
	c0.8,0,1.5-0.2,2.2-0.7l3.3-2.3c1.9-1.3,4.5-0.8,5.7,1.1c1.5,2.5,2.9,5,4.1,7.4c1.1,2.2,0,4.8-2.2,5.6l-3.4,1.2
	c-2,0.7-3.2,2.8-2.6,4.7c0.5,1.7,2,2.8,3.7,2.8c0.4,0,0.9-0.1,1.3-0.2l3.7-1.3c2.2-0.8,4.6,0.5,5.2,2.8c0.7,2.8,1.2,5.5,1.5,8.2
	c0.3,2.4-1.5,4.5-3.9,4.5l-7.6,0.1c-2.1,0-3.9,1.6-4,3.7c-0.1,2.2,1.7,4,3.8,4c0,0,0,0,0.1,0l7.7-0.1c2.4,0,4.3,2.1,4,4.5
	c-0.3,2.7-0.8,5.3-1.4,7.9c-0.5,2.3-2.9,3.7-5.2,2.9l-10.6-3.6c-2-0.7-4.2,0.2-5,2.1c-0.8,2.1,0.3,4.4,2.3,5.1l10.6,3.6
	c2.3,0.8,3.4,3.4,2.3,5.6c-1.2,2.4-2.4,4.7-3.8,6.9c-1.3,2-4,2.6-5.9,1.1L280.5,294c-1.7-1.3-4.1-1-5.4,0.7s-1,4.1,0.7,5.4
	l13.7,10.5c1.9,1.4,2.1,4.2,0.5,5.9c-1.9,2-3.9,4-6,5.8c-1.8,1.6-4.5,1.2-5.9-0.7l-10-14.1c-1.2-1.7-3.6-2.3-5.3-1.2
	c-1.9,1.2-2.4,3.7-1.1,5.5l10.2,14.4c1.3,1.9,0.8,4.6-1.2,5.8c-2.4,1.4-4.9,2.7-7.4,3.9c-2.2,1-4.7-0.2-5.4-2.4l-5.4-16.5
	c-0.6-1.7-2.3-2.9-4.1-2.7c-2.5,0.3-4,2.8-3.2,5l5.5,16.6c0.8,2.4-0.6,4.7-3,5.2c-3.2,0.7-6.5,1.2-10,1.5c-1.5,0.1-2.8-1-2.8-2.5
	l-0.3-9.5c-0.1-2.1-1.9-3.8-4-3.7c-2.1,0.1-3.8,1.9-3.7,4l0.3,9.2c0.1,1.5-1.2,2.7-2.7,2.7l-0.2,0c-2-0.1-4,0.5-5.7,1.6
	c-0.4,0.2-0.7,0.5-1.1,0.7c-2.3,1.4-4.8,2.3-7.4,2.9c-2,0.4-3.8-1.5-3.1-3.5c1.2-3.6,2.2-7.5,3.2-11.5c0.4-1.8-0.4-3.8-2.1-4.5
	c-2.3-1-4.8,0.3-5.3,2.6c-1.2,5.1-2.6,9.9-4.2,14.4c-0.4,1.2-1.7,1.9-3,1.6l-9.8-2.2c-2.3-0.5-3.7-2.9-2.9-5.2
	c1.3-3.8,2.4-7.9,3.4-12.1c0.5-2-0.6-4.2-2.7-4.8c-2.1-0.6-4.3,0.7-4.8,2.8c-1.1,4.7-2.4,9.1-3.8,13.3c-0.7,1.9-2.6,3-4.6,2.6
	c-2.3-0.5-4.6-0.9-6.9-1.3c-2.3-0.4-3.8-2.6-3.3-4.9c0.9-3.8,1.6-7.7,2.1-11.8c0.3-1.8-0.8-3.7-2.5-4.3c-2.4-0.8-4.8,0.7-5.1,3.1
	c-0.6,4.4-1.4,8.7-2.3,12.6c-0.5,2.2-2.7,3.5-4.9,2.9c-4.8-1.4-9.2-4.1-12.5-8l-0.8-1c-1-1.3-1.8-2.6-2.6-4.1
	c-0.9-1.8-2.9-2.8-4.7-2.2c-1.4,0.4-2.3,1.5-2.6,2.8c-0.1,0.3-0.1,0.7,0,1.1c0.3,1.7-0.8,3.4-2.4,3.8c-8.4,2.1-16.4,5.9-24.2,11.4
	c-20.3,14.4-33.1,36.4-37.9,65.4c-2.5,14.9-2.7,30.7-0.7,47c0.1,0.5,0.1,0.8,0.1,1l0,0.2c0.7,5.7-3.2,8.6-6.8,9.4
	c-3.5,0.8-8.3-0.3-10-5.8l-0.1-0.4c-0.4-1.1-1-3.3-1.8-6.4c-0.6-2.3,0.9-4.5,3.2-4.9l2.7-0.5c2.1-0.4,3.6-2.2,3.4-4.3
	c-0.3-2.2-2.3-3.7-4.5-3.3l-3.3,0.6c-2.2,0.4-4.3-1.1-4.6-3.4c-0.4-2.8-0.8-5.9-1.1-9.1c-0.2-2.3,1.6-4.4,3.9-4.4l5.8-0.1
	c2.1,0,3.9-1.6,4-3.7c0.1-2.2-1.7-4-3.8-4c0,0,0,0-0.1,0l-6.4,0.1c-2.2,0-4.1-1.8-4.1-4c0-3,0.2-6.1,0.4-9.2c0.2-2.3,2.3-4,4.6-3.6
	l8.5,1.3c0.2,0,0.4,0,0.6,0c2,0,3.8-1.6,3.8-3.7c0.1-2-1.5-3.7-3.5-4l-8.4-1.2c-2.3-0.3-3.8-2.5-3.3-4.7c0.6-2.9,1.3-5.8,2.1-8.7
	c0.6-2.2,3.1-3.5,5.2-2.6l9.4,3.5c0.4,0.2,0.9,0.2,1.3,0.2c1.6,0,3.2-1.1,3.7-2.8c0.6-2-0.6-4-2.5-4.8l-9.4-3.5
	c-2.2-0.8-3.2-3.3-2.3-5.4c7-15.4,18.2-30.3,35.7-42.7c8-5.6,16-10.2,24.1-13.7c2.1-0.9,4.6,0.2,5.3,2.4l2.7,8
	c0.5,1.6,2,2.6,3.6,2.6c0.7,0,1.4-0.2,2-0.6c1.6-0.9,2.2-2.9,1.6-4.6l-2.7-7.9c-0.8-2.2,0.5-4.6,2.8-5.2c3.1-0.8,6.3-1.4,9.5-2
	c0.1,0,0.2,0,0.3,0c2.3-0.4,4.4-1.5,6.1-3.1c0.2-0.2,0.4-0.3,0.6-0.5c4.6-4.1,10.5-6.3,16.6-6.3c0.6,0,1.3,0,1.9,0.1
	c13.9,1.1,27.1,4,38.8,6.7l0.6,0.1c4.6,1,9.4,2.1,14,3c5.8,1.1,10.9,4.3,14.8,9.1l1,1.3c0.8,1.1,1.5,2.3,2.1,3.6
	c0.7,1.4,2,2.2,3.5,2.2c0.6,0,1.1-0.1,1.6-0.4c1.4-0.7,2-1.8,2.1-2.7c0.2-1.6,1.4-2.8,3-3.1c7.3-1.1,13.7-3.7,19.9-8.1
	c10.8-7.6,17.1-16.9,19-27.6c0.8-4.9,0.6-9.7-0.2-13.9c-0.4-1.9,0.7-3.8,2.6-4.5l4.3-1.5c2-0.7,3.2-2.8,2.6-4.8
	c-0.6-2.1-2.9-3.3-5-2.5l-4.3,1.5c-1.9,0.7-4-0.2-4.9-2c-0.2-0.3-0.3-0.6-0.5-0.9c-1-1.8-0.4-4,1.2-5.2l3.4-2.4
	c1.5-1.1,2.2-3,1.4-4.7c-1-2.3-3.8-3-5.8-1.7l-3.8,2.6c-1.7,1.2-3.9,0.9-5.3-0.6c-0.7-0.8-1.4-1.6-2.1-2.3c-1.5-1.5-1.5-4,0-5.5
	l2.7-2.9c1.4-1.5,1.6-3.9,0.1-5.5c-1.5-1.6-4.1-1.6-5.6,0l-3,3.2c-1.4,1.5-3.8,1.7-5.4,0.3c-1.8-1.5-3.7-3-5.6-4.5
	c-1.8-1.4-2.1-3.9-0.7-5.6l2.3-2.9c1.1-1.4,1.2-3.5,0-4.9c-1.6-1.9-4.5-1.8-6,0.1l-2.7,3.4c-1.3,1.7-3.8,2-5.5,0.7
	c-2.5-1.8-5-3.7-7.5-5.7c-1.8-1.4-2.1-4-0.6-5.7l2.4-2.9c1.2-1.4,1.3-3.5,0.2-4.9c-1.6-2-4.5-1.9-6-0.1l-2.5,3
	c-1.4,1.7-4,1.9-5.7,0.4c-2.3-2-4.6-4.2-6.9-6.4c-1.6-1.6-1.6-4.2,0.1-5.8l5.7-5.3c1.3-1.3,1.7-3.3,0.8-4.9
	c-1.3-2.2-4.2-2.5-5.9-0.8l-5.7,5.3c-1.7,1.6-4.3,1.4-5.8-0.3c-2.1-2.5-4-5-5.5-6.9c-1.4-1.9-0.9-4.6,1.1-5.8L200,152
	c1.8-1.1,2.6-3.4,1.6-5.2c-1-2-3.5-2.6-5.4-1.5l-11.7,7c-2,1.2-4.6,0.5-5.6-1.6c-1.3-2.6-2.4-5.2-3.4-7.8c-0.8-2.2,0.5-4.6,2.7-5.2
	l12.8-3.4c1.8-0.5,3.1-2.1,3-3.9c-0.1-2.5-2.5-4.2-4.8-3.5l-12.9,3.4c-2.3,0.6-4.6-0.9-5-3.2c-3.9-24.6,3.8-50,21.7-68
	c2.3-2.3,5-4.6,7.1-6.2c1.5-1.2,3.7-0.8,4.8,0.8l10,15.2c0.7,1.1,2,1.7,3.2,1.7c0.8,0,1.6-0.3,2.3-0.8c1.6-1.2,1.9-3.6,0.8-5.4
	l-9.9-14.9c-1.1-1.6-0.5-3.8,1.2-4.8c2.9-1.6,5.9-2.9,8.9-4.1c1.8-0.7,3.9,0.3,4.4,2.2l4.9,17.2c0.5,1.7,2,2.8,3.7,2.8
	c0.5,0,1-0.1,1.4-0.3c1.9-0.7,2.8-2.9,2.2-4.8l-4.9-17.1c-0.5-1.9,0.6-3.8,2.5-4.2c3.2-0.6,6.4-1,9.7-1.2c2-0.1,3.6,1.5,3.5,3.5
	l-0.8,18c-0.1,2.1,1.5,3.9,3.6,4c0.1,0,0.1,0,0.2,0c2,0,3.8-1.6,3.8-3.7l0.8-18c0.1-2,1.9-3.4,3.8-3.1c0.3,0.1,0.7,0.1,1,0.2
	c2.9,0.5,5.7,1.1,8.4,1.9c1.9,0.5,2.8,2.6,2.1,4.4L265.4,59c-0.7,1.8-0.1,3.8,1.5,4.8c0.7,0.4,1.4,0.6,2,0.6c1.5,0,3-0.9,3.6-2.4
	l6.7-16.7c0.7-1.8,2.9-2.6,4.6-1.7c2.9,1.5,5.7,3.2,8.4,5.1c1.6,1.1,1.9,3.4,0.6,4.8l-11.6,13.7c-1.4,1.6-1.3,4.2,0.3,5.6
	c0.7,0.6,1.6,0.9,2.5,0.9c1.1,0,2.2-0.5,2.9-1.4l11.7-13.8c1.3-1.5,3.5-1.6,4.9-0.2c2.3,2.4,4.5,4.9,6.6,7.6
	c1.2,1.5,0.8,3.7-0.7,4.8l-15,10.3c-1.7,1.1-2.3,3.4-1.3,5.2c0.7,1.3,2,2,3.4,2c0.8,0,1.5-0.2,2.2-0.7l15-10.3
	c1.6-1.1,3.8-0.6,4.7,1.1c1.8,3.1,3.4,6.2,4.8,9.2c0.8,1.7,0,3.8-1.8,4.5l-13.3,5.3c-1.9,0.8-3,2.8-2.4,4.8c0.5,1.7,2.1,2.7,3.7,2.7
	c0.5,0,1-0.1,1.4-0.3l13.4-5.3c1.8-0.7,3.8,0.2,4.4,2.1c1.2,3.6,2.1,7.1,3,10.5c0.4,1.8-0.6,3.6-2.4,4l-8.7,2.3
	c-1.9,0.5-3.2,2.2-3,4.2c0.2,2.1,1.9,3.5,3.8,3.5c0.3,0,0.6,0,1-0.1l8.4-2.2c1.6,1,2.5,1.5,4.1,2.5c0.6,3,1.3,5.9,1.9,8.8
	c0.4,1.7-0.6,3.5-2.3,4l-8.6,2.6c-1.8,0.5-3.1,2.3-2.9,4.2c0.3,2,2,3.4,3.8,3.4c0.4,0,0.7-0.1,1.1-0.2l8.6-2.6
	c1.7-0.5,3.5,0.4,4.1,2.1c0.6,1.9,1.4,3.8,2.1,5.7c0.7,1.6-0.1,3.5-1.6,4.2l-8.1,3.9c-1.8,0.9-2.8,2.9-2.1,4.8
	c0.6,1.6,2.1,2.6,3.6,2.6c0.6,0,1.1-0.1,1.7-0.4l8.2-3.9c1.6-0.8,3.5-0.2,4.3,1.4c0.7,1.2,1.3,2.3,2.1,3.5c0.9,1.4,0.5,3.3-0.8,4.3
	l-7.4,5.7c-1.7,1.3-2.1,3.8-0.8,5.5c0.8,1,1.9,1.5,3.1,1.5c0.8,0,1.7-0.3,2.4-0.8l7-5.4c1.4-1.1,3.3-0.9,4.5,0.4
	c0.2,0.2,0.4,0.4,0.6,0.7c1.1,1.1,1.3,2.9,0.4,4.1l-5.2,7.6c-1.2,1.7-0.9,4.1,0.7,5.4c0.7,0.5,1.5,0.8,2.3,0.8
	c1.2,0,2.4-0.6,3.2-1.7l5.1-7.4c0.9-1.4,2.7-1.8,4.2-1.1l0.1,0c1.4,0.7,2.1,2.3,1.7,3.9l-2.4,9c-0.5,1.9,0.4,4,2.2,4.7
	c0.5,0.2,1,0.3,1.4,0.3c1.7,0,3.3-1.1,3.7-2.9l2-7.7C379.2,194.7,381.3,193.4,383.4,193.8L383.4,193.8z"/>
</svg>
