<?xml version="1.0" encoding="utf-8"?>
<!-- Generator: Adobe Illustrator 20.1.0, SVG Export Plug-In . SVG Version: 6.00 Build 0)  -->
<svg version="1.1" id="Layer_1" xmlns="http://www.w3.org/2000/svg" xmlns:xlink="http://www.w3.org/1999/xlink" x="0px" y="0px"
	 viewBox="0 0 500 500" style="enable-background:new 0 0 500 500;" xml:space="preserve">
<style type="text/css">
	.st0{fill:none;stroke:#460705;stroke-width:6;stroke-miterlimit:10;}
	.st1{fill:none;stroke:#1F1F27;stroke-width:6.4419;stroke-linecap:round;stroke-miterlimit:10;}
	.st2{fill:#FF1F00;}
	.st3{fill:#1F1F27;}
	.st4{fill:#DADBD5;}
	.st5{fill:none;stroke:#473830;stroke-width:3;stroke-linecap:round;stroke-linejoin:round;stroke-miterlimit:10;}
	.st6{fill:none;stroke:#006838;stroke-width:7;stroke-linecap:round;stroke-miterlimit:10;}
	.st7{fill:none;stroke:#171516;stroke-width:7;stroke-linecap:round;stroke-linejoin:round;stroke-miterlimit:10;}
	.st8{fill:none;stroke:#171516;stroke-width:6;stroke-linejoin:round;stroke-miterlimit:10;}
	.st9{fill:#873705;stroke:#171516;stroke-miterlimit:10;}
	.st10{opacity:0.8;fill:none;stroke:#FFFFFF;stroke-linecap:round;stroke-miterlimit:10;}
	.st11{fill:none;stroke:#3A2C26;stroke-width:7;stroke-miterlimit:10;}
	.st12{fill:none;stroke:#AF7C3E;stroke-linecap:round;stroke-linejoin:round;stroke-miterlimit:10;}
	.st13{fill:#AF7C3E;stroke:#755E48;stroke-miterlimit:10;}
	.st14{clip-path:url(#SVGID_2_);}
	.st15{fill:#25A9E0;}
	.st16{clip-path:url(#SVGID_4_);}
	.st17{clip-path:url(#SVGID_6_);}
	.st18{clip-path:url(#SVGID_8_);}
	.st19{clip-path:url(#SVGID_10_);}
	.st20{clip-path:url(#SVGID_12_);}
	.st21{clip-path:url(#SVGID_14_);}
	.st22{fill:#FFFFFF;stroke:#231F20;stroke-width:6;stroke-linecap:round;stroke-miterlimit:10;}
	.st23{fill:none;stroke:#231F20;stroke-linecap:round;stroke-miterlimit:10;}
	.st24{fill:none;stroke:#231F20;stroke-width:6;stroke-linecap:round;stroke-miterlimit:10;}
	.st25{fill:#FFFFFF;stroke:#231F20;stroke-linecap:round;stroke-miterlimit:10;}
	.st26{fill:#FFFFFF;}
	.st27{fill:none;stroke:#DEC8A7;stroke-linecap:round;stroke-linejoin:round;stroke-miterlimit:10;}
	.st28{opacity:0.8;fill:none;stroke:#FFFFFF;stroke-linecap:round;stroke-linejoin:round;stroke-miterlimit:10;}
	.st29{fill:none;stroke:#755E48;stroke-miterlimit:10;}
	.st30{fill:#FFFFFF;stroke:#755E48;stroke-linecap:round;stroke-linejoin:round;stroke-miterlimit:10;}
	.st31{fill:#FFFFFF;stroke:#716558;stroke-linecap:round;stroke-linejoin:round;stroke-miterlimit:10;}
	.st32{fill:none;stroke:#755E48;stroke-linecap:round;stroke-linejoin:round;stroke-miterlimit:10;}
	.st33{fill:#DEC8A7;}
	.st34{opacity:0.7;fill:none;stroke:#755E48;stroke-linejoin:round;stroke-miterlimit:10;}
	.st35{opacity:0.4;fill:none;stroke:#755E48;stroke-miterlimit:10;}
	.st36{fill:#755E48;}
	.st37{fill:none;stroke:#755E48;stroke-linecap:round;stroke-miterlimit:10;}
	.st38{fill:#DEC8A7;stroke:#755E48;stroke-miterlimit:10;}
	.st39{fill:#473830;}
	.st40{fill:#716558;}
	.st41{opacity:0.8;fill:#FFFFFF;}
	.st42{fill:#CBA66C;}
	.st43{fill:#3A2C26;}
	.st44{fill:#AF7C3E;}
	.st45{fill:#B7A287;}
	.st46{fill:#A89379;}
	.st47{fill:none;stroke:#AF7C3E;stroke-width:3;stroke-linecap:round;stroke-miterlimit:10;}
	.st48{fill:none;stroke:#CB7B78;stroke-width:5;stroke-linecap:round;stroke-miterlimit:10;}
	.st49{fill:#724B34;}
	.st50{opacity:0.2;fill:none;stroke:#00ADEE;stroke-linecap:round;stroke-linejoin:round;stroke-miterlimit:10;}
	.st51{fill:none;stroke:#00ADEE;stroke-width:0.25;stroke-miterlimit:10;}
	.st52{fill:none;stroke:#FFF100;stroke-width:0.25;stroke-miterlimit:10;}
	.st53{fill:none;stroke:#A63A34;stroke-miterlimit:10;}
	.st54{fill:none;stroke:#A63A34;stroke-linecap:round;stroke-miterlimit:10;}
	.st55{fill:none;stroke:#A63A34;stroke-linecap:round;stroke-linejoin:round;stroke-miterlimit:10;}
	.st56{fill:#CB7B78;stroke:#51321D;stroke-width:7;stroke-miterlimit:10;}
	.st57{fill:#CB7B78;stroke:#A63A34;stroke-miterlimit:10;}
	.st58{fill:#A63A34;}
	.st59{fill:#51321D;}
	.st60{fill:#CB7B78;}
	.st61{fill:#B35551;}
	.st62{fill:none;stroke:#724B34;stroke-width:1.9219;stroke-linecap:round;stroke-miterlimit:10;}
	.st63{fill:#AF7346;stroke:#171516;stroke-linejoin:round;stroke-miterlimit:10;}
	.st64{fill:none;stroke:#171516;stroke-linecap:round;stroke-linejoin:round;stroke-miterlimit:10;}
	.st65{fill:#AA6F3C;stroke:#171516;stroke-miterlimit:10;}
	.st66{opacity:0.8;fill:#873705;stroke:#171516;stroke-miterlimit:10;}
	.st67{opacity:0.5;fill:#873705;stroke:#171516;stroke-miterlimit:10;}
	.st68{opacity:0.2;fill:#873705;stroke:#171516;stroke-miterlimit:10;}
	.st69{fill:none;stroke:#171516;stroke-linecap:round;stroke-miterlimit:10;}
	.st70{fill:none;stroke:#AF7346;stroke-linecap:round;stroke-linejoin:round;stroke-miterlimit:10;}
	.st71{fill:none;stroke:#873705;stroke-linecap:round;stroke-linejoin:round;stroke-miterlimit:10;}
	.st72{fill:#171516;}
	.st73{fill:#873705;}
	.st74{fill:#DAC3B5;}
	.st75{fill:#AF7346;}
	.st76{fill:#E7D5C8;}
	.st77{fill:#8D4218;}
	.st78{fill:#A26436;}
	.st79{fill:#975327;}
	.st80{fill:#E3D1C4;}
	.st81{fill:#D0E400;}
	.st82{fill:#D0E400;stroke:#006838;stroke-width:3;stroke-miterlimit:10;}
	.st83{fill:#D0E400;stroke:#006838;stroke-linecap:round;stroke-miterlimit:10;}
	.st84{fill:none;stroke:#006838;stroke-linecap:round;stroke-miterlimit:10;}
	.st85{opacity:0.2;fill:none;stroke:#006838;stroke-linecap:round;stroke-miterlimit:10;}
	.st86{fill:none;stroke:#D0E400;stroke-linecap:round;stroke-miterlimit:10;}
	.st87{fill:none;stroke:#FFFFFF;stroke-linecap:round;stroke-miterlimit:10;}
	.st88{fill:none;stroke:#006838;stroke-width:3;stroke-miterlimit:10;}
	.st89{opacity:0.3;fill:none;stroke:#006838;stroke-linecap:round;stroke-miterlimit:10;}
	.st90{fill:#324C05;}
	.st91{opacity:0.3;fill:#324C05;}
	.st92{fill:none;stroke:#FFF100;stroke-miterlimit:10;}
	.st93{fill:none;stroke:#FFF100;stroke-width:3;stroke-miterlimit:10;}
	.st94{fill:#FFFFFF;stroke:#473830;stroke-width:3;stroke-miterlimit:10;}
	.st95{fill:none;stroke:#473830;stroke-miterlimit:10;}
	.st96{fill:none;stroke:#473830;stroke-linecap:round;stroke-miterlimit:10;}
	.st97{clip-path:url(#SVGID_16_);}
	.st98{fill:none;stroke:#473830;stroke-width:3;stroke-linecap:round;stroke-miterlimit:10;}
	.st99{fill:none;stroke:#473830;stroke-linecap:round;stroke-linejoin:round;stroke-miterlimit:10;}
	.st100{clip-path:url(#SVGID_18_);}
	.st101{fill:#D62C16;}
	.st102{fill:#660200;}
	.st103{fill:none;stroke:#660200;stroke-width:0.9203;stroke-linejoin:round;stroke-miterlimit:10;}
	.st104{fill:none;stroke:#DADBD5;stroke-width:0.9203;stroke-linecap:round;stroke-miterlimit:10;}
	.st105{fill:none;stroke:#FFFFFF;stroke-width:0.9203;stroke-linecap:round;stroke-miterlimit:10;}
	.st106{fill:#1E1F27;}
	.st107{fill:none;stroke:#660200;stroke-width:0.9203;stroke-linecap:round;stroke-linejoin:round;stroke-miterlimit:10;}
	.st108{fill:none;stroke:#1F1F27;stroke-miterlimit:10;}
	.st109{fill:none;stroke:#997A5B;stroke-width:0.9203;stroke-linecap:round;stroke-miterlimit:10;}
	.st110{fill:#FF1F00;stroke:#1F1F27;stroke-width:2.7608;stroke-linejoin:round;stroke-miterlimit:10;}
	.st111{fill:none;stroke:#460705;stroke-width:7;stroke-linecap:round;stroke-linejoin:round;stroke-miterlimit:10;}
	.st112{fill:none;stroke:#A46800;stroke-linecap:round;stroke-linejoin:round;stroke-miterlimit:10;}
	.st113{fill:none;stroke:#660200;stroke-width:7.1499;stroke-linejoin:round;stroke-miterlimit:10;}
	.st114{fill:none;stroke:#1F1F27;stroke-width:21.4496;stroke-linejoin:round;stroke-miterlimit:10;}
	.st115{fill:none;stroke:#660200;stroke-width:7.1436;stroke-linejoin:round;stroke-miterlimit:10;}
	.st116{fill:#997A5B;}
	.st117{fill:#FF1F00;stroke:#1F1F27;stroke-width:21.4309;stroke-linejoin:round;stroke-miterlimit:10;}
	.st118{fill:#A46800;stroke:#460705;stroke-miterlimit:10;}
	.st119{fill:none;stroke:#460705;stroke-miterlimit:10;}
	.st120{fill:none;stroke:#B22600;stroke-miterlimit:10;}
	.st121{fill:none;stroke:#460705;stroke-linecap:round;stroke-linejoin:round;stroke-miterlimit:10;}
	.st122{fill:none;stroke:#B22600;stroke-linecap:round;stroke-linejoin:round;stroke-miterlimit:10;}
	.st123{opacity:0.7;fill:none;stroke:#FFFFFF;stroke-linecap:round;stroke-linejoin:round;stroke-miterlimit:10;}
	.st124{fill:none;stroke:#460705;stroke-linecap:round;stroke-miterlimit:10;}
	.st125{fill:#B22600;}
	.st126{opacity:0.5;fill:#FFFFFF;}
	.st127{opacity:0.4;fill:#460705;}
	.st128{opacity:0.7;fill:#FFFFFF;}
	.st129{fill:#460705;}
	.st130{fill:#A46800;}
	.st131{fill:none;stroke:#B22600;stroke-width:7.876;stroke-miterlimit:10;}
	.st132{fill:#E3D1B4;}
	.st133{fill:#A94713;}
	.st134{clip-path:url(#SVGID_20_);}
	.st135{fill:none;stroke:#000106;stroke-width:7;stroke-linecap:round;stroke-linejoin:round;stroke-miterlimit:10;}
	.st136{fill:#000106;}
	.st137{fill:none;stroke:#7C7A85;stroke-linecap:round;stroke-linejoin:round;stroke-miterlimit:10;}
	.st138{fill:none;stroke:#A3A2AA;stroke-linecap:round;stroke-linejoin:round;stroke-miterlimit:10;}
	.st139{opacity:0.5;fill:none;stroke:#FFFFFF;stroke-linecap:round;stroke-linejoin:round;stroke-miterlimit:10;}
	.st140{fill:none;stroke:#D8D7DA;stroke-linecap:round;stroke-linejoin:round;stroke-miterlimit:10;}
	.st141{fill:#441D11;stroke:#7C7A85;stroke-miterlimit:10;}
	.st142{fill:none;stroke:#7C7A85;stroke-miterlimit:10;}
	.st143{fill:none;stroke:#BEBCC2;stroke-linecap:round;stroke-linejoin:round;stroke-miterlimit:10;}
	.st144{fill:#BEBCC2;}
	.st145{fill:#7C7A85;}
	.st146{fill:#000106;stroke:#7C7A85;stroke-miterlimit:10;}
	.st147{fill:#A3A2AA;}
	.st148{fill:#898791;}
	.st149{fill:#B0AFB6;}
	.st150{fill:#D8D7DA;}
	.st151{fill:none;stroke:#7C7A85;stroke-width:7.6958;stroke-miterlimit:10;}
	.st152{fill:#E5E6E6;}
	.st153{fill:#441D11;}
	.st154{opacity:0.1;fill:#FFFFFF;}
	.st155{fill:#DAD2CF;}
</style>
<g>
	<path class="st43" d="M76.9,373.7c2.2-6.8-1.1-14.1-7.5-17.2c-17.3-8.2-33.8-19.6-49.2-34C6.9,310.3,0,292.8,1.1,274.8
		c1.1-17.7,9.9-33.7,24.2-44c27.2-19.6,54.8-32.2,81.6-40.1c10.6-3.1,16.6-14.3,13.7-25c0-0.1-0.1-0.2-0.1-0.3l-10.9-43.6
		c-2.1-8.2-0.8-16.7,3.5-23.9c4.3-7.3,11.3-12.4,19.5-14.5c10.5-2.6,21.6,0.2,29.9,8.1c4.2,4,7.1,9.3,8.5,15v0
		c1.8,7.1,9,11.4,16.1,9.7l0.1,0c3.5-0.9,7-1.1,10.5-0.8c7.6,0.7,14.1-5.6,13.1-13.3c-0.1-0.4-0.1-0.7-0.1-0.7
		c-2.4-17.3,9.7-33.3,27-35.7c8.3-1.2,16.7,1,23.4,6.1v0c2.5,1.9,6.1,0,5.9-3.2c-1.1-18.8-2.9-30.9-3-31.2
		c-1.3-8.3,0.8-16.6,5.8-23.5c5-6.8,12.4-11.3,20.7-12.6c8.4-1.3,16.8,0.8,23.6,5.8c6.8,5,11.3,12.4,12.5,20.8
		c0.6,3.6,8.6,58.3,2.2,120.6c-1.3,13,9.6,23.9,22.6,22.6c61.8-6.4,116.3,1.5,120.6,2.2v0c8.4,1.3,15.8,5.7,20.8,12.5
		c5,6.8,7.1,15.2,5.8,23.6c-1.3,8.4-5.8,15.7-12.6,20.7c-6.8,5-15.2,7.1-23.6,5.8c-0.3,0-12.5-1.8-31.2-3c-3.1-0.2-5,3.4-3.1,5.9
		c0,0,0.1,0.1,0.1,0.1c5.1,6.7,7.2,15,6,23.4c-1.4,10.4-7.8,19.3-17.5,24.1c-5.6,2.8-12,3.7-18.2,2.9l-0.1,0c0,0-0.2,0-0.6-0.1
		c-7.6-1-14,5.5-13.3,13.1c0.3,3.4,0.1,6.9-0.8,10.4l0,0.1c-1.8,7.1,2.5,14.3,9.7,16.1v0c8.2,2,15.1,7.1,19.5,14.3
		c4.4,7.3,5.7,15.8,3.6,24l0,0c-2,8.2-7.2,15.2-14.4,19.5c-7.3,4.4-15.8,5.6-24,3.5l-43.6-10.9c-0.2-0.1-0.4-0.1-0.7-0.2
		c-10.6-2.9-21.4,3.3-24.5,13.8c-7.9,26.8-20.5,54.4-40.1,81.6c-10.3,14.3-26.3,23.1-44,24.2c-1.3,0.1-2.6,0.1-3.9,0.1
		c-16.6,0-32.5-6.8-44-19.1c-14.4-15.4-25.8-31.9-34-49.2c-3.1-6.5-10.4-9.7-17.3-7.5c-0.9,0.3-1.9,0.6-2.8,0.9
		c-20,5.7-32.4-0.7-39.5-7.8c-7.1-7.1-13.6-19.5-7.9-39.5C76.2,375.7,76.6,374.7,76.9,373.7z M406,234.4c0.1,0,0.1,0,0.1,0l0,0
		C406.1,234.4,406.1,234.4,406,234.4z M463.8,228.1C463.8,228.1,463.8,228.1,463.8,228.1L463.8,228.1z M470.8,181.1
		C470.8,181.1,470.8,181.1,470.8,181.1L470.8,181.1C470.8,181.1,470.8,181.1,470.8,181.1z M145.5,134.8
		C145.5,134.8,145.5,134.8,145.5,134.8L145.5,134.8z M163.4,108.3L163.4,108.3C163.4,108.4,163.4,108.4,163.4,108.3z M218.6,100.4
		C218.6,100.4,218.6,100.4,218.6,100.4C218.6,100.4,218.6,100.4,218.6,100.4z M265.6,93.8c0,0,0,0.1,0,0.1
		C265.6,93.9,265.6,93.9,265.6,93.8z M265.6,93.8C265.6,93.8,265.6,93.8,265.6,93.8C265.6,93.8,265.6,93.8,265.6,93.8z M271.9,36.2
		L271.9,36.2L271.9,36.2z M318.8,29C318.8,29,318.8,29.1,318.8,29L318.8,29C318.8,29.1,318.8,29,318.8,29z"/>
	<path class="st44" d="M227,214.3c-1.7,1.9-4,3.3-7,3.9l0.8,2c0.6,1.5,2.1,2.5,3.7,2.5c0.5,0,1-0.1,1.5-0.3c2-0.8,3-3.1,2.2-5.2
		L227,214.3z"/>
	<path class="st44" d="M152.5,376.6c-26.4,19.1-43.4,25.8-49.1,20.1c-5.7-5.7,0.9-22.5,19.8-48.7l55.1-25.6L152.5,376.6z"/>
	<path class="st36" d="M109,402.6c-3.5,0-6.3-1-8.4-3.1c-11.1-11.1,11.1-42.2,18.4-52.4c19.3-27.1,50.5-62.4,90.3-102.2
		c23.9-23.9,40.9-37,53.6-41.2c12.9-4.3,20.4,0.8,26.5,7c6.2,6.2,11.3,13.6,7,26.5c-4.2,12.7-17.3,29.7-41.2,53.6
		c-39.8,39.8-75.1,71-102.2,90.3c-12.8,9.1-23.5,15.4-31.9,18.7C116.3,401.7,112.3,402.6,109,402.6z M271.7,210
		c-1.9,0-4,0.4-6.4,1.2c-11.3,3.7-27.8,16.6-50.5,39.3c-39.5,39.5-70.4,74.5-89.5,101.2c-25.3,35.4-19.5,41.9-19.2,42.2
		c0.3,0.3,6.8,6.1,42.2-19.2c26.7-19,61.7-50,101.2-89.5c22.7-22.7,35.5-39.2,39.3-50.5c2.8-8.4,0.4-13-5.1-18.4
		C279.9,212.4,276.4,210,271.7,210z"/>
	<path class="st33" d="M288,181c0,2.2,1.8,4,4,4c2,0,3.6-1.4,3.9-3.3c15.1-72.4,3.6-148.7,3.5-149.5c-0.3-2.2-2.4-3.6-4.5-3.3
		c-2.2,0.3-3.6,2.4-3.3,4.5c0.1,0.8,11.4,75.9-3.4,146.9C288,180.2,288,180.3,288,181z"/>
	<path class="st26" d="M299.2,125.6c-0.1,0-0.1,0-0.2,0c-2.2-0.1-3.9-2-3.8-4.1c0.2-5.2,0.4-10.5,0.5-15.9c0-2.2,1.8-3.9,4-3.9
		c2.2,0,3.9,1.8,3.9,4c-0.1,5.5-0.2,10.9-0.5,16.2C303,123.9,301.3,125.6,299.2,125.6z"/>
	<line class="st26" x1="163.9" y1="289.3" x2="210.7" y2="336.1"/>
	<line class="st26" x1="180.7" y1="272.5" x2="227.5" y2="319.3"/>
	<line class="st26" x1="197.5" y1="255.7" x2="244.3" y2="302.5"/>
	<path class="st33" d="M291.1,227.4c4.3,82.6,3,159.5-51.1,230.1c-12.1,15.8-36,16.1-49.2,1.1c-16.6-18.8-28.3-39.5-34.3-60.8
		c-4.9-17.3-2.2-36,8-50.7c27.9-40.5,67.7-80.3,113.5-124.8C282.8,217.6,290.7,220.8,291.1,227.4z"/>
	<path class="st45" d="M215.1,459.2c-0.2,0-0.4,0-0.6,0h0c-5.8-0.2-11.3-2.8-15.1-7.1c-15.8-17.9-26.6-37-32.2-56.9
		c-4.1-14.4-1.7-29.5,6.5-41.3c23.9-34.7,57.5-69.9,100.7-112.1l6.5-6.3l0.3,9.1c2.4,65.3,0.6,140.5-50.4,207.2
		C226.9,456.4,221.3,459.2,215.1,459.2z M214.8,449.8c3.8,0.1,7.2-1.5,9.4-4.3c42.2-55,50.4-116.2,48.4-190.4
		c-39.2,38.6-69.9,71.2-91.9,103.2c-6.7,9.8-8.6,22.2-5.3,34.2c5.2,18.5,15.3,36.3,30.1,53.1C207.9,448.1,211.3,449.7,214.8,449.8
		L214.8,449.8z"/>
	<path class="st46" d="M215.1,467c-0.9,0-1.8,0-2.8-0.1c-7.3-0.7-14.5-4.6-19.8-10.7c-16-18.5-27.1-38.3-32.9-58.9
		c-4.7-16.7-1.9-34.2,7.6-48c28-40.6,68.3-80.9,114.3-125.6c1.1-1.1,2.8-1.4,4.3-0.9c1.5,0.6,2.5,2,2.5,3.5
		c3.9,80.9,3,159.3-51.2,230C231.8,463.2,223.7,467,215.1,467z M280,236.9c-42.6,41.5-79.8,79.1-105.7,116.9
		c-8.1,11.7-10.4,26.6-6.4,40.8c5.4,19.2,15.8,37.8,30.9,55.2c3.9,4.5,9.2,7.4,14.4,7.9c6.9,0.7,13.3-2,17.4-7.4
		C280.6,385,283.2,312.2,280,236.9z"/>
	<path class="st36" d="M229.1,311.5c-0.7,0-1.4-0.2-2.1-0.6c-1.9-1.2-2.4-3.6-1.3-5.4l7.3-11.8c1.2-1.9,3.6-2.4,5.4-1.3
		c1.9,1.2,2.4,3.6,1.3,5.4l-7.3,11.8C231.7,310.8,230.4,311.5,229.1,311.5z"/>
	
		<ellipse transform="matrix(2.886149e-02 -0.9996 0.9996 2.886149e-02 -48.668 519.5952)" class="st36" cx="243.1" cy="284.8" rx="4" ry="4"/>
	
		<ellipse transform="matrix(2.886149e-02 -0.9996 0.9996 2.886149e-02 -72.5668 574.134)" class="st36" cx="259.2" cy="324.4" rx="4" ry="4"/>
	<path class="st33" d="M272.5,209.1c-82.5-4.7-159.4-3.8-230.3,50.1c-15.9,12.1-16.2,35.9-1.3,49.2c18.7,16.6,39.3,28.5,60.6,34.6
		c17.3,4.9,35.9,2.3,50.8-7.8c40.6-27.7,80.6-67.3,125.3-113C282.2,217.5,279.1,209.5,272.5,209.1z"/>
	<path class="st45" d="M118.5,334.1c-4.7,0-9.4-0.7-14.1-2c-19.8-5.7-38.8-16.5-56.5-32.3c-4.3-3.8-6.8-9.3-7-15.1v0
		c-0.2-6.4,2.6-12.3,7.6-16c66.5-50.5,141.4-51.9,206.4-49.3l9,0.4l-6.3,6.4c-42.2,42.8-77.4,76.1-112,99.7
		C137.5,331.3,128.1,334.1,118.5,334.1z M49.7,284.4c0.1,3.5,1.6,6.9,4.3,9.2c16.7,14.8,34.5,25.1,52.9,30.3
		c11.9,3.4,24.4,1.5,34.2-5.1c32.1-21.9,64.8-52.4,103.6-91.5c-74.2-2.3-135.3,5.6-190.6,47.6C51.2,277.2,49.6,280.6,49.7,284.4
		L49.7,284.4z"/>
	<path class="st46" d="M118.5,342c-5.4,0-10.9-0.8-16.3-2.3c-20.5-5.9-40.2-17-58.5-33.1c-6.1-5.3-9.9-12.5-10.6-19.8l0,0
		c-0.9-9.6,3.1-18.8,10.6-24.5c70.7-53.7,148.8-54.3,229.3-50c1.6,0.1,2.9,1.1,3.5,2.5c0.6,1.5,0.2,3.1-0.9,4.2
		c-44.7,45.6-85.1,85.7-125.7,113.3C140.7,338.7,129.7,342,118.5,342z M41.9,286c0.5,5.2,3.3,10.5,7.8,14.4
		c17.3,15.2,35.8,25.7,55,31.2c14.2,4.1,29.1,1.8,40.8-6.2c37.8-25.8,75.7-62.8,117.3-105.2c-75.3-3.6-148.1-1.2-213.6,48.5
		C44,272.8,41.3,279.1,41.9,286L41.9,286z"/>
	<path class="st36" d="M192.1,274.8c-1.3,0-2.6-0.7-3.4-1.9c-1.1-1.9-0.6-4.3,1.3-5.4l11.9-7.3c1.9-1.1,4.3-0.6,5.4,1.3
		c1.1,1.9,0.6,4.3-1.3,5.4l-11.9,7.3C193.5,274.6,192.8,274.8,192.1,274.8z"/>
	
		<ellipse transform="matrix(0.9997 -2.437726e-02 2.437726e-02 0.9997 -6.1991 5.3128)" class="st36" cx="214.8" cy="256.9" rx="4" ry="4"/>
	
		<ellipse transform="matrix(0.9997 -2.437726e-02 2.437726e-02 0.9997 -5.8136 4.3452)" class="st36" cx="175.3" cy="240.6" rx="4" ry="4"/>
	<path class="st33" d="M265.9,196.8c-3.2,0.4-6.3,1.6-8.8,4.1c-6,6-6,15.7,0,21.6c2.1,2.1,4.5,3.4,7.1,4c4.5,1,8.4,4.7,9.4,9.2
		c0.7,3.2,2.4,6.2,5.3,8.4c4.4,3.5,10.8,4.1,15.9,1.8c5.5-2.4,7.7-6.8,8.4-11.4l0.8-17.2c0.6-12.2-9.5-22.3-21.7-21.6L265.9,196.8z"
		/>
	<path class="st36" d="M307.1,235.2l0.9-17.6c0.3-6.9-2.3-13.7-7.2-18.6c-4.9-4.9-11.7-7.5-18.7-7.1l-16.5,0.9l-0.3,0
		c-4.5,0.6-8.2,2.4-11,5.2c-0.8,0.8-1.4,1.6-2,2.4c-1.6,2.2-4.1,3.5-6.8,3.4c-71.7-2.6-141.2,3.2-205.7,52.2
		c-8.3,6.3-13.3,16-13.7,26.6c-0.4,10.9,4,21.4,12.2,28.7c19.4,17.2,40.3,29.2,62.2,35.4c2.6,0.8,5.3,1.3,8,1.8
		c3.9,0.6,5.9,5.1,3.7,8.4c-8.9,13.6-20,33.9-11.5,42.4c2.1,2.1,4.9,3.1,8.4,3.1c3.3,0,7.3-0.9,12-2.8c6-2.4,13.3-6.3,21.6-11.7
		c3.3-2.2,7.8-0.2,8.4,3.7c0.4,2.4,0.9,4.7,1.6,7c6.2,21.9,18,42.9,35.2,62.3c7,7.9,16.9,12.4,27.4,12.4c0.4,0,0.8,0,1.3,0
		c10.6-0.4,20.3-5.3,26.7-13.6c49.2-64.1,55.4-133.5,53.1-205.1c-0.1-2.7,1.3-5.3,3.6-6.8C302.9,246.1,306.7,242.4,307.1,235.2z
		 M169.2,272.2c9.6-7.4,13-10.8,10.4-14.7c-2.8-4.4-8.6-1.9-17.4,2c-1.9,0.8-4.5,2-6.6,2.8c-1.2,0.5-2.5,0.4-3.8,0
		c-0.7-0.2-1.4-0.3-2.1-0.3c-1,0-1.4-1.2-0.6-1.8c0.2-0.1,0.4-0.3,0.5-0.4c10.1-8,15.2-12,12.3-16.6c-0.4-0.6-0.4-0.8-0.5-1.7
		c-0.1-1.2-0.2-3.1-1.7-5.4c-2.3-3.7-6.6-3.1-9.2-2.7l0,0c-1,0.1-2.1-0.2-2.8-0.9c-0.4-0.4-0.7-0.6-1.1-0.9c-1-0.7-1.1-2.2-0.2-3.1
		c0.6-0.6,1.3-1.2,1.8-1.7c3-2.8,5.9-5.6,6.8-8.3c0.6-1.7,1.9-2.9,3.6-3.2c19.9-3,40.2-4.1,60.6-4.1c5.1,0,10.2,0.1,15.3,0.2
		c1.7,0,1.9,2.6,0.2,2.8l-63.3,9.7c-2.2,0.3-3.6,2.4-3.3,4.5c0.3,2,2,3.4,3.9,3.4c0.2,0,0.4,0,0.6,0l68-10.5
		c1.9-0.3,2.6,2.4,0.8,3.1l-55,20.8c-2,0.8-3.1,3.1-2.3,5.1c0.6,1.6,2.1,2.5,3.7,2.5c0.5,0,0.9-0.1,1.4-0.3l51-19.5
		c1.6-0.6,2.7,1.6,1.2,2.5L224.9,246c-1.9,1.1-2.4,3.6-1.3,5.4c0.7,1.2,2,1.9,3.4,1.9c0.7,0,1.4-0.2,2.1-0.6l21.8-13.4
		c1.4-0.9,2.9,1,1.7,2.2c-7.8,7.7-15.4,15.3-22.7,22.8c-6.9,6.6-13.6,13.1-20.4,19.3c-1,0.9-2.6,0.7-3.3-0.5l0,0
		c-2.6-4.2-8.2-2.2-13.6-0.3c-0.7,0.2-1.6,0.6-2.4,0.9c-1.4,0.5-3,0.4-4.2-0.5c-1.2-0.8-2.3-1.1-3.2-1.3c-0.3-0.1-0.8-0.2-0.9-0.3
		c-2.2-3.5-5.8-3.5-7.7-3.6c0,0,0,0,0,0c-0.8,0-1.5-0.4-2-1c-1.3-1.3-3.1-1.5-5.6-0.9c-0.9,0.2-1.4-0.9-0.7-1.4L169.2,272.2z
		 M154,244.6c0.2,0.6,0.1,1.2-0.4,1.6c-2.1,2.1-6,5.2-8.8,7.4c-8.3,6.6-13.2,10.5-13.1,14.2c0,0.8,0.3,1.6,0.8,2.4
		c2.6,4.1,7.8,2.5,12.4,1c0.5-0.2,1.1-0.3,1.7-0.5c1.3-0.4,2.7-0.2,4,0.2c1.2,0.4,2.7,0.4,4.4,0c1-0.2,1.7,1.1,0.8,1.7l-1.7,1.3
		c-9,7.1-12.2,10.4-9.8,14.2c2.7,4.4,8.3,2,16.1-1.2c1.7-0.7,4.1-1.7,5.9-2.4c0.8-0.3,1.8-0.2,2.6,0.2c1.9,1.2,4,1.2,5.4,1.2l0.1,0
		c0.7,0,1.4,0.4,1.9,1c1.4,1.7,3.3,2.2,4.6,2.6c0.3,0.1,0.8,0.2,0.9,0.3c1.5,2.3,3.7,2.8,6.3,2.5c0.8-0.1,1.2,0.9,0.6,1.3l-2,1.6
		c-9.7,7.7-14.1,11.4-11.3,15.7l0,0c0.5,0.8,0.3,2-0.4,2.6c-1.1,0.9-2.1,1.7-3.2,2.5c-0.9,0.7-2.1,0.5-2.7-0.4
		c-0.1-0.2-0.2-0.3-0.3-0.5c-1.3-2-2-4.2-2-6.4c-0.1-3.3,1-6.1,3.5-9.2c1-1.2,1.3-2.8,0.7-4.2c-0.9-2-3.2-2.9-5.1-2.1
		c-0.5,0.2-1,0.4-1.4,0.6l-0.8,0.3c-10.3,4.3-20,7.4-25.8-1.8c-1.3-2-2-4.2-2-6.4c0-0.6,0-1.2,0.1-1.9c0.2-1.9-1.1-3.6-2.9-4.1
		c-2.9-0.9-5.2-2.7-7-5.6c-1.3-2-1.9-4.2-2-6.4c-0.2-6.3,3.7-10.6,12.4-17.6c0.6-0.5,1.2-1.2,1.4-2c0.6-1.8-0.2-3.7-1.8-4.6
		c-2.4-1.4-4.3-3.3-5.8-5.7c-1.3-2.1-2-4.3-2-6.6c-0.1-3.3,1-6.3,3.4-9.5c0.6-0.8,1.6-1.5,2.6-1.7c2.6-0.6,5.1-1.2,7.7-1.7
		c1.5-0.3,2.5,1.6,1.4,2.6l0,0c-4.6,4.4-9,8.4-6.3,12.7c1.6,2.6,3.7,3.4,4.9,3.9c0.8,0.3,0.9,0.4,1.1,0.8c2.3,3.7,6.6,3.1,9.2,2.7
		c0,0,0,0,0,0c0.9-0.1,1.7,0.5,1.8,1.4C153.7,243.2,153.8,243.9,154,244.6z M133.1,347.8c3.2-0.7,6.4-1.7,9.5-3c1.7-0.7,3.7-0.3,5,1
		l6.1,6.1c1.3,1.3,1.7,3.3,1,5c-1.2,3.1-2.2,6.3-2.9,9.5c-0.5,2.1-3.1,2.9-4.6,1.3l-15.4-15.4C130.2,350.9,131,348.3,133.1,347.8z
		 M161.2,344.8C161.2,344.8,161.2,344.8,161.2,344.8c-0.7,1.1-2.2,1.2-3.1,0.3l-3.9-3.9c-0.8-0.8-0.7-2.1,0.3-2.7l0,0
		c3.1-2.1,6.3-4.4,9.4-6.7c1.1-0.8,2.6-0.7,3.6,0.3h0c1,1,1.1,2.5,0.3,3.6C165.5,338.7,163.3,341.7,161.2,344.8z M115.3,244.4
		c-2.1-3.9-3.2-8.2-3.3-12.6c0-0.8,0-1.5,0-2.3c0.1-1.9,1.3-3.5,3.1-4.1c1.1-0.4,2.3-0.7,3.4-1.1c1.1-0.3,2.2,0.7,1.9,1.8
		c-0.4,1.7-0.6,3.5-0.6,5.4c0.1,3.8,1.2,7.3,3.2,10.6c0.7,1.2,1.5,2.3,2.4,3.3c0.9,1.1,0.9,2.6-0.2,3.6c-5.9,5.5-9.9,11.1-9.7,19.1
		c0.1,3.7,1.2,7.2,3.2,10.4c1.7,2.7,3.8,4.9,6.2,6.5c1.4,0.9,2.4,2.4,2.7,4c0.5,2.6,1.5,5.1,2.9,7.4c6.7,10.7,16.9,10.7,25.3,8.6
		c1.3-0.3,2.5,0.7,2.4,2c0,0.6,0,1.2,0,1.8c0.1,3.7,1.2,7.2,3.2,10.5c0.3,0.5,0.7,1,1,1.5c0.5,0.7,0.4,1.6-0.3,2.1
		c-1.3,1-2.7,2-4,2.9c-0.7,0.5-1.6,0.3-2.1-0.3c-0.5-0.6-0.9-1.3-1.4-2c-1.4-2.1-2.4-4.4-3.2-6.8c-0.5-1.6-2-2.7-3.8-2.7h-0.1
		c-10.4,0.2-18.2-4.2-23.9-13.3c-1.5-2.4-2.6-4.9-3.4-7.4c-0.4-1.4-1.2-2.6-2.3-3.5c-2.4-2-4.5-4.4-6.2-7.1
		c-2.8-4.5-4.3-9.3-4.4-14.5c-0.2-7.2,2.1-13.6,7-19.7C115.9,247.5,116.1,245.8,115.3,244.4z M97.9,243.2c-0.7-2.4-1.2-4.9-1.4-7.4
		c-0.2-2,1-3.9,2.8-4.6c0.9-0.4,1.8-0.7,2.8-1.1c1-0.4,2.1,0.4,2.1,1.4c0,0.2,0,0.3,0,0.5c0.1,3.7,0.7,7.3,1.9,10.8
		c0.6,1.9,0.4,3.9-0.6,5.6c-3.9,6.3-5.6,12.9-5.5,20.2c0.2,6.6,2.1,12.8,5.6,18.5c1.8,2.9,3.9,5.5,6.4,7.7c0.8,0.7,1.4,1.7,1.8,2.7
		c0.9,2.6,2.2,5.1,3.7,7.5c6,9.6,14.5,15.3,24.8,16.7c1.9,0.3,3.6,1.5,4.5,3.3c0.5,1,1.1,1.9,1.6,2.9c0.3,0.4,0.5,0.8,0.8,1.2
		c0.9,1.3,0.5,3.1-0.8,4c-1,0.7-2.1,1.3-3.2,1.8c-0.6,0.3-1.4,0.2-1.9-0.4c-0.5-0.8-1.1-1.5-1.6-2.3c-0.2-0.4-0.5-0.8-0.7-1.2
		c-0.6-1-1.5-1.6-2.6-1.8c-11.4-2.4-21-9.2-27.6-19.8c-1.5-2.4-2.8-4.9-3.8-7.4c-0.4-1-1-1.9-1.8-2.7c-2.3-2.4-4.4-5-6.3-7.9
		c-4.4-6.9-6.7-14.5-6.9-22.5c-0.2-8,1.7-15.6,5.5-22.6C98.1,245.3,98.2,244.2,97.9,243.2z M43.5,305.5c-6.4-5.7-9.9-13.9-9.6-22.5
		c0.3-8.2,4.2-15.7,10.6-20.6c1.6-1.3,3.3-2.5,4.9-3.7c1.4-1,3.4,0.1,3.3,1.8c-0.3,3-0.3,6.1-0.3,9.2c0.4,15.3,4.7,29.6,13,42.7
		c2.1,3.4,4.6,6.8,7.3,9.9c0.1,0.1,0.1,0.2,0.2,0.2c0.3,0.6,0.6,1.3,1,1.9c0.6,1.2-0.7,2.4-1.8,1.7
		C62.2,320.6,52.7,313.7,43.5,305.5z M102.6,339.2c-3.2-0.9-6.4-2-9.6-3.2c-1.7-0.6-3.3-1.8-4.4-3.2c-1.6-2.1-3.1-4.2-4.5-6.5
		c-1.5-2.3-2.9-4.8-4.1-7.3c-0.3-0.7-0.8-1.3-1.3-1.9c-2.4-2.9-4.6-5.9-6.6-9c-7.5-11.8-11.4-24.8-11.7-38.7
		c-0.1-5.3,0.3-10.6,1.2-15.8c0.4-2.4,1.9-4.4,3.9-5.7c1.1-0.6,2.1-1.3,3.2-1.9c1.3-0.8,2.8,0.5,2.4,1.9c-2.1,6.8-3,14-2.8,21.3
		c0.3,12.4,3.8,24,10.5,34.6c1.7,2.7,3.6,5.3,5.6,7.8c1.1,1.3,2,2.7,2.8,4.3c1,2.1,2.2,4.1,3.4,6c3.6,5.8,8,11,12.9,15.3
		C104.5,338.1,103.7,339.5,102.6,339.2L102.6,339.2z M97.5,317.8c-1.5-2.3-2.8-4.7-3.9-7.1c-0.5-1-1.1-1.9-1.8-2.7
		c-2.3-2.6-4.4-5.4-6.2-8.3c-5.9-9.4-9-19.7-9.3-30.6c-0.2-8.8,1.4-17.3,4.8-25.2c0.3-0.7,0.4-1.5,0.3-2.2c0-0.1,0-0.3-0.1-0.4
		c-0.2-1,0.3-2.1,1.3-2.6c1-0.5,2-1,3-1.5c1.4-0.7,3.1,0.2,3.4,1.8c0.1,0.8,0.3,1.6,0.4,2.4c0.3,1.5,0.1,3-0.5,4.4
		c-3.3,7.2-4.9,15-4.7,23.1c0.2,9.5,3,18.4,8.1,26.5c1.5,2.5,3.3,4.8,5.2,7c1.4,1.6,2.6,3.4,3.5,5.3c0.9,2,2,3.9,3.2,5.7
		c7.3,11.8,17.8,19.6,30.4,22.8c0.4,0.1,0.7,0.3,0.9,0.6l0,0c0.5,0.8,0.1,2-0.8,2.2c-2.4,0.7-4.9,1.3-7.4,1.6
		c-1.9,0.3-3.9,0-5.6-0.9C111.8,335.2,103.7,327.8,97.5,317.8z M126.7,358.5l14.8,14.8c1.9,1.9,1.6,5-0.6,6.5
		c-2.2,1.5-4.3,2.8-6.2,4c-1.8,1.1-4.2,0.9-5.7-0.7l-12.1-12.1c-1.5-1.5-1.8-3.9-0.7-5.7c1.2-1.9,2.5-4,4-6.2
		C121.7,356.9,124.8,356.6,126.7,358.5z M106.2,393.9c-0.2-0.2-2.7-3,2.6-14.7c0.7-1.7,2.9-2,4.2-0.8l8.7,8.7
		c1.3,1.3,0.9,3.5-0.8,4.2C109.2,396.5,106.3,394,106.2,393.9z M236.8,455.1c-4.9,6.4-12.4,10.3-20.7,10.5
		c-8.6,0.3-16.7-3.2-22.4-9.7c-8.1-9.2-15-18.8-20.6-28.6c-0.6-1.1,0.6-2.4,1.8-1.8c0,0,0.1,0,0.1,0.1c1.2,0.7,2.4,1.4,3.5,2.3
		c2.7,2.2,5.5,4.2,8.4,6c13,8.3,27.3,12.7,42.6,13.2c0.8,0,1.7,0,2.5,0c2.8,0,5.5-0.1,8.3-0.4c1.1-0.1,1.9,1.2,1.2,2.1
		C240,450.9,238.4,453,236.8,455.1z M252.7,431.7c-2.2,3.7-6.1,6.2-10.4,6.8c-4.1,0.6-8.3,0.8-12.6,0.7
		c-13.8-0.4-26.8-4.4-38.6-11.9c-2.9-1.8-5.7-3.9-8.4-6.1c-1-0.8-2-1.5-3.1-2.1c-2.2-1.2-4.5-2.4-6.6-3.8c-2-1.3-4-2.7-5.9-4.1
		c-1.8-1.4-3.2-3.3-3.9-5.4c-1.1-3-2.1-6-2.9-9l0,0c-0.3-1.1,1.1-1.9,1.8-1c4.3,4.9,9.4,9.3,15.2,12.9c2.3,1.5,4.7,2.8,7.2,4
		c0.8,0.4,1.6,0.9,2.3,1.5c2.7,2.4,5.6,4.5,8.6,6.4c10.6,6.7,22.2,10.3,34.6,10.7c0.7,0,1.4,0,2.1,0c6.7,0,13.2-1,19.5-2.9
		c1.3-0.4,2.5,1.1,1.7,2.3C253.1,431,252.9,431.4,252.7,431.7z M257.7,418.4L257.7,418.4c-0.8-0.1-1.6,0-2.3,0.3
		c-7.9,3.4-16.4,5-25.2,4.7c-10.9-0.3-21.2-3.5-30.6-9.5c-2.9-1.8-5.7-3.9-8.3-6.3c-0.8-0.7-1.7-1.3-2.6-1.7c-2.4-1.1-4.8-2.5-7.1-4
		c-9.7-6.1-17-14.1-21.7-23.6c-1-2.1-1.4-4.5-1-6.9c0.4-2.3,0.9-4.5,1.6-6.8c0.3-1,1.4-1.4,2.2-0.8l0,0c0.3,0.2,0.5,0.5,0.6,0.9
		c3.1,12.6,10.9,23.1,22.6,30.5c2.3,1.5,4.7,2.8,7.2,3.9c1,0.5,2,1.1,2.8,1.8c2.5,2.3,5.2,4.4,8.1,6.2c8.1,5.2,17,7.9,26.5,8.2
		c0.5,0,1.1,0,1.6,0c7.7,0,15.1-1.6,22-4.9c1-0.5,2.1-0.6,3.2-0.4c1.3,0.3,2.6,0.5,3.9,0.7c1.2,0.2,1.9,1.5,1.4,2.6
		c-0.5,1.1-1.1,2.2-1.6,3.3C260.3,418,259,418.6,257.7,418.4z M264.9,403.4c-2.9-0.2-5.8-0.8-8.6-1.6c-1-0.3-2.1-0.2-3,0.3
		c-7,3.8-14.6,5.6-22.6,5.4c-8-0.2-15.6-2.6-22.5-7c-2.7-1.7-5.2-3.7-7.4-5.8c-1.1-1.1-2.4-1.9-3.8-2.5c-2.3-1-4.6-2.2-6.8-3.6
		c-10.5-6.7-17.3-16.2-19.6-27.7c-0.2-1.1-0.9-2-1.8-2.6c-0.4-0.2-0.8-0.5-1.2-0.7c-0.8-0.5-1.6-1-2.3-1.6c-0.6-0.4-0.8-1.2-0.4-1.9
		c0.7-1.3,1.5-2.6,2.3-3.9c0.6-1,1.9-1.2,2.9-0.5c0.6,0.4,1.2,0.8,1.8,1.2c1.6,1,3.3,1.9,5,2.7c0.5,0.2,0.8,0.7,0.9,1.2
		c0.8,11.3,6.6,20.6,16.8,27.1c2.2,1.4,4.6,2.6,7,3.5c1.4,0.5,2.7,1.4,3.7,2.5c2.1,2.2,4.6,4.2,7.3,5.9c5.7,3.6,11.9,5.5,18.5,5.7
		c0.4,0,0.8,0,1.2,0c6.8,0,13-1.7,18.8-5.3c1.8-1.1,3.9-1.4,5.8-0.7c3.5,1.2,7.1,1.9,10.8,2l0,0c1.3,0,2.2,1.3,1.7,2.5
		c-0.5,1.2-0.9,2.3-1.4,3.5C267.3,402.8,266.1,403.5,264.9,403.4z M273.7,385.6c-0.4,1.1-1.3,1.8-2.5,1.9c-1.2,0.1-2.4,0.1-3.6,0.1
		c-4.4-0.1-8.6-1.2-12.6-3.3c-1.4-0.7-3.1-0.6-4.3,0.4c-6.1,4.9-12.6,7.2-19.7,7c-5.1-0.1-10-1.7-14.5-4.5c-3-1.9-5.6-4.2-7.7-6.9
		c-0.5-0.6-1.2-1.1-2-1.3c-2.9-0.7-5.7-2-8.3-3.7c-9.1-5.7-13.4-13.6-13.2-24c0-1.8-1.1-3.3-2.8-3.9c-2.3-0.7-4.5-1.8-6.7-3.2
		c-0.5-0.3-1-0.7-1.5-1c-0.9-0.7-1.1-1.9-0.4-2.8c0.8-1,1.5-2.1,2.3-3.1c0.7-0.9,1.9-1.1,2.8-0.4c0.3,0.3,0.7,0.5,1.1,0.7
		c3.2,2.1,6.8,3.2,10.5,3.3c0.9,0,1.8,0,2.6-0.1c0.9-0.1,1.7,0.8,1.4,1.7c-2.4,8.6-2.8,19.2,8.2,26.2c2.6,1.6,5.3,2.7,8.1,3.1
		c1.2,0.2,2.3,0.9,3,2c1.6,2.7,3.9,5,6.9,6.8c3.2,2.1,6.7,3.2,10.4,3.3c0.2,0,0.4,0,0.7,0c7.7,0,13.1-3.9,18.5-9.5
		c1-1,2.6-1.1,3.7-0.2c1,0.9,2.1,1.7,3.2,2.4c3.3,2.1,6.8,3.2,10.6,3.3c1.8,0,3.4-0.1,5-0.4c1.4-0.3,2.5,1,2.1,2.4
		C274.6,383,274.2,384.3,273.7,385.6z M257.1,346.1c0.9,0.1,1.5,0.9,1.4,1.8c0,0,0,0,0,0c-0.4,2.6-1,6.9,2.7,9.2
		c0.4,0.3,0.4,0.3,0.8,1.1c0.5,1.2,1.3,3.3,3.9,4.9c4.3,2.7,8.4-1.7,12.8-6.2c0.3-0.3,0.7-0.7,1.1-1.1c0.8-0.8,2.1-0.1,1.9,1
		c-0.4,1.9-0.8,3.7-1.2,5.6c-1.2,5.3-5.8,9.4-11.2,9.6c-0.3,0-0.6,0-0.9,0c-2.3-0.1-4.6-0.8-6.6-2.1c-2.3-1.5-4.2-3.4-5.6-5.7
		c-0.4-0.7-1-1.3-1.7-1.7c-1.7-0.9-3.8-0.4-4.9,1c-7.2,8.8-11.5,12.7-17.8,12.5c-2.2-0.1-4.4-0.7-6.4-2c-2.9-1.8-4.7-4.1-5.6-7.1
		c-0.5-1.8-2.3-3-4.1-2.8c-0.6,0.1-1.2,0.1-1.8,0.1c-2.2-0.1-4.4-0.8-6.4-2.1c-9.2-5.8-6.1-15.5-1.7-25.8l0.3-0.8
		c0.2-0.4,0.3-0.8,0.5-1.2c0.6-1.4,0.4-3.1-0.6-4.3c-1.5-1.6-3.9-1.8-5.5-0.4c-3.2,2.6-6,3.7-9.4,3.6c-2.2-0.1-4.4-0.8-6.4-2
		c-0.2-0.1-0.3-0.2-0.5-0.3c-0.9-0.6-1.1-1.9-0.4-2.7c0.8-1.1,1.7-2.1,2.6-3.2c0.6-0.8,1.7-1,2.6-0.4l0,0c3.9,2.5,7.3-0.8,13.6-8.5
		l2-2.5c1-1.2,2.9-0.7,3.1,0.8c0.2,1.5,1,2.9,2.5,3.8c0.1,0.1,0.2,0.6,0.3,0.9c0.3,1.3,0.9,3.2,2.6,4.6c0.6,0.5,1,1.1,1,1.8l0,0.2
		c0,1.4,0,3.6,1.3,5.5c0.4,0.6,0.5,1.3,0.3,2c-0.6,1.9-1.8,4.5-2.5,6.4c-3.3,7.7-5.7,13.3-1.3,16.1c3.7,2.4,6.9-0.4,13.3-8.6l1-1.3
		c0.9-1.2,2.8-0.4,2.7,1.1c-0.1,1.1,0,2,0.4,2.8c0.5,1.1,0.5,2.3,0.2,3.4c-0.2,0.7-0.4,1.4-0.6,2c-1.5,4.6-3.2,9.8,0.9,12.4
		c0.8,0.5,1.6,0.8,2.4,0.8c3.7,0.1,7.6-4.8,14.3-13c2.3-2.8,5.4-6.7,7.5-8.8c0.4-0.4,1-0.6,1.6-0.4
		C255.6,345.8,256.3,346,257.1,346.1z M223.8,331.6c0.2-1.8-0.1-3.2-1.2-4.3c-0.5-0.5-0.9-1.2-0.9-1.9l0-0.1c0-1.9,0-5.5-3.5-7.7
		c-0.1-0.1-0.2-0.6-0.3-0.9c-0.2-0.8-0.5-2-1.3-3.2c-0.7-1.2-1-2.6-0.6-3.9c0.3-1,0.7-2,1-2.8c2-5.4,4-10.9-0.2-13.6l0,0
		c-1.2-0.7-1.4-2.3-0.4-3.3c6.2-6.6,12.6-13.3,19.2-20.1c7.9-7.6,15.8-15.5,23.9-23.7c1.1-1.1,2.8,0.3,2,1.6l-14.1,22.7
		c-1.1,1.8-0.8,4.2,0.9,5.4c0.7,0.5,1.5,0.8,2.4,0.8c1.3,0,2.6-0.7,3.4-1.9l11.2-18c0.8-1.3,2.8-0.3,2.3,1.1l-20.3,52.3
		c-0.8,2,0.2,4.3,2.3,5.1c0.5,0.2,1,0.3,1.4,0.3c1.6,0,3.1-1,3.7-2.5l22-56.7c0.6-1.4,2.7-0.8,2.4,0.7l-11.1,69.8
		c-0.3,2.2,1.1,4.4,3.4,4.7c0.2,0,0.4,0,0.5,0c1.9,0,3.6-1.4,3.9-3.3l10.4-65.8c0.2-1.4,2.3-1.3,2.4,0.2c0.6,26.4-0.2,52.5-4.1,78
		c-0.3,1.9-1.5,3.5-3.3,4.1c-2.7,0.9-5.4,3.8-8.3,6.7c-0.6,0.6-1.3,1.4-2.1,2.1c-0.7,0.7-1.9,0.6-2.5-0.3c-0.3-0.5-0.7-1-1.2-1.5
		c-0.6-0.6-0.9-1.5-0.8-2.3c0-0.1,0-0.3,0.1-0.4c0.4-2.6,1-6.9-2.7-9.2c-2.4-1.5-4.2-1.6-5.4-1.7c-0.8,0-1-0.1-1.7-0.5
		c-4.5-2.9-8.6,2.2-16.6,12.3c-0.5,0.6-1,1.3-1.6,2c-0.3,0.4-0.9,0.1-0.8-0.3c0.2-1.6,0.2-3.1-0.4-4.3c-0.3-0.7-0.4-1.6-0.1-2.3
		c0.8-2.2,2.2-5.4,3.2-7.5c3.9-8.8,6.5-14.6,2.1-17.4c-3.9-2.5-7.2,0.8-14.5,10l-1.9,2.5C225.2,333.5,223.7,332.8,223.8,331.6z
		 M299.3,234.1c-0.7,4.1-2.6,6.7-6.1,8.2c-4,1.7-8.7,1.2-11.9-1.3c-2-1.6-3.4-3.8-3.9-6.2c-1.3-5.9-6.3-10.9-12.3-12.3
		c-2-0.4-3.8-1.4-5.2-2.9c-2.1-2.1-3.3-5-3.3-8c0-3,1.2-5.9,3.3-8c1.6-1.6,3.7-2.6,6.4-2.9l16.3-0.9c4.7-0.3,9.3,1.5,12.7,4.8
		c3.3,3.3,5.1,7.9,4.9,12.6L299.3,234.1z"/>
	<ellipse transform="matrix(0.681 -0.7322 0.7322 0.681 -77.4555 284.8421)" class="st36" cx="288.2" cy="231.3" rx="5" ry="5"/>
	<ellipse transform="matrix(0.681 -0.7322 0.7322 0.681 -69.4769 264.0425)" class="st36" cx="268.4" cy="211.8" rx="5" ry="5"/>
	<circle class="st26" cx="299.5" cy="88.5" r="4"/>
	<path class="st44" d="M217.6,192.2c0,2.2-1.8,4-4,4c-1.6,0-3-1-3.6-2.4l0,0l-15.6-37.9c-1-2.5-3.7-3.8-6.3-3.2l-35.8,9
		c-2.1,0.5-4.3-0.8-4.8-2.9l-10.9-43.7c-0.6-2.2,0.9-4.5,3.3-4.9c2-0.3,4,1.1,4.5,3.1l8.6,34.4c0.7,2.9,3.6,4.6,6.5,3.9L194,143
		c1.9-0.5,3.9,0.5,4.6,2.3l18.7,45.4C217.3,190.8,217.6,191.5,217.6,192.2z"/>
	<path class="st44" d="M248.2,194.1c-0.6,1.4-2,2.3-3.6,2.3c-2.2,0-4-1.8-4-4l0-0.5c3.6-49-2.4-93.6-2.5-94.3
		c-0.3-2.2,1.2-4.2,3.4-4.5c2.2-0.3,4.2,1.2,4.5,3.4c0,0.2,3.4,25.1,3.8,57.7c0.1,11.3-0.2,24.5-1.2,38.4
		C248.6,192.7,248.5,193.4,248.2,194.1z"/>
	<path class="st44" d="M307.9,282.5c-2.2,0-4,1.8-4,4c0,1.6,1,3,2.4,3.6l0,0l37.9,15.6c2.5,1,3.8,3.7,3.2,6.3l-9,35.8
		c-0.5,2.1,0.8,4.3,2.9,4.8l43.7,10.9c2.2,0.6,4.5-0.9,4.9-3.3c0.3-2-1.1-4-3.1-4.5l-34.4-8.6c-2.9-0.7-4.6-3.6-3.9-6.5l8.6-34.6
		c0.5-1.9-0.5-3.9-2.3-4.6l-45.4-18.6C309.4,282.8,308.6,282.5,307.9,282.5z"/>
	<path class="st44" d="M306,251.9c-1.4,0.6-2.3,2-2.3,3.6c0,2.2,1.8,4,4,4l0.5,0c49-3.6,93.6,2.4,94.3,2.4c2.2,0.3,4.2-1.2,4.5-3.4
		c0.3-2.2-1.2-4.2-3.4-4.5c-0.2,0-25.1-3.4-57.7-3.7c-11.3-0.1-24.5,0.2-38.4,1.2C307.4,251.5,306.7,251.6,306,251.9z"/>
	<circle class="st42" cx="195" cy="146.9" r="4"/>
	<circle class="st42" cx="245.4" cy="137.9" r="4"/>
	<ellipse transform="matrix(0.7071 -0.7071 0.7071 0.7071 -64.3293 360.5199)" class="st42" cx="403" cy="257.9" rx="4" ry="4"/>
	<ellipse transform="matrix(0.7071 -0.7071 0.7071 0.7071 -112.3045 339.0833)" class="st42" cx="353.2" cy="305.1" rx="4" ry="4"/>
	
		<ellipse transform="matrix(2.886149e-02 -0.9996 0.9996 2.886149e-02 -155.5079 490.5157)" class="st44" cx="174.7" cy="325.3" rx="3.4" ry="3.4"/>
	<path class="st33" d="M317.8,204.3c-1.6,0.5-2.8,2-2.8,3.8c0,2.2,1.8,4,4,4c0.6,0,0.9-0.1,0.9-0.1c70.9-14.8,146.1-3.5,146.9-3.4
		c2.2,0.3,4.2-1.1,4.5-3.3c0.3-2.2-1.1-4.2-3.3-4.5c-0.8-0.1-77.1-11.6-149.4,3.4L317.8,204.3z"/>
</g>
</svg>
