<?xml version="1.0" encoding="utf-8"?>
<!-- Generator: Adobe Illustrator 20.1.0, SVG Export Plug-In . SVG Version: 6.00 Build 0)  -->
<svg version="1.1" id="Layer_1" xmlns="http://www.w3.org/2000/svg" xmlns:xlink="http://www.w3.org/1999/xlink" x="0px" y="0px"
	 viewBox="0 0 500 500" style="enable-background:new 0 0 500 500;" xml:space="preserve">
<style type="text/css">
	.st0{fill:none;stroke:#171516;stroke-width:7;stroke-linecap:round;stroke-linejoin:round;stroke-miterlimit:10;}
	.st1{fill:none;stroke:#171516;stroke-width:6;stroke-linejoin:round;stroke-miterlimit:10;}
	.st2{fill:#873705;stroke:#171516;stroke-miterlimit:10;}
	.st3{opacity:0.8;fill:none;stroke:#FFFFFF;stroke-linecap:round;stroke-miterlimit:10;}
	.st4{fill:none;stroke:#3A2C26;stroke-width:7;stroke-miterlimit:10;}
	.st5{fill:none;stroke:#AF7C3E;stroke-linecap:round;stroke-linejoin:round;stroke-miterlimit:10;}
	.st6{fill:#AF7C3E;stroke:#755E48;stroke-miterlimit:10;}
	.st7{clip-path:url(#SVGID_2_);}
	.st8{fill:#25A9E0;}
	.st9{clip-path:url(#SVGID_4_);}
	.st10{clip-path:url(#SVGID_6_);}
	.st11{clip-path:url(#SVGID_8_);}
	.st12{clip-path:url(#SVGID_10_);}
	.st13{clip-path:url(#SVGID_12_);}
	.st14{clip-path:url(#SVGID_14_);}
	.st15{fill:#FFFFFF;stroke:#231F20;stroke-width:6;stroke-linecap:round;stroke-miterlimit:10;}
	.st16{fill:none;stroke:#231F20;stroke-linecap:round;stroke-miterlimit:10;}
	.st17{fill:none;stroke:#231F20;stroke-width:6;stroke-linecap:round;stroke-miterlimit:10;}
	.st18{fill:#FFFFFF;stroke:#231F20;stroke-linecap:round;stroke-miterlimit:10;}
	.st19{fill:#FFFFFF;}
	.st20{fill:none;stroke:#DEC8A7;stroke-linecap:round;stroke-linejoin:round;stroke-miterlimit:10;}
	.st21{opacity:0.8;fill:none;stroke:#FFFFFF;stroke-linecap:round;stroke-linejoin:round;stroke-miterlimit:10;}
	.st22{fill:none;stroke:#755E48;stroke-miterlimit:10;}
	.st23{fill:#FFFFFF;stroke:#755E48;stroke-linecap:round;stroke-linejoin:round;stroke-miterlimit:10;}
	.st24{fill:#FFFFFF;stroke:#716558;stroke-linecap:round;stroke-linejoin:round;stroke-miterlimit:10;}
	.st25{fill:none;stroke:#755E48;stroke-linecap:round;stroke-linejoin:round;stroke-miterlimit:10;}
	.st26{fill:#DEC8A7;}
	.st27{opacity:0.7;fill:none;stroke:#755E48;stroke-linejoin:round;stroke-miterlimit:10;}
	.st28{opacity:0.4;fill:none;stroke:#755E48;stroke-miterlimit:10;}
	.st29{fill:#755E48;}
	.st30{fill:none;stroke:#755E48;stroke-linecap:round;stroke-miterlimit:10;}
	.st31{fill:#DEC8A7;stroke:#755E48;stroke-miterlimit:10;}
	.st32{fill:#473830;}
	.st33{fill:#716558;}
	.st34{opacity:0.8;fill:#FFFFFF;}
	.st35{fill:#CBA66C;}
	.st36{fill:#3A2C26;}
	.st37{fill:#AF7C3E;}
	.st38{fill:#B7A287;}
	.st39{fill:#A89379;}
	.st40{fill:none;stroke:#AF7C3E;stroke-width:3;stroke-linecap:round;stroke-miterlimit:10;}
	.st41{fill:none;stroke:#CB7B78;stroke-width:5;stroke-linecap:round;stroke-miterlimit:10;}
	.st42{fill:#724B34;}
	.st43{opacity:0.2;fill:none;stroke:#00ADEE;stroke-linecap:round;stroke-linejoin:round;stroke-miterlimit:10;}
	.st44{fill:none;stroke:#00ADEE;stroke-width:0.25;stroke-miterlimit:10;}
	.st45{fill:none;stroke:#FFF100;stroke-width:0.25;stroke-miterlimit:10;}
	.st46{fill:none;stroke:#A63A34;stroke-miterlimit:10;}
	.st47{fill:none;stroke:#A63A34;stroke-linecap:round;stroke-miterlimit:10;}
	.st48{fill:none;stroke:#A63A34;stroke-linecap:round;stroke-linejoin:round;stroke-miterlimit:10;}
	.st49{fill:#CB7B78;stroke:#51321D;stroke-width:7;stroke-miterlimit:10;}
	.st50{fill:#CB7B78;stroke:#A63A34;stroke-miterlimit:10;}
	.st51{fill:#A63A34;}
	.st52{fill:#51321D;}
	.st53{fill:#CB7B78;}
	.st54{fill:#B35551;}
	.st55{fill:none;stroke:#724B34;stroke-width:1.9219;stroke-linecap:round;stroke-miterlimit:10;}
	.st56{fill:#AF7346;stroke:#171516;stroke-linejoin:round;stroke-miterlimit:10;}
	.st57{fill:none;stroke:#171516;stroke-linecap:round;stroke-linejoin:round;stroke-miterlimit:10;}
	.st58{fill:#AA6F3C;stroke:#171516;stroke-miterlimit:10;}
	.st59{opacity:0.8;fill:#873705;stroke:#171516;stroke-miterlimit:10;}
	.st60{opacity:0.5;fill:#873705;stroke:#171516;stroke-miterlimit:10;}
	.st61{opacity:0.2;fill:#873705;stroke:#171516;stroke-miterlimit:10;}
	.st62{fill:none;stroke:#171516;stroke-linecap:round;stroke-miterlimit:10;}
	.st63{fill:none;stroke:#AF7346;stroke-linecap:round;stroke-linejoin:round;stroke-miterlimit:10;}
	.st64{fill:none;stroke:#873705;stroke-linecap:round;stroke-linejoin:round;stroke-miterlimit:10;}
	.st65{fill:#171516;}
	.st66{fill:#873705;}
	.st67{fill:#DAC3B5;}
	.st68{fill:#AF7346;}
	.st69{fill:#E7D5C8;}
	.st70{fill:#8D4218;}
	.st71{fill:#A26436;}
	.st72{fill:#975327;}
	.st73{fill:#E3D1C4;}
</style>
<g>
	<path class="st65" d="M184.4,324.8c2.8-0.8,4.4,3,2,4.5l-33.6,20.9c-7.9,4.9-12.9,13.5-13.2,22.9l-3,92.6
		c-0.5,15.5,11.6,28.4,27.1,28.9c0.3,0,0.6,0,0.9,0c15.1,0,27.5-11.9,28-27.1l2.2-68c0.2-6,3.4-11.5,8.5-14.7l7.1-4.4
		c6.2-3.9,14.3,0.6,14.3,8l-0.2,30.4c-0.1,15.5,12.3,28.1,27.8,28.2c0.1,0,0.1,0,0.2,0c15.4,0,27.9-12.4,28-27.8l0.6-76.9
		c0.1-12,3.7-23.8,10.3-33.8l3.3-5c5.2-7.9,15.1-11.4,24.2-8.5l24.6,7.8c2.8,0.9,5.7,1.3,8.5,1.3c1.7,0,3.4-0.2,5.1-0.5
		c4.6-0.9,9.4-0.6,13.8,1c1.3,0.5,2.7,0.8,4,1.1c1.7,0.3,3.5,0.5,5.2,0.5c6.2,0,12.3-2.1,17.3-6l20.5-16.1c6.7-5.3,14.5-9,22.8-11
		l36.6-8.6c15.1-3.5,24.4-18.6,20.9-33.7c-3.5-15.1-18.6-24.4-33.7-20.9l-11.2,2.6c-5.3,1.2-9.4-4.5-6.6-9.2c4.2-7,6.6-14,7.7-20.5
		c1.4-8.3-1.3-16.1-3.7-20.9c-1.7-3.4-2.2-7.2-1.9-11c0.6-7-1.1-14.3-5.3-20.6c-3.6-5.4-7.8-9.8-12.3-13.5c-4.1-3.4-2.4-10,2.9-10.9
		l8.4-1.4c15.3-2.5,25.6-16.9,23.1-32.2c-2.5-15.3-16.9-25.6-32.2-23.1l-37.1,6.1c-8.4,1.4-17.1,0.9-25.3-1.4L346,47
		c-3.5-1-7.1-1.3-10.6-0.9c-4.6,0.5-9.3,0.1-13.5-1.7c-6.5-2.8-14.1-3.1-21.2-0.3L262.5,59c-6.4,2.5-11.6,7.2-14.8,13.3l-7.9,15.4
		c-5.6,10.9-19.2,14.8-29.7,8.6l0,0c-8.5-5.1-15.7-12.1-21-20.5l-35.7-57.1c-8.2-13.1-25.5-17.1-38.6-8.9
		c-13.1,8.2-17.1,25.5-8.9,38.6l27,43.2c3.4,5.4,0.5,12.4-5.6,14l-11.9,3c-7.4,1.9-15.2-1.1-19.4-7.5l-43.6-66
		c-8.5-12.9-25.9-16.5-38.8-7.9C0.7,35.7-2.9,53.1,5.7,66l61.7,93.2c6.6,10,18.7,14.6,30.3,11.7l29.7-7.6c5.4-1.4,11.2,0.2,15.2,4.1
		l8.1,8c4.5,4.5,1.9,12.1-4.4,13.1c-9.6,1.4-18.7,5.1-26.4,10.9c0,0,0,0,0,0c-5.4,4-9.9,8.9-13.6,14.5c-1.8,2.8-4.3,5.1-7,6.8
		c-1,0.6-1.9,1.3-2.8,2c-15.7,11.8-28.1,28.9-34.2,46.9c-7.2,21.5-4.7,42.7,6.8,58.1c11,14.6,29.2,22.8,50.5,22.8
		c1.1,0,2.2,0,3.4-0.1c19-0.8,38.9-7.9,54.6-19.7c2.1-1.6,4-3.3,5.9-5.2C183.6,325.1,183.9,324.9,184.4,324.8L184.4,324.8z
		 M329,180.9C329,180.8,329,180.8,329,180.9c0.1-0.1,0.2-0.1,0.3-0.1C329.1,180.8,329,180.8,329,180.9z M294.6,106.6l3-1.2
		c3.7-1.4,7.5,1.7,7,5.6l-2.3,15.3c-0.2,1.2-0.7,2.2-1.6,3c-4,3.8-7.4,7.9-10.3,12.3c-0.9,1.3-1.6,2.7-2.4,4.1
		c-0.9,1.7-2.7,2.8-4.7,2.7c-1,0-2,0-2.9,0c-2.8,0.1-5.2-2-5.4-4.8v0c-0.1-0.9,0.1-1.9,0.6-2.7l16.4-31.9
		C292.4,108,293.4,107.1,294.6,106.6z"/>
	<path class="st66" d="M113.1,245c-24,17.6-34.2,49.2-21.8,65.8c6,8,16.8,12.1,30.4,11.6c13.5-0.5,27.6-5.7,38.9-14.1
		c2.7-2,4.6-4.3,5.8-6.1c1.5-2.2,4-3.6,6.6-3.8c4-0.3,10.2-1.5,16.3-6c15.8-11.7,16.7-37.2,2.1-56.7c-14.6-19.5-39.3-25.9-55-14
		c-6,4.6-9,10.3-10.4,14.1c-0.9,2.5-2.9,4.5-5.5,5.3C118.5,241.9,115.9,243,113.1,245z"/>
	<g>
		<path class="st67" d="M104.7,291.3c-1,0-2.1-0.4-2.8-1.2c-1.6-1.6-1.5-4.1,0-5.7c2.3-2.3,4.8-4.7,7.5-7c1.6-1.5,4.2-1.3,5.7,0.3
			c1.5,1.6,1.3,4.2-0.3,5.7c-2.5,2.3-4.9,4.5-7.2,6.8C106.7,290.9,105.7,291.3,104.7,291.3z"/>
	</g>
	<g>
		<path class="st67" d="M154.4,249.8c-1.2,0-2.4-0.6-3.2-1.6c-1.3-1.8-1-4.3,0.8-5.6c2.4-1.8,4.9-3.5,7.4-5.1
			c1.9-1.2,4.3-0.6,5.5,1.2c1.2,1.9,0.6,4.3-1.2,5.5c-2.3,1.4-4.6,3-6.8,4.7C156.1,249.5,155.3,249.8,154.4,249.8z"/>
	</g>
	<path class="st68" d="M313.9,156.8c-6.4,10-6,20.8-4.6,28.1c1.5,7.3,5.2,17.4,15,24.2c11.6,8.1,29.1,9.9,51.9,5.3
		c30.2-6,47.3-18.4,50.7-36.8c0.2-0.9,0-1.9-0.6-2.7c-0.5-0.8-1.4-1.3-2.3-1.5c0,0,0,0,0,0c-1.9-0.4-3.8,0.9-4.2,2.9
		c-1.9,10.3-9.6,18.5-22.9,24.4c-1.8,0.8-4,0.1-5-1.6c-1.1-1.7-0.7-3.9,0.9-5.2c9.2-7.6,13.1-17.5,11-27.8
		c-2.1-10.4-9.5-18-20.8-21.5c-1.9-0.6-3.1-2.5-2.8-4.5c0.3-2,2-3.4,4-3.4c14.3,0.3,24.5,4.8,30.3,13.4c1.1,1.6,3.3,2,5,0.9
		c1.6-1.1,2-3.3,0.9-5c-7.5-11-20.2-16.6-37.9-16.6c-6.8,0-14.4,0.8-22.7,2.5C337,136.5,321.5,144.9,313.9,156.8z"/>
	<g>
		<path class="st69" d="M322.9,178.9c-1.7,0-3.2-1.1-3.8-2.7c-0.7-2.1,0.4-4.4,2.5-5.1c2.2-0.7,4.7-1.5,7.3-2.2
			c2.1-0.6,4.3,0.6,5,2.7c0.6,2.1-0.6,4.3-2.7,5c-2.5,0.7-4.9,1.4-7,2.1C323.7,178.9,323.3,178.9,322.9,178.9z"/>
	</g>
	<g>
		<path class="st65" d="M343.1,153.3c-1.6,0-3.1-0.9-3.7-2.5c-0.8-2,0.1-4.4,2.2-5.2c4.6-1.9,9.8-3.5,15.6-4.8
			c2.1-0.5,4.3,0.8,4.8,3c0.5,2.2-0.8,4.3-3,4.8c-5.3,1.2-10.2,2.7-14.4,4.4C344.1,153.2,343.6,153.3,343.1,153.3z"/>
	</g>
	<g>
		<path class="st65" d="M354.3,208.8c-2.2,0-4-1.8-4-4c0-2.2,1.8-4,4-4c4.5,0,9.6-0.5,15-1.4c2.2-0.4,4.2,1.1,4.6,3.3
			c0.4,2.2-1.1,4.2-3.3,4.6C364.7,208.3,359.3,208.8,354.3,208.8C354.3,208.8,354.3,208.8,354.3,208.8z"/>
	</g>
	<path class="st70" d="M216.4,235.8c5.4-3.6,6.9-10.9,3.3-16.3v0c-1.7-2.6-4.4-4.4-7.5-5c-0.8-0.2-1.6-0.2-2.3-0.2
		c-2.3,0-4.5,0.7-6.5,2c-2.6,1.7-4.4,4.4-5,7.5c-0.6,3.1,0,6.2,1.7,8.8c1.7,2.6,4.4,4.4,7.5,5C210.6,238.2,213.8,237.6,216.4,235.8z
		"/>
	<path class="st71" d="M282.5,176.4c-1.9,0-3.8,0.3-5.7,0.9c-5,1.5-9.1,4.9-11.6,9.6c-2.5,4.6-3,9.9-1.4,15
		c3.2,10.4,14.2,16.2,24.5,13c10.4-3.2,16.2-14.2,13-24.5C298.7,181.9,290.9,176.4,282.5,176.4z"/>
	<path class="st72" d="M226.9,216.2c3.2,8,12.4,11.9,20.4,8.7c3.9-1.6,6.9-4.6,8.6-8.4c1.6-3.9,1.7-8.1,0.1-12
		c-2.5-6.1-8.4-9.8-14.6-9.8c-2,0-3.9,0.4-5.9,1.1C227.6,199,223.7,208.2,226.9,216.2z"/>
	<g>
		<path class="st65" d="M151.7,300.5c-0.6,0-1.2-0.1-1.8-0.4c-8-4-15.3-10.1-20.9-17.7c-5.7-7.7-9.6-16.5-11.1-25.4
			c-0.4-2.2,1.1-4.3,3.3-4.6c2.2-0.4,4.2,1.1,4.6,3.3c1.3,7.7,4.7,15.4,9.7,22c4.9,6.6,11.2,11.9,18.1,15.3c2,1,2.8,3.4,1.8,5.4
			C154.5,299.7,153.1,300.5,151.7,300.5z"/>
	</g>
	<g>
		
			<ellipse transform="matrix(0.9703 -0.2417 0.2417 0.9703 -57.3474 42.0429)" class="st67" cx="142.7" cy="254.8" rx="3.9" ry="3.9"/>
	</g>
	<g>
		
			<ellipse transform="matrix(0.9703 -0.2417 0.2417 0.9703 -37.8283 72.8537)" class="st73" cx="278" cy="190.6" rx="3.9" ry="3.9"/>
	</g>
	<g>
		
			<ellipse transform="matrix(0.9808 -0.1952 0.1952 0.9808 -26.4276 70.3302)" class="st69" cx="343.6" cy="169.2" rx="3.9" ry="3.9"/>
	</g>
	<g>
		<path class="st68" d="M164.6,470.5c0,0-0.1,0-0.1,0c-2.2-0.1-3.9-1.9-3.9-4.1l3-92.6c0-1.3,0.8-2.6,1.9-3.3l58.1-36.1
			c1.3-0.8,2.1-2.2,2.1-3.8l0.2-95c0-2.2,1.8-4,4-4c0,0,0,0,0,0c2.2,0,4,1.8,4,4l-0.2,99.7c0,1.4-0.7,2.7-1.9,3.4l-58.3,36.2
			c-1.3,0.8-2,2.1-2.1,3.6l-2.9,88.1C168.5,468.8,166.7,470.5,164.6,470.5z"/>
	</g>
	<g>
		<path class="st68" d="M252.4,422.9C252.4,422.9,252.4,422.9,252.4,422.9c-2.2,0-4-1.8-4-4l0.7-103.7c0-0.8,0.2-1.5,0.7-2.2
			l23.9-36.2c1.2-1.9,1.1-4.4-0.4-6.1l-27.8-31.7c-1.5-1.7-1.3-4.2,0.4-5.6c1.7-1.5,4.2-1.3,5.6,0.4l32.3,36.8
			c1.2,1.4,1.3,3.3,0.3,4.8L258.8,314c-1.1,1.6-1.6,3.5-1.6,5.4l-0.7,99.5C256.4,421.1,254.6,422.9,252.4,422.9z"/>
	</g>
	<g>
		<path class="st68" d="M351.9,280c-0.4,0-0.8-0.1-1.2-0.2l-55-17.5c-0.7-0.2-1.3-0.6-1.8-1.2l-30.8-35.1c-1.5-1.7-1.3-4.2,0.4-5.6
			c1.7-1.5,4.2-1.3,5.6,0.4l28.4,32.5c1,1.2,2.4,2.1,3.9,2.5l51.6,16.4c2.1,0.7,3.3,2.9,2.6,5C355.2,278.9,353.6,280,351.9,280z"/>
	</g>
	<g>
		<path class="st68" d="M215.3,204.1c-1,0-2-0.4-2.8-1.2l-67.4-66.7c-1.1-1.1-2.7-1.5-4.2-1.1l-49.2,12.6c-1.7,0.4-3.4-0.2-4.3-1.7
			L25.7,52.7c-1.2-1.8-0.7-4.3,1.1-5.5c1.8-1.2,4.3-0.7,5.5,1.1l58.3,88.2c1,1.6,3,2.3,4.8,1.9l48-12.3c1.4-0.3,2.8,0,3.8,1
			l70.8,70.1c1.6,1.6,1.6,4.1,0,5.7C217.4,203.7,216.4,204.1,215.3,204.1z"/>
	</g>
	<g>
		<path class="st68" d="M228,190.3c-2.1,0-3.8-1.6-4-3.7l-3.1-44.2c-0.1-1.6-1-3.1-2.4-4l-43.5-25.8c-0.6-0.3-1-0.8-1.4-1.3
			l-47.4-75.7c-1.2-1.9-0.6-4.3,1.3-5.5c1.9-1.2,4.3-0.6,5.5,1.3l45.6,72.8c0.8,1.3,2,2.5,3.4,3.3l44.7,26.5c1.1,0.7,1.9,1.9,2,3.2
			l3.4,48.8c0.2,2.3-1.6,4.3-3.8,4.4C228.1,190.3,228,190.3,228,190.3z"/>
	</g>
	<g>
		<path class="st68" d="M249.6,187c-2.1,0-3.8-1.6-4-3.7l-3.2-46.5c-0.1-0.7,0.1-1.5,0.4-2.1l26.3-51.3c0.4-0.9,1.2-1.5,2.1-1.9
			l38.2-14.9c2.2-0.9,4.7,0.3,5.3,2.7c0.6,2-0.6,4.1-2.6,4.9l-33.6,13.1c-2,0.8-3.6,2.2-4.5,4.1l-22.5,44c-0.7,1.4-1,3-0.9,4.5l3,43
			c0.2,2.2-1.5,4.1-3.7,4.3C249.8,187,249.7,187,249.6,187z"/>
	</g>
	<g>
		<path class="st66" d="M380.1,282.2c-0.2,0-0.5,0-0.7-0.1c-1.1-0.2-2.1-0.9-2.7-1.9L335,209.4c-1.1-1.9-0.5-4.4,1.4-5.5
			c1.9-1.1,4.4-0.5,5.5,1.4l38.1,64.9c0.6,1.1,2.1,1.3,3.1,0.6l30.2-23.7c0.5-0.4,1-0.6,1.6-0.7l55.3-13c2.2-0.5,4.3,0.8,4.8,3
			c0.5,2.2-0.8,4.3-3,4.8L422,252.9c-3,0.7-5.8,2.1-8.3,4l-31.2,24.5C381.8,281.9,381,282.2,380.1,282.2z"/>
	</g>
	<g>
		<path class="st66" d="M326.6,156.9c-0.3,0-0.5,0-0.8-0.1c-2.1-0.4-3.5-2.5-3.2-4.7l11.8-78.7c0.2-1.1,0.8-2.1,1.8-2.8
			c1-0.6,2.2-0.8,3.3-0.5l38.2,10.7c3,0.8,6.1,1,9.1,0.5l50.6-8.3c2.3-0.4,4.5,1.3,4.6,3.7c0.1,2.1-1.5,3.9-3.5,4.2l-55.9,9.2
			c-0.6,0.1-1.2,0.1-1.7-0.1l-37-10.4c-1.2-0.3-2.4,0.5-2.6,1.7l-10.8,72.1C330.2,155.4,328.5,156.9,326.6,156.9z"/>
	</g>
</g>
</svg>
