<?xml version="1.0" encoding="utf-8"?>
<!-- Generator: Adobe Illustrator 20.1.0, SVG Export Plug-In . SVG Version: 6.00 Build 0)  -->
<svg version="1.1" id="Layer_1" xmlns="http://www.w3.org/2000/svg" xmlns:xlink="http://www.w3.org/1999/xlink" x="0px" y="0px"
	 viewBox="0 0 500 500" style="enable-background:new 0 0 500 500;" xml:space="preserve">
<style type="text/css">
	.st0{fill:none;stroke:#460705;stroke-width:6;stroke-miterlimit:10;}
	.st1{fill:none;stroke:#1F1F27;stroke-width:6.4419;stroke-linecap:round;stroke-miterlimit:10;}
	.st2{fill:#FF1F00;}
	.st3{fill:#1F1F27;}
	.st4{fill:#DADBD5;}
	.st5{fill:none;stroke:#473830;stroke-width:3;stroke-linecap:round;stroke-linejoin:round;stroke-miterlimit:10;}
	.st6{fill:none;stroke:#006838;stroke-width:7;stroke-linecap:round;stroke-miterlimit:10;}
	.st7{fill:none;stroke:#171516;stroke-width:7;stroke-linecap:round;stroke-linejoin:round;stroke-miterlimit:10;}
	.st8{fill:none;stroke:#171516;stroke-width:6;stroke-linejoin:round;stroke-miterlimit:10;}
	.st9{fill:#873705;stroke:#171516;stroke-miterlimit:10;}
	.st10{opacity:0.8;fill:none;stroke:#FFFFFF;stroke-linecap:round;stroke-miterlimit:10;}
	.st11{fill:none;stroke:#3A2C26;stroke-width:7;stroke-miterlimit:10;}
	.st12{fill:none;stroke:#AF7C3E;stroke-linecap:round;stroke-linejoin:round;stroke-miterlimit:10;}
	.st13{fill:#AF7C3E;stroke:#755E48;stroke-miterlimit:10;}
	.st14{clip-path:url(#SVGID_2_);}
	.st15{fill:#25A9E0;}
	.st16{clip-path:url(#SVGID_4_);}
	.st17{clip-path:url(#SVGID_6_);}
	.st18{clip-path:url(#SVGID_8_);}
	.st19{clip-path:url(#SVGID_10_);}
	.st20{clip-path:url(#SVGID_12_);}
	.st21{clip-path:url(#SVGID_14_);}
	.st22{fill:#FFFFFF;stroke:#231F20;stroke-width:6;stroke-linecap:round;stroke-miterlimit:10;}
	.st23{fill:none;stroke:#231F20;stroke-linecap:round;stroke-miterlimit:10;}
	.st24{fill:none;stroke:#231F20;stroke-width:6;stroke-linecap:round;stroke-miterlimit:10;}
	.st25{fill:#FFFFFF;stroke:#231F20;stroke-linecap:round;stroke-miterlimit:10;}
	.st26{fill:#FFFFFF;}
	.st27{fill:none;stroke:#DEC8A7;stroke-linecap:round;stroke-linejoin:round;stroke-miterlimit:10;}
	.st28{opacity:0.8;fill:none;stroke:#FFFFFF;stroke-linecap:round;stroke-linejoin:round;stroke-miterlimit:10;}
	.st29{fill:none;stroke:#755E48;stroke-miterlimit:10;}
	.st30{fill:#FFFFFF;stroke:#755E48;stroke-linecap:round;stroke-linejoin:round;stroke-miterlimit:10;}
	.st31{fill:#FFFFFF;stroke:#716558;stroke-linecap:round;stroke-linejoin:round;stroke-miterlimit:10;}
	.st32{fill:none;stroke:#755E48;stroke-linecap:round;stroke-linejoin:round;stroke-miterlimit:10;}
	.st33{fill:#DEC8A7;}
	.st34{opacity:0.7;fill:none;stroke:#755E48;stroke-linejoin:round;stroke-miterlimit:10;}
	.st35{opacity:0.4;fill:none;stroke:#755E48;stroke-miterlimit:10;}
	.st36{fill:#755E48;}
	.st37{fill:none;stroke:#755E48;stroke-linecap:round;stroke-miterlimit:10;}
	.st38{fill:#DEC8A7;stroke:#755E48;stroke-miterlimit:10;}
	.st39{fill:#473830;}
	.st40{fill:#716558;}
	.st41{opacity:0.8;fill:#FFFFFF;}
	.st42{fill:#CBA66C;}
	.st43{fill:#3A2C26;}
	.st44{fill:#AF7C3E;}
	.st45{fill:#B7A287;}
	.st46{fill:#A89379;}
	.st47{fill:none;stroke:#AF7C3E;stroke-width:3;stroke-linecap:round;stroke-miterlimit:10;}
	.st48{fill:none;stroke:#CB7B78;stroke-width:5;stroke-linecap:round;stroke-miterlimit:10;}
	.st49{fill:#724B34;}
	.st50{opacity:0.2;fill:none;stroke:#00ADEE;stroke-linecap:round;stroke-linejoin:round;stroke-miterlimit:10;}
	.st51{fill:none;stroke:#00ADEE;stroke-width:0.25;stroke-miterlimit:10;}
	.st52{fill:none;stroke:#FFF100;stroke-width:0.25;stroke-miterlimit:10;}
	.st53{fill:none;stroke:#A63A34;stroke-miterlimit:10;}
	.st54{fill:none;stroke:#A63A34;stroke-linecap:round;stroke-miterlimit:10;}
	.st55{fill:none;stroke:#A63A34;stroke-linecap:round;stroke-linejoin:round;stroke-miterlimit:10;}
	.st56{fill:#CB7B78;stroke:#51321D;stroke-width:7;stroke-miterlimit:10;}
	.st57{fill:#CB7B78;stroke:#A63A34;stroke-miterlimit:10;}
	.st58{fill:#A63A34;}
	.st59{fill:#51321D;}
	.st60{fill:#CB7B78;}
	.st61{fill:#B35551;}
	.st62{fill:none;stroke:#724B34;stroke-width:1.9219;stroke-linecap:round;stroke-miterlimit:10;}
	.st63{fill:#AF7346;stroke:#171516;stroke-linejoin:round;stroke-miterlimit:10;}
	.st64{fill:none;stroke:#171516;stroke-linecap:round;stroke-linejoin:round;stroke-miterlimit:10;}
	.st65{fill:#AA6F3C;stroke:#171516;stroke-miterlimit:10;}
	.st66{opacity:0.8;fill:#873705;stroke:#171516;stroke-miterlimit:10;}
	.st67{opacity:0.5;fill:#873705;stroke:#171516;stroke-miterlimit:10;}
	.st68{opacity:0.2;fill:#873705;stroke:#171516;stroke-miterlimit:10;}
	.st69{fill:none;stroke:#171516;stroke-linecap:round;stroke-miterlimit:10;}
	.st70{fill:none;stroke:#AF7346;stroke-linecap:round;stroke-linejoin:round;stroke-miterlimit:10;}
	.st71{fill:none;stroke:#873705;stroke-linecap:round;stroke-linejoin:round;stroke-miterlimit:10;}
	.st72{fill:#171516;}
	.st73{fill:#873705;}
	.st74{fill:#DAC3B5;}
	.st75{fill:#AF7346;}
	.st76{fill:#E7D5C8;}
	.st77{fill:#8D4218;}
	.st78{fill:#A26436;}
	.st79{fill:#975327;}
	.st80{fill:#E3D1C4;}
	.st81{fill:#D0E400;}
	.st82{fill:#D0E400;stroke:#006838;stroke-width:3;stroke-miterlimit:10;}
	.st83{fill:#D0E400;stroke:#006838;stroke-linecap:round;stroke-miterlimit:10;}
	.st84{fill:none;stroke:#006838;stroke-linecap:round;stroke-miterlimit:10;}
	.st85{opacity:0.2;fill:none;stroke:#006838;stroke-linecap:round;stroke-miterlimit:10;}
	.st86{fill:none;stroke:#D0E400;stroke-linecap:round;stroke-miterlimit:10;}
	.st87{fill:none;stroke:#FFFFFF;stroke-linecap:round;stroke-miterlimit:10;}
	.st88{fill:none;stroke:#006838;stroke-width:3;stroke-miterlimit:10;}
	.st89{opacity:0.3;fill:none;stroke:#006838;stroke-linecap:round;stroke-miterlimit:10;}
	.st90{fill:#324C05;}
	.st91{opacity:0.3;fill:#324C05;}
	.st92{fill:none;stroke:#FFF100;stroke-miterlimit:10;}
	.st93{fill:none;stroke:#FFF100;stroke-width:3;stroke-miterlimit:10;}
	.st94{fill:#FFFFFF;stroke:#473830;stroke-width:3;stroke-miterlimit:10;}
	.st95{fill:none;stroke:#473830;stroke-miterlimit:10;}
	.st96{fill:none;stroke:#473830;stroke-linecap:round;stroke-miterlimit:10;}
	.st97{clip-path:url(#SVGID_16_);}
	.st98{fill:none;stroke:#473830;stroke-width:3;stroke-linecap:round;stroke-miterlimit:10;}
	.st99{fill:none;stroke:#473830;stroke-linecap:round;stroke-linejoin:round;stroke-miterlimit:10;}
	.st100{clip-path:url(#SVGID_18_);}
	.st101{fill:#D62C16;}
	.st102{fill:#660200;}
	.st103{fill:none;stroke:#660200;stroke-width:0.9203;stroke-linejoin:round;stroke-miterlimit:10;}
	.st104{fill:none;stroke:#DADBD5;stroke-width:0.9203;stroke-linecap:round;stroke-miterlimit:10;}
	.st105{fill:none;stroke:#FFFFFF;stroke-width:0.9203;stroke-linecap:round;stroke-miterlimit:10;}
	.st106{fill:#1E1F27;}
	.st107{fill:none;stroke:#660200;stroke-width:0.9203;stroke-linecap:round;stroke-linejoin:round;stroke-miterlimit:10;}
	.st108{fill:none;stroke:#1F1F27;stroke-miterlimit:10;}
	.st109{fill:none;stroke:#997A5B;stroke-width:0.9203;stroke-linecap:round;stroke-miterlimit:10;}
	.st110{fill:#FF1F00;stroke:#1F1F27;stroke-width:2.7608;stroke-linejoin:round;stroke-miterlimit:10;}
	.st111{fill:none;stroke:#460705;stroke-width:7;stroke-linecap:round;stroke-linejoin:round;stroke-miterlimit:10;}
	.st112{fill:none;stroke:#A46800;stroke-linecap:round;stroke-linejoin:round;stroke-miterlimit:10;}
	.st113{fill:none;stroke:#660200;stroke-width:7.1499;stroke-linejoin:round;stroke-miterlimit:10;}
	.st114{fill:none;stroke:#1F1F27;stroke-width:21.4496;stroke-linejoin:round;stroke-miterlimit:10;}
	.st115{fill:none;stroke:#660200;stroke-width:7.1436;stroke-linejoin:round;stroke-miterlimit:10;}
	.st116{fill:#997A5B;}
	.st117{fill:#FF1F00;stroke:#1F1F27;stroke-width:21.4309;stroke-linejoin:round;stroke-miterlimit:10;}
	.st118{fill:#A46800;stroke:#460705;stroke-miterlimit:10;}
	.st119{fill:none;stroke:#460705;stroke-miterlimit:10;}
	.st120{fill:none;stroke:#B22600;stroke-miterlimit:10;}
	.st121{fill:none;stroke:#460705;stroke-linecap:round;stroke-linejoin:round;stroke-miterlimit:10;}
	.st122{fill:none;stroke:#B22600;stroke-linecap:round;stroke-linejoin:round;stroke-miterlimit:10;}
	.st123{opacity:0.7;fill:none;stroke:#FFFFFF;stroke-linecap:round;stroke-linejoin:round;stroke-miterlimit:10;}
	.st124{fill:none;stroke:#460705;stroke-linecap:round;stroke-miterlimit:10;}
	.st125{fill:#B22600;}
	.st126{opacity:0.5;fill:#FFFFFF;}
	.st127{opacity:0.4;fill:#460705;}
	.st128{opacity:0.7;fill:#FFFFFF;}
	.st129{fill:#460705;}
	.st130{fill:#A46800;}
	.st131{fill:none;stroke:#B22600;stroke-width:7.876;stroke-miterlimit:10;}
	.st132{fill:#E3D1B4;}
	.st133{fill:#A94713;}
</style>
<g>
	<path class="st129" d="M488.2,204.2c-12.4-9.4-30.1-6.7-39.1,5.9l-9.9,13.7c-3,4.2-7.9,6.5-13,6.3l-26.4-1.3c-0.1,0-0.1,0-0.2,0
		l-3.3-0.1c-4.7-0.2-8-4.8-6.6-9.3c1-3.1,1.8-6.1,2.5-9.2c0.7-2.8,2.9-4.9,5.7-5.5l0,0c0.8-0.2,1.6-0.4,2.3-0.6c0,0,0,0,0,0
		l15.5-4.5c14.7-4.3,23.6-19.7,19.3-34.4c-0.2-0.5-0.3-1.1-0.5-1.6c-1.1-3.2-2-6.4-2.5-9.7c-1.1-7.7-5.5-14.9-12.7-19.4
		c-8.3-5.2-18.4-5.4-26.6-1.4c-3.6,1.7-7.9,0.9-10.5-2.2c-1.9-2.2-4-4.4-6.3-6.7c-2.3-2.3-4.5-4.4-6.7-6.3c-3-2.6-3.9-6.9-2.2-10.5
		c4-8.2,3.8-18.3-1.4-26.6c-4.4-7.1-11.6-11.5-19.3-12.6c-3.3-0.5-6.6-1.4-9.8-2.5c-0.6-0.2-1.1-0.4-1.7-0.6
		c-14.6-4.3-29.9,4.1-34.2,18.8l-4.7,16c-0.1,0.5-0.5,2-0.6,2.5c-0.5,2.8-2.6,4.9-5.4,5.6c-3,0.7-6.1,1.6-9.2,2.5
		c-4.5,1.4-9.2-1.8-9.4-6.6l-0.1-3.4c0-0.1,0-0.1,0-0.2l-1.5-29.6c-0.2-3.1,1.3-6.1,3.8-7.9L290,51c12.4-8.9,15.2-26.1,6.3-38.5
		c-8.9-12.4-26.1-15.2-38.5-6.3l-32.6,23.4c-7.6,5.5-11.9,14.4-11.5,23.7l2.4,49.5l1.6,38c0,1.2-0.5,2.3-1.4,2.9l0,0
		c-1.6,1.1-3.8,0.7-4.8-1c-0.9-1.3-1.9-2.9-2.8-4.2c-2.4-3.3-5.4-6-8.9-8l-15.5-9.9c-8.8-5.6-19.6-5.6-28.2-0.9
		c-2.4,1.3-5.1,1.6-7.8,1c-6.6-1.5-13.6-0.5-19.4,2.7c-2.5,1.4-5.3,1.8-8.1,1.1c-6.7-1.5-13.7-0.5-19.6,2.8
		c-2.4,1.3-5.2,1.9-7.9,1.2c-11-2.5-22.9,2-29.3,12c-1,1.5-1.8,3.1-2.4,4.8c-0.8,2-2.2,3.7-4,5c-9.2,6.6-16.2,15.8-19.9,26.8
		c-4.6,13.4-3.9,27.7,1.9,40.6c1.1,2.7,2.8,5.3,4.8,7.5c1.6,1.7,1.5,4.4-0.2,6.1l-0.1,0.1c-0.5,0.5-1.2,0.9-1.8,1l-10.9,3
		C18.8,239,10.6,250.6,11,263c0.1,2.7-0.8,5.4-2.6,7.5c-6.7,7.7-8.6,18.5-4.9,28c1,2.7,0.9,5.7-0.2,8.3c-5,11.8-1.3,25.9,9.6,33.5
		c1,0.7,2,1.3,3,1.8c2.2,1.1,3.9,3,4.9,5.3c0.2,0.5,0.5,1,0.7,1.5C26.2,359,36.2,365,46.6,365c3.9,0,7.9-0.8,11.7-2.6
		c13.7-6.5,19.3-23,13.1-36.9c-5.1-11.5-5.5-24.3-1.1-36.1c4-10.7,11.5-19.4,21.3-24.9c0.4-0.2,0.8-0.4,1.3-0.4h0
		c3-0.5,5.3,2.7,3.9,5.4c-5.7,11.1-9.8,21.9-12.2,32.5c-7.9,33.9,0.7,64.6,24.8,88.8c18.3,18.3,40.4,27.7,64.8,27.7
		c7.8,0,15.8-1,24-2.9c10.6-2.5,21.4-6.5,32.5-12.2c2.7-1.4,5.9,0.9,5.4,3.9l0,0c-0.1,0.5-0.2,0.9-0.4,1.3
		c-5.5,9.8-14.3,17.3-24.9,21.3c-12,4.5-25,4-36.6-1.3c-13.9-6.3-30.2-0.2-36.5,13.7c-6.3,13.8,0.4,30.5,14.3,36.8
		c0.5,0.2,1,0.5,1.6,0.7c1.9,0.8,3.5,2.2,4.4,4.1c0.6,1.2,1.3,2.4,2.1,3.6c5.4,7.7,13.9,11.8,22.7,11.8c3.9,0,7.7-0.8,11.4-2.5
		c2.3-1.1,5-1,7.3-0.1c3.3,1.4,6.8,2,10.3,2c6.7,0,13.2-2.4,18.4-7c1.8-1.6,4.2-2.5,6.7-2.3c0.4,0,0.9,0,1.3,0
		c12.1,0,23.2-8.1,26.6-20.3l3-10.9c0.2-0.7,0.5-1.3,1-1.8l0.1-0.1c1.6-1.7,4.3-1.8,6-0.3c1.8,1.6,3.9,3,6.2,4.2
		c7.6,3.7,15.8,5.6,24,5.6c6,0,12.1-1,17.9-3c11.2-3.9,20.7-11.1,27.3-20.7c1-1.5,2.5-2.6,4.2-3.2c1.8-0.7,3.5-1.5,5.1-2.6
		c10.2-6.5,14.6-18.6,12-29.7c-0.6-2.3-0.3-4.8,0.9-6.8c3.8-6.3,4.9-13.9,3.1-21.1c-0.6-2.3-0.2-4.7,1-6.7
		c3.6-6.2,4.7-13.7,2.9-20.8c-0.6-2.3-0.1-4.8,1-6.9c4.8-8.6,4.9-19.5-0.8-28.4l-9.9-15.6c-2.2-3.8-5.3-7.2-9.2-9.7l-2.9-1.9
		c-1.6-1-2.1-3.2-1-4.8l0.1-0.1c0.7-0.9,1.8-1.5,2.9-1.4l38,1.6l49.5,2.4c0.5,0,0.9,0,1.4,0c8.8,0,17.2-4.3,22.4-11.5l23.1-32.1
		C502.3,230.5,500.2,213.3,488.2,204.2z M147.5,199.8L94,208.1c-3.1,0.5-6-1.5-6.6-4.6c0,0,0-0.1,0-0.1c-0.7-3.3,1.5-6.5,4.9-7
		l62.2-9.2c3.4-0.5,5.5,3.7,3,6.1c-1.1,1.1-2.3,2.2-3.4,3.3C152.2,198.3,149.9,199.5,147.5,199.8z M297.6,408c0,0-0.1,0-0.1,0
		c-3.1-0.5-5.2-3.5-4.8-6.6l7.5-48.7c0.4-2.4,1.5-4.7,3.3-6.5c1.1-1.1,2.2-2.3,3.3-3.4c2.4-2.5,6.6-0.4,6.1,3l-8.4,57.4
		C304,406.3,300.9,408.5,297.6,408z"/>
	<path class="st130" d="M245.4,142.5c-2.1,0-3.8-1.7-3.9-3.8l-1.5-37.1c-0.1-2.2,1.6-4,3.8-4.1c2.2-0.1,4,1.6,4.1,3.8l1.5,37.1
		c0.1,2.2-1.6,4-3.8,4.1C245.5,142.5,245.4,142.5,245.4,142.5z"/>
	<path class="st130" d="M242.8,91.5c-2.1,0-3.9-1.7-3.9-3.8L237.4,52c-0.1-1.3,0.6-2.6,1.6-3.4l32.6-23.4c1.8-1.3,4.4-0.8,5.6,1.1
		c1.2,1.8,0.5,4.2-1.2,5.5l-27.9,20c-1.8,1.3-2.8,3.4-2.7,5.6l1.2,30.1c0.1,2.2-1.6,4-3.8,4.1C242.9,91.5,242.8,91.5,242.8,91.5z"/>
	<path class="st130" d="M201,170.4l-11.3-17.9c-0.4-0.7-1-1.2-1.7-1.5l-16.2-10.3c-1.6-1-3.7-0.9-5,0.5c-1.8,1.9-1.4,4.8,0.7,6.1
		l1.6,1c2.2,1.4,1.5,4.7-1.1,5.1l-2.6,0.4c-3.3,0.5-6.6-0.2-9.4-2l-11.5-7.4c-2.1-1.3-4.9-0.5-5.8,1.9c-0.7,1.8,0.1,3.8,1.7,4.8
		l1.9,1.2c2.2,1.4,1.5,4.7-1.1,5.1l-3,0.4c-3.3,0.5-6.6-0.2-9.4-2l-11.8-7.5c-1.9-1.2-4.4-0.6-5.6,1.4c-1.1,1.9-0.3,4.2,1.5,5.4
		l2,1.3c2.2,1.4,1.5,4.7-1.1,5.1l-3.2,0.5c-3.3,0.5-6.6-0.2-9.4-2l-11.7-7.5c-2.1-1.3-4.9-0.5-5.8,1.9c-0.7,1.8,0.1,3.8,1.7,4.8
		l2,1.3c2.2,1.4,1.4,4.7-1.1,5.1l-9.2,1.4c-0.4,0.1-0.8,0.2-1.1,0.3c-15.6,7.6-22.1,26.4-14.5,41.9c0.7,1.4,2.1,2.2,3.5,2.2
		c0.8,0,1.6-0.2,2.3-0.7c1.6-1.1,2.1-3.3,1.2-5.1c-4.8-10-1.9-21.8,6.5-28.5c2-1.6,4.5-2.6,7-3l94.6-13.9c4.8-0.7,9.7,1.5,12.3,5.6
		l5.7,9c1.3,2.1,4.2,2.5,6.1,0.7C201.8,174.1,202,172,201,170.4z"/>
	<path class="st130" d="M142.9,228.5c-0.3-2.2-2.3-3.6-4.5-3.3l-55.2,8.5c-0.4,0.1-0.7,0.2-1,0.3c-8.2,3.7-15.4,8.7-21.5,14.5
		c-3.7,3.5-8.2,5.9-13.1,7.2l-10,2.7c-1.9,0.5-3.3,2.3-3,4.3c0.2,2.1,2,3.5,3.9,3.5c0.3,0,0.7,0,1-0.1l3.8-1
		c1.7-0.5,3.2,1.3,2.3,2.9c0,0,0,0.1-0.1,0.1c-2.4,4.3-5.6,8.1-9.6,10.9l-9,6.4c-1.7,1.2-2.3,3.5-1.3,5.3c0.7,1.3,2.1,2,3.4,2
		c0.8,0,1.6-0.2,2.3-0.7l2.5-1.8c1.5-1,3.5,0.2,3.2,2c-0.1,0.5-0.2,1-0.2,1.4c-0.7,4.5-2.4,8.8-5,12.6l-6.5,9.3
		c-1.2,1.8-0.8,4.2,1,5.5c0.7,0.5,1.5,0.7,2.2,0.7c1.2,0,2.5-0.6,3.2-1.7l1.3-1.9c1-1.5,3.4-1,3.7,0.8c1.1,6.9,3.1,13.7,6.2,20.4
		c0.7,1.4,2.1,2.3,3.6,2.3c0.7,0,1.5-0.2,2.2-0.7c1.6-1.1,2.1-3.3,1.3-5.1c-7.9-17.3-8.5-36.7-1.9-54.6
		c6.6-17.7,19.7-31.9,36.8-39.9l54.7-8.4C141.7,232.6,143.2,230.6,142.9,228.5z"/>
	<path class="st130" d="M346.1,93.9c-0.9-2.4-3.7-3.3-5.8-2l-7.5,4.7c-1.2,0.8-2.8-0.4-2.4-1.8l0.6-2.1c0.6-2.1-0.4-4.3-2.4-5
		c-2.2-0.7-4.5,0.5-5.1,2.6l-4.7,16c0,0,0,0,0,0c-0.1,0.2-0.1,0.4-0.2,0.6c-0.2,1.1,0,2.2,0.6,3l6.2,9c0.8,1.1,2,1.7,3.2,1.7
		c0.8,0,1.7-0.3,2.4-0.8c1.7-1.3,1.9-3.8,0.7-5.5l-1.3-1.9c-1.3-1.9-0.8-4.6,1.2-5.8l12.6-7.9C346,97.6,346.7,95.7,346.1,93.9z"/>
	<path class="st130" d="M406.3,154c2.4,0.9,3.4,3.6,2.1,5.8l-4.5,7.7c-0.7,1.2,0.5,2.7,1.8,2.3l2.1-0.7c2-0.6,4.3,0.3,5.1,2.3
		c0.8,2.1-0.4,4.5-2.5,5.1l-15.9,5c0,0,0,0,0,0c-0.2,0.1-0.4,0.1-0.6,0.2c-1.1,0.2-2.2,0-3.1-0.6l-9.1-6c-1.1-0.7-1.7-2-1.8-3.2
		c0-0.8,0.2-1.7,0.8-2.4c1.3-1.7,3.7-2,5.5-0.9l1.9,1.3c2,1.3,4.6,0.7,5.8-1.3l7.6-12.7C402.5,154.2,404.5,153.3,406.3,154z"/>
	<path class="st130" d="M398.7,260.3c-0.1,0-0.1,0-0.2,0l-37.8-1.6c-2.2-0.1-3.9-1.9-3.8-4.1c0.1-2.2,1.9-3.9,4.1-3.8l37.8,1.6
		c2.2,0.1,3.9,1.9,3.8,4.1C402.5,258.7,400.8,260.3,398.7,260.3z"/>
	<path class="st130" d="M448.4,262.8c-0.1,0-0.1,0-0.2,0l-35.6-1.4c-2-0.1-3.8-1.6-4-3.7c-0.2-2.4,1.8-4.3,4.1-4.2l28.5,1.1
		c3.2,0.1,6.2-1.4,8.1-3.9l19.2-26.7c1.3-1.8,3.7-2.2,5.5-0.9c1.8,1.3,2.2,3.7,0.9,5.5l-23.4,32.6
		C450.8,262.2,449.6,262.8,448.4,262.8z"/>
	<path class="st130" d="M359.5,328.4l-10.3-16.1c-0.3-0.7-0.8-1.3-1.5-1.7l-18.4-11.7c-1.9-1.2-4.4-0.6-5.5,1.4
		c-1,1.9-0.3,4.2,1.5,5.4l11.3,7.2c2.9,1.8,4.4,5.2,3.9,8.5l-14,94.9c-0.9,6-4.3,11.4-9.5,14.5c-6.5,3.9-14.8,4.6-22.2,1.1
		c-1.9-0.9-4.3-0.3-5.3,1.5c-1.1,2-0.3,4.5,1.7,5.5c4.4,2.2,9.1,3.2,13.7,3.2c11.6,0,22.8-6.5,28.3-17.6c0.2-0.4,0.3-0.7,0.3-1.1
		l1.4-9.2c0.4-2.5,3.7-3.2,5.1-1.1l1.4,2.2c0.8,1.2,2,1.8,3.3,1.8c0.8,0,1.6-0.3,2.4-0.8c1.7-1.2,2-3.7,0.9-5.4l-7.4-11.6
		c-1.8-2.8-2.5-6.1-2-9.4l0.5-3.3c0.4-2.5,3.7-3.2,5.1-1.1l1.4,2.2c0.8,1.2,2,1.8,3.3,1.8c0.8,0,1.6-0.3,2.4-0.8
		c1.7-1.2,2-3.7,0.9-5.4l-7.4-11.6c-1.8-2.8-2.5-6.1-2-9.4l0.4-3c0.4-2.5,3.7-3.2,5.1-1.1l1.3,2c0.8,1.2,2,1.8,3.3,1.8
		c0.8,0,1.6-0.3,2.4-0.8c1.7-1.2,2-3.7,0.9-5.4l-7.3-11.4c-1.8-2.8-2.5-6.1-2-9.4l0.4-2.6c0.4-2.5,3.7-3.2,5.1-1.1l1,1.6
		c0.8,1.2,2,1.8,3.3,1.8c0.8,0,1.6-0.3,2.4-0.8C360.3,332.6,360.6,330.2,359.5,328.4z"/>
	<path class="st130" d="M271.8,356.9c-2.2-0.3-4.2,1.1-4.5,3.3l-7.7,50.1c-0.6,3.7-1.7,7.2-3.5,10.4c-8.3,14.5-21.2,25.6-37.1,31.5
		c-17.9,6.7-37.3,6-54.7-2c-2.1-1-4.6,0.1-5.4,2.3c-0.7,1.9,0.3,4.1,2.2,4.9c6.6,3,13.4,5,20.4,6.1c1.7,0.3,2.2,2.5,0.8,3.5
		l-1.9,1.3c-1.7,1.2-2.4,3.5-1.3,5.3c0.7,1.3,2.1,2,3.4,2c0.8,0,1.6-0.2,2.2-0.7l10.7-7.5c2.8-1.9,6-3.2,9.4-3.7
		c1.1-0.2,2.2-0.3,3.4-0.5c1.7-0.3,3,1.6,1.9,3.1l-1.7,2.4c-1.2,1.8-1,4.2,0.7,5.6c0.7,0.6,1.6,0.8,2.4,0.8c1.2,0,2.5-0.6,3.2-1.7
		l7.7-10.8c2-2.8,4.6-5.2,7.7-6.8c0.7-0.4,1.4-0.7,2.1-1.1c1.5-0.8,3.3,0.5,2.9,2.2l-1,3.7c-0.6,2.1,0.6,4.5,2.8,5.1
		c0.3,0.1,0.6,0.1,1,0.1c1.7,0,3.3-1.2,3.8-2.9l3.4-12.4c1-3.6,2.9-6.9,5.5-9.6c6.4-6.5,11.7-14.2,15.6-22.8c0.2-0.3,0.3-0.7,0.3-1
		l8.6-55.7C275.4,359.2,273.9,357.2,271.8,356.9z"/>
	<polygon class="st130" points="281.6,218.5 281.6,218.5 281.5,218.4 	"/>
	<path class="st130" d="M287.3,194.3l-1.1,14.8c-0.2,2.7,2.1,5,4.8,4.8l14.8-1.1c2.6-0.2,3.7-3.5,1.7-5.2c-2.6-2.2-5.2-4.6-7.8-7.2
		c-2.6-2.6-5-5.2-7.2-7.8C290.8,190.6,287.5,191.6,287.3,194.3z"/>
	<path class="st130" d="M274.3,156.9c0.5,3.9,1.6,8.1,3.4,12.4c0.3,0.8,0.7,1.6,1.1,2.4c1.3,2.8,1.8,5.8,1.6,8.8l-2.3,31.4
		c-0.2,3-1.5,5.9-3.7,8.1L133.7,360.9c-4.2,4.2-11.1,3.4-14.3-1.5c-9.7-14.9-12.3-32-7.8-51.2c6.1-26.1,25-55.2,56.3-86.5
		c33.9-33.9,66.5-59.3,94.9-74.4c0.7-0.4,1.4-0.7,2.1-1.1c4.4-2.2,9.4,1.1,9.2,6C274,153.6,274.1,155.2,274.3,156.9z"/>
	<path class="st130" d="M347.1,226.1c-4.3,0.1-8.9-0.9-13.7-2.7c-1.7-0.6-3.5-1.4-5.2-2.2c-2.7-1.3-5.7-1.8-8.7-1.6l-31.4,2.3
		c-3,0.2-5.9,1.5-8.1,3.7L138.5,367.2c-3.7,3.7-3.2,9.9,1.1,12.8c15.1,10.3,32.7,13.2,52.3,8.6c26.1-6.1,55.2-25,86.5-56.3
		c34.7-34.7,60.6-67.8,75.4-96.8c0,0,0-0.1,0.1-0.1c2.2-4.4-1.1-9.5-6-9.3C347.7,226.1,347.4,226.1,347.1,226.1z"/>
	<path class="st129" d="M175,383.9c-10.4,0-20.1-2.6-28.9-7.8c-1-0.6-1.7-1.7-1.9-2.9c-0.2-1.2,0.3-2.4,1.1-3.3l140-140
		c0.7-0.7,1.6-1.1,2.5-1.1l34-2.4c0.7,0,1.4,0.1,2,0.4c4.2,2,10.8,4.7,18.9,6.1c1.3,0.2,2.4,1.1,2.9,2.2c0.5,1.2,0.5,2.5-0.2,3.7
		c-15.8,26.8-41.3,58.3-71.8,88.8c-28.1,28.1-53.9,45.9-76.8,52.9C189.3,382.7,181.9,383.9,175,383.9z M157.2,369.2
		c-1.2,1.2-0.8,3.3,0.8,3.9c10.9,4,23.1,3.9,36.5-0.2c21.6-6.6,46.4-23.8,73.5-51c26.6-26.6,49.4-54,64.9-78.1
		c1.4-2.1,0.3-5-2.1-5.8c-1.6-0.5-3-1-4.4-1.5c-3.8-1.4-7.8-2-11.8-1.7l-19.4,1.4c-3.5,0.3-6.8,1.7-9.2,4.2L157.2,369.2z"/>
	<path class="st125" d="M176.3,369.2c-2.1,0-3.9-1.7-3.9-3.8c-0.1-2.2,1.7-4,3.8-4c21.3-0.5,49.5-17.7,81.6-49.8
		c19.3-19.3,36.5-38.9,50.2-57.4c1.3-1.7-0.1-4.2-2.2-4.1l-10.8,0.8c-2.3,0.2-4.3-1.7-4.2-4c0-2.1,1.8-3.7,3.8-3.8l24.4-1.8
		c2-0.1,3.9,1.3,4.2,3.5c0.1,1-0.2,2-0.7,2.8c-15.1,22-35.6,46.1-59.1,69.7c-34,34-63.2,51.5-86.9,52.1
		C176.3,369.2,176.3,369.2,176.3,369.2z"/>
	<path class="st125" d="M134.8,327.7c0,0-0.1,0-0.1,0c-2.2-0.1-3.9-1.9-3.8-4c0.6-23.7,18.1-52.9,52.1-86.9c8-8,16.1-15.7,24.2-23
		c1.6-1.5,4.1-1.3,5.6,0.3c1.5,1.6,1.3,4.1-0.3,5.6c-8,7.2-16,14.8-23.9,22.7c-32,32-49.3,60.2-49.8,81.6
		C138.7,326,136.9,327.7,134.8,327.7z"/>
	<path class="st132" d="M243.8,218.7c-1,0-2-0.4-2.8-1.2c-1.5-1.5-1.5-4,0-5.6l5.8-5.8c1.5-1.5,4-1.5,5.6,0c1.5,1.5,1.5,4,0,5.6
		l-5.8,5.8C245.8,218.3,244.8,218.7,243.8,218.7z"/>
	<path class="st132" d="M223.9,208.4c-1.1,0-2.2-0.5-3-1.4c-1.4-1.7-1.2-4.2,0.5-5.5c1.6-1.3,3.2-2.6,4.7-3.9
		c1.7-1.4,4.2-1.1,5.5,0.6c1.4,1.7,1.1,4.2-0.6,5.5c-1.6,1.3-3.1,2.5-4.7,3.9C225.7,208.1,224.8,208.4,223.9,208.4z"/>
	<path class="st132" d="M238.7,196.6c-1.2,0-2.3-0.5-3.1-1.5c-1.3-1.7-1-4.2,0.7-5.5c5.6-4.3,11.1-8.3,16.4-12
		c1.8-1.2,4.2-0.8,5.5,1c1.2,1.8,0.8,4.2-1,5.5c-5.2,3.6-10.6,7.5-16.1,11.7C240.4,196.3,239.5,196.6,238.7,196.6z"/>
	<path class="st129" d="M127.4,355.9c-0.2,0-0.3,0-0.5,0c-1.2-0.2-2.3-0.9-2.9-1.9c-8.7-14.7-10.2-31.7-4.3-50.7
		c7-22.9,24.8-48.7,52.9-76.8c30.5-30.5,62-56,88.8-71.8c1.1-0.7,2.5-0.7,3.7-0.2c1.2,0.5,2,1.6,2.2,2.9c1.4,8.1,4.1,14.7,6.1,18.9
		c0.3,0.6,0.4,1.3,0.4,2l-2.4,34c-0.1,0.9-0.5,1.8-1.1,2.5l-140,140C129.4,355.5,128.4,355.9,127.4,355.9z M262.1,169.2
		c-0.8-2.4-3.6-3.5-5.8-2.1c-24.1,15.6-51.5,38.3-78.2,64.9c-27.2,27.2-44.3,51.9-51,73.5c-4.1,13.4-4.2,25.7-0.2,36.5
		c0.6,1.6,2.7,2,3.9,0.8L259.7,214c2.5-2.5,4-5.7,4.2-9.2l1.4-19.4c0.3-4-0.3-8.1-1.7-11.8C263.1,172.2,262.6,170.7,262.1,169.2z
		 M267.4,211.9L267.4,211.9L267.4,211.9z"/>
	
		<ellipse transform="matrix(0.7071 -0.7071 0.7071 0.7071 -59.1439 268.4422)" class="st125" cx="294.5" cy="205.6" rx="3.9" ry="3.9"/>
	
		<ellipse transform="matrix(0.7071 -0.7071 0.7071 0.7071 33.9769 185.8782)" class="st26" cx="241.4" cy="51.9" rx="3.9" ry="3.9"/>
	
		<ellipse transform="matrix(0.7071 -0.7071 0.7071 0.7071 -97.8271 104.9082)" class="st132" cx="77.7" cy="170.5" rx="3.9" ry="3.9"/>
	
		<ellipse transform="matrix(0.7071 -0.7071 0.7071 0.7071 -127.4428 106.5799)" class="st130" cx="64.9" cy="207.1" rx="3.9" ry="3.9"/>
	
		<ellipse transform="matrix(0.7071 -0.7071 0.7071 0.7071 -143.3479 128.9111)" class="st132" cx="83.9" cy="237.5" rx="3.9" ry="3.9"/>
	
		<ellipse transform="matrix(0.7071 -0.7071 0.7071 0.7071 -52.1309 162.0164)" class="st132" cx="169.5" cy="143.9" rx="3.9" ry="3.9"/>
	
		<ellipse transform="matrix(0.7071 -0.7071 0.7071 0.7071 18.2926 259.5365)" class="st132" cx="322.4" cy="107.7" rx="3.9" ry="3.9"/>
	<ellipse transform="matrix(0.7071 -0.7071 0.7071 0.7071 7.0221 332.5905)" class="st133" cx="405" cy="157.8" rx="3.9" ry="3.9"/>
	
		<ellipse transform="matrix(0.7071 -0.7071 0.7071 0.7071 -64.5231 357.0542)" class="st133" cx="398.7" cy="256.4" rx="3.9" ry="3.9"/>
	
		<ellipse transform="matrix(0.7071 -0.7071 0.7071 0.7071 -120.6934 336.2587)" class="st133" cx="345.6" cy="313.8" rx="3.9" ry="3.9"/>
	<g>
		<path class="st130" d="M364.5,182.9c-7.4,0-16.7-5.9-29-18.3c-12.3-12.3-18.3-21.6-18.2-29.1c0-1.9-1.5-3.4-3.4-3.3
			c-4.8,0.3-9.9,1-15.2,2.3c-7.3,1.7-12.2,5.1-14.7,10.1c-2.9,5.7-2.5,13.1,1.1,21.6c3.9,9.4,10.8,19,20.3,28.5
			c10.3,10.3,20.7,17.5,30.9,21.2c7.7,2.9,14.5,2.9,19.6,0.2c4.8-2.6,8.1-7.5,9.8-14.7c1.3-5.3,2-10.4,2.3-15.2
			C367.9,184.5,366.4,182.9,364.5,182.9L364.5,182.9z"/>
	</g>
	
		<ellipse transform="matrix(0.7071 -0.7071 0.7071 0.7071 -0.4477 202.1205)" class="st132" cx="243.8" cy="101.6" rx="3.9" ry="3.9"/>
	<path class="st125" d="M347.1,211.5c-3,0-6.1-0.9-8.6-1.8c-9.2-3.4-18.8-10-28.4-19.7c-7.3-7.3-12.9-14.6-16.7-21.7
		c-1-1.9-0.3-4.3,1.6-5.3c1.9-1,4.3-0.3,5.3,1.6c3.4,6.4,8.5,13.1,15.3,19.8c8.8,8.8,17.4,14.8,25.6,17.9c4.1,1.5,6.8,1.4,7.6,1
		c0.6-0.3,1.7-1.9,2.5-5.2c0.3-1.1,0.5-2.1,0.7-3.2c-11.7-4.8-21.8-14.9-26.9-20c-5.5-5.5-17-17-21.1-30.1c-0.6-2.1,0.5-4.3,2.6-4.9
		c2.1-0.6,4.3,0.5,4.9,2.6c3.5,11.2,14.1,21.8,19.2,26.9c5.1,5.1,15.7,15.7,26.9,19.2c1.9,0.6,3,2.4,2.7,4.4c-0.4,2.3-0.8,4.7-1.4,7
		c-0.9,3.6-2.7,8.3-6.4,10.3C350.9,211.1,349,211.5,347.1,211.5z"/>
	
		<ellipse transform="matrix(0.7071 -0.7071 0.7071 0.7071 -20.6395 251.4421)" class="st132" cx="293.2" cy="150.6" rx="3.9" ry="3.9"/>
	<path class="st130" d="M332,129c-2.6,0-3.9,1.3-4.8,2.2c-2.1,2.1-7,7,13.8,27.9c20.8,20.8,25.8,15.9,27.9,13.8
		c2.2-2.2,7.4-7.4-13.5-28.2C342.9,132.1,336,129,332,129z"/>
	<path class="st129" d="M361.3,169.2c-1,0-2-0.4-2.8-1.2l-5.5-5.5c-1.5-1.5-1.5-4,0-5.6c1.5-1.5,4-1.5,5.6,0l5.5,5.5
		c1.5,1.5,1.5,4,0,5.6C363.3,168.8,362.3,169.2,361.3,169.2z"/>
	<path class="st129" d="M340.2,148.1c-1,0-2-0.4-2.8-1.2l-5.4-5.4c-1.5-1.5-1.5-4,0-5.6c1.5-1.5,4-1.5,5.6,0l5.4,5.4
		c1.5,1.5,1.5,4,0,5.6C342.2,147.7,341.2,148.1,340.2,148.1z"/>
</g>
</svg>
