<?xml version="1.0" encoding="utf-8"?>
<!-- Generator: Adobe Illustrator 20.1.0, SVG Export Plug-In . SVG Version: 6.00 Build 0)  -->
<svg version="1.1" id="Layer_1" xmlns="http://www.w3.org/2000/svg" xmlns:xlink="http://www.w3.org/1999/xlink" x="0px" y="0px"
	 viewBox="0 0 500 500" style="enable-background:new 0 0 500 500;" xml:space="preserve">
<style type="text/css">
	.st0{fill:none;stroke:#460705;stroke-width:6;stroke-miterlimit:10;}
	.st1{fill:none;stroke:#1F1F27;stroke-width:6.4419;stroke-linecap:round;stroke-miterlimit:10;}
	.st2{fill:#FF1F00;}
	.st3{fill:#1F1F27;}
	.st4{fill:#DADBD5;}
	.st5{fill:none;stroke:#473830;stroke-width:3;stroke-linecap:round;stroke-linejoin:round;stroke-miterlimit:10;}
	.st6{fill:none;stroke:#006838;stroke-width:7;stroke-linecap:round;stroke-miterlimit:10;}
	.st7{fill:none;stroke:#171516;stroke-width:7;stroke-linecap:round;stroke-linejoin:round;stroke-miterlimit:10;}
	.st8{fill:none;stroke:#171516;stroke-width:6;stroke-linejoin:round;stroke-miterlimit:10;}
	.st9{fill:#873705;stroke:#171516;stroke-miterlimit:10;}
	.st10{opacity:0.8;fill:none;stroke:#FFFFFF;stroke-linecap:round;stroke-miterlimit:10;}
	.st11{fill:none;stroke:#3A2C26;stroke-width:7;stroke-miterlimit:10;}
	.st12{fill:none;stroke:#AF7C3E;stroke-linecap:round;stroke-linejoin:round;stroke-miterlimit:10;}
	.st13{fill:#AF7C3E;stroke:#755E48;stroke-miterlimit:10;}
	.st14{clip-path:url(#SVGID_2_);}
	.st15{fill:#25A9E0;}
	.st16{clip-path:url(#SVGID_4_);}
	.st17{clip-path:url(#SVGID_6_);}
	.st18{clip-path:url(#SVGID_8_);}
	.st19{clip-path:url(#SVGID_10_);}
	.st20{clip-path:url(#SVGID_12_);}
	.st21{clip-path:url(#SVGID_14_);}
	.st22{fill:#FFFFFF;stroke:#231F20;stroke-width:6;stroke-linecap:round;stroke-miterlimit:10;}
	.st23{fill:none;stroke:#231F20;stroke-linecap:round;stroke-miterlimit:10;}
	.st24{fill:none;stroke:#231F20;stroke-width:6;stroke-linecap:round;stroke-miterlimit:10;}
	.st25{fill:#FFFFFF;stroke:#231F20;stroke-linecap:round;stroke-miterlimit:10;}
	.st26{fill:#FFFFFF;}
	.st27{fill:none;stroke:#DEC8A7;stroke-linecap:round;stroke-linejoin:round;stroke-miterlimit:10;}
	.st28{opacity:0.8;fill:none;stroke:#FFFFFF;stroke-linecap:round;stroke-linejoin:round;stroke-miterlimit:10;}
	.st29{fill:none;stroke:#755E48;stroke-miterlimit:10;}
	.st30{fill:#FFFFFF;stroke:#755E48;stroke-linecap:round;stroke-linejoin:round;stroke-miterlimit:10;}
	.st31{fill:#FFFFFF;stroke:#716558;stroke-linecap:round;stroke-linejoin:round;stroke-miterlimit:10;}
	.st32{fill:none;stroke:#755E48;stroke-linecap:round;stroke-linejoin:round;stroke-miterlimit:10;}
	.st33{fill:#DEC8A7;}
	.st34{opacity:0.7;fill:none;stroke:#755E48;stroke-linejoin:round;stroke-miterlimit:10;}
	.st35{opacity:0.4;fill:none;stroke:#755E48;stroke-miterlimit:10;}
	.st36{fill:#755E48;}
	.st37{fill:none;stroke:#755E48;stroke-linecap:round;stroke-miterlimit:10;}
	.st38{fill:#DEC8A7;stroke:#755E48;stroke-miterlimit:10;}
	.st39{fill:#473830;}
	.st40{fill:#716558;}
	.st41{opacity:0.8;fill:#FFFFFF;}
	.st42{fill:#CBA66C;}
	.st43{fill:#3A2C26;}
	.st44{fill:#AF7C3E;}
	.st45{fill:#B7A287;}
	.st46{fill:#A89379;}
	.st47{fill:none;stroke:#AF7C3E;stroke-width:3;stroke-linecap:round;stroke-miterlimit:10;}
	.st48{fill:none;stroke:#CB7B78;stroke-width:5;stroke-linecap:round;stroke-miterlimit:10;}
	.st49{fill:#724B34;}
	.st50{opacity:0.2;fill:none;stroke:#00ADEE;stroke-linecap:round;stroke-linejoin:round;stroke-miterlimit:10;}
	.st51{fill:none;stroke:#00ADEE;stroke-width:0.25;stroke-miterlimit:10;}
	.st52{fill:none;stroke:#FFF100;stroke-width:0.25;stroke-miterlimit:10;}
	.st53{fill:none;stroke:#A63A34;stroke-miterlimit:10;}
	.st54{fill:none;stroke:#A63A34;stroke-linecap:round;stroke-miterlimit:10;}
	.st55{fill:none;stroke:#A63A34;stroke-linecap:round;stroke-linejoin:round;stroke-miterlimit:10;}
	.st56{fill:#CB7B78;stroke:#51321D;stroke-width:7;stroke-miterlimit:10;}
	.st57{fill:#CB7B78;stroke:#A63A34;stroke-miterlimit:10;}
	.st58{fill:#A63A34;}
	.st59{fill:#51321D;}
	.st60{fill:#CB7B78;}
	.st61{fill:#B35551;}
	.st62{fill:none;stroke:#724B34;stroke-width:1.9219;stroke-linecap:round;stroke-miterlimit:10;}
	.st63{fill:#AF7346;stroke:#171516;stroke-linejoin:round;stroke-miterlimit:10;}
	.st64{fill:none;stroke:#171516;stroke-linecap:round;stroke-linejoin:round;stroke-miterlimit:10;}
	.st65{fill:#AA6F3C;stroke:#171516;stroke-miterlimit:10;}
	.st66{opacity:0.8;fill:#873705;stroke:#171516;stroke-miterlimit:10;}
	.st67{opacity:0.5;fill:#873705;stroke:#171516;stroke-miterlimit:10;}
	.st68{opacity:0.2;fill:#873705;stroke:#171516;stroke-miterlimit:10;}
	.st69{fill:none;stroke:#171516;stroke-linecap:round;stroke-miterlimit:10;}
	.st70{fill:none;stroke:#AF7346;stroke-linecap:round;stroke-linejoin:round;stroke-miterlimit:10;}
	.st71{fill:none;stroke:#873705;stroke-linecap:round;stroke-linejoin:round;stroke-miterlimit:10;}
	.st72{fill:#171516;}
	.st73{fill:#873705;}
	.st74{fill:#DAC3B5;}
	.st75{fill:#AF7346;}
	.st76{fill:#E7D5C8;}
	.st77{fill:#8D4218;}
	.st78{fill:#A26436;}
	.st79{fill:#975327;}
	.st80{fill:#E3D1C4;}
	.st81{fill:#D0E400;}
	.st82{fill:#D0E400;stroke:#006838;stroke-width:3;stroke-miterlimit:10;}
	.st83{fill:#D0E400;stroke:#006838;stroke-linecap:round;stroke-miterlimit:10;}
	.st84{fill:none;stroke:#006838;stroke-linecap:round;stroke-miterlimit:10;}
	.st85{opacity:0.2;fill:none;stroke:#006838;stroke-linecap:round;stroke-miterlimit:10;}
	.st86{fill:none;stroke:#D0E400;stroke-linecap:round;stroke-miterlimit:10;}
	.st87{fill:none;stroke:#FFFFFF;stroke-linecap:round;stroke-miterlimit:10;}
	.st88{fill:none;stroke:#006838;stroke-width:3;stroke-miterlimit:10;}
	.st89{opacity:0.3;fill:none;stroke:#006838;stroke-linecap:round;stroke-miterlimit:10;}
	.st90{fill:#324C05;}
	.st91{opacity:0.3;fill:#324C05;}
	.st92{fill:none;stroke:#FFF100;stroke-miterlimit:10;}
	.st93{fill:none;stroke:#FFF100;stroke-width:3;stroke-miterlimit:10;}
	.st94{fill:#FFFFFF;stroke:#473830;stroke-width:3;stroke-miterlimit:10;}
	.st95{fill:none;stroke:#473830;stroke-miterlimit:10;}
	.st96{fill:none;stroke:#473830;stroke-linecap:round;stroke-miterlimit:10;}
	.st97{clip-path:url(#SVGID_16_);}
	.st98{fill:none;stroke:#473830;stroke-width:3;stroke-linecap:round;stroke-miterlimit:10;}
	.st99{fill:none;stroke:#473830;stroke-linecap:round;stroke-linejoin:round;stroke-miterlimit:10;}
	.st100{clip-path:url(#SVGID_18_);}
	.st101{fill:#D62C16;}
	.st102{fill:#660200;}
	.st103{fill:none;stroke:#660200;stroke-width:0.9203;stroke-linejoin:round;stroke-miterlimit:10;}
	.st104{fill:none;stroke:#DADBD5;stroke-width:0.9203;stroke-linecap:round;stroke-miterlimit:10;}
	.st105{fill:none;stroke:#FFFFFF;stroke-width:0.9203;stroke-linecap:round;stroke-miterlimit:10;}
	.st106{fill:#1E1F27;}
	.st107{fill:none;stroke:#660200;stroke-linecap:round;stroke-linejoin:round;stroke-miterlimit:10;}
	.st108{fill:none;stroke:#1F1F27;stroke-miterlimit:10;}
	.st109{fill:none;stroke:#997A5B;stroke-width:0.9203;stroke-linecap:round;stroke-miterlimit:10;}
	.st110{fill:#FF1F00;stroke:#1F1F27;stroke-width:2.7608;stroke-linejoin:round;stroke-miterlimit:10;}
	.st111{fill:none;stroke:#460705;stroke-width:7;stroke-linecap:round;stroke-linejoin:round;stroke-miterlimit:10;}
	.st112{fill:none;stroke:#A46800;stroke-linecap:round;stroke-linejoin:round;stroke-miterlimit:10;}
	.st113{fill:none;stroke:#660200;stroke-width:7.1499;stroke-linejoin:round;stroke-miterlimit:10;}
	.st114{fill:none;stroke:#1F1F27;stroke-width:21.4496;stroke-linejoin:round;stroke-miterlimit:10;}
	.st115{fill:none;stroke:#660200;stroke-width:7.1436;stroke-linejoin:round;stroke-miterlimit:10;}
	.st116{fill:#FF1F00;stroke:#1F1F27;stroke-width:21.4309;stroke-linejoin:round;stroke-miterlimit:10;}
	.st117{fill:#A46800;stroke:#460705;stroke-miterlimit:10;}
	.st118{fill:none;stroke:#460705;stroke-miterlimit:10;}
	.st119{fill:none;stroke:#B22600;stroke-miterlimit:10;}
	.st120{fill:none;stroke:#460705;stroke-linecap:round;stroke-linejoin:round;stroke-miterlimit:10;}
	.st121{fill:none;stroke:#B22600;stroke-linecap:round;stroke-linejoin:round;stroke-miterlimit:10;}
	.st122{opacity:0.7;fill:none;stroke:#FFFFFF;stroke-linecap:round;stroke-linejoin:round;stroke-miterlimit:10;}
	.st123{fill:none;stroke:#460705;stroke-linecap:round;stroke-miterlimit:10;}
	.st124{fill:#B22600;}
	.st125{opacity:0.5;fill:#FFFFFF;}
	.st126{opacity:0.4;fill:#460705;}
	.st127{opacity:0.7;fill:#FFFFFF;}
	.st128{fill:#460705;}
	.st129{fill:#A46800;}
	.st130{fill:none;stroke:#B22600;stroke-width:7.876;stroke-miterlimit:10;}
	.st131{fill:#E3D1B4;}
	.st132{fill:#A94713;}
	.st133{clip-path:url(#SVGID_20_);}
	.st134{fill:none;stroke:#000106;stroke-width:7;stroke-linecap:round;stroke-linejoin:round;stroke-miterlimit:10;}
	.st135{fill:#000106;}
	.st136{fill:none;stroke:#7C7A85;stroke-linecap:round;stroke-linejoin:round;stroke-miterlimit:10;}
	.st137{fill:none;stroke:#A3A2AA;stroke-linecap:round;stroke-linejoin:round;stroke-miterlimit:10;}
	.st138{opacity:0.5;fill:none;stroke:#FFFFFF;stroke-linecap:round;stroke-linejoin:round;stroke-miterlimit:10;}
	.st139{fill:none;stroke:#D8D7DA;stroke-linecap:round;stroke-linejoin:round;stroke-miterlimit:10;}
	.st140{fill:#441D11;stroke:#7C7A85;stroke-miterlimit:10;}
	.st141{fill:none;stroke:#7C7A85;stroke-miterlimit:10;}
	.st142{fill:none;stroke:#BEBCC2;stroke-linecap:round;stroke-linejoin:round;stroke-miterlimit:10;}
	.st143{fill:#BEBCC2;}
	.st144{fill:#7C7A85;}
	.st145{fill:#000106;stroke:#7C7A85;stroke-miterlimit:10;}
	.st146{fill:#A3A2AA;}
	.st147{fill:#898791;}
	.st148{fill:#B0AFB6;}
	.st149{fill:#D8D7DA;}
	.st150{fill:none;stroke:#7C7A85;stroke-width:7.6958;stroke-miterlimit:10;}
	.st151{fill:#E5E6E6;}
	.st152{fill:#441D11;}
	.st153{opacity:0.1;fill:#FFFFFF;}
	.st154{fill:#DAD2CF;}
	.st155{fill:#997A5B;}
</style>
<g>
	<path class="st3" d="M498.9,300.7c-1.5-14.9-14.8-25.8-29.8-24.3l-31.7,3.2c-7.4,0.8-14.8-0.3-21.6-3.1l-11.7-4.8
		c-2.4-1-4.3-3-5.2-5.4l0-0.1c-0.9-2.5-0.7-5.2,0.5-7.5l0,0c2-3.8,6.3-5.7,10.4-4.6l2.7,0.7c2.3,0.6,4.6,0.9,6.9,0.9
		c12.3,0,23.6-8.5,26.5-21.2c3.3-14.4-5.9-28.8-20.2-32.5l-13.2-3.5c-5.3-1.4-7.8-7.2-5.4-12.1c0-0.1,0.1-0.2,0.1-0.3
		c1.6-3.2,4.4-5.7,7.9-6.6l11.8-3.2c14.3-3.9,23.3-18.4,19.9-32.8c-3.6-14.9-18.8-23.9-33.6-19.9l-0.5,0.1
		c-4.8,1.3-9.8-0.5-12.7-4.6c-2.5-3.6-5.3-6.9-8.5-10.1c-3.3-3.3-6.8-6.2-10.5-8.8c-4.1-2.9-6.1-8-4.7-12.8l0.2-0.7
		c3.9-14.5-4.6-29.4-19.1-33.4c-14.5-3.9-29.4,4.6-33.4,19.1l-3.6,13.2c-0.9,3.4-3.2,6.2-6.3,7.8l-0.1,0.1c-4.8,2.4-10.7-0.2-12-5.4
		l-3.8-14.6c-3.8-14.5-18.6-23.2-33.2-19.4c-14.5,3.8-23.2,18.6-19.4,33.2l0.9,3.3c1.1,4-0.8,8.3-4.5,10.2l-0.2,0.1
		c-2.3,1.2-4.9,1.2-7.3,0.4c-0.4-0.1-0.8-0.3-1.2-0.4c-2.6-0.8-4.6-2.8-5.6-5.3l-4.4-10.8c-2.8-6.8-3.9-14.3-3.1-21.6l3.2-31.7
		c1.5-14.9-9.4-28.3-24.3-29.8c-14.9-1.5-28.3,9.3-29.8,24.3l-4.6,45.3c-0.8,7.4,0.3,14.8,3.1,21.6l7.7,18.8c0.4,0.9,0,1.9-0.9,2.3
		l0,0c-0.7,0.3-1.6,0.1-2.1-0.5l-13.9-17.6c-6.6-8.4-18.9-9.5-26.8-2.4l-38.1,33.7c-6.5,5.8-16.3,6-23.1,0.6l-25.1-20.1
		c-11.7-9.4-28.8-7.5-38.2,4.3c-9.4,11.7-7.5,28.8,4.3,38.2l54.1,43.3c6.3,5.1,8.1,14,4.3,21.1c-1,1.8-1.9,3.7-2.9,5.5
		c-11.5,22.7-19.1,46.2-22.7,69.9c-3.7,24.6-2.7,48.1,3,69.6c6.1,23.6,17.5,43.7,33.7,59.9c13,13,28.8,23,46.7,29.6
		c16.7,6.1,35,9.2,54.4,9.2c35.1,0,71.5-10,104.5-28c7.2-3.9,16.1-2.1,21.2,4.2l43,53.7c5.4,6.7,13.3,10.2,21.3,10.2
		c6.2,0,12.4-2.1,17.5-6.4c11.4-9.6,12.6-26.7,3.3-38.3l-19.7-24.6c-5.4-6.8-5.2-16.5,0.6-23.1l33.7-38.1c7.1-8,6-20.2-2.4-26.8
		l-17.7-14c-0.6-0.5-0.8-1.3-0.5-2.1l0,0c0.4-0.9,1.4-1.3,2.2-0.9l18.9,7.8c6.8,2.8,14.3,3.9,21.6,3.1l45.3-4.6
		C489.5,328.9,500.4,315.6,498.9,300.7z"/>
	<path class="st101" d="M368.5,275.1c-24-10.3-54.3-32.5-82.5-60.8c-28.3-28.3-50.5-58.6-60.8-82.6c-0.4,0.1-0.8,0.1-1.2,0.1
		c-2.7,0-4.5-1.4-5.4-3.2c-31.6,5.9-61.7,22.6-87.8,48.6c-32,32-53.9,74.7-60.2,117.1c-6.5,43.5,3.8,81.4,29,106.5
		c20.2,20.2,48.6,30.9,82.1,30.9c0,0,0,0,0,0c23.9,0,49.4-5.6,73.9-16.1c25-10.8,48.4-26.7,67.6-45.9c25.9-25.9,42.6-56,48.5-87.4
		C369,280.8,368,277.8,368.5,275.1z"/>
	<path class="st106" d="M105.3,322.9c0.5-2.7,0.9-5.3,1.4-8c1.6-9.5-2.8-20.3-13.2-22.5c-9.1-2-20.8,3-22.5,13.2
		c-0.5,2.7-0.9,5.3-1.4,8c-1.6,9.5,2.8,20.3,13.2,22.5C91.8,338.1,103.5,333.1,105.3,322.9z"/>
	<path class="st106" d="M175.4,396.1c2.7-0.5,5.3-0.9,8-1.4c9.5-1.6,20.3,2.8,22.5,13.2c2,9.1-3,20.8-13.2,22.5
		c-2.7,0.5-5.3,0.9-8,1.4c-9.5,1.6-20.3-2.8-22.5-13.2C160.3,409.6,165.3,397.9,175.4,396.1z"/>
	<path class="st4" d="M343.8,137.4c-0.7,0-1.5-0.2-2.1-0.7c-2.4-1.8-4.9-3.5-7.4-5.1c-1.7-1.1-2.2-3.3-1.1-4.9
		c1.1-1.7,3.3-2.2,4.9-1.1c2.7,1.7,5.4,3.5,7.9,5.5c1.6,1.2,1.9,3.4,0.7,5C346,136.9,344.9,137.4,343.8,137.4z"/>
	<path class="st4" d="M370.7,165.9c-1.2,0-2.3-0.6-3-1.7c-1.6-2.5-3.3-5-5.1-7.4c-1.2-1.6-0.9-3.8,0.7-5c1.6-1.2,3.8-0.9,5,0.7
		c1.9,2.6,3.8,5.2,5.5,7.9c1.1,1.7,0.6,3.9-1.1,4.9C372,165.7,371.3,165.9,370.7,165.9z"/>
	<path class="st26" d="M342.5,178.3c-1.1,0-2.2-0.5-2.9-1.4c-5-6.8-11.1-12.6-18-17.5c-1.6-1.1-2-3.4-0.9-5c1.1-1.6,3.4-2,5-0.9
		c7.5,5.3,14.2,11.7,19.6,19.1c1.2,1.6,0.8,3.8-0.7,5C344,178.1,343.2,178.3,342.5,178.3z"/>
	<path class="st106" d="M167.1,191.7c-16.8-16.8-42.9,9.3-26.1,26.1C157.8,234.5,183.9,208.5,167.1,191.7z"/>
	<path class="st106" d="M179.1,271.9l-4-4c-6.8-6.8-19.4-7.4-26.1,0c-6.8,7.4-7.3,18.8,0,26.1l4,4c6.8,6.8,19.4,7.4,26.1,0
		C185.9,290.7,186.4,279.3,179.1,271.9z"/>
	<path class="st106" d="M235.8,331.3l-4.7-4.7c-6.8-6.8-19.4-7.4-26.1,0c-6.8,7.4-7.3,18.8,0,26.1l4.7,4.7c6.8,6.8,19.4,7.4,26.1,0
		C242.6,350,243.2,338.6,235.8,331.3z"/>
	<path class="st106" d="M312.6,338.5c-16.8-16.8-42.9,9.3-26.1,26.1C303.3,381.4,329.4,355.3,312.6,338.5z"/>
	<path class="st106" d="M276.3,257.1c-3.5-11.8-14.3-22.7-22-31.9c-5.8-6.9-17-6.7-24-1.7c-1.1,0.3-2.1,0.7-3.2,1.1
		c-15.6,6.9-14.9,27.2-5.2,38.4c3.4,3.9,7.3,7.4,11.1,11c4.8,4.7,9.6,9.9,16.3,11.8C266.5,290.9,281.2,273.6,276.3,257.1z"/>
	<path class="st102" d="M288.5,211.7c-27.1-27.1-47.7-55.1-58.2-77.3c-3.1-6.5-10.3-10-17.4-8.4c-29.3,6.5-58.6,22.4-84.8,48.6
		C61,241.8,42.4,348.7,96.9,403.3c21.8,21.8,52,31.9,84.6,31.9c49,0,103.7-22.8,144-63.1c26.1-26.1,42-55.4,48.6-84.7
		c1.6-7.1-1.9-14.3-8.5-17.4C343.5,259.4,315.6,238.9,288.5,211.7z M74,294.7c6.2-41.7,27.8-83.6,59.2-115.1
		c23.8-23.8,51.2-39.7,79.9-46.3c4.6-1.1,9.3,1.2,11.4,5.5c9.2,19,25,41.2,44.7,63c6.5,7.1,6.1,18.1-0.7,24.9l-156,156
		c-7.4,7.4-19.6,5.7-24.9-3.2c-4.9-8.2-8.6-17.4-11.2-27.3C71.7,334.6,70.9,315.3,74,294.7z M320.5,367
		c-18.9,18.9-41.9,34.5-66.5,45.2c-24,10.4-49,15.9-72.4,15.9c-23.4,0-44.1-5.3-61.2-15.5c-8.8-5.3-10.1-17.5-2.9-24.7l156-156
		c6.8-6.8,17.8-7.1,24.9-0.7c21.8,19.7,44,35.5,63,44.7c4.2,2.1,6.5,6.8,5.5,11.4C360.2,315.8,344.4,343.2,320.5,367z"/>
	<path class="st4" d="M378.6,219.7c-0.5-8.4-1.9-16.6-4.3-24.4c-0.9-2.9,0.1-5.9,2.5-7.8c0.9-0.7,1.7-1.4,2.5-2.2
		c14.8-14.8,12.5-41.1-5.1-58.7c-9.8-9.8-22.3-14.9-34.1-14.9c-9.3,0-18.1,3.2-24.7,9.8c-0.6,0.6-1.1,1.2-1.7,1.8
		c-2.3,2.7-5.9,3.7-9.3,2.7c-7.5-2.2-15.4-3.6-23.5-4.1l-20.3-1.2c-0.4,0-0.7,0-1.1,0c-13.3,0-22,14.7-14.9,26.3
		c11.5,18.6,28.2,39.5,48.7,60c20.5,20.5,41.5,37.2,60.1,48.7c2.9,1.8,5.9,2.6,8.9,2.6c9.4,0,18-7.9,17.4-18.5L378.6,219.7z
		 M320.5,126.4c5-5,11.8-7.7,19.6-7.7h0c10.3,0,20.9,4.7,29,12.8c7.3,7.3,11.8,16.6,12.7,26c0.8,9-1.9,17-7.5,22.6
		c0,0-0.1,0.1-0.1,0.1c-1.9,1.8-5,1.2-6.1-1.1c-10-20.1-26.4-36.5-46.4-46.6C319.2,131.4,318.6,128.3,320.5,126.4
		C320.4,126.4,320.5,126.4,320.5,126.4z M362.3,250.9c-1.8,0-3.5-0.5-5.1-1.5c-18.9-11.7-39.3-28.2-58.8-47.7
		c-19.5-19.5-35.9-39.7-47.6-58.7c-2.8-4.5-1.1-8.5-0.2-10.1c0.5-1,1.2-1.8,1.9-2.5c1.9-1.8,4.9-1.5,6.5,0.5c0.8,1,1.7,2,2.6,2.9
		c11.7,11.5,30.1,11.9,42.3,1.4c1.2-1.1,2.9-1.4,4.4-0.8c26.6,9.8,47.6,30.8,57.3,57.3c0.6,1.5,0.2,3.2-0.8,4.4
		c-10.4,12.2-9.9,30.7,1.6,42.3c0.9,0.9,1.8,1.7,2.8,2.5c2,1.6,2.4,4.5,0.6,6.4c0,0-0.1,0.1-0.1,0.1
		C367.8,249.7,365.1,250.9,362.3,250.9z"/>
	<path class="st26" d="M200.7,195.7c-1,0-2-0.4-2.7-1.3c-1.3-1.5-1.1-3.8,0.4-5c7.5-6.3,15.1-12.4,22.8-18.3c1.6-1.2,3.8-0.9,5,0.7
		c1.2,1.6,0.9,3.8-0.7,5c-7.6,5.8-15.1,11.9-22.5,18.1C202.3,195.5,201.5,195.7,200.7,195.7z"/>
	<path class="st26" d="M199.4,220.3c-1,0-1.9-0.4-2.6-1.1c-1.3-1.4-1.3-3.7,0.2-5c5.9-5.5,12-11,18.1-16.4c1.5-1.3,3.7-1.2,5,0.3
		c1.3,1.5,1.2,3.7-0.3,5c-6,5.3-12.1,10.8-18,16.2C201.1,220,200.2,220.3,199.4,220.3z"/>
	<path class="st26" d="M132,263c-0.8,0-1.6-0.3-2.3-0.9c-1.5-1.3-1.7-3.5-0.4-5c4.5-5.3,9.4-10.7,14.5-16.2c1.3-1.4,3.6-1.5,5-0.2
		c1.4,1.3,1.5,3.6,0.2,5c-5,5.4-9.8,10.7-14.2,15.9C134,262.5,133,263,132,263z"/>
	
		<ellipse transform="matrix(0.9995 -3.313559e-02 3.313559e-02 0.9995 -6.1817 7.6836)" class="st26" cx="228.7" cy="190.3" rx="3.6" ry="3.6"/>
</g>
<g>
	<g>
		<g>
			<path class="st155" d="M370.9,475.1c-1,0-2.1-0.5-2.8-1.3l-38.5-48.1c-4.2-5.2-4-12.6,0.4-17.6l40.2-45.5c2.4-2.7,2-6.8-0.8-9
				l-9-7.1c-1.5-1.2-2-3.4-0.9-5c1.2-1.7,3.5-2,5.1-0.7l10.7,8.5c5.2,4.1,5.9,11.7,1.5,16.6l-40.6,45.9c-2.7,3-2.8,7.5-0.3,10.6
				l37.6,47c1.2,1.5,1,3.8-0.6,5C372.5,474.8,371.7,475.1,370.9,475.1z"/>
		</g>
		<g>
			<path class="st155" d="M427,311.8c-4.1,0.4-8.2-0.2-12-1.8l-32-13.2c-1.8-0.8-2.7-2.8-1.9-4.7c0.8-1.8,2.8-2.7,4.7-1.9l31.8,13.1
				c2.9,1.2,6,1.6,9.1,1.3l44.1-4.5c2-0.2,3.7,1.2,3.9,3.2c0.2,2-1.2,3.7-3.2,3.9L427,311.8z"/>
		</g>
		<g>
			<path class="st155" d="M398.7,158.3L398.7,158.3c-1.9-0.3-3.4-2.1-3.1-4c0.3-2.1,2.2-3.4,4.2-3.1l0,0c0.8,0.1,1.6,0.1,2.4-0.1
				l16.3-4.4c2-0.5,4,0.7,4.4,2.7c0.4,1.9-0.9,3.7-2.8,4.3l-16.3,4.4C402.2,158.5,400.4,158.6,398.7,158.3z"/>
		</g>
		<g>
			<path class="st155" d="M418.6,232.2c-0.3,0-0.6,0-0.9-0.1l-29.2-7.6c-1.9-0.5-3.1-2.5-2.6-4.4c0.5-1.9,2.5-3.1,4.4-2.6l29.2,7.6
				c1.9,0.5,3.1,2.5,2.6,4.4C421.6,231.1,420.2,232.2,418.6,232.2z"/>
		</g>
	</g>
	<g>
		<g>
			<path class="st155" d="M90.9,170c-5,4.4-12.5,4.6-17.7,0.4L25.1,132c-1.5-1.2-1.8-3.5-0.6-5c1.2-1.5,3.5-1.8,5-0.6l46.8,37.5
				c3.2,2.6,7.8,2.5,10.9-0.3l46-40.7c4.8-4.3,12.2-3.6,16.2,1.5l8.4,10.7c1.1,1.3,1.1,3.3,0,4.6c-1.5,1.8-4.2,1.7-5.6-0.1
				l-8.1-10.2c-1.7-2.1-4.8-2.4-6.8-0.6L90.9,170z"/>
		</g>
		<g>
			<path class="st155" d="M205.2,119.1c-1.4,0-2.7-0.8-3.3-2.2l-12.8-31c-1.8-4.3-2.5-9-2-13.7l4.4-43.5c0.2-2,1.9-3.4,3.9-3.2
				c2,0.2,3.4,2,3.2,3.9l-4.6,44.7c-0.3,2.7,0.1,5.4,1.1,7.9l13.2,32.1c0.8,1.8-0.1,3.9-1.9,4.7C206.1,119,205.6,119.1,205.2,119.1z
				"/>
		</g>
		<g>
			<path class="st155" d="M344.8,104.3c-1.7,0-3.2-1.2-3.5-2.9l-0.1-0.8c-0.3-1.6-0.2-3.3,0.2-4.8l4.5-16.6c0.5-2,2.6-3.1,4.6-2.5
				c1.8,0.6,2.8,2.7,2.3,4.5L348.4,97c-0.3,1-0.3,2-0.1,2.9l0,0c0.3,1.6-0.4,3.3-1.9,4C345.9,104.2,345.3,104.3,344.8,104.3z"/>
		</g>
		<g>
			<path class="st155" d="M278.6,114.1c-1.6,0-3-1.1-3.5-2.7l-7.7-29.7c-0.5-1.9,0.6-3.9,2.6-4.4c1.9-0.5,3.9,0.6,4.4,2.6l7.7,29.7
				c0.5,1.9-0.6,3.9-2.6,4.4C279.2,114.1,278.8,114.1,278.6,114.1z"/>
		</g>
	</g>
</g>
</svg>
