<?xml version="1.0" encoding="utf-8"?>
<!-- Generator: Adobe Illustrator 20.1.0, SVG Export Plug-In . SVG Version: 6.00 Build 0)  -->
<svg version="1.1" id="Layer_1" xmlns="http://www.w3.org/2000/svg" xmlns:xlink="http://www.w3.org/1999/xlink" x="0px" y="0px"
	 viewBox="0 0 500 500" style="enable-background:new 0 0 500 500;" xml:space="preserve">
<style type="text/css">
	.st0{fill:none;stroke:#460705;stroke-width:6;stroke-miterlimit:10;}
	.st1{fill:none;stroke:#1F1F27;stroke-width:6.4419;stroke-linecap:round;stroke-miterlimit:10;}
	.st2{fill:#FF1F00;}
	.st3{fill:#1F1F27;}
	.st4{fill:#DADBD5;}
	.st5{fill:none;stroke:#473830;stroke-width:3;stroke-linecap:round;stroke-linejoin:round;stroke-miterlimit:10;}
	.st6{fill:none;stroke:#006838;stroke-width:7;stroke-linecap:round;stroke-miterlimit:10;}
	.st7{fill:none;stroke:#171516;stroke-width:7;stroke-linecap:round;stroke-linejoin:round;stroke-miterlimit:10;}
	.st8{fill:none;stroke:#171516;stroke-width:6;stroke-linejoin:round;stroke-miterlimit:10;}
	.st9{fill:#873705;stroke:#171516;stroke-miterlimit:10;}
	.st10{opacity:0.8;fill:none;stroke:#FFFFFF;stroke-linecap:round;stroke-miterlimit:10;}
	.st11{fill:none;stroke:#3A2C26;stroke-width:7;stroke-miterlimit:10;}
	.st12{fill:none;stroke:#AF7C3E;stroke-linecap:round;stroke-linejoin:round;stroke-miterlimit:10;}
	.st13{fill:#AF7C3E;stroke:#755E48;stroke-miterlimit:10;}
	.st14{clip-path:url(#SVGID_2_);}
	.st15{fill:#25A9E0;}
	.st16{clip-path:url(#SVGID_4_);}
	.st17{clip-path:url(#SVGID_6_);}
	.st18{clip-path:url(#SVGID_8_);}
	.st19{clip-path:url(#SVGID_10_);}
	.st20{clip-path:url(#SVGID_12_);}
	.st21{clip-path:url(#SVGID_14_);}
	.st22{fill:#FFFFFF;stroke:#231F20;stroke-width:6;stroke-linecap:round;stroke-miterlimit:10;}
	.st23{fill:none;stroke:#231F20;stroke-linecap:round;stroke-miterlimit:10;}
	.st24{fill:none;stroke:#231F20;stroke-width:6;stroke-linecap:round;stroke-miterlimit:10;}
	.st25{fill:#FFFFFF;stroke:#231F20;stroke-linecap:round;stroke-miterlimit:10;}
	.st26{fill:#FFFFFF;}
	.st27{fill:none;stroke:#DEC8A7;stroke-linecap:round;stroke-linejoin:round;stroke-miterlimit:10;}
	.st28{opacity:0.8;fill:none;stroke:#FFFFFF;stroke-linecap:round;stroke-linejoin:round;stroke-miterlimit:10;}
	.st29{fill:none;stroke:#755E48;stroke-miterlimit:10;}
	.st30{fill:#FFFFFF;stroke:#755E48;stroke-linecap:round;stroke-linejoin:round;stroke-miterlimit:10;}
	.st31{fill:#FFFFFF;stroke:#716558;stroke-linecap:round;stroke-linejoin:round;stroke-miterlimit:10;}
	.st32{fill:none;stroke:#755E48;stroke-linecap:round;stroke-linejoin:round;stroke-miterlimit:10;}
	.st33{fill:#DEC8A7;}
	.st34{opacity:0.7;fill:none;stroke:#755E48;stroke-linejoin:round;stroke-miterlimit:10;}
	.st35{opacity:0.4;fill:none;stroke:#755E48;stroke-miterlimit:10;}
	.st36{fill:#755E48;}
	.st37{fill:none;stroke:#755E48;stroke-linecap:round;stroke-miterlimit:10;}
	.st38{fill:#DEC8A7;stroke:#755E48;stroke-miterlimit:10;}
	.st39{fill:#473830;}
	.st40{fill:#716558;}
	.st41{opacity:0.8;fill:#FFFFFF;}
	.st42{fill:#CBA66C;}
	.st43{fill:#3A2C26;}
	.st44{fill:#AF7C3E;}
	.st45{fill:#B7A287;}
	.st46{fill:#A89379;}
	.st47{fill:none;stroke:#AF7C3E;stroke-width:3;stroke-linecap:round;stroke-miterlimit:10;}
	.st48{fill:none;stroke:#CB7B78;stroke-width:5;stroke-linecap:round;stroke-miterlimit:10;}
	.st49{fill:#724B34;}
	.st50{opacity:0.2;fill:none;stroke:#00ADEE;stroke-linecap:round;stroke-linejoin:round;stroke-miterlimit:10;}
	.st51{fill:none;stroke:#00ADEE;stroke-width:0.25;stroke-miterlimit:10;}
	.st52{fill:none;stroke:#FFF100;stroke-width:0.25;stroke-miterlimit:10;}
	.st53{fill:none;stroke:#A63A34;stroke-miterlimit:10;}
	.st54{fill:none;stroke:#A63A34;stroke-linecap:round;stroke-miterlimit:10;}
	.st55{fill:none;stroke:#A63A34;stroke-linecap:round;stroke-linejoin:round;stroke-miterlimit:10;}
	.st56{fill:#CB7B78;stroke:#51321D;stroke-width:7;stroke-miterlimit:10;}
	.st57{fill:#CB7B78;stroke:#A63A34;stroke-miterlimit:10;}
	.st58{fill:#A63A34;}
	.st59{fill:#51321D;}
	.st60{fill:#CB7B78;}
	.st61{fill:#B35551;}
	.st62{fill:none;stroke:#724B34;stroke-width:1.9219;stroke-linecap:round;stroke-miterlimit:10;}
	.st63{fill:#AF7346;stroke:#171516;stroke-linejoin:round;stroke-miterlimit:10;}
	.st64{fill:none;stroke:#171516;stroke-linecap:round;stroke-linejoin:round;stroke-miterlimit:10;}
	.st65{fill:#AA6F3C;stroke:#171516;stroke-miterlimit:10;}
	.st66{opacity:0.8;fill:#873705;stroke:#171516;stroke-miterlimit:10;}
	.st67{opacity:0.5;fill:#873705;stroke:#171516;stroke-miterlimit:10;}
	.st68{opacity:0.2;fill:#873705;stroke:#171516;stroke-miterlimit:10;}
	.st69{fill:none;stroke:#171516;stroke-linecap:round;stroke-miterlimit:10;}
	.st70{fill:none;stroke:#AF7346;stroke-linecap:round;stroke-linejoin:round;stroke-miterlimit:10;}
	.st71{fill:none;stroke:#873705;stroke-linecap:round;stroke-linejoin:round;stroke-miterlimit:10;}
	.st72{fill:#171516;}
	.st73{fill:#873705;}
	.st74{fill:#DAC3B5;}
	.st75{fill:#AF7346;}
	.st76{fill:#E7D5C8;}
	.st77{fill:#8D4218;}
	.st78{fill:#A26436;}
	.st79{fill:#975327;}
	.st80{fill:#E3D1C4;}
	.st81{fill:#D0E400;}
	.st82{fill:#D0E400;stroke:#006838;stroke-width:3;stroke-miterlimit:10;}
	.st83{fill:#D0E400;stroke:#006838;stroke-linecap:round;stroke-miterlimit:10;}
	.st84{fill:none;stroke:#006838;stroke-linecap:round;stroke-miterlimit:10;}
	.st85{opacity:0.2;fill:none;stroke:#006838;stroke-linecap:round;stroke-miterlimit:10;}
	.st86{fill:none;stroke:#D0E400;stroke-linecap:round;stroke-miterlimit:10;}
	.st87{fill:none;stroke:#FFFFFF;stroke-linecap:round;stroke-miterlimit:10;}
	.st88{fill:none;stroke:#006838;stroke-width:3;stroke-miterlimit:10;}
	.st89{opacity:0.3;fill:none;stroke:#006838;stroke-linecap:round;stroke-miterlimit:10;}
	.st90{fill:#324C05;}
	.st91{opacity:0.3;fill:#324C05;}
	.st92{fill:none;stroke:#FFF100;stroke-miterlimit:10;}
	.st93{fill:none;stroke:#FFF100;stroke-width:3;stroke-miterlimit:10;}
	.st94{fill:#FFFFFF;stroke:#473830;stroke-width:3;stroke-miterlimit:10;}
	.st95{fill:none;stroke:#473830;stroke-miterlimit:10;}
	.st96{fill:none;stroke:#473830;stroke-linecap:round;stroke-miterlimit:10;}
	.st97{clip-path:url(#SVGID_16_);}
	.st98{fill:none;stroke:#473830;stroke-width:3;stroke-linecap:round;stroke-miterlimit:10;}
	.st99{fill:none;stroke:#473830;stroke-linecap:round;stroke-linejoin:round;stroke-miterlimit:10;}
	.st100{clip-path:url(#SVGID_18_);}
	.st101{fill:#D62C16;}
	.st102{fill:#660200;}
	.st103{fill:none;stroke:#660200;stroke-width:0.9203;stroke-linejoin:round;stroke-miterlimit:10;}
	.st104{fill:none;stroke:#DADBD5;stroke-width:0.9203;stroke-linecap:round;stroke-miterlimit:10;}
	.st105{fill:none;stroke:#FFFFFF;stroke-width:0.9203;stroke-linecap:round;stroke-miterlimit:10;}
	.st106{fill:#1E1F27;}
	.st107{fill:none;stroke:#660200;stroke-linecap:round;stroke-linejoin:round;stroke-miterlimit:10;}
	.st108{fill:none;stroke:#1F1F27;stroke-miterlimit:10;}
	.st109{fill:none;stroke:#997A5B;stroke-width:0.9203;stroke-linecap:round;stroke-miterlimit:10;}
	.st110{fill:#FF1F00;stroke:#1F1F27;stroke-width:2.7608;stroke-linejoin:round;stroke-miterlimit:10;}
	.st111{fill:none;stroke:#460705;stroke-width:7;stroke-linecap:round;stroke-linejoin:round;stroke-miterlimit:10;}
	.st112{fill:none;stroke:#A46800;stroke-linecap:round;stroke-linejoin:round;stroke-miterlimit:10;}
	.st113{fill:none;stroke:#660200;stroke-width:7.1499;stroke-linejoin:round;stroke-miterlimit:10;}
	.st114{fill:none;stroke:#1F1F27;stroke-width:21.4496;stroke-linejoin:round;stroke-miterlimit:10;}
	.st115{fill:none;stroke:#660200;stroke-width:7.1436;stroke-linejoin:round;stroke-miterlimit:10;}
	.st116{fill:#FF1F00;stroke:#1F1F27;stroke-width:21.4309;stroke-linejoin:round;stroke-miterlimit:10;}
	.st117{fill:#A46800;stroke:#460705;stroke-miterlimit:10;}
	.st118{fill:none;stroke:#460705;stroke-miterlimit:10;}
	.st119{fill:none;stroke:#B22600;stroke-miterlimit:10;}
	.st120{fill:none;stroke:#460705;stroke-linecap:round;stroke-linejoin:round;stroke-miterlimit:10;}
	.st121{fill:none;stroke:#B22600;stroke-linecap:round;stroke-linejoin:round;stroke-miterlimit:10;}
	.st122{opacity:0.7;fill:none;stroke:#FFFFFF;stroke-linecap:round;stroke-linejoin:round;stroke-miterlimit:10;}
	.st123{fill:none;stroke:#460705;stroke-linecap:round;stroke-miterlimit:10;}
	.st124{fill:#B22600;}
	.st125{opacity:0.5;fill:#FFFFFF;}
	.st126{opacity:0.4;fill:#460705;}
	.st127{opacity:0.7;fill:#FFFFFF;}
	.st128{fill:#460705;}
	.st129{fill:#A46800;}
	.st130{fill:none;stroke:#B22600;stroke-width:7.876;stroke-miterlimit:10;}
	.st131{fill:#E3D1B4;}
	.st132{fill:#A94713;}
	.st133{clip-path:url(#SVGID_20_);}
	.st134{fill:none;stroke:#000106;stroke-width:7;stroke-linecap:round;stroke-linejoin:round;stroke-miterlimit:10;}
	.st135{fill:#000106;}
	.st136{fill:none;stroke:#7C7A85;stroke-linecap:round;stroke-linejoin:round;stroke-miterlimit:10;}
	.st137{fill:none;stroke:#A3A2AA;stroke-linecap:round;stroke-linejoin:round;stroke-miterlimit:10;}
	.st138{opacity:0.5;fill:none;stroke:#FFFFFF;stroke-linecap:round;stroke-linejoin:round;stroke-miterlimit:10;}
	.st139{fill:none;stroke:#D8D7DA;stroke-linecap:round;stroke-linejoin:round;stroke-miterlimit:10;}
	.st140{fill:#441D11;stroke:#7C7A85;stroke-miterlimit:10;}
	.st141{fill:none;stroke:#7C7A85;stroke-miterlimit:10;}
	.st142{fill:none;stroke:#BEBCC2;stroke-linecap:round;stroke-linejoin:round;stroke-miterlimit:10;}
	.st143{fill:#BEBCC2;}
	.st144{fill:#7C7A85;}
	.st145{fill:#000106;stroke:#7C7A85;stroke-miterlimit:10;}
	.st146{fill:#A3A2AA;}
	.st147{fill:#B0AFB6;}
	.st148{fill:none;stroke:#7C7A85;stroke-width:7.6958;stroke-miterlimit:10;}
	.st149{fill:#DAD2CF;}
	.st150{fill:#E5E6E6;}
	.st151{fill:#441D11;}
	.st152{fill:#997A5B;}
</style>
<g>
	<path class="st135" d="M274,197.2L274,197.2c1.7-1.9,4.3-2.7,6.7-1.8c2.9,1,5.8,1.5,8.8,1.5c9.1,0,17.9-4.6,23-12.9
		c3.8-6.2,4.8-13.4,3.3-20c-0.7-3.3,1-6.7,4.1-8c0.5-0.2,0.9-0.4,1.4-0.7c13.3-6.6,18.7-22.8,12.1-36.1l-8.7-17.5L315.9,76
		c-3.7-10.9-14-18.3-25.5-18.3c-0.1,0-0.2,0-0.3,0l0,0c-7.2,0.1-13.3-5.3-14-12.5v0c-1.2-11.6-9.7-21-21.1-23.5L228.4,16l-18.3-6.6
		c-14-5.1-29.4,2.2-34.5,16.2c0,0,0,0.1,0,0.1c-1.5,4.2-5.4,7-9.8,7c-5.8,0-11.7,1.9-16.7,5.7c-10.1,7.9-13,21.7-7.7,32.8
		c1.1,2.3,0.6,5-1,6.9l0,0c-1.8,2-4.6,2.7-7.1,1.7c-1.8-0.7-4.1-1.4-6.9-1.8c-11.1-1.4-22.6,3.9-27.9,14.2
		c-4.8,9.4-3.6,20.3,2.3,28.3c0.5,0.6,0.5,1.5-0.1,2.1h0c-0.5,0.5-1.3,0.7-1.9,0.4l-0.8-0.4c-13.1-6.6-29.9-1.6-36.6,11.5
		c-4.8,9.4-3.6,20.3,2.3,28.3c0.5,0.6,0.4,1.5-0.1,2.1l-0.3,0.3c-0.5,0.5-1.3,0.7-1.9,0.4l-1.4-0.7c-13.3-6.7-29.5-1.4-36.2,11.9
		c-4.7,9.3-3.5,20,2.2,27.9c1.3,1.8,0.2,4.3-2,4.5c-10.1,1.2-19,8.1-22.3,18.4c-4.6,14.1,3.2,29.3,17.3,33.9l0.5,0.2
		c2.1,0.7,3.5,2.5,3.8,4.6c1.1,8.6,3.5,16.7,7.1,24.3c1,2,0.7,4.5-0.9,6.2h0c-9.9,11.1-8.9,28.1,2.2,38c5.1,4.6,11.5,7,17.9,6.8
		c10.5-0.3,16.4-4.4,19.6-7.6c2.1-2.2,5.2-3,8-2c4.9,1.8,13,4,22.6,3.9c2.9,0,5.5,1.5,6.8,4.1c1,1.9,2.4,4.2,4.3,6.3
		c1.9,2.1,4.1,3.9,6.5,5.3c4.1,2.4,8.7,3.6,13.5,3.6c3.8,0,7.6-0.8,11.2-2.5c0.4-0.2,0.8-0.4,1.2-0.6c2.7-1.4,6-0.8,7.9,1.5
		c1.3,1.6,2.9,3.1,4.7,4.5h0c2,1.5,2.9,4,2.4,6.4c-1.1,5.7-1.6,11.4-1.5,17c0.1,6.2-2.2,12.3-6.8,16.4c-1.4,1.2-2.8,2.7-4.1,4.5
		c-6,8.3-7,19.6-1.6,29.1c5.3,9.4,15.5,14.5,25.6,13.6c2.2-0.2,4.2-0.6,5.9-1.1c5.8-1.7,12.1-0.6,17.2,2.7c3.7,2.4,7.7,4.5,11.8,6.3
		c4.5,1.9,7.8,5.8,9,10.5c1,4,3.3,9,7.9,13.6c5.2,5.1,12.7,7.8,20.5,7.2c0.2,0,0.4,0,0.6-0.1c11.1-1.1,19.9-8.8,23-18.8
		c0.5-1.7,2.7-2.2,3.9-0.8c5.5,6.6,13.9,10.3,22.7,9.6c1.7-0.1,3.3-0.4,5-0.9c11.4-3.1,19-13.2,19.6-24.5c0.2-3.7-0.6-7.6-1-9.6
		c-0.2-0.8,0.2-1.7,0.9-2.1l0,0c0.8-0.4,1.8-0.3,2.4,0.4c5.5,6.2,13.7,9.6,22.2,8.9c1.7-0.1,3.5-0.4,5.2-0.9
		c11.8-3.3,19.5-14.2,19.5-26c0-3.6-0.7-6.6-1.1-8.2c-0.2-0.7,0.1-1.4,0.8-1.8l0,0c0.7-0.4,1.5-0.2,2,0.4c5.5,6.2,13.7,9.7,22.3,9
		c1.7-0.1,3.5-0.4,5.2-0.9c12.2-3.4,20.3-15,19.5-27.3c-0.1-1.5-0.3-2.9-0.4-4c-0.4-2.5,0.8-5,3-6.3l0.3-0.2c2.2-1.3,4.9-1,6.9,0.6
		c5.4,4.2,12.1,6.1,18.6,5.5c5.3-0.4,10.6-2.4,15-6.1c5.3-4.4,8.5-10.4,9.4-16.7c0.6-4,3.8-7.1,7.8-7.5c0.1,0,0.1,0,0.2,0
		c14.8-1.7,25.3-15.4,23.3-30.1l-2.6-19.5l0-27.2c0-11.6-7.4-21.9-18.5-25.6l0,0c-6.8-2.3-10.8-9.3-9.2-16.4l0,0
		c2.6-11.3-2.4-23-12.4-29l-23.3-14L418,181.2c-11.6-9.3-28.6-7.5-37.9,4.1l-0.1,0.1c-2.8,3.5-7.4,4.9-11.6,3.5
		c-5.5-1.9-11.7-2-17.6,0.1c-12.2,4.3-19.3,16.3-17.9,28.6c0.3,2.5-1,4.9-3.2,6.1l0,0c-2.3,1.3-5.1,1-7.2-0.7
		c-1.2-1-2.9-2.2-5.1-3.4c-10.2-5.6-23.2-4.5-31.9,4c-7.6,7.4-9.9,18.1-7,27.5c0.2,0.7-0.1,1.6-0.7,1.9l0,0c-0.6,0.4-1.4,0.2-2-0.3
		l-1.1-1.1c-3.3-3.4-7.4-5.8-11.7-7c-1.5-0.4-1.7-2.5-0.3-3.2c1.7-1,3.4-2.2,5-3.6c8.2-7.4,10.6-19,7.1-29.1
		c-0.6-1.7-1.2-3.1-1.9-4.3C271.9,202.1,272.2,199.2,274,197.2z"/>
	<path class="st147" d="M254.1,85c-13.3-11.8-30.3-17.7-48-16.7c-17.7,1-34,8.9-45.8,22.1l-86,96.5c-14.8,16.6-24.9,37-27.8,55.9
		c-3.4,22.3,2.8,41.3,18.1,54.9c10.7,9.5,23.5,14.3,37.6,14.3c6.1,0,12.4-0.9,19-2.7c18.5-5.1,37.6-17.5,52.4-34.1l86-96.5
		C283.9,151.4,281.5,109.3,254.1,85z M236.8,104.4c10.6,9.4,19.9,19.7,27.7,30.6c2.6,3.7,3.6,8.3,2.6,12.7c-0.2,1-0.5,2-0.8,3
		c-1,3.4-5.5,4.2-7.5,1.2c-8.8-13-19.7-25.3-32-36.3c-12.3-11-25.9-20.4-39.8-27.6c-3.2-1.7-3-6.3,0.3-7.6c1.2-0.5,2.4-0.9,3.6-1.4
		c3.8-1.3,8-1,11.5,1C214.5,86.6,226,94.8,236.8,104.4z M264.8,113.7c1.2,3.1-2.8,5.4-5,3c-5.5-6.3-11.5-12.3-17.9-18.1
		c-6.5-5.8-13.2-11-20.1-15.8c-2.7-1.9-0.8-6.1,2.4-5.3c9.1,2.3,17.6,6.7,24.8,13.1C256.3,97.2,261.6,105.2,264.8,113.7z
		 M133.8,220.1c-13.8-12.3-29.1-22.5-44.7-30.1c-2.5-1.2-3.2-4.5-1.3-6.6l1.3-1.5c4.9-5.5,12.9-7,19.4-3.7
		c13.5,7,26.7,16.1,38.7,26.8c12,10.7,22.6,22.7,31.1,35.3c4.1,6.1,3.5,14.2-1.4,19.7l-1.3,1.5c-1.9,2.1-5.2,1.8-6.7-0.6
		C159.5,246.3,147.6,232.3,133.8,220.1z M152.3,199.2c-13.8-12.3-29.1-22.5-44.7-30.1c-2.5-1.2-3.2-4.5-1.3-6.6l1.3-1.5
		c4.9-5.5,12.9-7,19.4-3.7c13.5,7,26.7,16.1,38.7,26.8c12,10.7,22.6,22.7,31.1,35.3c4.1,6.1,3.5,14.2-1.4,19.7l-1.3,1.5
		c-1.9,2.1-5.2,1.8-6.7-0.6C178.1,225.5,166.1,211.5,152.3,199.2z M170.9,178.4c-13.8-12.3-29.1-22.5-44.7-30.1
		c-2.5-1.2-3.2-4.5-1.3-6.6l1.3-1.5c4.9-5.5,12.9-7,19.4-3.7c13.5,7,26.7,16.1,38.7,26.8c12,10.7,22.6,22.7,31.1,35.3
		c4.1,6.1,3.5,14.2-1.4,19.7l-1.3,1.5c-1.9,2.1-5.2,1.8-6.7-0.6C196.6,204.7,184.7,190.7,170.9,178.4z M189.4,157.6
		c-13.8-12.3-29.1-22.5-44.7-30.1c-2.5-1.2-3.2-4.5-1.3-6.6l1.3-1.5c4.9-5.5,12.9-7,19.4-3.7c13.5,7,26.6,16.1,38.7,26.8
		c12,10.7,22.6,22.7,31.1,35.3c4.1,6.1,3.5,14.2-1.4,19.7l-1.3,1.5c-1.9,2.1-5.2,1.8-6.7-0.6C215.2,183.9,203.2,169.9,189.4,157.6z
		 M105.1,304.4c-2,0-3.9-1-5.2-2.5c-6-7.5-12.7-14.6-20.1-21.2c-7.4-6.6-15.3-12.5-23.4-17.5c-1.7-1.1-2.9-2.8-3.1-4.8l0,0
		c-0.4-3.7,3.5-6.2,6.7-4.4c9.2,5.3,18.1,11.8,26.5,19.3c8.4,7.5,15.8,15.5,22.2,24.1C111,300.2,108.9,304.4,105.1,304.4
		L105.1,304.4z M91.7,267.4c-10.9-9.7-22.6-17.8-34.8-24c-1.4-0.7-2.2-2.3-1.9-3.9c0,0,0-0.1,0-0.1c0.7-3.4,4.5-5.2,7.7-3.6
		c12.4,6.1,24.6,14.3,35.7,24.2c11,9.8,20.6,21,28.1,32.6c1.9,2.9,0.6,6.9-2.7,8c0,0-0.1,0-0.1,0c-1.5,0.5-3.2,0-4.1-1.4
		C111.9,287.8,102.6,277.1,91.7,267.4z M103.5,254.1C91,243,77.1,233.9,63,227.3c-2.1-1-3.1-3.5-2.1-5.6c0,0,0-0.1,0-0.1
		c1.4-3.1,5.1-4.5,8.2-3c14.3,7.1,28.4,16.7,41.1,28c12.7,11.3,23.8,24.2,32.5,37.6c1.9,2.9,0.9,6.7-2,8.5c0,0-0.1,0-0.1,0.1
		c-2,1.2-4.6,0.5-5.8-1.5C126.6,277.9,115.9,265.2,103.5,254.1z M60.7,281.3c-1.5-2.5,1.5-5.2,3.8-3.4c3.5,2.7,7,5.5,10.3,8.5
		c3.3,3,6.6,6.1,9.6,9.3c2,2.1-0.4,5.4-3,4.1c-4-1.9-7.9-4.4-11.6-7.8C65.9,288.6,63,285,60.7,281.3z M155.9,281.8
		c-1.9,1.6-4.9,1.2-6.2-1c-9.2-14.3-21-27.9-34.4-39.9c-13.5-12-28.4-22.1-43.6-29.6c-2.3-1.1-3.1-4-1.7-6.1c0-0.1,0.1-0.1,0.1-0.2
		c4.6-7,13.7-9.3,21.1-5.4c13.1,6.9,25.8,15.8,37.5,26.2c11.7,10.4,22,22,30.3,34.2c4.7,6.9,3.4,16.2-2.9,21.6
		C156,281.7,156,281.7,155.9,281.8z M248.5,179.7c-1.3,1.4-3.5,1.2-4.5-0.4c-9.4-15.2-21.7-29.8-36-42.5
		c-14.3-12.8-30.3-23.3-46.5-30.9c-1.7-0.8-2.2-2.9-1-4.4c0-0.1,0.1-0.1,0.1-0.2c6.2-7.6,16.9-9.8,25.5-5.1
		c12.4,6.7,24.5,15.3,35.6,25.1c11,9.8,20.9,20.8,29,32.3c5.5,7.7,4.8,18.3-1.6,25.3C248.9,179.2,248.7,179.5,248.5,179.7z"/>
	<g>
		<path class="st149" d="M212.7,263.6c-1.2,0-2.5-0.6-3.2-1.7l-4.4-6.6c-1.2-1.8-0.7-4.2,1.1-5.3c1.8-1.2,4.2-0.7,5.3,1.1l4.4,6.6
			c1.2,1.8,0.7,4.2-1.1,5.3C214.1,263.4,213.4,263.6,212.7,263.6z"/>
		<path class="st149" d="M92.4,153.7c-0.6,0-1.2-0.1-1.7-0.4l-7.1-3.6c-1.9-1-2.7-3.3-1.7-5.2c1-1.9,3.3-2.7,5.2-1.7l7.1,3.6
			c1.9,1,2.7,3.3,1.7,5.2C95.2,153,93.8,153.7,92.4,153.7z"/>
		<path class="st149" d="M249.8,221.8c-1.2,0-2.5-0.6-3.2-1.7l-4.3-6.6c-1.2-1.8-0.7-4.2,1.1-5.3s4.2-0.7,5.3,1.1l4.3,6.6
			c1.2,1.8,0.7,4.2-1.1,5.3C251.3,221.6,250.5,221.8,249.8,221.8z"/>
		<path class="st149" d="M129.6,112c-0.6,0-1.2-0.1-1.7-0.4l-7.2-3.6c-1.9-1-2.7-3.3-1.7-5.2c1-1.9,3.3-2.7,5.2-1.7l7.2,3.6
			c1.9,1,2.7,3.3,1.7,5.2C132.4,111.2,131,112,129.6,112z"/>
		<path class="st149" d="M175.2,305.7c-1.2,0-2.5-0.6-3.2-1.7l-4.9-7.4c-1.2-1.8-0.7-4.2,1.1-5.3c1.8-1.2,4.2-0.7,5.3,1.1l4.9,7.4
			c1.2,1.8,0.7,4.2-1.1,5.3C176.6,305.5,175.9,305.7,175.2,305.7z"/>
		<path class="st149" d="M55.8,196.3c-0.6,0-1.2-0.1-1.7-0.4l-8-4.1c-1.9-1-2.7-3.3-1.7-5.2c1-1.9,3.3-2.7,5.2-1.7l8,4.1
			c1.9,1,2.7,3.3,1.7,5.2C58.6,195.5,57.2,196.3,55.8,196.3z"/>
		<path class="st149" d="M130.9,331.5c-1.5,0-2.9-0.8-3.5-2.2l-3.8-8.3c-0.9-1.9,0-4.2,1.9-5.1c1.9-0.9,4.2,0,5.1,1.9l3.8,8.3
			c0.9,1.9,0,4.2-1.9,5.1C131.9,331.4,131.4,331.5,130.9,331.5z"/>
		<path class="st149" d="M36,242.1c-0.4,0-0.8-0.1-1.2-0.2l-8.7-2.8c-2-0.7-3.1-2.8-2.5-4.8c0.7-2,2.8-3.1,4.8-2.5l8.7,2.8
			c2,0.7,3.1,2.8,2.5,4.8C39.1,241,37.6,242.1,36,242.1z"/>
		<path class="st149" d="M171.5,70.9c-1.1,0-2.3-0.5-3-1.5l-5.8-7.5c-1.3-1.7-1-4.1,0.7-5.4c1.7-1.3,4.1-1,5.4,0.7l5.8,7.5
			c1.3,1.7,1,4.1-0.7,5.4C173.2,70.6,172.4,70.9,171.5,70.9z"/>
		<path class="st149" d="M289.6,173.8c-0.7,0-1.4-0.2-2-0.6l-9.5-5.8c-1.8-1.1-2.4-3.5-1.3-5.3c1.1-1.8,3.5-2.4,5.3-1.3l9.5,5.8
			c1.8,1.1,2.4,3.5,1.3,5.3C292.1,173.1,290.9,173.8,289.6,173.8z"/>
		<path class="st149" d="M206.5,40.6c-0.4,0-0.9-0.1-1.3-0.2l-5.6-2c-2-0.7-3-2.9-2.3-4.9s2.9-3,4.9-2.3l5.6,2c2,0.7,3,2.9,2.3,4.9
			C209.6,39.6,208.1,40.6,206.5,40.6z"/>
		<path class="st149" d="M241,50.1c-0.3,0-0.5,0-0.8-0.1l-5-1.1c-2.1-0.4-3.4-2.5-3-4.6c0.4-2.1,2.5-3.4,4.6-3l5,1.1
			c2.1,0.4,3.4,2.5,3,4.6C244.4,48.9,242.8,50.1,241,50.1z"/>
		<path class="st149" d="M251.7,74c-1.9,0-3.6-1.5-3.8-3.4l-1.4-13.5c-0.2-2.1,1.3-4,3.4-4.2c2.1-0.2,4,1.3,4.2,3.4l1.4,13.5
			c0.2,2.1-1.3,4-3.4,4.2C252,74,251.9,74,251.7,74z"/>
		
			<ellipse transform="matrix(0.6651 -0.7468 0.7468 0.6651 42.6503 179.0507)" class="st149" cx="220.9" cy="42" rx="3.8" ry="3.8"/>
		<path class="st149" d="M309.3,135.1c-1.4,0-2.8-0.8-3.4-2.1l-2.6-5.3c-0.9-1.9-0.2-4.2,1.7-5.2c1.9-0.9,4.2-0.2,5.2,1.7l2.6,5.3
			c0.9,1.9,0.2,4.2-1.7,5.2C310.5,135,309.9,135.1,309.3,135.1z"/>
		<path class="st149" d="M294.8,101.4c-1.6,0-3.1-1-3.6-2.6l-1.6-4.8c-0.7-2,0.4-4.2,2.4-4.9c2-0.7,4.2,0.4,4.9,2.4l1.6,4.8
			c0.7,2-0.4,4.2-2.4,4.9C295.7,101.4,295.2,101.4,294.8,101.4z"/>
		<path class="st149" d="M268.2,88.7c-2.1,0-3.8-1.7-3.8-3.8c0-2.1,1.7-3.9,3.8-3.9l13.5-0.1c2.1,0,3.9,1.7,3.9,3.8
			c0,2.1-1.7,3.9-3.8,3.9L268.2,88.7C268.2,88.7,268.2,88.7,268.2,88.7z"/>
		
			<ellipse transform="matrix(0.6651 -0.7468 0.7468 0.6651 16.6119 261.4558)" class="st149" cx="299.8" cy="112.2" rx="3.8" ry="3.8"/>
		<path class="st149" d="M49.6,318c-0.9,0-1.8-0.3-2.6-1c-1.6-1.4-1.7-3.8-0.3-5.4l7.3-8.2c1.4-1.6,3.8-1.7,5.4-0.3
			c1.6,1.4,1.7,3.8,0.3,5.4l-7.3,8.2C51.7,317.5,50.7,318,49.6,318z"/>
	</g>
	
		<ellipse transform="matrix(0.6931 -0.7208 0.7208 0.6931 -22.3211 171.4632)" class="st150" cx="190.2" cy="111.9" rx="3.6" ry="3.6"/>
	
		<ellipse transform="matrix(0.6931 -0.7208 0.7208 0.6931 -42.3999 163.6288)" class="st150" cx="171" cy="131.6" rx="3.6" ry="3.6"/>
	
		<ellipse transform="matrix(0.6931 -0.7208 0.7208 0.6931 -62.2629 156.0765)" class="st150" cx="152.2" cy="151.2" rx="3.6" ry="3.6"/>
	
		<ellipse transform="matrix(0.6931 -0.7208 0.7208 0.6931 -82.8491 148.2493)" class="st150" cx="132.7" cy="171.4" rx="3.6" ry="3.6"/>
	
		<ellipse transform="matrix(0.6931 -0.7208 0.7208 0.6931 -103.079 140.5574)" class="st150" cx="113.5" cy="191.3" rx="3.6" ry="3.6"/>
	<path class="st149" d="M339.9,422.8c-1.8,0.1-3.5-1-4-2.9l-2-7.7c-0.5-2.1,0.7-4.2,2.8-4.7c2.1-0.5,4.2,0.7,4.7,2.8l2,7.7
		c0.5,2.1-0.7,4.2-2.8,4.7C340.3,422.7,340.1,422.8,339.9,422.8z"/>
	<path class="st149" d="M261.3,279.7c-1.1,0.1-2.2-0.3-3.1-1.1l-5.3-5.4c-1.5-1.5-1.5-4,0.1-5.4c1.5-1.5,4-1.5,5.4,0.1l5.3,5.4
		c1.5,1.5,1.5,4-0.1,5.4C263,279.3,262.2,279.6,261.3,279.7z"/>
	<path class="st149" d="M388.6,395.2c-1.8,0.1-3.5-1-4-2.9l-2-7.6c-0.5-2.1,0.7-4.2,2.8-4.7c2.1-0.5,4.2,0.7,4.7,2.8l2,7.6
		c0.5,2.1-0.7,4.2-2.8,4.7C389,395.2,388.8,395.2,388.6,395.2z"/>
	<path class="st149" d="M310.3,252.5c-1.1,0.1-2.2-0.3-3.1-1.1l-5.6-5.7c-1.5-1.5-1.5-4,0.1-5.4c1.5-1.5,4-1.5,5.4,0.1l5.6,5.7
		c1.5,1.5,1.5,4-0.1,5.4C312,252.1,311.2,252.4,310.3,252.5z"/>
	<path class="st149" d="M290.8,450.5c-1.8,0.1-3.5-1-4-2.9l-2.3-8.7c-0.5-2.1,0.7-4.2,2.8-4.7c2.1-0.5,4.2,0.7,4.7,2.8l2.3,8.7
		c0.5,2.1-0.7,4.2-2.8,4.7C291.2,450.5,291,450.5,290.8,450.5z"/>
	<path class="st147" d="M213.2,308.5c-1.1,0.1-2.2-0.3-3.1-1.1l-6.3-6.4c-1.5-1.5-1.5-4,0.1-5.4c1.5-1.5,4-1.5,5.4,0.1l6.3,6.4
		c1.5,1.5,1.5,4-0.1,5.4C214.9,308,214.1,308.4,213.2,308.5z"/>
	<path class="st149" d="M240.5,460.6c-2.1,0.2-3.9-1.4-4.1-3.5l-0.9-9.1c-0.2-2.1,1.3-4,3.4-4.2c0,0,0.1,0,0.1,0
		c2.1-0.2,3.9,1.4,4.1,3.5l0.9,9.1C244.3,458.5,242.7,460.4,240.5,460.6C240.6,460.6,240.6,460.6,240.5,460.6z"/>
	<path class="st149" d="M179.4,345.1c-0.9,0.1-1.8-0.2-2.6-0.8l-7.1-5.3c-1.7-1.3-2-3.7-0.8-5.4c1.3-1.7,3.7-2,5.4-0.8l7.1,5.3
		c1.7,1.3,2,3.7,0.8,5.4C181.5,344.5,180.4,345,179.4,345.1z"/>
	<path class="st149" d="M363.3,227.3c-1.7,0.1-3.3-0.9-3.9-2.6l-3.1-9c-0.7-2,0.4-4.2,2.4-4.9c2-0.7,4.2,0.4,4.9,2.4l3.1,9
		c0.7,2-0.4,4.2-2.4,4.9C363.9,227.2,363.6,227.2,363.3,227.3z"/>
	<path class="st149" d="M441.7,362.7c-1.2,0.1-2.4-0.4-3.3-1.4l-6.1-7.4c-1.4-1.6-1.1-4.1,0.5-5.4c1.6-1.4,4.1-1.1,5.4,0.5l6.1,7.4
		c1.4,1.6,1.1,4.1-0.5,5.4C443.2,362.3,442.5,362.6,441.7,362.7z"/>
	<path class="st151" d="M408.2,354.2c30.1-17,40.7-55.2,23.7-85.3c-17-30.1-55.2-40.7-85.3-23.7l-112.6,63.6
		c-36,20.3-63.9,60.5-43.6,96.5s69.1,32.8,105.1,12.5L408.2,354.2z"/>
	<path class="st147" d="M435.3,267c-8.7-15.5-22.9-26.6-40-31.3c-17.1-4.8-35-2.6-50.5,6.2l-112.6,63.6
		c-19.3,10.9-35.5,26.9-44.4,43.9c-10.5,20-10.7,40-0.6,57.8c10.1,17.8,27.3,27.9,49.8,29.3c4,0.2,8.1,0.2,12.3-0.1
		c15.9-1.3,32.9-6.6,48.2-15.2l112.6-63.6c15.5-8.7,26.6-22.9,31.3-40C446.2,300.4,444,282.4,435.3,267z M428.6,270.8
		c4.9,8.7,7.5,18.4,7.6,28.1c0,3-4.2,3.8-5.3,1c-3.3-8.1-7.1-16.1-11.5-23.9c-4.4-7.8-9.3-15.3-14.5-22.2c-1.8-2.4,1.1-5.6,3.6-4
		C416.8,254.9,423.7,262,428.6,270.8z M368.2,304.9c7.7,13.6,13.7,28,17.6,42.3c2.1,7.7-1.2,15.9-8.2,19.9l0,0
		c-2.9,1.6-6.6,0.1-7.3-3.1c-4.1-16.5-10.8-33.3-19.7-49.1c-8.9-15.8-19.8-30.2-31.8-42.2c-2.3-2.3-1.8-6.3,1.1-7.9l0,0
		c7-3.9,15.7-2.6,21.2,3.2C351.3,278.7,360.5,291.3,368.2,304.9z M271.1,359.7c7.4,13.1,13.2,26.8,17.2,40.6c2.6,9-2,18.4-10.8,21.7
		l-0.2,0.1c-1.6,0.6-3.4-0.4-3.8-2c-4-16.9-10.9-34.2-20-50.3c-9.1-16.1-20.3-30.8-32.7-43c-1.3-1.3-1.2-3.4,0.3-4.5l0,0
		c7.3-5.8,17.8-4.9,24.1,2C254.9,334.6,263.7,346.6,271.1,359.7z M277.8,355.9c-9-15.9-19.9-30.3-32-42.4c-2.2-2.2-1.8-6,1-7.5l0,0
		c7.2-4.1,16.2-2.7,21.8,3.3c10.1,10.7,19.2,23.1,26.8,36.7c7.6,13.5,13.6,27.7,17.5,41.9c2.2,7.9-1.2,16.4-8.4,20.4l0,0
		c-2.7,1.6-6.2,0-6.9-3C293.5,388.7,286.7,371.8,277.8,355.9z M302.1,342.2c-9-15.9-19.9-30.3-32-42.4c-2.2-2.2-1.8-6,1-7.5l0,0
		c7.2-4.1,16.2-2.7,21.8,3.3c10.1,10.7,19.2,23.1,26.8,36.7c7.6,13.5,13.6,27.7,17.5,41.9c2.2,7.9-1.2,16.4-8.4,20.4v0
		c-2.7,1.6-6.2,0-6.9-3C317.8,374.9,311,358.1,302.1,342.2z M326.3,328.5c-8.9-15.8-19.8-30.2-31.8-42.2c-2.3-2.3-1.8-6.3,1.1-7.9
		l0,0c7-3.9,15.7-2.6,21.2,3.2c10.2,10.8,19.4,23.3,27.1,36.9c7.7,13.6,13.7,28,17.6,42.3c2.1,7.7-1.2,15.9-8.2,19.9l0,0
		c-2.9,1.6-6.6,0.1-7.3-3.1C342,361,335.2,344.3,326.3,328.5z M207.2,335c2.9-3.2,7.9-3.3,10.9-0.2c10.8,11.1,20.6,24.3,28.6,38.6
		c8.1,14.3,14.3,29.4,18.2,44.4c1.1,4.2-1.5,8.5-5.8,9.3c-0.1,0-0.1,0-0.2,0c-1.4,0.3-2.8-0.7-3.1-2.1c-3.3-15.7-9.5-31.7-17.9-46.7
		c-8.5-15-19-28.5-30.7-39.5C206.2,337.9,206.2,336.2,207.2,335C207.2,335.1,207.2,335.1,207.2,335z M215.9,390.9
		c5.2,9.2,9.4,18.7,12.6,28.2c1.4,4.2-2.6,8.1-6.8,6.8c0,0-0.1,0-0.1,0c-0.8-0.3-1.4-0.9-1.7-1.7c-3.3-9.6-7.6-19.2-12.8-28.3
		c-5.2-9.2-11.1-17.8-17.7-25.6c-0.5-0.6-0.8-1.5-0.6-2.3c0,0,0-0.1,0-0.1c1-4.3,6.5-5.7,9.3-2.3
		C204.8,373.1,210.7,381.7,215.9,390.9z M193.9,403.3c-2.6-4.7-4.3-9.3-5.3-13.7c-0.6-2.6,2.9-4.1,4.5-1.9c2.6,3.8,5.1,7.8,7.4,11.9
		c2.3,4.1,4.4,8.3,6.4,12.5c1.1,2.4-2,4.7-3.9,2.8C199.6,411.8,196.5,408,193.9,403.3z M241.4,428.8c-1.2,0-2.2-0.8-2.5-2
		c-3.5-13.5-9-26.8-16.3-39.7c-7.3-12.9-15.9-24.5-25.6-34.4c-0.8-0.9-1-2.2-0.4-3.2c0,0,0-0.1,0.1-0.1c2-3.3,6.5-3.9,9.2-1.2
		c9.7,9.7,18.4,21.3,25.6,34c7.2,12.7,12.6,26.2,15.9,39.4C248.2,425.3,245.4,428.9,241.4,428.8
		C241.5,428.8,241.5,428.8,241.4,428.8z M345.7,249.7c6-3.5,13.6-2.4,18.4,2.5c10.9,11.2,20.7,24.4,28.8,38.7
		c8.1,14.3,14.2,29.4,18.2,44.3c1.7,6.5-1.1,13.3-6.8,16.8c-0.6,0.3-1.1,0.7-1.7,1c-3.2,1.8-7.2,0.1-8.1-3.4
		c-4.1-16.3-10.7-32.9-19.5-48.5c-8.9-15.7-19.7-30-31.7-42c-2.5-2.5-2-6.8,1.1-8.6C344.8,250.2,345.3,249.9,345.7,249.7z
		 M376.7,240.5c4.3,0,8.4,1.7,11.2,4.9c9.3,10.2,17.6,21.7,24.7,34.4c7.1,12.5,12.6,25.4,16.5,38.4c1.2,4,0.6,8.4-1.5,12
		c-0.6,1-1.2,2-1.9,2.9c-2.1,3-6.7,2.2-7.6-1.3c-4.1-15.1-10.4-30.3-18.5-44.6c-8.2-14.5-18.1-27.9-29-39.3
		c-2.5-2.6-0.8-6.9,2.7-7.2C374.4,240.6,375.5,240.5,376.7,240.5z"/>
	<path class="st149" d="M406.1,209.8c-0.9,0.1-1.9-0.2-2.7-0.8l-4.6-3.7c-1.7-1.3-1.9-3.8-0.6-5.4c1.3-1.7,3.8-1.9,5.4-0.6l4.6,3.7
		c1.7,1.3,1.9,3.8,0.6,5.4C408.1,209.2,407.2,209.7,406.1,209.8z"/>
	<path class="st149" d="M435.7,230c-0.8,0.1-1.6-0.1-2.3-0.5l-4.5-2.7c-1.8-1.1-2.4-3.5-1.3-5.3c1.1-1.8,3.5-2.4,5.3-1.3l4.5,2.7
		c1.8,1.1,2.4,3.5,1.3,5.3C438,229.2,436.9,229.9,435.7,230z"/>
	<path class="st147" d="M438.1,256.1c-0.4,0-0.8,0-1.2-0.1c-2.1-0.5-3.4-2.5-2.9-4.6l3-13.2c0.5-2.1,2.5-3.4,4.6-2.9
		c2.1,0.5,3.4,2.5,2.9,4.6l-3,13.2C441.2,254.8,439.8,255.9,438.1,256.1z"/>
	
		<ellipse transform="matrix(0.8708 -0.4917 0.4917 0.8708 -52.006 233.2962)" class="st149" cx="417.8" cy="215.6" rx="3.8" ry="3.8"/>
	<path class="st149" d="M213.2,308.5c-1.1,0.1-2.2-0.3-3.1-1.1l-6.3-6.4c-1.5-1.5-1.5-4,0.1-5.4c1.5-1.5,4-1.5,5.4,0.1l6.3,6.4
		c1.5,1.5,1.5,4-0.1,5.4C214.9,308,214.1,308.4,213.2,308.5z"/>
	<path class="st149" d="M438.1,256.1c-0.4,0-0.8,0-1.2-0.1c-2.1-0.5-3.4-2.5-2.9-4.6l3-13.2c0.5-2.1,2.5-3.4,4.6-2.9
		c2.1,0.5,3.4,2.5,2.9,4.6l-3,13.2C441.2,254.8,439.8,255.9,438.1,256.1z"/>
	<path class="st149" d="M472.9,332.5c-2,0.2-3.8-1.3-4.1-3.3l-0.8-5.9c-0.3-2.1,1.2-4,3.3-4.3c2.1-0.3,4,1.2,4.3,3.3l0.8,5.9
		c0.3,2.1-1.2,4-3.3,4.3C473,332.5,472.9,332.5,472.9,332.5z"/>
	<path class="st149" d="M470.1,295.8c-0.1,0-0.2,0-0.3,0c-2.1,0-3.8-1.7-3.8-3.9l0-5c0-2.1,1.7-3.8,3.9-3.8c2.1,0,3.8,1.7,3.8,3.9
		l0,5C473.6,294,472,295.7,470.1,295.8z"/>
	<path class="st149" d="M461.8,279.6c-0.5,0-1,0-1.5-0.2l-12.8-4.3c-2-0.7-3.1-2.8-2.4-4.9c0.7-2,2.8-3.1,4.9-2.4l12.8,4.3
		c2,0.7,3.1,2.8,2.4,4.9C464.7,278.5,463.3,279.4,461.8,279.6z"/>
	
		<ellipse transform="matrix(0.8708 -0.4917 0.4917 0.8708 -90.5074 270.7082)" class="st149" cx="469.7" cy="307.5" rx="3.8" ry="3.8"/>
	<path class="st149" d="M168,421.6c-1.4,0.1-2.9-0.6-3.7-1.9c-1-1.9-0.4-4.2,1.5-5.2l9.6-5.4c1.9-1,4.2-0.4,5.2,1.5
		c1,1.9,0.4,4.2-1.5,5.2l-9.6,5.4C169.1,421.4,168.6,421.6,168,421.6z"/>
	
		<ellipse transform="matrix(0.8889 -0.4581 0.4581 0.8889 -83.8657 197.9147)" class="st149" cx="366.1" cy="271.9" rx="3.8" ry="3.8"/>
	
		<ellipse transform="matrix(0.8889 -0.4581 0.4581 0.8889 -92.2703 188.0387)" class="st149" cx="341.6" cy="284.3" rx="3.8" ry="3.8"/>
	
		<ellipse transform="matrix(0.8889 -0.4581 0.4581 0.8889 -100.641 178.3738)" class="st149" cx="317.4" cy="296.7" rx="3.8" ry="3.8"/>
	
		<ellipse transform="matrix(0.8889 -0.4581 0.4581 0.8889 -109.3164 168.357)" class="st149" cx="292.4" cy="309.6" rx="3.6" ry="3.6"/>
	
		<ellipse transform="matrix(0.8889 -0.4581 0.4581 0.8889 -117.8418 158.5135)" class="st149" cx="267.9" cy="322.2" rx="3.6" ry="3.6"/>
</g>
</svg>
