<svg viewBox="0 0 595 274" fill="none" stroke-linecap="square" stroke-miterlimit="10" xmlns="http://www.w3.org/2000/svg">
  <clipPath id="a">
    <path d="M0 0h595v274H0V0z"/>
  </clipPath>
  <g clip-path="url(#a)">
    <path fill="none" d="M0 0h595v274H0z"/>
    <path fill="none" d="M10.8 62.9h573.4V211H10.8z"/>
    <path fill="#f4f4f4" d="M56.6 141.2q-7.8 1-12.8 1-1.8 0-1.8-1.3 0-3 4.2-6.5 4.2-3.4 13.7-6 4.3-15.1 9.7-27.8-13.3.7-21.8 8.8l-3.5 3.3Q43 114 42 114q-1 0-2-1.5-.9-1.7-.9-4.3.1-10.3 13.9-16.7 13.7-6.4 33.8-6.2l40 .6q3.6 0 3.6 2.8 0 .8-1 2.9-1 2-1.9 4.4-1.7 4.8-7.5 4.8H87.8q-1.1 7.5-6.4 24.7l24.4.4q2.1 0 2.1 2.5 0 .9-.7 2.9l-1.2 4q-1 4.5-4.5 4.5l-20.3-1h-1.7l-1.9.2q-6.9 25.4-6.9 40.3 0 7.8-15.3 7.8-3.4 0-4-3.4-.6-3.4-.6-9 0-12 5.8-33.4zm137 12.3q2.4 0 2.4 6.2 0 3.3-2.8 8-2.8 4.8-7.2 8.7-4.5 4-10 6.5-5.4 2.5-10.6 2.5-7.1 0-9.5-12.4-3.5 5.7-9 9.4-5.7 3.7-15 3.7-9.5 0-15.2-5.9-5.7-5.9-5.6-14.3 0-22.6 15-35.7 6.5-5.5 12-7.2 5.5-1.7 11.7-1.7 6 0 10 2.1 1.8-3.9 4.2-3.9 4.7 0 8.9 4.1 4.2 4 4.2 7.7-1.9 4.4-5.5 10.5-1 6.1-1 17.2 0 11 2.8 11 3.4 0 16.8-13.8 2.4-2.7 3.4-2.7zm-62.9 8q0 10.3 7.6 10.3 8.1-.1 13.5-8.6 1.8-3 3-7.3 0-14.9 2.7-25.6-10.8 2.2-18.8 10.4-8 8.3-8 20.8zm78.1 1.1l.8 16.3q0 3.2-3.3 5.7-3.3 2.6-9 2.6-3.4 0-4.7-3.5-1.2-3.5-1.2-10.2 0-14 1.4-21.9 1.4-8 5.5-16-6.1-6-6.1-10.2 0-9 9.6-9 4.9 0 8.6 5.3 2.7 3.6 3.9 8.4 1.9.6 4.7.6 3.8 0 8.9-2.5l3.5-1.7q1.6-.8 2.8-.8 3.8 0 7.7 11.3-1.2 5.2-2.6 10l-3.3 11.6q-1.8 6.8-1.9 9.1 0 2.4 1.4 2.4 2 0 5-2.6 2.9-2.5 5.8-5.5l5.4-5.5q2.5-2.6 3.4-2.6 1.9 0 1.9 4.6 0 9.2-8.1 18.1-8 9-18.5 8.8-6.1 0-9.2-5-3-4.9-3.2-12 0-14 6.3-26.5-3 1.3-6.6 1.3-3.7 0-5.3-.3L210 153q-1.2 5.1-1.2 9.5zm114.6-18.1q0-4.4-5.1-4.4-3.5 0-7.7 6.7-4.3 6.7-6.2 14.5v.2q0 4.6 1.4 9.4 1.4 4.8 1.4 6.6 0 4.6-11.3 9-1.7.7-3 .7-3.4 0-4.7-3.5-1.2-3.5-1.2-9.4 0-6 .3-11.2l.7-9.7.6-8q.4-3.3.4-5.5 0-4.5-4.2-4.5-4.1 0-9.6 9.7-5.4 9.6-5.4 15.3 0 5.7 1.4 10.5t1.4 6.6q0 4.6-11.4 9-1.7.7-3 .7-3.4 0-4.6-3.5-1.3-3.5-1.3-10.7 0-19 1.5-27.3 2-12.4 9-23.5 2.4-3.7 5.2-3.7 4.4 0 8.2 7.2 1 1.8 1.6 3.5 6.4-8 15-8 5.8 0 10.3 3.7 4.5 3.8 4.5 9.6v1.4q8.2-10 19.9-10 7.2 0 11 3.6 3.7 3.8 3.7 9.2 0 5.5-.8 10-.8 4.3-1.8 8.2l-1.8 6.8q-.8 3-.8 4.7 0 1.7 1 1.7 2 0 5-2.6 2.9-2.5 5.8-5.5l5.4-5.5q2.5-2.6 3.4-2.6 1.9 0 1.9 4.6 0 9.3-9.4 18.1t-20 8.8q-9.7 0-9.7-17.5 0-4.4 1.5-12 1.5-7.8 1.5-11.4zm79.8-6.3q-12.9 0-12.6-6.5 0-6.2 12.4-6.2 2.9 0 5.6.7 4.4-4.4 4.4-13.3 0-15.5-20.7-15.5-10.8 0-20.5 4.7l-6.5 3.2q-2.9 1.4-5.3 1.4t-2.4-1.4q0-1.8 2.7-5.1 2.7-3.5 7.5-7 12.2-8.5 27.8-8.6 20.4 0 30 8.1 8.3 6.8 8.3 18.6 0 13.6-13.3 20.8 12.8 7.3 15.2 18 .8 3.7.8 9.8 0 6.2-3.4 11.6-3.3 5.5-8.9 9.2-11.2 7.2-28.7 7.2-12.4 0-27.6-5.6-10.1-3.7-15-8.9-2.3-2.5-2.3-5 .1-2.6 2.6-2.6t9.4 1.7q0-10.5 2.4-21.4 4.1-19 9.6-29.9 5.9-12 12.1-12 1.8 0 1.8 6t-1.2 12.3q-1.1 6.2-2.4 12.3-1.2 6-2.4 11-1.1 5-1.1 7l-1.3 20.2q7.8 2.2 13.3 2.2 5.5 0 9.9-2 11-4.6 11-16.2 0-7-1.3-11.5t-4.8-8q-3 .7-5 .7zm97.9 35.5Q490.6 186 475.8 186q-14.7 0-22-7.6-7.4-7.5-7.2-18.7-.2-15.9 10-27.3 10-11.5 26.5-11.5 7.5 0 12 1.9 7.9 3.2 7.9 6 0 2.1-11 2.2-11 0-18.4 7.6-7.4 7.5-7.4 19 0 6 3.5 10 3.5 4.1 10 4.1t10.7-2.6q-9.4-6.5-9.4-18.6-.2-6.4 4.6-11.7 4.7-5.2 12-5.3 7.5 0 10.7 4 3.2 4.2 3.2 10.7 0 6.4-3 13.6h.7q5.9 0 10.1-4l2.8-2.9q1.1-1.2 2.3-1.2 1.9 0 1.9 4.4 0 8.1-4.8 12.2-4.8 4-10.6 4t-9.8-.7zm-1.2-15.5q2.3-4.8 2.3-9.3 0-4.6-3-4.6-1.2 0-2 1.8-.8 1.7-.8 3.3 0 5.3 3.5 8.8zm25.7 19.5q-1.6-3.5-2.2-8.2-.7-4.8-.7-13.3t3.2-23h-6q-1.6 0-1.6-1.4 0-3.2.6-5.2.6-2.1 2.9-4.8h3.1l4-.1q6.5-20.5 13.1-20.5 5.4 0 7.5 6.7l1.2 4-5.5 9.6 11.8.3q2.5 0 2.7.5.2.4.2 1.4 0 2.4-1.2 6-1 3.6-2.5 3.5l-13.4-.7q-2.8 16.2-2.8 27 0 10.6 3 10.6 2.6 0 9.3-4.2 6.6-4.2 9.6-8 3-4 4.8-4 1.9 0 1.9 4.6 0 4.5-3.2 9.2-3.2 4.8-8.1 8.7-4.9 4-10.8 6.5-6 2.5-10.3 2.5-4.5 0-6.8-2-2.3-2.1-3.8-5.7z"/>
    <path fill="#f4f4f4" d="M10.3 62.2h574.4H10.3zm0 149.5h574.4H10.3z" fill-rule="evenodd"/>
    <path stroke="#f4f4f4" stroke-width="16" stroke-linejoin="round" stroke-linecap="butt" d="M10.3 62.2h574.4H10.3zm0 149.5h574.4H10.3z"/>
    <path fill="#f4f4f4" d="M495.8 53.5V49L297.5 14.2 99.2 49v4.5z" fill-rule="evenodd"/>
    <path stroke="#f4f4f4" stroke-width="24" stroke-linejoin="round" stroke-linecap="butt" d="M495.8 53.5V49L297.5 14.2 99.2 49v4.5z"/>
    <path fill="#f4f4f4" d="M496 221.5v4.4l-198.5 33.7L99 226v-4.4z" fill-rule="evenodd"/>
    <path stroke="#f4f4f4" stroke-width="24" stroke-linejoin="round" stroke-linecap="butt" d="M496 221.5v4.4l-198.5 33.7L99 226v-4.4z"/>
  </g>
</svg>
