<?xml version="1.0" encoding="utf-8"?>
<!-- Generator: Adobe Illustrator 24.1.0, SVG Export Plug-In . SVG Version: 6.00 Build 0)  -->
<svg version="1.1" id="Layer_1" xmlns="http://www.w3.org/2000/svg" xmlns:xlink="http://www.w3.org/1999/xlink" x="0px" y="0px"
	 viewBox="0 0 500 500" style="enable-background:new 0 0 500 500;" xml:space="preserve">
<style type="text/css">
	.st0{fill:none;stroke:#ED1C24;stroke-width:11;stroke-linecap:round;stroke-linejoin:round;stroke-miterlimit:10;}
	.st1{fill:none;stroke:#013F09;stroke-width:8;stroke-linecap:round;stroke-linejoin:round;stroke-miterlimit:10;}
	.st2{fill:#D9E021;stroke:#013F09;stroke-width:7;stroke-linecap:round;stroke-linejoin:round;stroke-miterlimit:10;}
	.st3{fill:none;stroke:#233518;stroke-width:7;stroke-linecap:round;stroke-linejoin:round;stroke-miterlimit:10;}
	.st4{fill:#D3E39C;stroke:#233518;stroke-width:7;stroke-linecap:round;stroke-linejoin:round;stroke-miterlimit:10;}
	.st5{fill:none;stroke:#233518;stroke-width:6;stroke-miterlimit:10;}
	.st6{fill:#9EC44F;stroke:#386200;stroke-width:6;stroke-linecap:round;stroke-linejoin:round;stroke-miterlimit:10;}
	.st7{fill:#9EC44F;stroke:#386200;stroke-width:7;stroke-linecap:round;stroke-linejoin:round;stroke-miterlimit:10;}
	.st8{fill:none;stroke:#386200;stroke-width:8;stroke-linecap:round;stroke-linejoin:round;stroke-miterlimit:10;}
	.st9{fill:none;stroke:#9EC44F;stroke-width:2;stroke-linecap:round;stroke-linejoin:round;stroke-miterlimit:10;}
	.st10{fill:#9EC44F;stroke:#386200;stroke-linecap:round;stroke-linejoin:round;stroke-miterlimit:10;}
	.st11{fill:#998004;}
	.st12{fill:#E5C403;}
	.st13{fill:none;stroke:#998004;stroke-width:8;stroke-linecap:round;stroke-linejoin:round;stroke-miterlimit:10;}
	.st14{fill:none;stroke:#7CA440;stroke-width:2;stroke-linecap:round;stroke-linejoin:round;stroke-miterlimit:10;}
	.st15{fill:none;stroke:#528B16;stroke-linecap:round;stroke-miterlimit:10;}
	.st16{fill:#528B16;}
	.st17{fill:#7CAB09;}
	.st18{fill:#4E670C;}
	.st19{fill:none;stroke:#C0CC8F;stroke-linecap:round;stroke-miterlimit:10;}
	.st20{fill:#7D8AD7;stroke:#4648A6;stroke-width:3;stroke-miterlimit:10;}
	.st21{opacity:0.6;fill:none;stroke:#CDD6FF;stroke-width:3;stroke-miterlimit:10;}
	.st22{opacity:0.4;fill:none;stroke:#CDD6FF;stroke-width:3;stroke-miterlimit:10;}
	.st23{opacity:0.2;fill:none;stroke:#CDD6FF;stroke-width:3;stroke-miterlimit:10;}
	.st24{fill:#7CAB09;stroke:#76990A;stroke-linecap:round;stroke-miterlimit:10;}
	.st25{fill:none;stroke:#A598D8;stroke-linecap:round;stroke-miterlimit:10;}
	.st26{fill:none;stroke:#2B2A6F;stroke-width:3;stroke-miterlimit:10;}
	.st27{fill:none;stroke:#8A6EDA;stroke-linecap:round;stroke-miterlimit:10;}
	.st28{fill:#E4E5E7;stroke:#2B2A6F;stroke-miterlimit:10;}
	.st29{fill:none;stroke:#C2807D;stroke-linecap:round;stroke-linejoin:round;stroke-miterlimit:10;}
	.st30{fill:#C2807D;stroke:#7C152E;stroke-miterlimit:10;}
	.st31{fill:#E4E5E7;}
	.st32{fill:#A598D8;}
	.st33{fill:#C0CC8F;}
	.st34{fill:#7D8AD7;}
	.st35{fill:#AEB9ED;}
	.st36{fill:#9EA9E5;}
	.st37{fill:#8E9ADD;}
	.st38{fill:#76990A;}
	.st39{fill:#8A6EDA;}
	.st40{fill:#2B2A6F;}
	.st41{fill:#C2807D;}
	.st42{fill:#7C152E;}
	.st43{fill:none;stroke:#34500C;stroke-width:6;stroke-linecap:round;stroke-linejoin:round;stroke-miterlimit:10;}
	.st44{fill:#7E9E5B;stroke:#34500C;stroke-miterlimit:10;}
	.st45{fill:#FE8600;stroke:#F15A24;stroke-width:3;stroke-miterlimit:10;}
	.st46{fill:#FE8600;}
	.st47{fill:none;stroke:#F15A24;stroke-miterlimit:10;}
	.st48{fill:none;stroke:#F15A24;stroke-linecap:round;stroke-miterlimit:10;}
	.st49{opacity:0.8;fill:none;stroke:#F15A24;stroke-width:3;stroke-miterlimit:10;}
	.st50{opacity:0.6;fill:none;stroke:#F15A24;stroke-width:3;stroke-miterlimit:10;}
	.st51{opacity:0.4;fill:none;stroke:#F15A24;stroke-width:3;stroke-miterlimit:10;}
	.st52{opacity:0.2;fill:none;stroke:#F15A24;stroke-width:3;stroke-miterlimit:10;}
	.st53{fill:#F15A24;}
	.st54{fill:#9CAD23;stroke:#34500C;stroke-miterlimit:10;}
	.st55{opacity:0.4;fill:none;stroke:#34500C;stroke-linecap:round;stroke-miterlimit:10;}
	.st56{fill:none;stroke:#9CAD23;stroke-width:2;stroke-linecap:round;stroke-linejoin:round;stroke-miterlimit:10;}
	.st57{fill:none;stroke:#34500C;stroke-linecap:round;stroke-linejoin:round;stroke-miterlimit:10;}
	.st58{fill:none;stroke:#7CAB09;stroke-width:2;stroke-linecap:round;stroke-miterlimit:10;}
	.st59{fill:none;stroke:#7D9959;stroke-linecap:round;stroke-miterlimit:10;}
	.st60{fill:#7CAB09;stroke:#4E670C;stroke-miterlimit:10;}
	.st61{fill:none;stroke:#7CAB09;stroke-linecap:round;stroke-miterlimit:10;}
	.st62{fill:none;stroke:#34500C;stroke-linecap:round;stroke-miterlimit:10;}
	.st63{opacity:0.4;fill:#34500C;}
	.st64{fill:#34500C;}
	.st65{fill:none;stroke:#34500C;stroke-width:8;stroke-linecap:round;stroke-linejoin:round;stroke-miterlimit:10;}
	.st66{fill:none;stroke:#34500C;stroke-width:9;stroke-linecap:round;stroke-linejoin:round;stroke-miterlimit:10;}
	.st67{fill:#7E9E5B;}
	.st68{fill:none;stroke:#34500C;stroke-width:3;stroke-linecap:round;stroke-linejoin:round;stroke-miterlimit:10;}
	.st69{fill:none;stroke:#9DB269;stroke-width:2;stroke-linecap:round;stroke-linejoin:round;stroke-miterlimit:10;}
	.st70{fill:none;stroke:#34500C;stroke-width:5;stroke-linecap:round;stroke-linejoin:round;stroke-miterlimit:10;}
	.st71{fill:none;stroke:#D8DFC4;stroke-linecap:round;stroke-linejoin:round;stroke-miterlimit:10;}
	.st72{fill:none;stroke:#DDB907;stroke-width:6;stroke-linecap:round;stroke-miterlimit:10;}
	.st73{fill:none;stroke:#FFE200;stroke-miterlimit:10;}
	.st74{fill:none;stroke:#EDC107;stroke-miterlimit:10;}
	.st75{fill:none;stroke:#EFAE0C;stroke-miterlimit:10;}
	.st76{fill:none;stroke:#FFF8CE;stroke-linecap:round;stroke-miterlimit:10;}
	.st77{fill:#F46C29;}
	.st78{fill:#F77426;}
	.st79{fill:#F97D25;}
	.st80{fill:#EF4B18;}
	.st81{fill:#F3672A;}
	.st82{fill:#9CAD23;}
	.st83{fill:#7D9959;}
	.st84{fill:#9DB269;}
	.st85{fill:#D8DFC4;}
	.st86{fill:#DDB907;}
	.st87{fill:#FFE200;}
	.st88{fill:#EDC107;}
	.st89{fill:#EFAE0C;}
	.st90{fill:#FFF8CE;}
	.st91{clip-path:url(#SVGID_2_);}
	.st92{clip-path:url(#SVGID_4_);}
	.st93{fill:#998004;stroke:#998004;stroke-width:6;stroke-linejoin:round;stroke-miterlimit:10;}
	.st94{fill:#EEF2FF;stroke:#AFADA7;stroke-miterlimit:10;}
	.st95{fill:#E5C403;stroke:#998004;stroke-miterlimit:10;}
	.st96{opacity:0.4;fill:none;stroke:#7CA440;stroke-miterlimit:10;}
	.st97{opacity:0.3;fill:none;stroke:#7CA440;stroke-miterlimit:10;}
	.st98{opacity:0.2;fill:none;stroke:#7CA440;stroke-miterlimit:10;}
	.st99{opacity:0.1;fill:none;stroke:#7CA440;stroke-miterlimit:10;}
	.st100{fill:none;stroke:#FFFFFF;stroke-linecap:round;stroke-miterlimit:10;}
	.st101{fill:#FFFFFF;}
	.st102{fill:#EEF2FF;}
	.st103{fill:#AFADA7;}
	.st104{fill:none;stroke:#AFADA7;stroke-linecap:round;stroke-miterlimit:10;}
	.st105{fill:#7CA440;}
	.st106{fill:#BEA123;}
	.st107{fill:none;stroke:#FFFFFF;stroke-width:7.709;stroke-linecap:round;stroke-miterlimit:10;}
	.st108{fill:#9EC44F;stroke:#386200;stroke-miterlimit:10;}
	.st109{fill:none;stroke:#90AD49;stroke-miterlimit:10;}
	.st110{fill:#386200;}
	.st111{fill:#EEF2FF;stroke:#386200;stroke-miterlimit:10;}
	.st112{fill:none;stroke:#386200;stroke-width:3;stroke-miterlimit:10;}
	.st113{fill:#9EC44F;}
	.st114{fill:#90AD49;}
	.st115{fill:#D8E6BB;}
	.st116{fill:none;stroke:#000000;stroke-miterlimit:10;}
	.st117{fill:#A6AE3C;}
	.st118{fill:none;stroke:#A6AE3C;stroke-linecap:round;stroke-linejoin:round;stroke-miterlimit:10;}
	.st119{fill:#4E6014;stroke:#A6AE3C;stroke-linecap:round;stroke-linejoin:round;stroke-miterlimit:10;}
	.st120{fill:none;stroke:#70841F;stroke-linecap:round;stroke-linejoin:round;stroke-miterlimit:10;}
	.st121{fill:#D4EA75;stroke:#A6AE3C;stroke-linecap:round;stroke-linejoin:round;stroke-miterlimit:10;}
	.st122{fill:none;stroke:#A6AE3C;stroke-width:2;stroke-linecap:round;stroke-linejoin:round;stroke-miterlimit:10;}
	.st123{fill:#D3E39C;stroke:#A6AE3C;stroke-linecap:round;stroke-linejoin:round;stroke-miterlimit:10;}
	.st124{fill:none;stroke:#646800;stroke-linecap:round;stroke-linejoin:round;stroke-miterlimit:10;}
	.st125{fill:#233518;}
	.st126{fill:#4E6014;}
	.st127{fill:#70841F;}
	.st128{fill:#D4EA75;}
	.st129{fill:#665700;}
	.st130{fill:none;stroke:#9DB269;stroke-linecap:round;stroke-linejoin:round;stroke-miterlimit:10;}
	.st131{fill:none;stroke:#ED1C24;stroke-width:10;stroke-linecap:round;stroke-linejoin:round;stroke-miterlimit:10;}
	.st132{fill:none;stroke:#253A00;stroke-width:3;stroke-linecap:round;stroke-linejoin:round;stroke-miterlimit:10;}
	.st133{fill:none;stroke:#253A00;stroke-width:5;stroke-linecap:round;stroke-linejoin:round;stroke-miterlimit:10;}
	.st134{fill:none;stroke:#253A00;stroke-width:6;stroke-linecap:round;stroke-linejoin:round;stroke-miterlimit:10;}
	.st135{fill:#8FA50E;stroke:#517006;stroke-linecap:round;stroke-linejoin:round;stroke-miterlimit:10;}
	.st136{opacity:0.4;fill:none;stroke:#FFFFFF;stroke-linecap:round;stroke-linejoin:round;stroke-miterlimit:10;}
	.st137{fill:none;stroke:#517006;stroke-width:2;stroke-linecap:round;stroke-linejoin:round;stroke-miterlimit:10;}
	.st138{opacity:0.4;fill:#FFFFFF;}
	.st139{opacity:0.2;}
	.st140{fill:none;stroke:#517006;stroke-linecap:round;stroke-linejoin:round;stroke-miterlimit:10;}
	.st141{opacity:0.3;fill:none;stroke:#93AA30;stroke-linecap:round;stroke-linejoin:round;stroke-miterlimit:10;}
	.st142{opacity:0.3;fill:#93AA30;}
	.st143{fill:#93AA30;stroke:#517006;stroke-linecap:round;stroke-linejoin:round;stroke-miterlimit:10;}
	.st144{fill:none;stroke:#507616;stroke-linecap:round;stroke-linejoin:round;stroke-miterlimit:10;}
	.st145{fill:#507616;}
	.st146{fill:#ED1C24;}
	.st147{fill:#253A00;}
	.st148{fill:#2B4403;}
	.st149{fill:#BFCEAE;}
	.st150{fill:#3C5B0A;}
	.st151{fill:#48660E;}
	.st152{fill:#57752F;}
	.st153{fill:#FB786C;}
	.st154{fill:#2B4403;stroke:#2B4403;stroke-width:8;stroke-miterlimit:10;}
</style>
<g>
	<path class="st146" d="M480.9,136.7c-0.7-15.1-10-28.4-24-34.2C436.9,94,426.5,72,432.8,51.2c6.1-20.1-4.7-41.4-24.5-48.3
		c-19.8-6.9-41.5,3-49.3,22.5c-8.2,20.7-31,31.4-52.1,24.8c-0.5-0.2-1-0.4-1.7-0.6c-14.9-5.3-31.5-1.2-42.1,10.5
		c-10.6,11.7-13.2,28.6-6.6,42.9c8.8,18.8,10,39.9,3.4,59.4c-4.9,14.7-13.8,27.4-25.7,36.9c-5.3,4.2-13.2,0.7-13.5-6
		c-0.5-11.4,1.8-22.8,6.9-33.3c6.6-13.6,4.7-29.8-4.7-41.5s-24.8-17-39.5-13.6c-16.5,3.9-33.1-5.2-38.7-21.2
		c-6.9-19.8-28.2-30.7-48.3-24.6c-20.1,6-31.8,26.9-26.6,47.2c4.3,16.7-5,33.9-21.3,39.4c-0.4,0.1-0.9,0.2-1.5,0.4
		C32,150.3,21,163.4,19.3,179.1c-1.7,15.7,6.1,30.9,19.9,38.5c15,8.3,26.1,21.8,31.2,38.1c5.2,16.6,3.8,34.4-4.1,50
		c-7.9,15.5-5.5,34,5.9,47.1c11.5,13.1,29.5,17.9,46,12.2c0.2-0.1,0.3-0.1,0.5-0.2c16.4-5.2,33.7,2.8,40.4,18.5c0.4,1,0.9,2,1.4,3
		c13.4,30.7,29.7,62.4,49.4,94.3c7.5,12.1,20.4,18.7,33.6,18.6c6.9,0,13.9-1.9,20.2-5.8c6.7-4.1,11.7-9.9,14.8-16.6
		c8.1-13.4,32.9-57.4,54-121.2c7.8-17.7,27.2-28.2,46.5-24.6c14.1,2.6,28.4-2.7,37.4-13.8c9-11.1,11.3-26.2,5.9-39.4
		c-7.5-18.5-8.2-39.1-1.9-57.9c6.8-20.2,20.9-36.8,39.8-47C473.6,165.9,481.6,151.8,480.9,136.7z M237,365.7
		c-0.8-1.8-1.6-3.5-2.4-5.3c-5.5-12.3-3.3-26.9,6.1-36.6c2.6-2.6,5.7-4.9,9.1-6.5c0.5-0.2,0.9-0.5,1.4-0.7c2.1-1.1,4.6,0,5.1,2.3
		c1.3,5.9,1.3,12.1-0.1,18.3c-3.4,10.1-7,19.5-10.5,28.3C244.2,369.4,238.7,369.5,237,365.7z"/>
	<path class="st147" d="M294.3,358.1c-1.1,0-2.2-0.1-3.3-0.5c-6-1.7-9.6-7.9-8.2-14c3.9-16.8,1.5-34.5-7-49.7
		c-8.5-15.3-22.3-26.8-38.9-32.3c-0.5-0.2-0.9-0.3-1.4-0.5c-6.1-1.9-10.4-7.2-11-13.5c-0.6-6.3,2.7-12.3,8.4-15.2
		c25.2-12.9,44.1-34.8,53.1-61.6c8.8-26.2,7.2-54.5-4.6-79.6c-2-4.3-1.2-9.4,2-12.9c3.2-3.5,8.2-4.7,12.6-3.2
		c0.4,0.2,0.9,0.3,1.3,0.5l0.2,0.1c35.1,11.7,73.3-6.1,87-40.4c2.3-5.8,8.9-8.8,14.8-6.7c5.9,2.1,9.2,8.5,7.4,14.5
		c-10.4,34.3,6.7,70.7,39.7,84.5c4.2,1.8,7,5.7,7.2,10.3c0.2,4.5-2.2,8.8-6.2,10.9c-25.1,13.5-43.9,35.6-52.9,62.4
		c-8.4,25-7.5,52.4,2.5,76.9c1.6,4,0.9,8.5-1.8,11.8c-2.7,3.3-7,4.9-11.2,4.1c-16.3-3-33.2,0-47.6,8.3c-14.5,8.4-25.5,21.8-31,37.7
		C303.7,355,299.2,358.1,294.3,358.1z M257.7,245.1c16.2,8.4,29.7,21.4,38.7,37.6c4.2,7.6,7.3,15.7,9.3,24
		c5.6-5.6,12-10.4,18.9-14.5c13.7-8,29.2-12.2,44.9-12.6c-6.4-24.9-5.5-51.3,2.8-75.8c8.7-26,25-48.4,46.8-64.6
		c-20.1-14.4-33.4-35.9-37.6-59.7c-19.2,16.9-44.9,25.6-71,23c6.8,24.9,6.1,51.2-2.2,75.9C299,205.8,281.4,229,257.7,245.1z"/>
	<path class="st147" d="M195.2,380c-4.6,0-9-2.7-10.9-7.2c-5.8-13.8-16.5-24.9-30.2-31.2c-13.7-6.4-29.2-7.4-43.7-2.8
		c-0.4,0.1-0.8,0.3-1.2,0.4c-5.9,2-12.3,0.3-16.4-4.3c-4.1-4.7-4.9-11.2-2.1-16.7c11.2-22.1,13.2-47.2,5.8-70.6
		c-7.2-23-22.9-42.1-44.1-53.8c-4.1-2.3-6.5-6.9-6-11.6c0.5-4.7,3.8-8.6,8.4-10c0.4-0.1,0.8-0.2,1.2-0.3l0.1,0
		c30.5-9.7,48.1-41.6,40.2-72.6c-1.6-6.1,2-12.3,8-14.2c6-1.8,12.4,1.4,14.5,7.4c10.2,29.3,40.6,46,70.8,38.9c4.4-1,9,0.5,11.9,4.1
		c2.8,3.5,3.4,8.4,1.4,12.5c-10.8,22.4-12.7,47.7-5.2,71.2c6.9,22,21.6,40.8,41.2,53c3.6,2.3,5.8,6.3,5.5,10.6
		c-0.2,4.3-2.8,8.1-6.6,10c-12.9,6.2-23.3,16.9-29.1,30.1c-5.9,13.3-6.8,28.2-2.5,42.1c1.8,6-1.3,12.3-7.2,14.5
		C197.9,379.7,196.5,380,195.2,380z M128.2,312.5c12.3-0.1,24.5,2.5,35.9,7.8c6.4,3,12.3,6.7,17.6,11c1.2-6.2,3.1-12.3,5.7-18.2
		c5.6-12.5,14-23.4,24.6-31.8c-17.1-14.6-29.8-33.7-36.6-55.2c-7.2-22.8-7.4-46.9-0.7-69.6c-20.7-0.3-40.4-8.2-55.4-21.9
		c-5.3,20.9-18.5,39.4-37.2,51c17.3,14.3,30.1,33.2,36.9,54.9c7.6,24,7.2,49.3-0.7,72.7C121.6,312.8,124.9,312.5,128.2,312.5z"/>
	<path class="st148" d="M461.3,140.7c0.9-8.8-4-16.9-11.9-20.2C420.1,108.2,405,76.2,414,45.9c2.6-8.9-0.8-18.7-9-23.2
		c-10.6-5.9-23.5-1-27.8,9.8c-12.1,30.5-45.9,46.2-77,36c-0.5-0.2-1-0.4-1.6-0.6c-8.4-3-17.8,0-22.9,7.6c-3.8,5.7-4.2,13-1.4,19.2
		c10.8,23.3,12.3,49.5,4.2,73.7c-8.3,24.8-25.8,45.1-49.2,57.1c-0.3,0.2-0.6,0.3-0.9,0.5c-8.8,5-20,0.5-23.1-9.1
		c0-0.1-0.1-0.2-0.1-0.3c-6.8-21.4-5.1-44.4,4.6-64.9c2.8-6,2.9-13-0.4-18.7c-4.4-7.7-13.2-11.3-21.5-9.4
		c-26.3,6.2-52.8-8.3-61.7-33.8c-3.4-9.9-14.1-15.3-24.1-12.3c-10,3-15.9,13.4-13.3,23.6c6.9,26.9-8.4,54.5-34.7,63.1
		c-0.5,0.1-1,0.2-1.4,0.4c-8.2,2.4-13.9,9.8-14.1,18.5c-0.1,7.2,3.9,14,10.3,17.5c19.3,10.8,33.6,28.2,40.3,49.2
		c6.8,21.5,4.9,44.5-5.3,64.8c-4.2,8.4-3,18.4,3.2,25.4c6.2,7.1,15.9,9.7,24.8,6.6c0.3-0.1,0.7-0.2,1-0.3c5.5-1.7,11.1-2.6,16.6-2.5
		c18.4,0.2,34.8,11.6,42,28.5c13.8,32.5,30.8,66.3,51.8,100.3c4.5,7.2,12.2,11.2,20.2,11.2c4.2,0,8.4-1.2,12.1-3.5
		c4.2-2.6,7.3-6.3,9.2-10.6c7.3-12.1,33.4-57.5,54.8-124.3c3.5-10.9,10.7-20.2,20.5-26c0.1,0,0.1-0.1,0.2-0.1
		c12.8-7.4,27.8-10,42.3-7.4c8.3,1.5,16.8-2.5,20.9-10.2c2.7-5.2,2.8-11.4,0.6-16.8c-9.1-22.7-9.9-48-2.1-71.1
		c8.3-24.7,25.6-45.2,48.6-57.7C456.4,152.9,460.5,147.3,461.3,140.7z M237.5,402.6c-7.7-14.8-14.6-29.5-20.9-44
		c-5.1-11.7-4.8-25.1,1.2-36.3c5.1-9.6,13.2-17.6,23.5-22.6c4.7-2.3,8.3-6.3,10-11.1l0,0c1.4-4.1,6.7-5.3,9.6-2
		c3.1,3.4,5.8,7.2,8,11.3c2,3.6,3.6,7.3,4.8,11.2c2.7,8.3,2.4,17.3-0.3,25.6c-8.8,26.7-18.3,49.7-26.6,67.7
		C245.1,406.3,239.5,406.4,237.5,402.6z"/>
	<path class="st67" d="M294.3,346.4c9.5-40.5-13.3-82.3-53.6-95.8c-0.6-0.2-1.1-0.4-1.7-0.6c-3.3-1-3.7-5.5-0.7-7.1
		c26.8-13.7,48.5-37.5,58.8-68.3c10.1-30.2,7.4-61.6-5.1-88.3c0.5,0.2,1,0.4,1.6,0.6c41.3,13.8,85.8-7.2,101.7-47.2
		c-12.2,40.1,8.1,82.7,46.4,98.8c-26.6,14.3-48.1,38.2-58.4,69c-9.7,28.9-7.9,58.9,2.7,85.1C346.9,285.5,307.5,307.8,294.3,346.4z"
		/>
	<path class="st67" d="M195.1,368.2c-14.3-33.9-52.4-51.9-88.2-40.6c-0.5,0.2-1,0.3-1.5,0.5c-2.9,1-5.5-2-4.1-4.7
		c12-23.8,15.2-52.1,6.5-79.5c-8.5-26.9-26.8-47.9-49.6-60.6c0.5-0.1,1-0.2,1.4-0.4c36.8-11.6,57.6-49.9,48.2-86.7
		c12.2,35,48.8,54.9,84.6,46.5c-11.6,24.1-14.5,52.3-5.9,79.8c8.1,25.7,25,46.2,46.3,59.5C201.1,297.3,184.5,333.7,195.1,368.2z"/>
	<path class="st149" d="M133.5,200.4c-0.7,0-1.3-0.2-1.9-0.6c-6.6-4.2-13.7-7.7-21.1-10.3c-2-0.7-3.1-3-2.4-5c0.7-2,3-3.1,5-2.4
		c8,2.8,15.6,6.6,22.7,11.1c1.8,1.2,2.4,3.6,1.2,5.4C136.2,199.8,134.8,200.5,133.5,200.4z"/>
	<circle class="st149" cx="97.3" cy="181.9" r="3.9"/>
	<g class="st139">
		<path class="st150" d="M375.4,248.6c-0.1,0-0.2,0-0.4,0c-27,2.1-50.8,16.6-65.1,38.5c-1.1-27.4-15.4-53.2-39.2-68.5
			c-0.9,2.5-2.5,4.7-4.8,6.2c27.7,17.5,41.5,50.5,34.3,82.4c-0.5,2,0.8,4.1,2.8,4.6c0.4,0.1,0.7,0.1,1.1,0.1c1.6,0,3.1-1.1,3.6-2.7
			c9.9-29.7,36.5-50.5,67.8-52.9c0,0,0.1,0,0.1,0C374.9,253.9,374.8,251.1,375.4,248.6z"/>
		<path class="st150" d="M383.1,210.4c-0.3-2.1-2.3-3.6-4.4-3.3c-24.2,3.5-45.3,16.9-58.5,36.5c-0.5-22.2-9.6-43.7-25.9-59.6
			c-0.6,2.7-2,5.2-4.1,6.9c18.7,19.1,26.4,46.6,20.1,72.6c-0.5,2,0.7,4.1,2.7,4.7c0.4,0.1,0.8,0.2,1.1,0.2c1.6,0,3.1-1,3.7-2.6
			c9.6-27.3,33.4-46.8,62.1-51C382,214.6,383.4,212.6,383.1,210.4z"/>
		<path class="st150" d="M325,164.3c2-0.9,2.9-3.2,2-5.2c-4.4-9.9-10.6-18.8-18.3-26.4l-2.5-2.5c-0.9-0.9-2-1.2-3.1-1.1
			c0.9,2.9,0.9,6.1-0.1,9l0.2,0.2c7,6.9,12.6,14.9,16.6,24c0.7,1.5,2.1,2.3,3.6,2.3C323.9,164.6,324.5,164.5,325,164.3z"/>
		<path class="st150" d="M404,162.9c-17-0.3-33.6,4.4-48,13.6c-14.7,9.4-26,23-32.7,39.1c-0.8,2,0.1,4.3,2.1,5.1
			c0.5,0.2,1,0.3,1.5,0.3c1.5,0,3-0.9,3.6-2.4c12.3-29.7,41.1-48.5,73.3-47.9c2.1,0,3.9-1.7,4-3.8
			C407.9,164.7,406.2,162.9,404,162.9z"/>
		<path class="st150" d="M342.2,130c0.4,0,0.8-0.1,1.2-0.2c2.1-0.7,3.2-2.9,2.5-4.9c-4.2-13.1-11.4-25-21.1-34.6
			c-2,1.6-4.6,2.7-7.8,2.7c-0.1,0-0.2,0-0.3,0c0.2,0.4,0.4,0.7,0.8,1c9.7,9.1,17,20.6,21,33.3C339,128.9,340.6,130,342.2,130z"/>
		<path class="st150" d="M417.1,122.4c-33.8,0-64.9,20.3-78.5,51.4c-0.9,2,0.1,4.3,2,5.1c0.5,0.2,1.1,0.3,1.6,0.3
			c1.5,0,2.9-0.9,3.6-2.4c12.8-29.5,43-48.2,75.1-46.6c0.7,0,1.3-0.1,1.9-0.4C419.9,128.3,418,125.6,417.1,122.4z"/>
		<path class="st150" d="M393,55.4c-2.4,0-4.4-0.6-6.1-1.5l-35.5,89.2c-0.8,2,0.2,4.3,2.2,5.1c0.5,0.2,0.9,0.3,1.4,0.3
			c1.6,0,3.1-0.9,3.7-2.5l36.1-90.6C394.2,55.4,393.6,55.4,393,55.4z"/>
		<path class="st150" d="M206.8,254.9c-1.3-1.7-3.8-2-5.5-0.7c-18.3,14.3-28.3,35.6-28.3,57.6c-14.2-17.8-36.4-28.6-60.2-28.5
			c0.6,2.6,0.5,5.3-0.3,7.8c27.8-0.3,53.2,16,63.6,41.2c0.6,1.5,2.1,2.4,3.6,2.4c0.4,0,0.9-0.1,1.3-0.2c2-0.7,3-2.8,2.4-4.8
			c-7.6-25.5,1.3-52.7,22.6-69.4C207.8,259.1,208.1,256.6,206.8,254.9z"/>
		<path class="st150" d="M189.5,228.9c-2.1-1.7-3.5-4.1-4.2-6.7c-0.2,0.1-0.4,0.3-0.6,0.5c-15.6,14-24.2,33.2-24.5,53.1
			c-11.7-15.2-29.2-25.7-48.9-28.8c-2.1-0.3-4.1,1.1-4.5,3.3c-0.3,2.1,1.1,4.1,3.3,4.5c24,3.7,44.2,19.6,52.8,41.6
			c0.6,1.5,2.1,2.5,3.7,2.5c0.4,0,0.8-0.1,1.2-0.2c2-0.7,3.1-2.7,2.5-4.8C163.9,270.4,171.2,245.5,189.5,228.9z"/>
		<path class="st150" d="M182,187.2c-1-3-0.9-6.4,0.2-9.4c-0.4,0.1-0.7,0.3-1.1,0.5c-20.1,13.2-32,34.2-33.3,56.8
			c-11.5-16.4-29.4-27.7-50.2-31c0,0-0.1,0-0.1,0l-8.2-1c-1.5-0.2-2.9,0.5-3.7,1.6c1.9,1.6,3.2,3.8,3.9,6.3l6.9,0.9
			c24.9,4,45.3,20.9,53.3,44.1c0.6,1.6,2.1,2.6,3.7,2.6c0.4,0,0.7,0,1.1-0.2c2-0.6,3.2-2.6,2.7-4.6C151.3,228.5,161,202.8,182,187.2
			z"/>
		<path class="st150" d="M172.1,143.3c-26.8,16-40.7,46.9-34.7,76.8c0.4,1.9,2,3.2,3.9,3.1c0.2,0,0.5,0,0.7-0.1
			c2.1-0.4,3.5-2.5,3.1-4.6c-5.4-26.7,7.1-54.3,31-68.6l6.2-3.7L172.1,143.3z"/>
		<path class="st150" d="M140.4,190.1l-23.3-77.3c-1.9,1.4-4.3,2.2-7.3,2.3c-0.1,0-0.1,0-0.2,0l23.3,77.3c0.5,1.7,2.1,2.8,3.8,2.8
			c0.4,0,0.7-0.1,1.1-0.2C139.8,194.4,141,192.2,140.4,190.1z"/>
	</g>
	<path class="st151" d="M443.3,135.1c-36.8-15.4-55.9-55.9-44.3-94.1c0.5-1.7-0.1-3.5-1.6-4.4c-2.1-1.2-4.6-0.3-5.5,1.8
		c-15.2,38.3-57.7,58-96.8,45.1c-0.2-0.1-0.6-0.2-0.9-0.3c-0.2-0.1-0.5-0.2-0.7-0.3c-1.1-0.4-2.3-0.4-3.3,0.3
		c-1.7,1-2.3,3.1-1.5,4.8c12.6,27.1,14.3,57.4,4.9,85.6c-9.7,28.8-29.9,52.3-57,66.1c-3.1,1.6-4.7,5-3.9,8.5
		c0.6,2.7,2.8,4.8,5.4,5.6c0.5,0.1,0.9,0.3,1.4,0.4c18.5,6.2,33.9,19,43.4,36c3.6,6.6,6.3,13.5,7.9,20.7c1.9,8.4,1.4,17.1-1.2,25.3
		c-14.5,45.2-31.3,80.2-42.1,100.4c-1.9,3.6-7.1,3.7-9.1,0.1c-14.5-25.2-27.5-51.5-38.9-78.6c-2.8-6.7-3.9-14.1-2.8-21.3
		c0.9-5.9,2.6-11.7,5-17.3c6.6-14.8,18.2-26.8,32.7-33.9c0.9-0.4,1.7-1.2,2.1-2.1c0.7-1.8,0-3.8-1.6-4.8
		c-21.3-13.2-37.1-33.5-44.6-57.3c-8-25.4-6-52.7,5.7-76.9c0.8-1.7,0.3-3.7-1.3-4.9c-1-0.7-2.2-0.9-3.3-0.6
		c-34.1,8-68.4-10.9-79.9-44c-0.7-2-2.8-3.1-4.8-2.5c-2,0.6-3.2,2.7-2.7,4.7c9,35-10.9,70.9-45.3,81.9c-0.2,0.1-0.6,0.2-0.8,0.2
		c-0.2,0-0.4,0.1-0.6,0.1c-1.2,0.3-2.3,1.1-2.8,2.3c-0.8,1.9,0,4,1.7,5c23,12.7,39.9,33.4,47.8,58.3c8,25.5,5.8,52.6-6.3,76.5
		c-1.6,3.2-0.7,7,2.3,9.2c2,1.4,4.5,1.7,6.8,0.9c0.4-0.1,0.8-0.3,1.2-0.4c16.3-5.2,33.8-4,49.3,3.2c7.6,3.5,14.3,8.3,20,14.2
		c1.3,1.4,2.4,3,3.1,4.7l0,0c15.6,38.6,34.4,75.9,56,110.9c1.5,2.4,4.1,3.7,6.7,3.7c1.4,0,2.8-0.4,4-1.2c1.2-0.8,3.3-4.2,3.3-4.2
		c5.8-9.4,33.1-55.6,55-125.3c3.1-9.9,8.9-18.7,17-25.1c3-2.4,6.3-4.7,9.7-6.6c16-9.3,34.9-12.6,53.1-9.2c1.3,0.2,2.7-0.3,3.6-1.3
		c0.9-1.1,1.1-2.5,0.6-3.8c-10.7-26.3-11.6-55.6-2.6-82.5c9.6-28.7,29.7-52.4,56.6-66.9c0.9-0.5,1.6-1.3,1.9-2.3
		C446,137.7,445,135.8,443.3,135.1z M160.8,327.4c-10.3-4.8-21.4-7.2-32.5-7.1c-4.5,0-8.9,0.5-13.4,1.3c-1.1,0.2-2.7,0.6-4.3,1
		c-2,0.5-3.8-1.5-3-3.5c10.5-24.2,11.9-51.1,3.9-76.4c-7.1-22.4-21-41.6-39.8-55.3c-1.9-1.4-1.6-4.3,0.5-5.3
		c22.6-11.4,37.7-33.2,41.1-57.6c0.4-2.7,3.7-3.7,5.4-1.7c15.4,17.6,38.3,27.3,62.2,25.7c2.2-0.2,3.9,2.1,3.1,4.2
		c-8.1,22.9-8.6,47.8-1.2,71.1c7,22.2,20.8,41.7,39.4,55.7c1.4,1.1,1.3,3.2-0.1,4.2c-12,8-21.6,19.3-27.6,32.7
		c-1.2,2.7-2.2,5.4-3.1,8.1c-0.8,2.6-4.4,2.6-5.4,0.1c-17.3-45.8-32-93.2-43.8-141.1c-1-4.2-5.3-6.8-9.5-5.7c-4.2,1-6.8,5.3-5.7,9.5
		c11.6,47.4,26.1,94.2,43.1,139.6c0.9,2.5-1.7,4.8-4,3.5C164.4,329.2,162.6,328.3,160.8,327.4z M379.8,206.4
		c-8.5,25.2-8.7,52.5-0.7,77.9c0.6,1.8-0.9,3.6-2.8,3.5c-16.6-0.9-33.2,3-47.7,11.4c-3.4,2-6.6,4.1-9.6,6.5
		c-1.7,1.3-4.2-0.3-3.6-2.4c2.7-10.7,5.3-21.8,7.5-33.3c10.6-53.8,28.2-99.1,41-127.6c1.8-4.1-0.1-8.9-4.4-10.5
		c-3.9-1.5-8.3,0.5-10,4.3c-13.2,29.3-31.2,75.7-42,130.8c-2.3,11.5-4.8,22.6-7.6,33.3c-0.6,2.2-3.7,2.3-4.4,0.2
		c-1.6-4.7-3.7-9.3-6.1-13.8c-9.3-16.7-23.8-29.8-41.3-37.2c-0.6-0.2-1.5-0.6-2.5-1c-2.2-0.8-2.4-3.8-0.4-4.9
		c26.2-15,45.8-38.8,55.5-67.6c8.6-25.7,8.5-53.2-0.2-78.7c-0.7-2.1,1-4.1,3.2-3.7c5.5,1,11,1.5,16.5,1.5
		c24.1-0.2,47.1-10.6,63.1-28.5c1.7-1.9,4.8-0.8,4.9,1.7c1.5,27.9,16.7,53.7,41.4,68.4c1.8,1.1,1.9,3.7,0.1,4.8
		C406.3,156.9,388.8,179.6,379.8,206.4z"/>
	<path class="st149" d="M332.4,181.1c-0.5,0-1-0.1-1.4-0.3c-2-0.8-3-3-2.3-5.1c4.3-11.2,8.9-22.4,13.8-33.3c0.9-2,3.2-2.9,5.2-2
		c2,0.9,2.8,3.2,2,5.2c-4.8,10.7-9.4,21.8-13.7,32.9C335.4,180.2,333.9,181.1,332.4,181.1z"/>
	<g>
		<path class="st152" d="M195.3,362.1c-1.6,0-3-0.9-3.7-2.5c-1.8-4.5-3.6-9.1-5.3-13.6c-0.8-2,0.3-4.3,2.3-5c2-0.8,4.3,0.3,5,2.3
			c1.7,4.5,3.5,9,5.3,13.5c0.8,2-0.2,4.3-2.2,5.1C196.3,362,195.8,362.1,195.3,362.1z"/>
		<path class="st152" d="M226.9,428.1c-1.4,0-2.8-0.7-3.5-2c-9.4-17.4-18.3-35.5-26.3-53.7c-0.9-2,0-4.3,2-5.2c2-0.9,4.3,0,5.2,2
			c7.9,18.1,16.7,35.9,26.1,53.2c1,1.9,0.3,4.3-1.6,5.3C228.1,427.9,227.5,428,226.9,428.1z"/>

			<ellipse transform="matrix(8.600912e-02 -0.9963 0.9963 8.600912e-02 -82.5032 619.1811)" class="st152" cx="296.2" cy="354.6" rx="3.6" ry="3.6"/>
		<path class="st152" d="M283.2,392c-0.5,0-1-0.1-1.5-0.3c-2-0.8-2.9-3.1-2.1-5.1c3-7.1,5.8-14.5,8.5-21.8c0.8-2,3-3.1,5-2.3
			c2,0.8,3.1,3,2.3,5c-2.7,7.4-5.7,14.8-8.6,22C286.2,391.1,284.7,392,283.2,392z"/>
	</g>
</g>
</svg>
