<?xml version="1.0" encoding="UTF-8" standalone="no"?>
<svg
   xmlns="http://www.w3.org/2000/svg"
   viewBox="0 0 20 60"
   width="20"
   height="60"
   version="1.1">
    <path
       d="m 3.4720622,24.509079 h -1.631163 v 2.396042 H 1.5224954 L 0.28010905,25.65856 C 0.1326952,25.510642 0.04987735,25.309991 0.04987735,25.100948 V 14.932403 c 0,-0.209242 0.08281486,-0.409894 0.2302317,-0.557712 L 1.5224954,13.12823 h 0.3184038 v 2.395943 h 1.631163 l 2.6473896,-2.656222 v -2.734823 l 0.099503,-0.09988 -0.099503,-0.099976 V 7.1985513 L 3.4720622,4.5424307 H 1.8408992 V 6.9383725 H 1.5224954 L 0.28010905,5.6919115 C 0.1326952,5.5438942 0.04987735,5.3433418 0.04987735,5.1341002 V 1.5473286 c 0,-0.82697904 0.66822389,-1.49745125 1.49251875,-1.49745125 h 3.5748503 c 0.2084759,0 0.4084132,0.08289765 0.555828,0.23101477 L 6.9154618,1.5273532 V 1.8469586 H 4.5274326 v 1.6364795 l 2.6473885,2.6562206 h 2.7256762 l 0.099504,0.1000764 0.0995,-0.099976 h 2.725675 L 15.472568,3.483538 V 1.8470585 H 13.084539 V 1.5274531 L 14.326926,0.280992 C 14.47434,0.13307463 14.674279,0.04997723 14.882755,0.04997723 h 3.57485 c 0.824294,0 1.492518,0.6704722 1.492517,1.49745117 v 3.5867717 c 0,0.2092416 -0.08281,0.409794 -0.230231,0.5578113 l -1.242385,1.246461 H 18.159102 V 4.5425306 H 16.527939 L 13.88055,7.1986512 v 2.7347236 l -0.0995,0.099977 0.0995,0.09988 v 2.734823 l 2.647389,2.65622 h 1.631163 V 13.12833 h 0.318404 l 1.242385,1.246461 c 0.147415,0.147818 0.230231,0.34847 0.230231,0.557712 v 10.168545 c 0,0.209042 -0.08281,0.409694 -0.230231,0.557612 l -1.242385,1.246561 h -0.318404 v -2.396042 h -1.631163 l -2.647389,2.65622 v 2.734824 l -0.0995,0.09988 0.0995,0.09988 v 2.734824 l 2.647389,2.65622 h 1.631163 v -2.396042 h 0.318404 l 1.242385,1.246561 c 0.147415,0.147918 0.230231,0.34857 0.230231,0.557612 v 10.168544 c 0,0.209242 -0.08281,0.409794 -0.230231,0.557712 l -1.242385,1.246461 h -0.318404 v -2.395942 h -1.631163 l -2.647389,2.656121 v 2.734823 l -0.0995,0.09988 0.0995,0.09998 v 2.734723 l 2.647389,2.656121 h 1.631163 v -2.395942 h 0.318404 l 1.242385,1.246462 c 0.147415,0.147916 0.230231,0.348569 0.230231,0.55781 v 3.586772 c 0,0.826979 -0.668223,1.497451 -1.492517,1.497451 h -3.57485 c -0.208476,0 -0.408415,-0.0829 -0.555829,-0.231015 l -1.242387,-1.246461 v -0.319605 h 2.388029 v -1.636494 l -2.647389,-2.65622 h -2.725675 l -0.0995,-0.100276 -0.099503,0.09998 H 7.174825 l -2.6473885,2.65622 v 1.63648 h 2.3880292 v 0.319605 L 5.6730748,59.718806 C 5.52566,59.866724 5.3257227,59.949821 5.1172468,59.949821 H 1.5423961 c -0.82429486,0 -1.49251875,-0.670472 -1.49251875,-1.497452 v -3.586772 c 0,-0.209241 0.08281486,-0.409893 0.2302317,-0.55781 L 1.5224954,53.061328 h 0.3184038 v 2.395941 h 1.631163 l 2.6473896,-2.65612 v -2.734724 l 0.099503,-0.09998 -0.099503,-0.09988 V 47.131749 L 3.4720622,44.475627 H 1.8408992 V 46.87157 H 1.5224954 L 0.28010905,45.625108 C 0.1326952,45.477191 0.04987735,45.276639 0.04987735,45.067397 V 34.898851 c 0,-0.209042 0.08281486,-0.409694 0.2302317,-0.557611 L 1.5224954,33.094678 h 0.3184038 v 2.396043 h 1.631163 L 6.1194518,32.8345 v -2.734824 l 0.099503,-0.09988 -0.099503,-0.09988 v -2.734824 z"
       style="fill:none;stroke:#000000;stroke-width:0.1" />
    <path
       d="m 7.9104746,10.033352 c 0,1.157969 0.9355101,2.096411 2.0895246,2.096411 1.1540138,0 2.0895228,-0.938442 2.0895228,-2.096411 0,-1.1578711 -0.935509,-2.0964123 -2.0895228,-2.0964123 -1.1540145,0 -2.0895246,0.9385412 -2.0895246,2.0964123 z"
       style="fill:none;stroke:#000000;stroke-width:0.1" />
    <path
       d="m 9.9999992,27.903389 c -1.1540135,0 -2.0895256,0.93864 -2.0895256,2.096511 0,1.157871 0.9355121,2.096511 2.0895256,2.096511 1.1540128,0 2.0895238,-0.93864 2.0895238,-2.096511 0,-1.157871 -0.935511,-2.096511 -2.0895238,-2.096511 z"
       style="fill:none;stroke:#000000;stroke-width:0.1" />
    <path
       d="M 16.208217,17.321153 12.825176,13.926845 H 9.9999992 7.1748211 l -3.3830409,3.394308 h -1.950881 v 5.391045 h 1.950881 l 3.3830409,3.394209 h 2.7256762 l 0.099504,0.09988 0.0995,-0.09988 h 2.725675 l 3.383042,-3.394209 h 1.950881 v -5.391045 z"
       style="fill:none;stroke:#000000;stroke-width:0.1" />
    <path
       d="m 9.9999992,33.793516 -0.099503,0.09988 H 7.1748196 l -3.3830409,3.394206 h -1.950881 v 5.391044 h 1.950881 l 3.3830409,3.394309 h 2.8251776 2.8251768 l 3.383042,-3.394309 h 1.950881 v -5.391044 h -1.950881 l -3.383042,-3.394209 h -2.725675 z"
       style="fill:none;stroke:#000000;stroke-width:0.1" />
    <path
       d="m 7.9112159,49.966448 c 0,1.157571 0.9350587,2.096013 2.0887833,2.096412 1.1537238,0 2.0887818,-0.938841 2.0887818,-2.096412 0,-1.15767 -0.935058,-2.096012 -2.0887818,-2.096411 -1.1537246,0 -2.0887833,0.938741 -2.0887833,2.096411 z"
       style="fill:none;stroke:#000000;stroke-width:0.1" />
</svg>

