<?xml version="1.0" encoding="UTF-8" standalone="no"?>
<svg
   xmlns="http://www.w3.org/2000/svg"
   viewBox="0 0 20 60"
   width="20"
   height="60"
   version="1.1">
    <path
       d="m 12.089443,49.966385 c 0,-1.157725 -0.935476,-2.096459 -2.089443,-2.096459 -1.1539673,0 -2.0894429,0.938734 -2.0894429,2.096459 0,1.157925 0.9354756,2.096557 2.0894429,2.096557 1.153967,0 2.089443,-0.938632 2.089443,-2.096557 z"
       style="fill:none;stroke:#000000;stroke-width:0.1" />
    <path
       d="M 3.7920267,17.321283 H 1.8412234 v 25.357333 h 1.9508033 l 3.3829079,3.394361 h 5.6501314 l 3.382908,-3.394361 h 1.950802 V 17.321283 h -1.950802 l -3.382908,-3.39426 H 7.1749346 Z"
       style="fill:none;stroke:#000000;stroke-width:0.1" />
    <path
       d="m 12.089443,10.033615 c 0,-1.1579249 -0.935476,-2.0965581 -2.089443,-2.0965581 -1.1539673,0 -2.0894429,0.9386332 -2.0894429,2.0965581 0,1.157724 0.9354756,2.096458 2.0894429,2.096458 1.153967,0 2.089443,-0.938734 2.089443,-2.096458 z"
       style="fill:none;stroke:#000000;stroke-width:0.1" />
    <path
       d="m 1.8412234,44.475666 v 2.396067 H 1.5228318 L 0.26883759,45.613436 C 0.12889326,45.473058 0.0502723,45.282644 0.0502723,45.083908 V 14.916092 c 0,-0.198737 0.07861895,-0.38915 0.21856529,-0.529529 L 1.5228318,13.128267 h 0.3183916 v 2.396066 h 1.631098 L 6.119606,12.868165 V 7.1988647 L 3.4723214,4.5427966 H 1.8412234 V 6.9387627 H 1.5228318 L 0.26883759,5.6805672 C 0.12889326,5.5400881 0.0502723,5.3496742 0.0502723,5.1510381 V 1.0485665 c 0,-0.55128783 0.4454643,-0.9982942 0.9949732,-0.9982942 h 4.0886808 c 0.1979124,0 0.387719,0.07821108 0.5276633,0.21929183 L 6.9155848,1.5277597 V 1.8473222 H 4.52765 V 3.4838387 L 7.1749346,6.1401074 H 12.825066 L 15.47235,3.4838387 V 1.8473222 H 13.084415 V 1.5277597 L 14.33841,0.26956413 C 14.478354,0.12928554 14.668161,0.0502723 14.866074,0.0502723 h 4.088681 c 0.549508,0 0.994973,0.44700637 0.994973,0.9982942 v 4.1024716 c 0,0.1986361 -0.07862,0.38905 -0.218565,0.5295291 L 18.477168,6.9387627 H 18.158776 V 4.5427966 h -1.631098 l -2.647283,2.6560681 v 5.6693003 l 2.647283,2.656168 h 1.631098 v -2.396066 h 0.318392 l 1.253995,1.258296 c 0.139944,0.140379 0.218565,0.330792 0.218565,0.529529 v 30.167816 c 0,0.198736 -0.07862,0.38915 -0.218565,0.529528 l -1.253995,1.258297 h -0.318392 v -2.396067 h -1.631098 l -2.647283,2.656169 v 5.669299 l 2.647283,2.656069 h 1.631098 v -2.395966 h 0.318392 l 1.253995,1.258195 c 0.139944,0.140479 0.218565,0.330894 0.218565,0.529529 v 4.102371 c 0,0.551389 -0.445465,0.998396 -0.994973,0.998396 h -4.088681 c -0.197913,0 -0.38772,-0.07821 -0.527664,-0.219293 L 13.084415,58.47224 V 58.152677 H 15.47235 V 56.516161 L 12.825066,53.859892 H 7.1749346 L 4.52765,56.516161 v 1.636516 H 6.9155848 V 58.47224 L 5.6615896,59.730435 C 5.5216453,59.870714 5.3318387,59.949728 5.1339263,59.949728 H 1.0452455 c -0.5495089,0 -0.9949732,-0.447007 -0.9949732,-0.998396 v -4.102371 c 0,-0.198635 0.07861895,-0.38905 0.21856529,-0.529529 L 1.5228318,53.061237 h 0.3183916 v 2.395966 h 1.631098 L 6.119606,52.801134 V 47.131835 L 3.4723214,44.475666 Z"
       style="fill:none;stroke:#000000;stroke-width:0.1" />
</svg>

