<?xml version="1.0" encoding="UTF-8" standalone="no"?>
<svg
   xmlns:svg="http://www.w3.org/2000/svg"
   xmlns="http://www.w3.org/2000/svg"
   viewBox="0 0 35 15"
   width="35"
   height="15"
   version="1.1">
    <path
       d="M 4.2039975,7.5000134 1.3750041,10.292669 V 4.7073579 Z"
       style="fill:none;stroke:#000000;stroke-width:0.261654" />
    <path
       d="M 16.305132,13.100585 H 14.11538 V 10.980466 L 10.589647,7.5000134 14.11538,4.0195604 v -2.120118 h 2.189752 z"
       style="fill:none;stroke:#000000;stroke-width:0.261654" />
    <path
       d="M 32.866962,0.13082733 H 12.264701 c -0.197986,0 -0.387863,0.0776525 -0.52786,0.21585152 L 10.482382,1.5850109 v 0.3144315 h 2.38882 V 3.5108286 L 9.8254562,6.5174638 H 4.9681883 L 1.922442,3.5108286 V 1.8994424 H 4.3112626 V 1.5850109 L 3.0568033,0.34667885 C 2.9168062,0.2084798 2.7269295,0.13082733 2.5289435,0.13082733 H 1.1261686 c -0.54971201,0 -0.9953417,0.43991804 -0.9953417,0.98257547 V 13.886624 c 0,0.542657 0.44562969,0.982549 0.9953417,0.982549 h 1.4027749 c 0.197986,0 0.3878627,-0.07762 0.5278598,-0.215825 L 4.3112626,13.41499 V 13.100585 H 1.922442 V 11.489198 L 4.9681883,8.4825629 h 4.8572679 l 3.0457458,3.0066351 v 1.611387 h -2.38882 v 0.314405 l 1.254459,1.238358 c 0.139997,0.138199 0.329874,0.215825 0.52786,0.215825 h 4.289266 c 0.549712,0 0.995342,-0.439892 0.995342,-0.982549 V 1.8994424 H 34.96779 L 33.394823,0.34667885 c -0.14,-0.13819905 -0.329875,-0.21585152 -0.527861,-0.21585152 z"
       style="fill:none;stroke:#000000;stroke-width:0.261654" />
</svg>

