<?xml version="1.0" encoding="UTF-8" standalone="no"?>
<svg
   xmlns="http://www.w3.org/2000/svg"
   viewBox="0 0 20 20"
   width="20"
   height="20"
   version="1.1">
    <path
       d="M 5.1175071,0.050406 H 1.5428458 C 0.71860023,0.05040556 0.05041452,0.71858643 0.050406,1.542835 v 3.5747123 c 5.7e-6,0.2084585 0.0828178,0.4083774 0.23021977,0.5557796 L 1.5229465,6.91564 H 1.8413336 V 4.5276931 h 1.6310758 l 3.0452329,3.0452447 v 2.327661 l 0.099492,0.099452 -0.099492,0.09945 v 2.327561 l -3.0452329,3.04524 H 1.8413336 V 13.084359 H 1.5229465 L 0.28062577,14.326774 C 0.1332485,14.474151 0.05043843,14.674028 0.050406,14.882452 v 3.574712 c 8.52e-6,0.824249 0.66819423,1.49243 1.4924398,1.49243 h 3.5746613 c 0.2084556,1.7e-5 0.4083812,-0.08277 0.5557988,-0.230156 L 6.9156266,18.477126 V 18.158658 H 4.5277235 v -1.630945 l 3.045233,-3.045245 H 9.9005043 L 10,13.382658 l 0.09949,0.09981 h 2.32755 l 3.045233,3.045245 v 1.630945 h -2.387904 v 0.318468 l 1.242321,1.242312 c 0.147416,0.147384 0.347343,0.230173 0.555799,0.230156 h 3.57466 c 0.824245,0 1.492431,-0.668181 1.492439,-1.49243 v -3.574712 c -3.2e-5,-0.208424 -0.08284,-0.408301 -0.230219,-0.555678 l -1.242321,-1.242415 h -0.318386 v 2.387947 h -1.631076 l -3.045233,-3.045245 v -2.32756 l -0.09949,-0.09945 0.09949,-0.099451 V 7.5729378 l 3.045233,-3.0452447 h 1.631076 V 6.91564 h 0.318386 l 1.242326,-1.2423131 c 0.147402,-0.1474022 0.230215,-0.3473211 0.23022,-0.5557796 V 1.542835 C 19.949586,0.71858643 19.2814,0.05040556 18.457155,0.050406 h -3.574662 c -0.208455,-1.73e-5 -0.408381,0.0827714 -0.555799,0.23015506 L 13.084373,1.5228742 v 0.3184667 h 2.387904 V 3.4724881 L 12.427044,6.517632 H 10.099496 L 9.999996,6.617437 9.9005,6.517632 H 7.5729565 L 4.5277235,3.4724881 V 1.8413409 H 6.9156266 V 1.5228742 L 5.6733059,0.28056106 C 5.5258883,0.13317741 5.3259627,0.0503887 3.3301765,0.050406 Z"
       style="fill:none;stroke:#000000;stroke-width:0.1" />
    <path
       d="m 12.089414,10 c 0.0014,-2.787263 -4.1774595,-2.787263 -4.1788284,0 -0.00137,2.787263 4.1774594,2.787263 4.1788284,0 z"
       style="fill:none;stroke:#000000;stroke-width:0.1" />
</svg>

