<svg xmlns:dc="http://purl.org/dc/elements/1.1/" xmlns:cc="http://creativecommons.org/ns#" xmlns:rdf="http://www.w3.org/1999/02/22-rdf-syntax-ns#" xmlns:svg="http://www.w3.org/2000/svg" xmlns="http://www.w3.org/2000/svg" xmlns:sodipodi="http://sodipodi.sourceforge.net/DTD/sodipodi-0.dtd" xmlns:inkscape="http://www.inkscape.org/namespaces/inkscape" viewBox="0 0 100 125" version="1.1" x="0px" y="0px"><g transform="translate(0,-952.36216)"><path style="" d="m 48.23046,962.11418 c -5.3849,0.0179 -10.91626,1.68042 -15.76757,5.09766 -8.70631,6.13269 -12.82045,16.23172 -11.36133,25.58203 3.21194,-1.1605 6.69818,-1.80469 10.34765,-1.80469 5.01988,0 9.73949,1.20546 13.84571,3.32227 5.37187,-5.72887 13.24498,-9.35156 22.03125,-9.35156 1.7996,0 3.55752,0.15482 5.26758,0.44531 -0.0767,-4.63173 -1.45784,-9.21508 -4.26563,-13.20117 C 63.657,965.57265 56.1007,962.08806 48.23046,962.11418 Z m -5.32617,2.84766 2.00391,1.44727 5.5957,-0.84375 -1.51172,2.48437 2.64258,2.12695 -3.89062,1.65821 -2.30274,3.49218 -3.3457,-0.42187 -5.50781,2.23242 -0.27539,-2.17969 -4.57032,-0.70898 3,-2.30274 -0.1875,-3.11718 4.01367,-0.68555 z" fill="#000000" fill-opacity="1" stroke="none"/><path style="" d="m 68.55078,987.63762 c -8.01308,0 -15.18928,3.33557 -20.03907,8.60156 7.08441,4.89612 11.67774,12.76282 11.67774,21.63282 0,5.837 -1.98777,11.2428 -5.36719,15.6504 4.00152,2.2759 8.70264,3.5859 13.72852,3.5859 C 83.15763,1037.1083 95,1026.0372 95,1012.3759 95,998.71463 83.15763,987.63762 68.55078,987.63762 Z m 3.22851,3.19922 2.99414,1.99805 4.78711,0.54492 0.35156,2.1914 4.10157,2.86524 -2.55469,0.72656 0.31641,3.02929 -3.53321,-1.2832 -3.70312,0.9141 -1.85156,-2.3262 -4.9336,-1.89258 1.22461,-1.61719 -2.45508,-3.26953 3.38086,0.30469 z" fill="#000000" fill-opacity="1" stroke="none"/><path style="" d="M 31.44921,993.13371 C 16.84236,993.13371 5,1004.2107 5,1017.872 c 0,13.6613 11.84236,24.7383 26.44921,24.7383 14.60686,0 26.44922,-11.077 26.44922,-24.7383 0,-13.6613 -11.84236,-24.73829 -26.44922,-24.73829 z m 7.56446,3.31641 1.74023,2.8125 7.28906,1.59378 -3.09961,2.4726 2.17969,3.9844 -5.60742,0.2696 -4.57617,3.3808 -3.89063,-2.1387 -7.88086,0.2286 0.75586,-2.9297 -5.25586,-3.0996 4.82813,-1.5176 1.33008,-4.08988 5.27343,1.03711 6.91407,-2.00391 z" fill="#000000" fill-opacity="1" stroke="none"/></g><text x="0" y="115" fill="#000000" font-size="5px" font-weight="bold" font-family="'Helvetica Neue', Helvetica, Arial-Unicode, Arial, Sans-serif">Created by anbileru adaleru</text><text x="0" y="120" fill="#000000" font-size="5px" font-weight="bold" font-family="'Helvetica Neue', Helvetica, Arial-Unicode, Arial, Sans-serif">from the Noun Project</text></svg>