<svg xmlns="http://www.w3.org/2000/svg" xmlns:xlink="http://www.w3.org/1999/xlink" version="1.1" x="0px" y="0px" viewBox="0 0 100 125" enable-background="new 0 0 100 100" xml:space="preserve"><path d="M61.363,45.455c0.015-0.013,0.028-0.026,0.043-0.038c2.877-2.342,7.266-4.52,9.053-7.984  c-1.218-1.584-2.896-3.092-3.718-4.691c-1.739-3.377-6.874,0.4-9.437-1.459c-1.357-0.985-1.713-0.974-2.382-0.646  c0.484,3.592,1.743,6.878,4.47,9.605c0.979,0.979,1.61,1.123,1.288,2.443C60.335,44.095,60.669,44.517,61.363,45.455z   M59.951,34.993l0.078-0.069c0.265,0.226,0.501,0.495,0.723,0.775c-0.012-0.219,0.002-0.439,0.046-0.665  c0.087-0.491,0.48-0.938,0.919-1.238c0.443-0.307,0.95-0.422,1.416-0.446c0.472-0.009,0.925,0.069,1.354,0.166l-0.006,0.103  c-0.863,0.083-1.768,0.284-2.23,0.81c-0.239,0.264-0.28,0.615-0.476,0.946c-0.16,0.284-0.327,0.61-0.591,0.927  c0.28,0.475,0.519,0.973,0.721,1.486c0.093,0.244,0.194,0.489,0.281,0.738c0.074-0.145,0.155-0.285,0.248-0.419  c0.32-0.479,0.856-0.776,1.375-1.026c0.523-0.249,1.099-0.389,1.663-0.395c0.562,0.011,1.115,0.148,1.597,0.346l-0.021,0.101  c-1.051-0.136-2.067,0.09-2.821,0.661c-0.389,0.282-0.646,0.689-1.019,0.997c-0.252,0.216-0.522,0.439-0.819,0.659  c0.026,0.575-0.015,1.161-0.269,1.738l-0.103,0.004c-0.314-0.534-0.491-1.054-0.648-1.575c-0.165-0.516-0.149-1.066-0.258-1.598  C60.891,36.967,60.583,35.913,59.951,34.993z M27.366,30.454c2.247,0.364,2.469,4.309,3.661,5.815  c3.001,3.794,7.31,3.615,11.075,6.081c6.624,4.334,1.881,13.314,9.688,16.502c1.611,0.658,3.305,1.214,4.799,1.93  c-0.693-2.767-0.638-5.649,0.229-8.407c0.631-2.007,1.592-3.815,2.94-5.36c-0.489-0.903-0.996-1.808-1.513-2.71  c-0.093-0.16-0.144-0.342-0.03-0.515c1.115-1.695-1.848-4.539-2.825-5.838c-1.479-1.966-2.387-3.69-2.642-6.187  c-0.238-2.325,0.905-3.463-2.43-4.312c-0.707-0.18-1.884-0.414-2.484-0.919c-1.827-1.535-5.76-8.038-8.902-2.942  c-1.136,1.843-3.008,3.559-5.472,2.995c-0.697-0.16-1.115-1.055-1.422-1.473c-0.131-0.025-0.263-0.047-0.404-0.047  c-1.147,0-2.065,0.688-3.212,0.688c-2.524,0.229-5.964-0.688-7.8,1.835c-0.461,0.808-0.456,2.134-0.311,3.488  C21.276,30.383,23.429,29.816,27.366,30.454z M36.166,32.337c0.776-0.3,1.576-0.552,2.396-0.718c1.35-0.273,2.757-0.397,4.178-0.193  c-0.727-1.009-1.534-1.978-2.587-2.654l0.052-0.089c0.875,0.453,1.616,1.104,2.296,1.816c-0.134-0.58-0.213-1.176-0.202-1.792  c0.008-0.613,0.105-1.249,0.377-1.824c0.256-0.579,0.71-1.067,1.247-1.327l0.062,0.081c-0.774,0.885-0.862,1.968-0.738,3.027  c0.135,1.063,0.415,2.138,0.708,3.228l0.148,0.553c0.638,0.878,1.227,1.79,1.752,2.742c0.011-0.025,0.017-0.056,0.03-0.08  c0.327-0.614,0.775-1.081,1.258-1.472c0.973-0.769,2.062-1.308,3.218-1.637l0.044,0.093c-0.929,0.736-1.842,1.458-2.617,2.254  c-0.747,0.787-1.396,1.684-1.08,2.471c0.446,0.922,0.839,1.874,1.089,2.873c0.033,0.13,0.056,0.262,0.086,0.394  c0.098-0.219,0.212-0.432,0.351-0.63c0.35-0.515,0.922-0.836,1.481-1.101c0.564-0.263,1.202-0.407,1.825-0.342  c0.622,0.075,1.187,0.379,1.591,0.786l-0.061,0.083c-0.984-0.605-2.135-0.404-2.948,0.193c-0.425,0.294-0.718,0.727-1.112,1.063  c-0.297,0.258-0.607,0.533-0.952,0.806c0.186,1.083,0.26,2.186,0.158,3.279l-0.103,0.01c-0.421-1.456-0.814-2.863-1.306-4.246  c-0.307-0.878-0.599-1.765-0.922-2.642c-0.523-0.382-1.205-0.635-1.9-0.789c-0.752-0.167-1.537-0.233-2.317-0.213  c-0.779,0.026-1.566,0.114-2.307,0.365c-0.73,0.245-1.454,0.663-1.795,1.39l-0.093-0.044c0.276-0.792,1.018-1.334,1.762-1.665  c0.758-0.337,1.574-0.531,2.396-0.611c0.823-0.083,1.656-0.075,2.486,0.044c0.427,0.068,0.856,0.157,1.28,0.294  c-0.037-0.086-0.069-0.173-0.107-0.258c-0.514-1.141-1.122-2.241-1.799-3.298l-0.146-0.053c-1.433-0.535-3.099-0.526-4.689-0.323  c-0.801,0.11-1.6,0.263-2.383,0.483c-0.776,0.229-1.565,0.485-2.236,0.943l-0.062-0.083C34.622,32.988,35.397,32.648,36.166,32.337z   M37.48,22.709c1.048-1.667,2.75-2.048,4.579-2.224c2.262-0.218,3.847,0.802,5.101,2.54c1.755,2.432,3.52,2.211,5.775,3.602  c0.791,0.488,1.72,0.907,1.788,2.036c0.016,0.261,0.046,0.518,0.069,0.777c0.96-0.419,2.018-0.876,2.801-0.657  c0.957,0.27,1.405,2.293,2.389,1.958c1.07-0.366,1.531-0.427,2.679-0.282c1.646,0.21,4.571-1.179,5.601,0.822  c0.806,1.564,1.809,3.036,2.979,4.349c0.958-2.046,2.493-4,4.433-4.573c0.003-0.086-0.004-0.167,0.007-0.256  c0.229-1.605,1.836-1.835,2.295-3.44c1.146-5.048-2.295-4.588-5.048-6.194c-2.981-1.606-3.67-3.9-7.799-4.13  c-2.982-0.229-3.862,2.052-6.387-0.243c-2.064-2.293-2.128-6.641-7.321-5.504c-3.479,0.761-3.874,4.61-8.172,4.185  c-4.21-0.416-5.42,1.792-7.025,5.692c-0.275,0.825-0.543,1.751-0.68,2.676C36.452,23.578,37.156,23.225,37.48,22.709z   M72.654,24.885c0.739,0.128,1.432,0.415,2.055,0.76l-0.038,0.095c-1.347-0.442-2.821-0.502-3.971,0.097  c-0.582,0.297-0.986,0.791-1.415,1.231c-0.428,0.464-0.795,0.977-1.095,1.66h-0.103c-0.279-0.751-0.054-1.615,0.372-2.283  c0.431-0.695,1.185-1.113,1.918-1.37C71.123,24.814,71.914,24.772,72.654,24.885z M63.543,24.087  c0.273-0.837,0.872-1.555,1.555-2.127c0.687-0.579,1.546-0.94,2.408-1.031c0.867-0.082,1.711,0.068,2.497,0.318l-0.022,0.101  c-0.81-0.115-1.632-0.114-2.385,0.09c-0.757,0.181-1.428,0.577-1.935,1.126c-0.52,0.549-0.8,1.26-1.168,1.927  c-0.368,0.681-0.663,1.41-1.097,2.17l-0.102-0.024C63.167,25.79,63.261,24.914,63.543,24.087z M51.209,15.894  c1.294,0.082,2.608,0.332,3.838,0.845c1.226,0.522,2.351,1.324,3.247,2.348c0.898,1.012,1.631,2.234,1.915,3.574  c0.283,1.329,0.276,2.731-0.167,3.997l-0.104-0.014c-0.122-1.31-0.343-2.539-0.728-3.714c-0.38-1.165-0.821-2.321-1.558-3.321  c-0.738-0.99-1.711-1.816-2.83-2.402c-1.112-0.609-2.348-0.99-3.628-1.208L51.209,15.894z M48.169,18.451  c1.004-0.067,2.023,0.259,2.915,0.747c0.892,0.505,1.679,1.17,2.385,1.909c0.695,0.742,1.395,1.527,1.798,2.488  c0.396,0.94,0.683,2.022,0.419,3.055h-0.103c-0.311-0.955-0.758-1.769-1.238-2.586c-0.491-0.8-0.913-1.661-1.503-2.417  c-0.585-0.756-1.256-1.456-2.035-2.012c-0.766-0.566-1.656-1.006-2.642-1.08L48.169,18.451z M37.428,72.284  c-0.792-3.619,3.133-6.312,6.386-6.416c2.828-0.09,12.706,2.011,13.055-3.012c-3.872-3.107-11.537-2.802-12.186-8.881  c-0.29-2.715,0.255-6.204-1.637-8.476c-1.817-2.182-4.024-3.196-6.63-4.129c-5.302-1.9-6.498-3.726-9.182-8.288  c-0.996-1.694-4.773-1.57-6.771-0.842c0.002,0.011,0.003,0.023,0.005,0.034c-2.068,1.455-3.438,3.77-4.435,6.097  c-1.835,4.13-2.295,3.67-6.424,4.359C1.123,44.108,7.087,49.384,6.398,54.2c-0.687,3.901-2.064,2.753,0.918,5.966  c0.23,0,2.294,1.605,2.294,1.835c1.606,0.918,1.835,2.294,4.129,1.835c0.459,2.294,0.918,8.488,4.588,5.965  c1.148,1.605,0.917,5.047,3.441,3.9c1.147,1.836,3.67,1.836,5.506,3.211c2.293,1.836,0.917,2.754,4.817,2.754  c3.9-0.229,5.965-0.689,9.865,0.458c1.625,0.487,2.73,0.656,3.655,0.582C43.995,77.62,38.222,75.911,37.428,72.284z M36.807,62.085  l-0.228-0.089c-1.005-0.392-2.095-0.506-3.11-0.224c-1.019,0.272-1.943,0.941-2.635,1.835c-1.399,1.798-1.934,4.322-1.527,6.721  l-0.202,0.047c-0.394-1.181-0.536-2.465-0.417-3.739c0.12-1.271,0.486-2.557,1.203-3.685c0.702-1.127,1.766-2.111,3.093-2.617  c0.277-0.108,0.564-0.182,0.853-0.246c-1.581-1.147-3.045-2.451-4.484-3.78c-0.865-0.274-1.803-0.319-2.724-0.118  c-0.993,0.213-1.953,0.689-2.802,1.332c-0.849,0.645-1.614,1.437-2.212,2.353c-0.594,0.917-1.046,1.942-1.208,3.054L20.2,62.909  c-0.012-1.153,0.316-2.314,0.83-3.365c0.519-1.053,1.217-2.034,2.097-2.853c0.878-0.815,1.93-1.488,3.124-1.875  c0.392-0.129,0.801-0.209,1.216-0.267c-1.039-0.983-2.057-1.989-3.043-3.027l-1.081-0.68c-0.812-0.509-1.888-0.712-2.977-0.683  c-1.093,0.029-2.212,0.269-3.281,0.65c-1.064,0.393-2.11,0.897-3.029,1.586c-0.908,0.688-1.742,1.542-2.088,2.663l-0.2-0.051  c0.172-1.229,0.956-2.298,1.832-3.146c0.89-0.856,1.921-1.567,3.044-2.098c1.123-0.534,2.326-0.931,3.604-1.097  c0.521-0.063,1.062-0.077,1.608-0.045c-1.561-1.931-3.019-3.976-3.979-6.267l0.186-0.093c1.185,2.083,2.728,3.909,4.392,5.611  c-0.045-1.061,0.08-2.115,0.345-3.12c0.22-0.877,0.541-1.726,0.952-2.528c0.421-0.793,0.932-1.562,1.62-2.155l0.171,0.115  c-0.486,1.661-0.711,3.278-0.857,4.891c-0.068,0.806-0.083,1.604-0.096,2.389c-0.005,0.784,0,1.563,0.113,2.316l0.044,0.294  c0.932,0.862,1.883,1.705,2.86,2.519c-0.131-0.942-0.044-1.933,0.31-2.837c0.398-1.056,1.141-2.026,2.159-2.56  c0.997-0.563,2.275-0.573,3.141-0.022l-0.057,0.198c-0.969,0.013-1.747,0.384-2.291,0.949c-0.547,0.563-0.89,1.28-1.058,2.033  c-0.155,0.757-0.161,1.537-0.044,2.326c0.11,0.747,0.338,1.514,0.719,2.232c1.562,1.179,3.165,2.306,4.68,3.55  c0.037-0.967,0.356-1.894,0.84-2.679c0.521-0.836,1.238-1.523,2.075-1.986c0.83-0.451,1.844-0.684,2.726-0.409l-0.008,0.206  c-0.813,0.228-1.44,0.687-1.951,1.236c-0.514,0.544-0.905,1.179-1.166,1.833c-0.269,0.654-0.375,1.332-0.381,1.985  c0.004,0.655,0.134,1.308,0.407,1.953l0.021,0.05c0.356,0.316,0.713,0.629,1.063,0.955c1.004,0.935,2.008,1.891,2.89,2.989  l-0.131,0.159C39.918,63.938,38.343,63.044,36.807,62.085z M92.886,57.642c-0.229-2.753,2.523-3.899,0.918-7.34  c-1.377-2.522-2.983-2.522-5.506-3.67c-4.588-1.835-3.899-5.964-6.194-10.323c-0.756-1.513-1.523-2.718-2.741-3.5  c-4.515-0.706-5.52,1.155-6.161,2.865c-0.356,0.953-0.672,1.834-1.276,2.673c-3.301,4.579-9.899,6.676-12.261,11.863  c-1.797,3.95-1.65,7.63-0.676,11.738c0.376,1.583-0.278,2.772-1.261,3.918c-2.211,2.576-6.725,1.971-9.659,1.723  c-2.569-0.217-11.934,0.681-8.097,5.119c1.214,1.405,2.764,2.366,4.264,3.431c1.431,1.014,4.891,2.912,3.197,5.958l0.031,0.095  c2.753,9.177,10.323,6.424,17.893,5.964c1.376-0.229,3.212-0.229,4.589-0.458c3.441-0.688,2.753-2.065,5.506-3.671  c3.441-2.065,8.717-2.294,9.176-7.341c5.047,0.688,5.047-4.817,4.589-8.03c1.604,0,4.817-2.753,5.506-4.129  C95.868,61.312,93.115,60.395,92.886,57.642z M90.798,52.996c-1.024-0.18-2.071-0.246-3.104-0.252  c-1.035,0.002-2.064,0.084-3.069,0.266c-2.01,0.334-3.931,1.061-5.526,2.209l-0.396,0.285c-0.073,0.142-0.14,0.285-0.215,0.427  c-0.508,0.951-1.035,1.893-1.584,2.824c1.652-0.761,3.43-1.217,5.222-1.34c1.421-0.089,2.854,0.042,4.219,0.412  c1.361,0.365,2.664,0.995,3.721,1.897l-0.121,0.168c-2.293-1.494-5.109-1.832-7.707-1.421c-2.612,0.39-5.09,1.537-7.001,3.259  l-0.495,0.446c-1.034,1.547-2.125,3.057-3.294,4.512c1.649-0.479,3.361-0.701,5.054-0.624c1.53,0.056,3.037,0.359,4.467,0.845  c1.425,0.494,2.8,1.175,3.943,2.143l-0.121,0.167c-1.231-0.796-2.612-1.301-4.015-1.635c-1.408-0.327-2.854-0.434-4.275-0.385  c-2.833,0.115-5.588,1.048-7.805,2.703c-2.065,2.263-4.311,4.372-6.847,6.114c-0.194,0.134-0.394,0.261-0.591,0.394  c0.172-0.017,0.344-0.03,0.515-0.047c1.573-0.136,3.155-0.24,4.747-0.246c1.59-0.005,3.2,0.09,4.772,0.47  c1.54,0.365,3.176,1.093,4.033,2.487l-0.161,0.127c-0.999-1.2-2.524-1.67-4.012-1.861c-1.508-0.178-3.047-0.115-4.576,0.012  c-1.531,0.142-3.06,0.376-4.587,0.646c-1.528,0.265-3.044,0.636-4.581,0.927l-0.637,0.12c-2.161,1.097-4.41,2.006-6.73,2.664  l-0.081-0.19c0.947-0.566,1.887-1.138,2.814-1.717l-0.679,0.128l4.623-2.983c0.488-0.316,0.829-0.671,1.054-1.197  c0.243-0.52,0.313-1.201,0.327-1.919c-0.002-0.721-0.075-1.482-0.168-2.261c-0.095-0.777-0.217-1.578-0.242-2.406l0.2-0.054  c0.811,1.391,1.585,2.829,1.922,4.549c0.076,0.387,0.119,0.793,0.123,1.213c0.227-0.175,0.461-0.339,0.686-0.517  c2.295-1.824,4.56-3.702,6.685-5.738c0.528-1.792,0.555-3.58-0.072-5.251c-0.661-1.725-2.051-3.23-3.915-4.275l0.057-0.2  c2.212,0.127,4.419,1.521,5.586,3.648c0.58,1.045,0.905,2.261,0.894,3.467c0.063-0.07,0.132-0.135,0.194-0.205  c1.338-1.499,2.593-3.074,3.782-4.701l-0.001-0.034c-0.048-1.203-0.218-2.391-0.523-3.498c-0.301-1.107-0.695-2.146-1.276-3.05  c-0.582-0.903-1.389-1.644-2.39-2.202c-1.004-0.553-2.177-0.902-3.418-1.188V50.92c1.259-0.28,2.612-0.291,3.942,0.081  c1.329,0.362,2.593,1.193,3.494,2.312c0.907,1.117,1.439,2.465,1.687,3.795c0.097,0.521,0.148,1.04,0.183,1.558  c0.711-1.064,1.403-2.142,2.061-3.243c0.114-0.187,0.219-0.378,0.331-0.566l-0.038-0.15c-0.273-1.065-0.586-2.12-0.981-3.127  c-0.394-1.009-0.798-1.987-1.221-2.944c-0.422-0.959-0.912-1.875-1.504-2.756c-0.591-0.882-1.3-1.721-2.035-2.619l0.119-0.169  c1.096,0.398,2.128,0.997,3.029,1.792c0.909,0.79,1.665,1.763,2.255,2.805c0.595,1.044,0.989,2.17,1.256,3.305  c0.137,0.581,0.257,1.159,0.366,1.737c0.548-0.969,1.083-1.947,1.61-2.931c1.048-1.888,1.95-3.871,3.257-5.632l0.168,0.121  c-1.166,1.796-1.944,3.833-2.869,5.786c-0.455,0.998-0.92,1.993-1.398,2.983c1.476-0.597,3.031-0.938,4.578-1.038  c2.163-0.105,4.314,0.128,6.341,0.778L90.798,52.996z"/><text x="0" y="115" fill="#000000" font-size="5px" font-weight="bold" font-family="'Helvetica Neue', Helvetica, Arial-Unicode, Arial, Sans-serif">Created by Clockwise</text><text x="0" y="120" fill="#000000" font-size="5px" font-weight="bold" font-family="'Helvetica Neue', Helvetica, Arial-Unicode, Arial, Sans-serif">from the Noun Project</text></svg>