<svg xmlns="http://www.w3.org/2000/svg" xmlns:xlink="http://www.w3.org/1999/xlink" version="1.0" x="0px" y="0px" viewBox="0 0 100 125" enable-background="new 0 0 100 100" xml:space="preserve"><path d="M75.918,45.115c0,0,3.427-2.564,2.836-4.003c-0.593-1.438-4.847-0.464-4.847-0.464s2.693-3.366,0.684-4.204  c-2.012-0.839-12.38,7.987-12.38,7.987l-4.357,2.905c-1.096,0.439-1.779,0.308-1.119-1.274c2.744-2.617,5.544-4.486,5.544-4.486  S78.09,32.923,78.09,29.69c0-3.233-6.484-1.199-6.484-1.199s3.296-5.585,1.631-7.251c-1.669-1.668-7.049,2.177-7.049,2.177  s1.803-6.277-1.5-6.277c-1.197,0-2.949,2.179-4.696,4.957c1.41-5.607,2.503-11.523,1.242-12.782c-2.522-2.523-5.94,3.649-5.94,3.649  s-1.174-7.047-3.721-7.047c-2.548,0-4.295,6.784-4.295,6.784s-3.4-6.506-5.87-4.036c-1.278,1.278-0.43,7.648,0.686,13.498  c-2.348-3.697-4.753-6.854-6.121-6.854c-3.302,0-1.499,6.277-1.499,6.277s-5.381-3.844-7.049-2.178  c-1.667,1.667,1.629,7.251,1.629,7.251s-6.483-2.033-6.483,1.199c0,3.234,17.643,13.716,17.643,13.716s2.128,1.42,4.492,3.519  c0,0.001,0.001,0.002,0.002,0.003c2.743,3.074,0.663,2.727-1.817,1.413l-3.118-2.078c0,0-10.368-8.827-12.378-7.987  c-2.011,0.838,0.683,4.204,0.683,4.204s-4.254-0.974-4.847,0.464c-0.589,1.439,2.835,4.003,2.835,4.003s-4.467,0.408-3.643,2.378  c0.424,1.019,4.22,2.02,7.785,2.748c-2.635,0.468-4.977,1.093-5.295,1.865c-0.766,1.867,3.199,2.307,3.199,2.307  s-3.422,2.146-2.866,3.475c0.551,1.328,4.472,0.766,4.472,0.766s-2.654,3.189-0.828,3.939c1.828,0.752,11.847-6.781,11.847-6.781  s0.644-0.433,1.631-0.985c-1.012,1.512-1.791,2.933-1.563,3.456c0.569,1.303,2.73-0.485,2.73-0.485s-0.591,2.781,0.354,3.152  c0.943,0.372,2.579-1.885,2.579-1.885s0.312,2.904,1.585,2.351c0.623-0.271,1.205-2.492,1.637-4.698  c-0.581,8.953-2.707,25.801-10.441,36.918c-0.434,0.622-0.28,1.479,0.343,1.912c0.239,0.166,0.512,0.246,0.783,0.246  c0.435,0,0.861-0.205,1.128-0.589c4.801-6.9,8.137-16.514,9.915-28.572c0.328-2.224,0.568-4.316,0.747-6.212  c0.249,1.983,0.621,3.638,1.169,3.953c1.514,0.868,2.304-2.712,2.304-2.712s1.729,3.043,2.957,2.711  c1.229-0.333,0.876-3.884,0.876-3.884s2.455,2.531,3.342,0.984c0.452-0.786-0.909-3.594-2.353-6.157  c0.495,0.298,0.791,0.496,0.791,0.496s10.019,7.533,11.847,6.781c1.826-0.75-0.829-3.939-0.829-3.939s3.921,0.562,4.474-0.766  c0.556-1.329-2.865-3.475-2.865-3.475s3.964-0.439,3.197-2.307c-0.318-0.771-2.66-1.396-5.295-1.865  c3.565-0.728,7.361-1.729,7.787-2.748C80.384,45.523,75.918,45.115,75.918,45.115z"/><text x="0" y="115" fill="#000000" font-size="5px" font-weight="bold" font-family="'Helvetica Neue', Helvetica, Arial-Unicode, Arial, Sans-serif">Created by Ola Möller</text><text x="0" y="120" fill="#000000" font-size="5px" font-weight="bold" font-family="'Helvetica Neue', Helvetica, Arial-Unicode, Arial, Sans-serif">from the Noun Project</text></svg>